/* XPM */
static char * icon_folder_home_20x20_xpm[] = {
"20 20 141 2",
"  	c None",
". 	c #6C6747",
"+ 	c #6F6748",
"@ 	c #6E6847",
"# 	c #6C6647",
"$ 	c #605C3F",
"% 	c #F5F4D6",
"& 	c #D7D0AE",
"* 	c #C8C299",
"= 	c #D3CBAA",
"- 	c #5E583D",
"; 	c #6D6848",
"> 	c #FDF9DE",
", 	c #DED9B5",
"' 	c #CAC39D",
") 	c #D6D0AF",
"! 	c #C9C29A",
"~ 	c #CEC8A1",
"{ 	c #534D36",
"] 	c #514B34",
"^ 	c #4F4D34",
"/ 	c #4E4933",
"( 	c #2D2B1E",
"_ 	c #706A49",
": 	c #FDFDFC",
"< 	c #F0EED3",
"[ 	c #E7E3C6",
"} 	c #F3EED8",
"| 	c #EEEBCD",
"1 	c #F9F4D8",
"2 	c #F9F4DA",
"3 	c #EBE5C8",
"4 	c #F2EDCF",
"5 	c #E8E4C5",
"6 	c #ECE9CB",
"7 	c #E4E0C1",
"8 	c #C6BF97",
"9 	c #504D34",
"0 	c #6F6A4A",
"a 	c #F7F2D4",
"b 	c #D8D3B3",
"c 	c #C7C39C",
"d 	c #CAC6A1",
"e 	c #D2CDA5",
"f 	c #CCC69F",
"g 	c #D0CBA3",
"h 	c #CAC39B",
"i 	c #BFBA90",
"j 	c #CDC6A6",
"k 	c #CFD1A6",
"l 	c #CDC99E",
"m 	c #A9A172",
"n 	c #4E4A32",
"o 	c #E8E3C5",
"p 	c #CCC79D",
"q 	c #B7B596",
"r 	c #30436F",
"s 	c #5976A9",
"t 	c #3F516F",
"u 	c #BDB99F",
"v 	c #C5BF96",
"w 	c #C5C096",
"x 	c #BEB98F",
"y 	c #BBB98C",
"z 	c #A69F6D",
"A 	c #4D4A32",
"B 	c #E9E5C6",
"C 	c #A7A695",
"D 	c #48608B",
"E 	c #86A4D8",
"F 	c #92B2E3",
"G 	c #7493C7",
"H 	c #283D6D",
"I 	c #A09F8C",
"J 	c #C3BD92",
"K 	c #B3B08C",
"L 	c #81847B",
"M 	c #283651",
"N 	c #535A58",
"O 	c #F3EFD2",
"P 	c #465164",
"Q 	c #6280B8",
"R 	c #59729F",
"S 	c #384C71",
"T 	c #516B9A",
"U 	c #799AD3",
"V 	c #6480B4",
"W 	c #324776",
"X 	c #364C74",
"Y 	c #667FAC",
"Z 	c #5B7CBF",
"` 	c #404950",
" .	c #E4DFBF",
"..	c #717771",
"+.	c #575F64",
"@.	c #A2A188",
"#.	c #8A8C79",
"$.	c #71776E",
"%.	c #4C5A70",
"&.	c #455C88",
"*.	c #6685C1",
"=.	c #6A8AC5",
"-.	c #6079A3",
";.	c #424B57",
">.	c #8C8965",
",.	c #443F2C",
"'.	c #F2EED1",
").	c #CEC89F",
"!.	c #C7C298",
"~.	c #BEB98D",
"{.	c #C3BB94",
"].	c #C6C197",
"^.	c #7C7F74",
"/.	c #324361",
"(.	c #3B4E6F",
"_.	c #6C716C",
":.	c #C2BB91",
"<.	c #4D4732",
"[.	c #C2BA93",
"}.	c #BCB489",
"|.	c #CEC9A1",
"1.	c #C0BB91",
"2.	c #CDC69E",
"3.	c #BFB790",
"4.	c #C2BC93",
"5.	c #BBB68C",
"6.	c #968E5F",
"7.	c #48432F",
"8.	c #7F7F7F",
"9.	c #C5BF94",
"0.	c #ACA475",
"a.	c #ABA374",
"b.	c #A59E6C",
"c.	c #726B3F",
"d.	c #49432E",
"e.	c #010000",
"f.	c #514D34",
"g.	c #504B33",
"h.	c #585339",
"i.	c #44412B",
"j.	c #0F0C09",
"                                        ",
"                                        ",
"                                        ",
"        . + @ #                         ",
"      $ % & * = -                       ",
"    ; > , ' ) ! ~ { ] ^ ^ ^ ^ / (       ",
"    _ : < [ } | 1 2 3 4 5 6 7 8 9       ",
"    0 a b c d e f g h i j k l m n       ",
"    0 o p q r s t u v w x h y z A       ",
"    0 B C D E F G H I J K L M N A       ",
"    0 O P Q R S T U V W X Y Z ` A       ",
"    0  ...+.@.#.$.%.&.*.=.-.;.>.,.      ",
"    0 '.).!.~.i {.].^./.(._.:.z <.      ",
"    0 o ).[.p }.|.1.2.3.4.5.! 6.7.8.8.8.",
"    0 9.0.a.a.b.b.b.b.b.b.b.b.c.d.8.8.  ",
"    e.f.g.g.g.h.h.h.h.h.h.h.h.i.j.8.    ",
"                                        ",
"                                        ",
"                                        ",
"                                        "};
