/* XPM */
static char * icon_folder_parent_20x20_xpm[] = {
"20 20 140 2",
"  	c None",
". 	c #6C6747",
"+ 	c #6F6748",
"@ 	c #6E6847",
"# 	c #6C6647",
"$ 	c #605C3F",
"% 	c #F5F4D6",
"& 	c #D7D0AE",
"* 	c #C8C299",
"= 	c #D3CBAA",
"- 	c #5E583D",
"; 	c #6D6848",
"> 	c #FDF9DE",
", 	c #DED9B5",
"' 	c #C9C29B",
") 	c #495360",
"! 	c #B0AA89",
"~ 	c #CEC8A1",
"{ 	c #534D36",
"] 	c #514B34",
"^ 	c #4F4D34",
"/ 	c #4E4933",
"( 	c #2D2B1E",
"_ 	c #706A49",
": 	c #FDFDFC",
"< 	c #F0EED3",
"[ 	c #5F6874",
"} 	c #9BB4E6",
"| 	c #444D53",
"1 	c #F6F2D6",
"2 	c #F9F4DA",
"3 	c #EBE5C8",
"4 	c #F2EDCF",
"5 	c #E8E4C5",
"6 	c #ECE9CB",
"7 	c #E4E0C1",
"8 	c #C6BF97",
"9 	c #504D34",
"0 	c #6F6A4A",
"a 	c #F7F2D4",
"b 	c #66738A",
"c 	c #A0C0EF",
"d 	c #87A7DE",
"e 	c #5470AA",
"f 	c #3C403F",
"g 	c #DAD5B4",
"h 	c #CAC39B",
"i 	c #BFBA90",
"j 	c #CDC6A6",
"k 	c #CFD1A6",
"l 	c #CDC99E",
"m 	c #A9A172",
"n 	c #4E4A32",
"o 	c #293D5F",
"p 	c #87A3D9",
"q 	c #89A8E0",
"r 	c #86A4D3",
"s 	c #526DA7",
"t 	c #385390",
"u 	c #3C4140",
"v 	c #C5BF96",
"w 	c #C5C096",
"x 	c #BEB98F",
"y 	c #BBB98C",
"z 	c #A69F6D",
"A 	c #4D4A32",
"B 	c #76786B",
"C 	c #5B6772",
"D 	c #3C517B",
"E 	c #7092D1",
"F 	c #23304B",
"G 	c #5E5F56",
"H 	c #656558",
"I 	c #CBC49C",
"J 	c #C3BD92",
"K 	c #CAC39D",
"L 	c #C8C399",
"M 	c #C3BD94",
"N 	c #F3EFD2",
"O 	c #9F9B79",
"P 	c #4A5C76",
"Q 	c #7292CE",
"R 	c #1E2F4D",
"S 	c #CFCAA4",
"T 	c #C6BF99",
"U 	c #C1BB92",
"V 	c #C4BF95",
"W 	c #D1CAA2",
"X 	c #968E5F",
"Y 	c #E4DFBF",
"Z 	c #CCC69D",
"` 	c #56667C",
" .	c #6787C6",
"..	c #263448",
"+.	c #495259",
"@.	c #4D5862",
"#.	c #515D6D",
"$.	c #5F6E83",
"%.	c #5A6673",
"&.	c #BDB78C",
"*.	c #A59E6C",
"=.	c #443F2C",
"-.	c #F2EED1",
";.	c #CEC89F",
">.	c #515D6B",
",.	c #5778BA",
"'.	c #5B7CBF",
").	c #5A79B7",
"!.	c #5674B0",
"~.	c #516DA8",
"{.	c #4D679F",
"].	c #4B545E",
"^.	c #8E8A6C",
"/.	c #4D4732",
"(.	c #E8E3C5",
"_.	c #636965",
":.	c #2D3A50",
"<.	c #2B384D",
"[.	c #28364E",
"}.	c #22314C",
"|.	c #24334D",
"1.	c #4F5962",
"2.	c #827E64",
"3.	c #48432F",
"4.	c #7F7F7F",
"5.	c #C5BF94",
"6.	c #ACA475",
"7.	c #979069",
"8.	c #817B5B",
"9.	c #6D684B",
"0.	c #7E7857",
"a.	c #726B3F",
"b.	c #49432E",
"c.	c #010000",
"d.	c #514D34",
"e.	c #504B33",
"f.	c #47432E",
"g.	c #585339",
"h.	c #44412B",
"i.	c #0F0C09",
"                                        ",
"                                        ",
"                                        ",
"        . + @ #                         ",
"      $ % & * = -                       ",
"    ; > , ' ) ! ~ { ] ^ ^ ^ ^ / (       ",
"    _ : < [ } | 1 2 3 4 5 6 7 8 9       ",
"    0 a b c d e f g h i j k l m n       ",
"    0 o p q r s t u v w x h y z A       ",
"    0 B C D E F G H I J K L M z A       ",
"    0 N O P Q R S T i U i V W X A       ",
"    0 Y Z `  ...+.@.#.#.$.%.&.*.=.      ",
"    0 -.;.>.,.,.'.).!.~.{.].^.z /.      ",
"    0 (.;._.:.<.[.}.|.}.}.1.2.X 3.4.4.4.",
"    0 5.6.7.8.9.9.9.9.9.9.0.0.a.b.4.4.  ",
"    c.d.e.e.e.f.f.f.f.f.f.g.g.h.i.4.    ",
"                                        ",
"                                        ",
"                                        ",
"                                        "};
