/* XPM */
static char * icon_terminal2_32x32_xpm[] = {
"32 32 148 2",
"  	c None",
". 	c #919191",
"+ 	c #8B8B8B",
"@ 	c #878787",
"# 	c #858585",
"$ 	c #818181",
"% 	c #797979",
"& 	c #838383",
"* 	c #7F7F7F",
"= 	c #7E7E7E",
"- 	c #737373",
"; 	c #7C7C7C",
"> 	c #575757",
", 	c #454545",
"' 	c #404040",
") 	c #3D3D3D",
"! 	c #3A3A3A",
"~ 	c #414141",
"{ 	c #363636",
"] 	c #727272",
"^ 	c #2F2F2F",
"/ 	c #0F0F0F",
"( 	c #0E0E0E",
"_ 	c #111111",
": 	c #0B0B0B",
"< 	c #1D1D1D",
"[ 	c #343434",
"} 	c #686868",
"| 	c #323144",
"1 	c #363447",
"2 	c #353447",
"3 	c #353346",
"4 	c #333245",
"5 	c #323043",
"6 	c #302F42",
"7 	c #2F2E41",
"8 	c #2C2B3E",
"9 	c #262536",
"0 	c #252435",
"a 	c #282538",
"b 	c #292639",
"c 	c #676767",
"d 	c #21FC00",
"e 	c #28CF0E",
"f 	c #23E604",
"g 	c #313043",
"h 	c #2E2D40",
"i 	c #2B2A3D",
"j 	c #2A273A",
"k 	c #262437",
"l 	c #262435",
"m 	c #282637",
"n 	c #25BB0D",
"o 	c #23E706",
"p 	c #343245",
"q 	c #312F42",
"r 	c #302E41",
"s 	c #2A283B",
"t 	c #292839",
"u 	c #272437",
"v 	c #272536",
"w 	c #21E603",
"x 	c #22E605",
"y 	c #283339",
"z 	c #25CD0C",
"A 	c #21E504",
"B 	c #2B871B",
"C 	c #282738",
"D 	c #2B2A3C",
"E 	c #2B283B",
"F 	c #2D2B3E",
"G 	c #2B293C",
"H 	c #282639",
"I 	c #242334",
"J 	c #343247",
"K 	c #2D2C3F",
"L 	c #272637",
"M 	c #272538",
"N 	c #252336",
"O 	c #232233",
"P 	c #222132",
"Q 	c #242233",
"R 	c #373737",
"S 	c #333146",
"T 	c #292738",
"U 	c #232334",
"V 	c #252334",
"W 	c #212130",
"X 	c #242132",
"Y 	c #5B5B5B",
"Z 	c #393939",
"` 	c #312F44",
" .	c #2A293C",
"..	c #242435",
"+.	c #232231",
"@.	c #232132",
"#.	c #626262",
"$.	c #3B3B3B",
"%.	c #2C2C2C",
"&.	c #606060",
"*.	c #262538",
"=.	c #262336",
"-.	c #2B2B2B",
";.	c #2A2A3B",
">.	c #242235",
",.	c #262334",
"'.	c #2A2A2A",
").	c #535353",
"!.	c #232323",
"~.	c #2D2D2D",
"{.	c #272727",
"].	c #212121",
"^.	c #1E1E1E",
"/.	c #181818",
"(.	c #191919",
"_.	c #0D0D0D",
":.	c #0A0A0A",
"<.	c #080808",
"[.	c #070707",
"}.	c #090909",
"|.	c #050505",
"1.	c #060606",
"2.	c #222222",
"3.	c #040404",
"4.	c #898989",
"5.	c #777777",
"6.	c #707070",
"7.	c #6B6B6B",
"8.	c #353535",
"9.	c #3F3F3F",
"0.	c #010101",
"a.	c #151515",
"b.	c #020202",
"c.	c #434343",
"d.	c #5D5D5D",
"e.	c #565656",
"f.	c #262626",
"g.	c #4E4E4E",
"h.	c #1B1B1B",
"i.	c #4F4F4F",
"j.	c #5C5C5C",
"k.	c #252525",
"l.	c #1A1A1A",
"m.	c #4B4B4B",
"n.	c #0C0C0C",
"o.	c #1F1F1F",
"p.	c #161616",
"q.	c #121212",
"                                                                ",
"                                                                ",
"                                                                ",
"                                                                ",
"            . + @ @ @ # # # # # # $ % & * & & = * -             ",
"          ; > , ' ) ) ) ) ) ) ) ) ) ! ) ) ~ ~ ) ) ) {           ",
"          ] ^ / ( _ / / / / / : / _ / _ _ _ _ _ < [ ^           ",
"          } [ | 1 2 3 4 5 6 6 6 6 6 7 8 9 0 0 a b [ ^           ",
"          c [ 2 1 d e 4 f g g g 7 h i j k 0 l k m [ ^           ",
"          c [ 2 1 n o p q r r h 8 s t b k k l u v [ ^           ",
"          } [ 2 1 w 4 g x y z A B j C C 9 0 l l l [ ^           ",
"          } [ 2 2 4 | r i i i D E j C C 9 l l l l [ ^           ",
"          } [ 2 2 p 7 F G G G G E C C H 9 0 I l l [ ^           ",
"          } [ J 4 K C L b L L M 9 0 0 N O O P Q O [ ^           ",
"          } R S | 8 T 9 0 0 0 0 U I l V Q Q W X Q [ ^           ",
"          Y Z ` g  .9 0 ........N I l O +.@.W X +.[ ^           ",
"          #.$. .C M l l I I I I N l l V Q Q @.Q V [ %.          ",
"          &.$.G C *.l I =.=.=.=.0 l l I O O Q V l [ -.          ",
"          &.$.;.C *.l l u u u u v l l l >.>.O ,.k [ '.          ",
"          &.$.;.C *.l l u u u u v l l l >.>.O ,.k [ '.          ",
"          ).) [ [ [ [ [ [ [ [ [ [ [ [ [ [ [ [ [ [ ^ !.          ",
"          { ~.{.{.{.{.{.{.{.{.{.{.{.{.{.!.].^.^./.(._.          ",
"            : :.:.:.:.<.[.[.[.[.[.<.}.}.}.: :.[.|.1.* * * * * * ",
"                          2._ ( 1.|.|.|.3.* * * * * * * * *     ",
"      4.5.- - - - - - - - - - - - - - - - - - 6.6.6.7.7.8.      ",
"    ; 9.] |.).0.] |.).0.] |.).0.] |.).0.] |.).0.] |.).'.a.      ",
"  4.' ] |.).0.] |.).0.] |.).0.] |.).0.] |.).0.] |.).[ _ b.*     ",
"4.c.] |.).0.] |.).0.] |.).0.] |.).0.] |.).0.] |.).[ < b.* *     ",
"d.e.f.g.h.d.f.i.h.j.k.g.h.).!.g.l.> !.g.l.> !.m., 2.<.n.*       ",
"^ o.2.2.2.2.2.o.h.h.h.h.h././././././././././.p.q.}.b.          ",
"                                                                ",
"                                                                "};
