/* XPM */
static char * icon_device_block_32x32_xpm[] = {
"32 32 155 2",
"  	c None",
". 	c #504B4B",
"+ 	c #2E2C2C",
"@ 	c #474343",
"# 	c #4F4C4C",
"$ 	c #555555",
"% 	c #A2A2A2",
"& 	c #595858",
"* 	c #5C5858",
"= 	c #494646",
"- 	c #A8A7A7",
"; 	c #ECECEC",
"> 	c #E6E6E6",
", 	c #D4D4D4",
"' 	c #555151",
") 	c #2F2D2D",
"! 	c #949393",
"~ 	c #F6F6F6",
"{ 	c #E5E5E5",
"] 	c #D6D6D6",
"^ 	c #DDDDDD",
"/ 	c #DCDCDC",
"( 	c #939191",
"_ 	c #413D3D",
": 	c #4A4747",
"< 	c #B0AFAF",
"[ 	c #EBEBEB",
"} 	c #ACABAB",
"| 	c #5D5959",
"1 	c #403E3E",
"2 	c #8F8E8E",
"3 	c #D1D1D1",
"4 	c #949292",
"5 	c #514C4C",
"6 	c #333131",
"7 	c #EDEDED",
"8 	c #E0E0E0",
"9 	c #DADADA",
"0 	c #CACACA",
"a 	c #A2A1A1",
"b 	c #514E4E",
"c 	c #ABAAAA",
"d 	c #F1F1F1",
"e 	c #D8D8D8",
"f 	c #E1E1E1",
"g 	c #AAA6A6",
"h 	c #565252",
"i 	c #343232",
"j 	c #BABABA",
"k 	c #F7F7F7",
"l 	c #DBDBDB",
"m 	c #D5D5D5",
"n 	c #B5B3B3",
"o 	c #3A3636",
"p 	c #545151",
"q 	c #B8B8B8",
"r 	c #EEEEEE",
"s 	c #E2E2E2",
"t 	c #070707",
"u 	c #B2B0B0",
"v 	c #F3F3F3",
"w 	c #DEDEDE",
"x 	c #9F9C9C",
"y 	c #434141",
"z 	c #EAEAEA",
"A 	c #DFDFDF",
"B 	c #D7D7D7",
"C 	c #D0D0D0",
"D 	c #D4D3D3",
"E 	c #575252",
"F 	c #535050",
"G 	c #B2B1B1",
"H 	c #A9A7A7",
"I 	c #5F5B5B",
"J 	c #898888",
"K 	c #7D7B7B",
"L 	c #5B5555",
"M 	c #171616",
"N 	c #D2D2D2",
"O 	c #969696",
"P 	c #353131",
"Q 	c #787575",
"R 	c #D3D3D3",
"S 	c #BBBBBB",
"T 	c #545454",
"U 	c #514B4B",
"V 	c #989696",
"W 	c #AFAFAF",
"X 	c #8E8D8D",
"Y 	c #5E5959",
"Z 	c #C6C4C4",
"` 	c #B6B6B6",
" .	c #B7B7B7",
"..	c #A3A2A2",
"+.	c #4A4646",
"@.	c #918E8E",
"#.	c #C2C2C2",
"$.	c #CFCFCF",
"%.	c #C1C1C1",
"&.	c #828181",
"*.	c #363333",
"=.	c #A5A2A2",
"-.	c #BDBDBD",
";.	c #BFBFBF",
">.	c #989797",
",.	c #373434",
"'.	c #A8A5A5",
").	c #C2C1C1",
"!.	c #C3C3C3",
"~.	c #9F9E9E",
"{.	c #232121",
"].	c #818181",
"^.	c #464242",
"/.	c #9D9B9B",
"(.	c #C4C3C3",
"_.	c #BEBEBE",
":.	c #939292",
"<.	c #302F2F",
"[.	c #808080",
"}.	c #7F7F7F",
"|.	c #393535",
"1.	c #9A9797",
"2.	c #ADADAD",
"3.	c #8B8A8A",
"4.	c #242222",
"5.	c #3D3A3A",
"6.	c #8D8A8A",
"7.	c #B8B7B7",
"8.	c #CDCDCD",
"9.	c #CECECE",
"0.	c #7D7D7D",
"a.	c #403D3D",
"b.	c #A5A3A3",
"c.	c #B4B4B4",
"d.	c #9C9B9B",
"e.	c #3B3838",
"f.	c #828282",
"g.	c #282626",
"h.	c #8F8C8C",
"i.	c #BDBBBB",
"j.	c #C0C0C0",
"k.	c #807F7F",
"l.	c #272525",
"m.	c #2D2B2B",
"n.	c #A3A1A1",
"o.	c #B9B7B7",
"p.	c #C7C6C6",
"q.	c #AEAEAE",
"r.	c #504E4E",
"s.	c #878585",
"t.	c #474545",
"u.	c #464444",
"v.	c #3D3939",
"w.	c #343131",
"x.	c #343030",
"                                                                ",
"                            . + @                               ",
"                          # $ % & *                             ",
"                        = - ; > , - '                           ",
"                      ) ! ~ { ] ^ / ( _                         ",
"                    : < [ > ] ] ] / ] } |                       ",
"                  1 2 [ / ] ] ] ] ] ] 3 4 5                     ",
"                6 - 7 8 ] ] ] ] ] ] ] 9 0 a _                   ",
"              b c d ^ ] ] ] ] ] ] ] ] ] e f g h                 ",
"            i j k l ] ] ] ] ] ] ] ] ] ] ] m ^ n o               ",
"          p q r s ] ] t t t t t t t ] ] ] ] e e u '             ",
"        1 a v w ] ] ] t t ] ] ] t t t ] ] ] ] , 9 x 5           ",
"      y ] z A ] ] ] ] t t ] ] ] ] t t ] ] ] ] ] B C D E         ",
"    F G z 8 ] ] ] ] ] t t ] ] ] ] t t ] ] ] ] ] ] ] , H F       ",
"  I J > / ] ] ] ] ] ] t t ] ] ] t t ] ] ] ] ] ] ] ] B 3 K L     ",
"  M q w ] ] ] ] ] ] ] t t t t t t ] ] ] ] ] ] ] ] ] ] N O P     ",
"  o Q j R ] ] ] ] ] ] t t ] ] ] t t ] ] ] ] ] ] ] ] R S T U     ",
"    ' V S 3 ] ] ] ] ] t t ] ] ] ] t t ] ] ] ] ] ] R W X i       ",
"      Y Z ` 3 ] ] ] ] t t ] ] ] ] t t ] ] ] ] ] R  ...i         ",
"        +.@.#.C ] ] ] t t ] ] ] t t t ] ] ] ] $.%.&.*.          ",
"          +.=.-.R ] ] t t t t t t t ] ] ] ] R ;.>.)             ",
"            ,.'.).$.] ] ] ] ] ] ] ] ] ] ] C !.~.{.].            ",
"              ^./.(.3 ] ] ] ] ] ] ] ] ] R _.:.<.[.}.}.}.        ",
"                |.1.} 3 ] ] ] ] ] ] ] C 2.3.4.[.}.}.}.}.}.}.    ",
"                  5.6.7.8.] ] ] ] ] 9.2.0.i ].}.}.}.}.}.}.}.}.}.",
"                    a.b.n C ] ] ] N c.d.e.f.}.}.}.}.}.}.}.}.}.  ",
"                      g.h.i.C ] R j.k.l.}.}.}.}.}.}.}.}.        ",
"                        m.n.o.p.q.:.l.[.}.}.}.}.                ",
"                          # r.s.t.u.[.}.}.                      ",
"                            v.w.x.                              ",
"                                                                ",
"                                                                "};
