/* XPM */
static char * icon_help_48x48_xpm[] = {
"48 48 615 2",
"  	c None",
". 	c #706E1D",
"+ 	c #858229",
"@ 	c #828029",
"# 	c #88852E",
"$ 	c #807D28",
"% 	c #827E28",
"& 	c #7F7D27",
"* 	c #838025",
"= 	c #7F7C21",
"- 	c #696718",
"; 	c #7A7724",
"> 	c #ADAA42",
", 	c #D6D373",
"' 	c #D9D575",
") 	c #E0DC7C",
"! 	c #E3DF7D",
"~ 	c #E6E177",
"{ 	c #E4DF70",
"] 	c #E4E06D",
"^ 	c #E5E16C",
"/ 	c #E6E16C",
"( 	c #E6E26C",
"_ 	c #E4E06C",
": 	c #E3DE6C",
"< 	c #E3DE6B",
"[ 	c #E3E069",
"} 	c #E2DE68",
"| 	c #E0DC65",
"1 	c #E0DB64",
"2 	c #D0CC4C",
"3 	c #C2BD42",
"4 	c #B3AE31",
"5 	c #A29D2E",
"6 	c #6F6C1F",
"7 	c #7D7B23",
"8 	c #D3CF65",
"9 	c #E4E07B",
"0 	c #EAE789",
"a 	c #EEEA93",
"b 	c #F2EF97",
"c 	c #F3F093",
"d 	c #F2F08F",
"e 	c #F2EF8B",
"f 	c #F1EF86",
"g 	c #EFED82",
"h 	c #F0ED82",
"i 	c #F0ED84",
"j 	c #F0ED83",
"k 	c #F0EE84",
"l 	c #F0EE83",
"m 	c #F0ED7D",
"n 	c #EFEC74",
"o 	c #ECE96E",
"p 	c #E6E367",
"q 	c #E8E56C",
"r 	c #E3E063",
"s 	c #DBD856",
"t 	c #CDC83D",
"u 	c #BDB936",
"v 	c #B4B033",
"w 	c #71701D",
"x 	c #7D7A24",
"y 	c #DFDB77",
"z 	c #EAE688",
"A 	c #EFEB8B",
"B 	c #F3F09A",
"C 	c #F3F192",
"D 	c #F0ED86",
"E 	c #EBE778",
"F 	c #E7E267",
"G 	c #E6E265",
"H 	c #E5E263",
"I 	c #E5E161",
"J 	c #E5E262",
"K 	c #E6E263",
"L 	c #E6E364",
"M 	c #E4E05E",
"N 	c #E3E05D",
"O 	c #E2DE5C",
"P 	c #E2DD5B",
"Q 	c #E3DD5A",
"R 	c #E1DC58",
"S 	c #DEDB55",
"T 	c #E1DE5C",
"U 	c #DDDC57",
"V 	c #DBDA53",
"W 	c #DDDB56",
"X 	c #C6C33D",
"Y 	c #BEBA37",
"Z 	c #B6B131",
"` 	c #716E1A",
" .	c #777322",
"..	c #CECA5A",
"+.	c #E5E17F",
"@.	c #ECE887",
"#.	c #F2F08C",
"$.	c #F0ED8E",
"%.	c #EEEB7E",
"&.	c #EAE671",
"*.	c #E5E064",
"=.	c #E1DB58",
"-.	c #DED954",
";.	c #DCD852",
">.	c #DCD850",
",.	c #DDD952",
"'.	c #DDD953",
").	c #DDDA53",
"!.	c #DBD84F",
"~.	c #DBD74F",
"{.	c #DAD74E",
"].	c #DAD64E",
"^.	c #DBD64E",
"/.	c #DAD64D",
"(.	c #D9D64D",
"_.	c #DBD850",
":.	c #D8D74E",
"<.	c #D7D74D",
"[.	c #DBD952",
"}.	c #CFCC44",
"|.	c #C5C13C",
"1.	c #C0BC37",
"2.	c #BBB737",
"3.	c #726F1F",
"4.	c #6D6A20",
"5.	c #C3C054",
"6.	c #DFDB79",
"7.	c #EDEA87",
"8.	c #F0EE88",
"9.	c #EFED81",
"0.	c #E8E36C",
"a.	c #E4E061",
"b.	c #E0DB58",
"c.	c #DBD64F",
"d.	c #DAD54E",
"e.	c #D5D147",
"f.	c #D2CE43",
"g.	c #D3CF42",
"h.	c #D4D044",
"i.	c #D3D044",
"j.	c #D3D043",
"k.	c #D3CF41",
"l.	c #D3D042",
"m.	c #D4D043",
"n.	c #D3D144",
"o.	c #D3D244",
"p.	c #D4D347",
"q.	c #D2CF48",
"r.	c #CFCB45",
"s.	c #C5C03C",
"t.	c #BBB83D",
"u.	c #9D9A31",
"v.	c #706E22",
"w.	c #C7C352",
"x.	c #E1DD72",
"y.	c #F3F08C",
"z.	c #EDEA7A",
"A.	c #E8E46B",
"B.	c #E1DA57",
"C.	c #D8D34C",
"D.	c #D3CF44",
"E.	c #CECC3E",
"F.	c #CBCB3C",
"G.	c #C6C438",
"H.	c #C5C234",
"I.	c #C8C537",
"J.	c #C5C237",
"K.	c #C4C136",
"L.	c #C3BF33",
"M.	c #C3C033",
"N.	c #C3C133",
"O.	c #C6C336",
"P.	c #C8C437",
"Q.	c #CDC73B",
"R.	c #CBC639",
"S.	c #CECB3C",
"T.	c #D1CE3F",
"U.	c #D1CE3E",
"V.	c #D4D041",
"W.	c #D4CF45",
"X.	c #D0CC49",
"Y.	c #C2BC34",
"Z.	c #B0AC30",
"`.	c #68661A",
" +	c #74722A",
".+	c #CDC858",
"++	c #E5E26F",
"@+	c #F1EF82",
"#+	c #E9E56B",
"$+	c #E2DC5B",
"%+	c #DAD44C",
"&+	c #D1CE42",
"*+	c #CECC3F",
"=+	c #CBC83C",
"-+	c #C3C034",
";+	c #C3BF32",
">+	c #C2BD31",
",+	c #C1BC30",
"'+	c #BFBB30",
")+	c #BEB930",
"!+	c #BEBA30",
"~+	c #BEBA31",
"{+	c #BFBB31",
"]+	c #BEBA2F",
"^+	c #C0BC30",
"/+	c #C9C333",
"(+	c #CBC538",
"_+	c #CCC638",
":+	c #CDC738",
"<+	c #CFCC3B",
"[+	c #D1CD3C",
"}+	c #D1CD3E",
"|+	c #D1CB43",
"1+	c #C4BF33",
"2+	c #B1AB2E",
"3+	c #716F1E",
"4+	c #74722C",
"5+	c #CDC857",
"6+	c #E5E06D",
"7+	c #EFED7B",
"8+	c #E5E162",
"9+	c #DDD852",
"0+	c #D7D147",
"a+	c #CDCB3D",
"b+	c #C8C63A",
"c+	c #C3C237",
"d+	c #AEAA2C",
"e+	c #7A771A",
"f+	c #787518",
"g+	c #757018",
"h+	c #747017",
"i+	c #737018",
"j+	c #727018",
"k+	c #757019",
"l+	c #7C7819",
"m+	c #A8A326",
"n+	c #C2BC33",
"o+	c #C5C033",
"p+	c #C8C432",
"q+	c #CCC839",
"r+	c #CEC938",
"s+	c #CFC93A",
"t+	c #CEC73C",
"u+	c #C3BD30",
"v+	c #B4B031",
"w+	c #6F6C1D",
"x+	c #716F2A",
"y+	c #C9C654",
"z+	c #EEEB71",
"A+	c #E0DA56",
"B+	c #D8D148",
"C+	c #D6D148",
"D+	c #C9C73A",
"E+	c #BFBD31",
"F+	c #B8B42C",
"G+	c #747118",
"H+	c #696515",
"I+	c #A29D27",
"J+	c #B6B22B",
"K+	c #C5C22D",
"L+	c #C6C332",
"M+	c #CBC636",
"N+	c #CBC436",
"O+	c #C5BF30",
"P+	c #BDB82B",
"Q+	c #B8B333",
"R+	c #706D1D",
"S+	c #706E2A",
"T+	c #C3C051",
"U+	c #D2CE56",
"V+	c #E0DC63",
"W+	c #D6D251",
"X+	c #CEC845",
"Y+	c #C2BD39",
"Z+	c #B9B62D",
"`+	c #B1AE2E",
" @	c #656317",
".@	c #A6A328",
"+@	c #C7C431",
"@@	c #CBC737",
"#@	c #CCC738",
"$@	c #C9C434",
"%@	c #C3BD2D",
"&@	c #BDB92A",
"*@	c #B9B433",
"=@	c #706C1D",
"-@	c #6D6A24",
";@	c #B3AF38",
">@	c #C1BD36",
",@	c #C8C44C",
"'@	c #C3BF41",
")@	c #BEB939",
"!@	c #B7B130",
"~@	c #A4A025",
"{@	c #686517",
"]@	c #585717",
"^@	c #A3A12A",
"/@	c #C9C533",
"(@	c #C4BE2D",
"_@	c #BEB92A",
":@	c #B9B333",
"<@	c #716E1E",
"[@	c #65631B",
"}@	c #77731D",
"|@	c #7E7B22",
"1@	c #7F7C1F",
"2@	c #827E1F",
"3@	c #7C781B",
"4@	c #666317",
"5@	c #58561A",
"6@	c #A29E2E",
"7@	c #CDC734",
"8@	c #CEC839",
"9@	c #C5BF2E",
"0@	c #BEB929",
"a@	c #706C1E",
"b@	c #64611A",
"c@	c #ABA62F",
"d@	c #CEC737",
"e@	c #D0CB3C",
"f@	c #CDC737",
"g@	c #C8C332",
"h@	c #C1BB2B",
"i@	c #BDB828",
"j@	c #B1AD2E",
"k@	c #6C6B1F",
"l@	c #69661D",
"m@	c #A29D31",
"n@	c #BBB638",
"o@	c #CEC93C",
"p@	c #CBC73A",
"q@	c #C8C433",
"r@	c #C4C02F",
"s@	c #BEB82B",
"t@	c #BBB427",
"u@	c #AEA92C",
"v@	c #63611A",
"w@	c #6E6C27",
"x@	c #74712A",
"y@	c #79762E",
"z@	c #7F7D31",
"A@	c #7E7B30",
"B@	c #898634",
"C@	c #878334",
"D@	c #898532",
"E@	c #ADA93A",
"F@	c #B9B43C",
"G@	c #C4C03D",
"H@	c #CCC83C",
"I@	c #C5C337",
"J@	c #C3BF30",
"K@	c #BFBA2D",
"L@	c #B8B12A",
"M@	c #AFAA26",
"N@	c #A19C23",
"O@	c #575515",
"P@	c #767532",
"Q@	c #BFBB4D",
"R@	c #D2CE5F",
"S@	c #DCDA64",
"T@	c #E3E06D",
"U@	c #E6E372",
"V@	c #E6E369",
"W@	c #DEDB65",
"X@	c #DAD65A",
"Y@	c #D4D146",
"Z@	c #CFCC42",
"`@	c #C0BE2E",
" #	c #BCB729",
".#	c #B3AD27",
"+#	c #A49D26",
"@#	c #A09A1E",
"##	c #686315",
"$#	c #716F2C",
"%#	c #C5C14F",
"&#	c #DEDA73",
"*#	c #E8E486",
"=#	c #EEEB8C",
"-#	c #EAE781",
";#	c #E5E173",
">#	c #DCD859",
",#	c #D6D150",
"'#	c #D2CE49",
")#	c #CFCB41",
"!#	c #C8C73F",
"~#	c #C2C134",
"{#	c #BEBD2C",
"]#	c #C1BD2A",
"^#	c #B3AF26",
"/#	c #9E9A22",
"(#	c #99941E",
"_#	c #626016",
":#	c #63611F",
"<#	c #C4C053",
"[#	c #E0DC76",
"}#	c #EFEC8D",
"|#	c #EEEB87",
"1#	c #E5E273",
"2#	c #DCD961",
"3#	c #D5D14D",
"4#	c #CFCB42",
"5#	c #CCC73D",
"6#	c #C9C639",
"7#	c #C2C036",
"8#	c #B1AF2A",
"9#	c #A7A625",
"0#	c #A4A123",
"a#	c #9C9823",
"b#	c #88861B",
"c#	c #626113",
"d#	c #727027",
"e#	c #D2CE53",
"f#	c #EAE787",
"g#	c #F5F199",
"h#	c #E4E16D",
"i#	c #D8D452",
"j#	c #CFCC40",
"k#	c #C4C231",
"l#	c #C2C02D",
"m#	c #C2BE2C",
"n#	c #686616",
"o#	c #5E5D12",
"p#	c #565415",
"q#	c #6B6A2C",
"r#	c #DBD75B",
"s#	c #EEEB8D",
"t#	c #EEEC88",
"u#	c #E4E269",
"v#	c #D4CF48",
"w#	c #CFC940",
"x#	c #C9C63A",
"y#	c #C0C031",
"z#	c #B6B228",
"A#	c #8E8A20",
"B#	c #78761B",
"C#	c #5B5A16",
"D#	c #6F6D2D",
"E#	c #EEEB84",
"F#	c #EBE779",
"G#	c #DCD856",
"H#	c #D3CE44",
"I#	c #CEC93F",
"J#	c #C7C43A",
"K#	c #BAB92F",
"L#	c #6B6817",
"M#	c #706E2E",
"N#	c #E2DD63",
"O#	c #ECE978",
"P#	c #E7E36A",
"Q#	c #D7D24B",
"R#	c #D3CE43",
"S#	c #CECB40",
"T#	c #C7C43B",
"U#	c #BBB833",
"V#	c #656315",
"W#	c #6E6D2E",
"X#	c #E2DE5D",
"Y#	c #D4CF44",
"Z#	c #D1CD42",
"`#	c #D0CD41",
" $	c #CBC73E",
".$	c #636015",
"+$	c #6F6E2F",
"@$	c #DDDA5C",
"#$	c #E0DC5C",
"$$	c #DAD653",
"%$	c #D1CC41",
"&$	c #CBC63C",
"*$	c #B8B434",
"=$	c #605D13",
"-$	c #706E30",
";$	c #DCD95B",
">$	c #DDD95A",
",$	c #D8D450",
"'$	c #CFCB3F",
")$	c #C8C53A",
"!$	c #C4C137",
"~$	c #B7B333",
"{$	c #5C5B13",
"]$	c #626127",
"^$	c #D9D75A",
"/$	c #DCD758",
"($	c #D7D34F",
"_$	c #CDC93E",
":$	c #C6C337",
"<$	c #C0BD33",
"[$	c #B6B136",
"}$	c #575611",
"|$	c #63611D",
"1$	c #CCC847",
"2$	c #D7D453",
"3$	c #D5D24C",
"4$	c #CDC83F",
"5$	c #C0BD32",
"6$	c #BDB92E",
"7$	c #B8B330",
"8$	c #A9A52A",
"9$	c #52510F",
"0$	c #5F5D17",
"a$	c #B7B237",
"b$	c #CDC846",
"c$	c #CCC745",
"d$	c #C7C33D",
"e$	c #C0BC32",
"f$	c #B9B430",
"g$	c #ACA829",
"h$	c #9D9A21",
"i$	c #585611",
"j$	c #7F7F7F",
"k$	c #605F12",
"l$	c #AFAC30",
"m$	c #B8B334",
"n$	c #B8B437",
"o$	c #B3AF2E",
"p$	c #AAA62A",
"q$	c #97931F",
"r$	c #636115",
"s$	c #565411",
"t$	c #656516",
"u$	c #5C5B14",
"v$	c #535111",
"w$	c #716F23",
"x$	c #777427",
"y$	c #787728",
"z$	c #77751D",
"A$	c #75731D",
"B$	c #706E1A",
"C$	c #727025",
"D$	c #BBB94D",
"E$	c #D0CD5D",
"F$	c #DBD969",
"G$	c #D9D65E",
"H$	c #D6D459",
"I$	c #BFBC48",
"J$	c #6C6A1D",
"K$	c #716E20",
"L$	c #BEBB47",
"M$	c #DCD872",
"N$	c #E8E584",
"O$	c #EFED90",
"P$	c #EBE86F",
"Q$	c #E9E669",
"R$	c #D6D35A",
"S$	c #A19C2C",
"T$	c #696619",
"U$	c #757224",
"V$	c #F0EC91",
"W$	c #F5F1A4",
"X$	c #F6F2A9",
"Y$	c #EEEB73",
"Z$	c #EBE86B",
"`$	c #DDD95B",
" %	c #AAA426",
".%	c #5F5D15",
"+%	c #7C7926",
"@%	c #E1DB64",
"#%	c #F0EC8D",
"$%	c #F1EE92",
"%%	c #ECE884",
"&%	c #DEDA5A",
"*%	c #D6D14B",
"=%	c #CBC53D",
"-%	c #ADA826",
";%	c #615E14",
">%	c #797725",
",%	c #DDD759",
"'%	c #E9E56F",
")%	c #D2CD43",
"!%	c #CBC438",
"~%	c #C1BB2E",
"{%	c #ABA525",
"]%	c #6D6A17",
"^%	c #737122",
"/%	c #D2CD4E",
"(%	c #DCD855",
"_%	c #D2CD44",
":%	c #C8C234",
"<%	c #C2BD2D",
"[%	c #B9B227",
"}%	c #A49D22",
"|%	c #6A6815",
"1%	c #6D6B1B",
"2%	c #B4B036",
"3%	c #CBC641",
"4%	c #CDC83C",
"5%	c #C6C12D",
"6%	c #BBB426",
"7%	c #B8B224",
"8%	c #ADA822",
"9%	c #938E1C",
"0%	c #5F5D12",
"a%	c #68651F",
"b%	c #8B8623",
"c%	c #AAA62F",
"d%	c #ADA92D",
"e%	c #A8A429",
"f%	c #A7A125",
"g%	c #A8A225",
"h%	c #9E9923",
"i%	c #7C7A1F",
"j%	c #585513",
"k%	c #5C5A15",
"l%	c #9C9826",
"m%	c #9A9624",
"n%	c #908C21",
"o%	c #949024",
"p%	c #918D23",
"q%	c #84811F",
"r%	c #5D5B17",
"s%	c #595611",
"t%	c #5F5D13",
"u%	c #5D5B13",
"v%	c #5D5B15",
"w%	c #5A5815",
"x%	c #515013",
"                                                                                                ",
"                                                                                                ",
"                          . + @ # $ % % % % % % % % % % % % % & * = -                           ",
"                      ; > , ' ) ! ~ { ] ^ / ( / / _ : < [ } | 1 2 3 4 5 6                       ",
"                    7 8 9 0 a b c d e f g g h i j k l m n o p q r s t u v w                     ",
"                  x y z A B C D E F G H I J K L M N O P Q R S T U V W X Y Z `                   ",
"                 ...+.@.#.$.%.&.*.=.-.;.>.,.'.).!.~.{.].^./.(._.:.<.[.}.|.1.2.3.                ",
"              4.5.6.7.8.9.0.a.b.c.d.e.f.g.h.h.i.j.j.j.g.k.l.m.m.n.o.p.q.r.s.t.u.                ",
"              v.w.x.y.z.A.B.C.D.E.F.G.H.I.J.K.L.M.M.N.H.O.P.Q.R.S.T.U.V.W.X.Y.Z.`.              ",
"               +.+++@+#+$+%+&+*+=+-+;+>+,+'+)+!+'+!+~+{+]+^+/+(+_+:+<+[+}+|+1+2+3+              ",
"              4+5+6+7+8+9+0+a+b+c+d+e+f+g+h+i+j+j+j+j+k+g+l+m+n+o+p+q+r+s+t+u+v+w+              ",
"              x+y+1 z+A+B+C+D+E+F+G+                        H+I+J+K+L+M+N+O+P+Q+R+              ",
"              S+T+U+V+W+X+Y+Z+`+.                              @.@+@@@#@$@%@&@*@=@              ",
"              -@;@>@,@'@)@!@~@{@                              ]@^@/@#@#@$@(@_@:@<@              ",
"                [@}@|@1@2@3@4@                                5@6@7@8@#@$@9@0@Q+a@              ",
"                                                              b@c@d@e@f@g@h@i@j@k@              ",
"                                                            l@m@n@o@p@q@r@s@t@u@v@              ",
"                                            w@x@y@z@A@B@C@D@E@F@G@H@I@J@K@L@M@N@O@              ",
"                                          P@Q@R@S@T@U@V@W@X@Y@Z@b+N.`@ #.#+#@###                ",
"                                        $#%#&#*#=#-#;#>#,#'#)#!#~#{#]#^#/#(#_#                  ",
"                                      :#<#[#*#}#|#1#2#3#4#5#6#7#8#9#0#a#b#c#                    ",
"                                      d#e#f#b g#h#i#j#H@k#l#m#^#e+n#o#p#                        ",
"                                      q#r#s#t#u#v#w#x#y#z#A#B#C#                                ",
"                                      D#V+E#F#G#H#I#J#K#L#                                      ",
"                                      M#N#O#P#Q#R#S#T#U#V#                                      ",
"                                      W#X#J b.Y#Z#`# $u .$                                      ",
"                                      +$@$#$$$%$&$t J#*$=$                                      ",
"                                      -$;$>$,$'$)$x#!$~${$                                      ",
"                                      ]$^$/$($_$:$O.<$[$}$                                      ",
"                                      |$1$2$3$4$5$6$7$8$9$                                      ",
"                                      0$a$b$c$d$e$f$g$h$i$          j$j$j$j$j$j$j$j$j$j$        ",
"                                        k$l$m$n$o$p$q$r$        j$j$j$j$j$j$j$j$j$j$j$j$j$j$    ",
"                                          s$t$n#V#u$v$          j$j$j$j$j$j$j$j$j$j$j$j$j$j$j$  ",
"                                                                                      j$j$j$j$  ",
"                                                                                    j$j$j$j$    ",
"                                          w$x$y$z$A$B$                  j$j$j$j$j$j$j$j$j$      ",
"                                        C$D$E$F$G$H$I$J$            j$j$j$j$j$j$j$j$j$j$        ",
"                                      K$L$M$N$O$P$Q$R$S$T$      j$j$j$j$j$j$j$j$j$j$            ",
"                                      U$P V$W$X$Y$Z$`$ %.%  j$j$j$j$j$j$j$                      ",
"                                      +%@%#%$%%%&%*%=%-%;%j$j$j$j$j$                            ",
"                                      >%,%'%( r#)%!%~%{%]%j$j$j$                                ",
"                                      ^%/%&%(%_%:%<%[%}%|%j$j$                                  ",
"                                      1%2%3%4%5%6%7%8%9%0%j$                                    ",
"                                      a%b%c%d%e%f%g%h%i%j%                                      ",
"                                        k%l%m%n%o%p%q%r%                                        ",
"                                          s%t%u%v%w%x%                                          ",
"                                                                                                ",
"                                                                                                "};
