/* XPM */
static char * icon_help_32x32_xpm[] = {
"32 32 337 2",
"  	c None",
". 	c #5F5D27",
"+ 	c #656228",
"@ 	c #66642B",
"# 	c #66642A",
"$ 	c #666428",
"% 	c #615F28",
"& 	c #686626",
"* 	c #787629",
"= 	c #C1BF44",
"- 	c #CCCA51",
"; 	c #D8D559",
"> 	c #D8D65A",
", 	c #DAD75A",
"' 	c #D8D55A",
") 	c #DCD764",
"! 	c #C3BD48",
"~ 	c #928D2C",
"{ 	c #63611F",
"] 	c #636123",
"^ 	c #CBC654",
"/ 	c #DEDC79",
"( 	c #F2EF9F",
"_ 	c #F5F29A",
": 	c #F4F296",
"< 	c #F3F18F",
"[ 	c #F1EF89",
"} 	c #F2EF8B",
"| 	c #F2F08C",
"1 	c #F2EF85",
"2 	c #F0EE7A",
"3 	c #E8E56F",
"4 	c #EAE774",
"5 	c #DFDC62",
"6 	c #CFCB44",
"7 	c #AFAA31",
"8 	c #5F5C1E",
"9 	c #666323",
"0 	c #CFCC66",
"a 	c #F5F292",
"b 	c #F8F5AA",
"c 	c #F5F393",
"d 	c #ECE87B",
"e 	c #E6E066",
"f 	c #E5E265",
"g 	c #E4E062",
"h 	c #E5E164",
"i 	c #E6E366",
"j 	c #E3DF5F",
"k 	c #E1DE5E",
"l 	c #E1DD5D",
"m 	c #E2DD5E",
"n 	c #DFDC5A",
"o 	c #E2E062",
"p 	c #DCDC5A",
"q 	c #CCC845",
"r 	c #A7A231",
"s 	c #5E5B1E",
"t 	c #605E22",
"u 	c #C6C34E",
"v 	c #EFEC87",
"w 	c #F4F290",
"x 	c #EAE676",
"y 	c #E6E269",
"z 	c #DFDA59",
"A 	c #DED958",
"B 	c #D6D24E",
"C 	c #D7D34D",
"D 	c #D9D44F",
"E 	c #D7D44F",
"F 	c #D7D44E",
"G 	c #D7D34C",
"H 	c #D5D54E",
"I 	c #D7D651",
"J 	c #D3D053",
"K 	c #CBC645",
"L 	c #8C8928",
"M 	c #696628",
"N 	c #D8D458",
"O 	c #EBE877",
"P 	c #E2DC5F",
"Q 	c #D8D451",
"R 	c #D1CE47",
"S 	c #CDCD45",
"T 	c #C7C43E",
"U 	c #CBC840",
"V 	c #C8C540",
"W 	c #C5C23D",
"X 	c #C6C33D",
"Y 	c #C6C43D",
"Z 	c #C8C53E",
"` 	c #C9C63F",
" .	c #CFCA44",
"..	c #CDC942",
"+.	c #D4D149",
"@.	c #D3D047",
"#.	c #D8D34C",
"$.	c #D4D054",
"%.	c #BDB734",
"&.	c #4F4D1E",
"*.	c #63612C",
"=.	c #D5D34F",
"-.	c #F2F085",
";.	c #E3DE60",
">.	c #DAD450",
",.	c #CECD46",
"'.	c #CDCC46",
").	c #C2BE3A",
"!.	c #C2BC36",
"~.	c #BBB633",
"{.	c #B8B334",
"].	c #BCB736",
"^.	c #BAB533",
"/.	c #CBC43A",
"(.	c #CFC945",
"_.	c #CFCA42",
":.	c #D2CF48",
"<.	c #D2CE42",
"[.	c #D4CE4A",
"}.	c #C1BB34",
"|.	c #524F1F",
"1.	c #5F5D2A",
"2.	c #D4D24F",
"3.	c #F0EE79",
"4.	c #DBD452",
"5.	c #D9D452",
"6.	c #CAC941",
"7.	c #B8B533",
"8.	c #615F1E",
"9.	c #59561B",
"0.	c #504E1B",
"a.	c #514F1B",
"b.	c #504E1D",
"c.	c #53501B",
"d.	c #696620",
"e.	c #9C9838",
"f.	c #C9C638",
"g.	c #D2CE4A",
"h.	c #C9C33B",
"i.	c #BCB731",
"j.	c #565420",
"k.	c #5B5929",
"l.	c #CDCA4D",
"m.	c #DFDC68",
"n.	c #D2CE51",
"o.	c #CAC645",
"p.	c #B7B432",
"q.	c #595720",
"r.	c #636220",
"s.	c #CAC73C",
"t.	c #D1CD46",
"u.	c #D2CD47",
"v.	c #C7C137",
"w.	c #BBB731",
"x.	c #565320",
"y.	c #545322",
"z.	c #C1BD42",
"A.	c #C8C445",
"B.	c #C9C444",
"C.	c #BBB63B",
"D.	c #58551D",
"E.	c #63612B",
"F.	c #CFCA3F",
"G.	c #D3CE47",
"H.	c #D0CC45",
"I.	c #C9C339",
"J.	c #BDB830",
"K.	c #524F20",
"L.	c #545222",
"M.	c #5C5B23",
"N.	c #5A591E",
"O.	c #504E1C",
"P.	c #858133",
"Q.	c #D3CD47",
"R.	c #D7D24D",
"S.	c #CFCB41",
"T.	c #C5BF36",
"U.	c #BFBA32",
"V.	c #504E20",
"W.	c #5B5A2D",
"X.	c #605E2B",
"Y.	c #706E30",
"Z.	c #7B782F",
"`.	c #AFAB49",
" +	c #D7D353",
".+	c #CFCC48",
"++	c #C8C43A",
"@+	c #C0BA35",
"#+	c #A8A32E",
"$+	c #5F5D34",
"%+	c #817F45",
"&+	c #E3E16E",
"*+	c #E8E47B",
"=+	c #E8E571",
"-+	c #DFDB6C",
";+	c #D7D450",
">+	c #D3D04F",
",+	c #CFCC49",
"'+	c #C4C239",
")+	c #BEB832",
"!+	c #9F9A2D",
"~+	c #4E4C1C",
"{+	c #5B592F",
"]+	c #CAC65C",
"^+	c #EDEA88",
"/+	c #F4F19C",
"(+	c #E8E581",
"_+	c #DCD85E",
":+	c #D4CF51",
"<+	c #D0CC49",
"[+	c #CAC947",
"}+	c #C0BF35",
"|+	c #C5C034",
"1+	c #A29F2B",
"2+	c #514F1D",
"3+	c #4C4B25",
"4+	c #C0BC4E",
"5+	c #F1EE99",
"6+	c #F8F5A6",
"7+	c #E6E374",
"8+	c #D3CF4B",
"9+	c #CFCC46",
"0+	c #C7C539",
"a+	c #C9C537",
"b+	c #636121",
"c+	c #55541D",
"d+	c #515023",
"e+	c #545229",
"f+	c #DCD85C",
"g+	c #F5F29F",
"h+	c #E6E46F",
"i+	c #D4CF4C",
"j+	c #CECA45",
"k+	c #C3C33B",
"l+	c #B5B131",
"m+	c #646120",
"n+	c #5B5A20",
"o+	c #565428",
"p+	c #E4DF6A",
"q+	c #F2EF88",
"r+	c #DBD655",
"s+	c #D5D04C",
"t+	c #CDCB47",
"u+	c #B9B636",
"v+	c #58561E",
"w+	c #555329",
"x+	c #E3E065",
"y+	c #E7E46B",
"z+	c #D7D24E",
"A+	c #D4D04C",
"B+	c #D3D04B",
"C+	c #B5B236",
"D+	c #54521D",
"E+	c #56552B",
"F+	c #DFDC64",
"G+	c #E0DD63",
"H+	c #D3CE4A",
"I+	c #D1CE4C",
"J+	c #D0CC46",
"K+	c #ADAA32",
"L+	c #4D4C1A",
"M+	c #DDDB64",
"N+	c #DFDA60",
"O+	c #D0CD48",
"P+	c #D1CD4A",
"Q+	c #CAC740",
"R+	c #A7A331",
"S+	c #4B4A19",
"T+	c #BEBC41",
"U+	c #DBD85B",
"V+	c #C9C543",
"W+	c #BCB733",
"X+	c #8E8B28",
"Y+	c #474518",
"Z+	c #4C4A1B",
"`+	c #A7A435",
" @	c #BDB941",
".@	c #B2AE35",
"+@	c #9F9B2B",
"@@	c #4F4E1D",
"#@	c #7F7F7F",
"$@	c #4A491B",
"%@	c #5C5A1D",
"&@	c #5A581D",
"*@	c #56541B",
"=@	c #6D6B2D",
"-@	c #6F6D2D",
";@	c #6E6C25",
">@	c #6D6B25",
",@	c #6E6C2C",
"'@	c #D6D35F",
")@	c #E6E473",
"!@	c #E5E16A",
"~@	c #E0DC61",
"{@	c #5B5922",
"]@	c #636125",
"^@	c #E0DB5C",
"/@	c #F4EFA0",
"(@	c #F9F6B7",
"_@	c #F1EF7A",
":@	c #E3E066",
"<@	c #BDB73D",
"[@	c #515018",
"}@	c #6B6927",
"|@	c #DED962",
"1@	c #F5F29D",
"2@	c #EEEB8E",
"3@	c #E0DB5F",
"4@	c #D9D454",
"5@	c #BBB73D",
"6@	c #545118",
"7@	c #6D6B28",
"8@	c #CAC54E",
"9@	c #E9E56E",
"0@	c #DAD558",
"a@	c #D6D04E",
"b@	c #CCC749",
"c@	c #AAA532",
"d@	c #4E4C16",
"e@	c #605D20",
"f@	c #ADA93A",
"g@	c #CBC84B",
"h@	c #D0CB4B",
"i@	c #C4BE41",
"j@	c #B7B333",
"k@	c #98932B",
"l@	c #494716",
"m@	c #58561D",
"n@	c #ADA93B",
"o@	c #ACA838",
"p@	c #9E9A2E",
"q@	c #959028",
"r@	c #4D4A1D",
"s@	c #605D22",
"t@	c #5D5A1E",
"u@	c #514F1C",
"v@	c #4E4C1A",
"                  . + @ # # # $ $ $ $ $ %                       ",
"            & * = - ; > , , , , ' > > > ) ! ~ {                 ",
"          ] ^ / ( _ : < [ [ } } | 1 2 3 4 5 6 7 8               ",
"        9 0 a b c d e f g h i j k l m n o p o q r s             ",
"      t u v w x y z A B C D E F F C G F F H I J K L             ",
"      M N a O P Q R S T U V W X Y Z `  ...+.@.#.$.%.&.          ",
"      *.=.-.;.>.,.'.).!.%.~.{.{.{.].^./.(._.:.<.[.}.|.          ",
"      1.2.3.4.5.6.7.8.9.0.0.a.b.b.b.c.d.e.f.g._.h.i.j.          ",
"      k.l.m.n.o.p.q.                    r.s.t.u.v.w.x.          ",
"      y.z.A.B.C.D.                      E.F.G.H.I.J.K.          ",
"        L.M.N.O.                        P.Q.R.S.T.U.V.          ",
"                              W.X.X.Y.Z.`. +.+++@+#+&.          ",
"                          $+%+&+*+=+-+;+>+,+'+)+!+~+            ",
"                        {+]+^+/+(+_+:+<+[+}+|+1+2+              ",
"                      3+4+5+6+7+8+9+0+a+i.b+c+d+                ",
"                      e+f+g+h+i+j+k+l+m+n+                      ",
"                      o+p+q+r+s+t+u+v+                          ",
"                      w+x+y+z+A+B+C+D+                          ",
"                      E+F+G+H+I+J+K+L+                          ",
"                      E+M+N+O+P+Q+R+S+                          ",
"                      L.T+U+P+V+W+X+Y+                          ",
"                        Z+`+ @.@+@@@      #@#@#@#@#@#@#@#@      ",
"                          $@%@&@*@      #@#@#@#@#@#@#@#@#@#@#@  ",
"                                                        #@#@#@  ",
"                          =@-@;@>@          #@#@#@#@#@#@#@#@#@  ",
"                        ,@'@)@!@~@{@    #@#@#@#@#@#@#@#@#@      ",
"                      ]@^@/@(@_@:@<@[@#@#@#@#@#@                ",
"                      }@|@1@2@3@4@5@6@#@#@                      ",
"                      7@8@9@0@a@b@c@d@#@                        ",
"                      e@f@g@h@i@j@k@l@                          ",
"                        m@n@o@p@q@r@                            ",
"                          s@t@u@v@                              "};
