/* XPM */
static char * icon_folder_closed_32x32_xpm[] = {
"32 32 315 2",
"  	c None",
". 	c #545038",
"+ 	c #6F6A4A",
"@ 	c #71694A",
"# 	c #706A49",
"$ 	c #6E6849",
"% 	c #5F5B43",
"& 	c #5A563E",
"* 	c #BCB99C",
"= 	c #CDCAAB",
"- 	c #BDB594",
"; 	c #B5AF8A",
"> 	c #B2AC85",
", 	c #B8B08F",
"' 	c #A29C7B",
") 	c #544F39",
"! 	c #4D4A39",
"~ 	c #CCC8A8",
"{ 	c #D3D1B2",
"] 	c #E9E6C6",
"^ 	c #D4CDAA",
"/ 	c #CEC8A2",
"( 	c #CBC59E",
"_ 	c #CCC4A1",
": 	c #BAB38F",
"< 	c #A09A77",
"[ 	c #5F5B3F",
"} 	c #D4CEAA",
"| 	c #D4CEA8",
"1 	c #D2CCA7",
"2 	c #D9D4AF",
"3 	c #CAC39D",
"4 	c #D1CBA8",
"5 	c #D4CEAC",
"6 	c #CAC39C",
"7 	c #CBC49C",
"8 	c #CAC49E",
"9 	c #A7A07E",
"0 	c #524C35",
"a 	c #514B34",
"b 	c #4F4C34",
"c 	c #4F4D34",
"d 	c #4E4C33",
"e 	c #4E4933",
"f 	c #393625",
"g 	c #28261B",
"h 	c #615C3F",
"i 	c #ECEADC",
"j 	c #F1F0DD",
"k 	c #F0EED8",
"l 	c #EAE7CB",
"m 	c #E2DEC0",
"n 	c #E9E5CB",
"o 	c #EDE8D0",
"p 	c #EAE7C8",
"q 	c #EDE9CA",
"r 	c #F3EED0",
"s 	c #F0EBCF",
"t 	c #ECE7CC",
"u 	c #E3DDBF",
"v 	c #E6E1C2",
"w 	c #E8E3C4",
"x 	c #E2DDBE",
"y 	c #E2DFC0",
"z 	c #E4E2C3",
"A 	c #DFDBBB",
"B 	c #D6D2B0",
"C 	c #BEB78E",
"D 	c #8E8864",
"E 	c #45402E",
"F 	c #625C3F",
"G 	c #ECEBE3",
"H 	c #E5E1C4",
"I 	c #E3DEC0",
"J 	c #D8D3B3",
"K 	c #CCC8A3",
"L 	c #CFCBA7",
"M 	c #D1CDAA",
"N 	c #D5D1AB",
"O 	c #D4CFAA",
"P 	c #D3CDA9",
"Q 	c #D6D1AB",
"R 	c #D5D0A9",
"S 	c #CFC8A2",
"T 	c #C8C39C",
"U 	c #D0C9A8",
"V 	c #D2CEAB",
"W 	c #D3D4AC",
"X 	c #D1CEA5",
"Y 	c #C8C499",
"Z 	c #BBB48A",
"` 	c #7D7856",
" .	c #565039",
"..	c #615C40",
"+.	c #E8E3C8",
"@.	c #E5E0C3",
"#.	c #E2DDBF",
"$.	c #D7D2B2",
"%.	c #CBC7A1",
"&.	c #CDC9A5",
"*.	c #CFCBA8",
"=.	c #D4D0A9",
"-.	c #D3CEA8",
";.	c #D1CBA6",
">.	c #D4CFA8",
",.	c #D3CEA7",
"'.	c #CEC7A0",
").	c #C8C29B",
"!.	c #C6C199",
"~.	c #CFC8A7",
"{.	c #D2D3AA",
"].	c #D0CDA4",
"^.	c #C7C398",
"/.	c #BBB489",
"(.	c #544E38",
"_.	c #DDD8B7",
":.	c #DAD5B3",
"<.	c #D0CCA7",
"[.	c #C9C59E",
"}.	c #C9C59F",
"|.	c #CAC6A0",
"1.	c #CBC69F",
"2.	c #CAC49C",
"3.	c #CCC69E",
"4.	c #CCC69D",
"5.	c #C8C199",
"6.	c #C3BE94",
"7.	c #C1BC93",
"8.	c #C6C09B",
"9.	c #CCCBA1",
"0.	c #C7C499",
"a.	c #C0BA90",
"b.	c #B8B286",
"c.	c #7B7655",
"d.	c #544D38",
"e.	c #DAD5B6",
"f.	c #D5D0AB",
"g.	c #D2CDA6",
"h.	c #CBC79D",
"i.	c #CBC7A0",
"j.	c #CAC69E",
"k.	c #C4BF97",
"l.	c #C5BF97",
"m.	c #C8C299",
"n.	c #C7C198",
"o.	c #C5BF96",
"p.	c #C5BF95",
"q.	c #C4BF95",
"r.	c #BFBA90",
"s.	c #C2BD93",
"t.	c #C9C29A",
"u.	c #BEBB8F",
"v.	c #B7B486",
"w.	c #B9B285",
"x.	c #7B7554",
"y.	c #534D38",
"z.	c #DAD6B6",
"A.	c #D2CDA9",
"B.	c #CEC9A4",
"C.	c #C6C09A",
"D.	c #C8C29A",
"E.	c #C8C39A",
"F.	c #C7C399",
"G.	c #C7C299",
"H.	c #CBC69E",
"I.	c #D0CCA6",
"J.	c #C6C098",
"K.	c #C4BE95",
"L.	c #C3BE93",
"M.	c #C7C199",
"N.	c #BAB589",
"O.	c #BAB488",
"P.	c #DCD8B9",
"Q.	c #D2CDAA",
"R.	c #CDC8A4",
"S.	c #C5BF98",
"T.	c #C7C298",
"U.	c #C8C399",
"V.	c #CCC79F",
"W.	c #D2CEA8",
"X.	c #C6C099",
"Y.	c #C3BD94",
"Z.	c #C4BE94",
"`.	c #C3BC92",
" +	c #C6C097",
".+	c #BEB78C",
"++	c #B8B185",
"@+	c #7A7452",
"#+	c #E2DEC1",
"$+	c #D5D1AC",
"%+	c #D0CBA5",
"&+	c #CFCAA2",
"*+	c #CAC59B",
"=+	c #CAC59C",
"-+	c #CEC9A3",
";+	c #C8C19B",
">+	c #C4BD96",
",+	c #C0BA91",
"'+	c #C1BC92",
")+	c #CDC79E",
"!+	c #B7B087",
"~+	c #DBD6B7",
"{+	c #D5D0AA",
"]+	c #D1CCA5",
"^+	c #C9C39A",
"/+	c #C3BE95",
"(+	c #C3C097",
"_+	c #C2BC93",
":+	c #BAB68B",
"<+	c #BEB98F",
"[+	c #BCB58A",
"}+	c #B6B084",
"|+	c #76704F",
"1+	c #4E4734",
"2+	c #D5CFAA",
"3+	c #D2CCA6",
"4+	c #CAC49B",
"5+	c #BEBA90",
"6+	c #BDBA90",
"7+	c #C6C197",
"8+	c #BFB990",
"9+	c #B8B589",
"0+	c #BCB88D",
"a+	c #BFB98F",
"b+	c #B8B285",
"c+	c #BAB387",
"d+	c #767050",
"e+	c #4C4433",
"f+	c #E1DDBE",
"g+	c #DAD4B0",
"h+	c #D6D0AA",
"i+	c #C2BD92",
"j+	c #BFBA8F",
"k+	c #C2BB93",
"l+	c #BEB78F",
"m+	c #BAB38B",
"n+	c #BCB78C",
"o+	c #C1BB91",
"p+	c #C7C098",
"q+	c #C5BE95",
"r+	c #BDB68B",
"s+	c #7A7453",
"t+	c #524A37",
"u+	c #DFDABD",
"v+	c #DAD4AF",
"w+	c #CBC59C",
"x+	c #C5BE96",
"y+	c #C3BD92",
"z+	c #BEB88D",
"A+	c #C1BB92",
"B+	c #C7C099",
"C+	c #C0B991",
"D+	c #BBB48C",
"E+	c #C0BB91",
"F+	c #C6BF96",
"G+	c #777151",
"H+	c #514A37",
"I+	c #D9D4B5",
"J+	c #D6D0AB",
"K+	c #D3CDA7",
"L+	c #C1B992",
"M+	c #C9C49A",
"N+	c #BDB58A",
"O+	c #C2BB91",
"P+	c #C2BC92",
"Q+	c #CCC59C",
"R+	c #C3BB94",
"S+	c #BEB68F",
"T+	c #BEB88F",
"U+	c #BAB58B",
"V+	c #BCB58B",
"W+	c #B1AA81",
"X+	c #726C4C",
"Y+	c #4D4936",
"Z+	c #7E7E7E",
"`+	c #7F7F7F",
" @	c #C3BC93",
".@	c #C1BA90",
"+@	c #BDB68C",
"@@	c #BEB78D",
"#@	c #BBB488",
"$@	c #BCB68A",
"%@	c #BBB589",
"&@	c #BAB388",
"*@	c #B9B387",
"=@	c #BCB589",
"-@	c #B5AE82",
";@	c #ACA57D",
">@	c #6A6445",
",@	c #4E4936",
"'@	c #7E7D7D",
")@	c #4B4732",
"!@	c #A09B75",
"~@	c #A09971",
"{@	c #9D966E",
"]@	c #999168",
"^@	c #9A936A",
"/@	c #9A926A",
"(@	c #989267",
"_@	c #989266",
":@	c #9B9569",
"<@	c #908962",
"[@	c #645E40",
"}@	c #423D2E",
"|@	c #7D7D7D",
"1@	c #010000",
"2@	c #211E14",
"3@	c #504C33",
"4@	c #504B33",
"5@	c #575238",
"6@	c #585339",
"7@	c #534E35",
"8@	c #524E37",
"9@	c #373325",
"0@	c #1A1714",
"                                                                ",
"                                                                ",
"                                                                ",
"                                                                ",
"                                                                ",
"              . + @ # # $ %                                     ",
"            & * = - ; > , ' )                                   ",
"          ! ~ { ] ^ / ( _ : < )                                 ",
"        [ } | 1 2 3 4 5 6 7 8 9 0 a b c c c c c d e f g         ",
"        h i j k l m n o p q r s t u v w x y z A B C D E         ",
"        F G H I J K L M N O P Q R S 8 T U V W X Y Z `  .        ",
"        ..+.@.#.$.%.&.*.=.-.;.>.,.'.).!.~.M {.].^./.` (.        ",
"        ..x _.:.<.[.}.|.1.( 2.3.4.5.6.7.8.[.9.0.a.b.c.d.        ",
"        ..e.f.g.h.i.i.j.k.l.m.m.n.o.p.q.r.s.t.u.v.w.x.y.        ",
"        ..z.A.B.C.D.E.F.G.H.I.J.K.t.p.L.J.M.m.s.N.O.x.y.        ",
"        ..P.Q.R.S.E.T.T.U.V.W.X.Y.5.Z.`.X.M.T. +.+++@+y.        ",
"        ..#+$+%+T.&+*+T.T.=+-+;+>+r.,+,+r.'+q.)+`.!+@+y.        ",
"        ..~+{+]+^+E.^+^+6./+(+D.D.q._+,+:+<+Z.Z.[+}+|+1+        ",
"        ..$.2+3+4+o.m.^+'+5+6+G.4+7+_+8+9+0+q.a+b+c+d+e+        ",
"        ..f+g+h+4.7+i+j+j+,+k+o.7+o.l+m+n+o+p+q+r+c+s+t+        ",
"        ..u+v+h+w+x+Z.y+z+A+B+q.q.5.C+D+a+E+_+F+.+}+G+H+        ",
"        ..I+J+K+4+L+n.M+N+O+V.s.P+Q+R+S+,+T+U+K.V+W+X+Y+Z+`+Z+Z+",
"        ..S. @.@V++@@@z+c+#@$@%@#@$@/.&@#@&@*@=@-@;@>@,@'@`+Z+  ",
"        )@!@~@{@]@^@^@/@(@_@_@_@_@_@_@_@_@_@_@:@(@<@[@}@Z+|@    ",
"        1@2@3@4@4@4@4@4@5@6@6@6@6@6@6@6@6@6@6@6@7@8@9@0@Z+      ",
"                                                                ",
"                                                                ",
"                                                                ",
"                                                                ",
"                                                                ",
"                                                                ",
"                                                                "};
