/* XPM */
static char * icon_terminal_32x32_xpm[] = {
"32 32 206 2",
"  	c None",
". 	c #E8E8E8",
"+ 	c #D8D8D8",
"@ 	c #D3D3D3",
"# 	c #D4D4D4",
"$ 	c #D1D1D1",
"% 	c #D2D2D2",
"& 	c #D0D0D0",
"* 	c #CDCDCD",
"= 	c #CCCCCC",
"- 	c #CBCBCB",
"; 	c #B0B0B0",
"> 	c #9D9D9D",
", 	c #F5F5F5",
"' 	c #F3F3F3",
") 	c #F0F0F0",
"! 	c #EEEEEE",
"~ 	c #EDEDED",
"{ 	c #EBEBEB",
"] 	c #E6E6E6",
"^ 	c #ECECEC",
"/ 	c #EAEAEA",
"( 	c #E9E9E9",
"_ 	c #E3E3E3",
": 	c #D7D7D7",
"< 	c #AEAEAE",
"[ 	c #949494",
"} 	c #797979",
"| 	c #C3C3C3",
"1 	c #BEBEBE",
"2 	c #BCBCBC",
"3 	c #B9B9B9",
"4 	c #BFBFBF",
"5 	c #B5B5B5",
"6 	c #9F9F9F",
"7 	c #8F8F8F",
"8 	c #606060",
"9 	c #E2E2E2",
"0 	c #ADADAD",
"a 	c #7B7B7B",
"b 	c #808080",
"c 	c #7C7C7C",
"d 	c #7A7A7A",
"e 	c #707070",
"f 	c #969696",
"g 	c #B3B3B3",
"h 	c #5B5B5B",
"i 	c #DCDCDC",
"j 	c #3D3B3A",
"k 	c #403D3C",
"l 	c #403E3D",
"m 	c #3F3C3B",
"n 	c #3E3C3B",
"o 	c #3C3938",
"p 	c #3B3938",
"q 	c #3A3837",
"r 	c #373534",
"s 	c #302E2D",
"t 	c #2F2D2C",
"u 	c #312E2D",
"v 	c #322F2E",
"w 	c #9A9A9A",
"x 	c #5A5A5A",
"y 	c #DBDBDB",
"z 	c #403E3C",
"A 	c #413E3C",
"B 	c #21FC00",
"C 	c #28CF0E",
"D 	c #23E604",
"E 	c #3C3A39",
"F 	c #3A3937",
"G 	c #393736",
"H 	c #363433",
"I 	c #33302F",
"J 	c #2F2D2D",
"K 	c #2F2D2B",
"L 	c #302D2D",
"M 	c #312F2D",
"N 	c #979797",
"O 	c #626262",
"P 	c #25BB0D",
"Q 	c #23E706",
"R 	c #3E3C3A",
"S 	c #3B3837",
"T 	c #3A3736",
"U 	c #363434",
"V 	c #343231",
"W 	c #333130",
"X 	c #302D2C",
"Y 	c #302E2C",
"Z 	c #636363",
"` 	c #21E603",
" .	c #22E605",
"..	c #2D3929",
"+.	c #25CD0C",
"@.	c #21E504",
"#.	c #2B871B",
"$.	c #32302F",
"%.	c #302F2D",
"&.	c #353333",
"*.	c #353331",
"=.	c #343130",
"-.	c #373433",
";.	c #353332",
">.	c #353231",
",.	c #322F2F",
"'.	c #2E2D2B",
").	c #3E3C3C",
"!.	c #373535",
"~.	c #312F2E",
"{.	c #312E2E",
"].	c #2F2C2C",
"^.	c #2D2B2A",
"/.	c #2C2A29",
"(.	c #2D2B29",
"_.	c #B6B6B6",
":.	c #3D3B3B",
"<.	c #3D3C3A",
"[.	c #32302E",
"}.	c #2D2C2B",
"|.	c #2E2B2A",
"1.	c #2D2A29",
"2.	c #2B2A28",
"3.	c #2D2A28",
"4.	c #B8B8B8",
"5.	c #3B3939",
"6.	c #3C3B39",
"7.	c #343332",
"8.	c #2E2D2C",
"9.	c #2E2C2C",
"0.	c #2C2B28",
"a.	c #2C2A28",
"b.	c #2D2B28",
"c.	c #BABABA",
"d.	c #343232",
"e.	c #2E2C2B",
"f.	c #2F2C2A",
"g.	c #AAAAAA",
"h.	c #32312F",
"i.	c #302E2E",
"j.	c #2F2C2B",
"k.	c #A9A9A9",
"l.	c #343432",
"m.	c #302C2C",
"n.	c #2D2B2B",
"o.	c #2F2B2A",
"p.	c #A8A8A8",
"q.	c #555555",
"r.	c #CECECE",
"s.	c #BBBBBB",
"t.	c #696969",
"u.	c #505050",
"v.	c #777777",
"w.	c #7F7F7F",
"x.	c #ABABAB",
"y.	c #A4A4A4",
"z.	c #9E9E9E",
"A.	c #9B9B9B",
"B.	c #989898",
"C.	c #8E8E8E",
"D.	c #909090",
"E.	c #767676",
"F.	c #545454",
"G.	c #727272",
"H.	c #6E6E6E",
"I.	c #6C6C6C",
"J.	c #656565",
"K.	c #646464",
"L.	c #676767",
"M.	c #6B6B6B",
"N.	c #616161",
"O.	c #5F5F5F",
"P.	c #4E4E4E",
"Q.	c #A0A0A0",
"R.	c #C1C1C1",
"S.	c #818181",
"T.	c #5E5E5E",
"U.	c #595959",
"V.	c #585757",
"W.	c #525252",
"X.	c #4F4F4F",
"Y.	c #4C4B4B",
"Z.	c #787878",
"`.	c #EFEFEF",
" +	c #E5E5E5",
".+	c #E1E1E1",
"++	c #DEDEDE",
"@+	c #B4B4B4",
"#+	c #BDBDBD",
"$+	c #323232",
"%+	c #898989",
"&+	c #454545",
"*+	c #959595",
"=+	c #444444",
"-+	c #D5D5D5",
";+	c #A3A3A3",
">+	c #CACACA",
",+	c #939393",
"'+	c #A2A2A2",
")+	c #919191",
"!+	c #C7C7C7",
"~+	c #737373",
"{+	c #999999",
"]+	c #8A8A8A",
"^+	c #828282",
"/+	c #464646",
"                                                                ",
"                                                                ",
"                                                                ",
"            . + @ # # $ $ % % & * = * * - - - - - - - ; >       ",
"          , ' ) ! ! ! ~ ~ ~ ~ ~ ~ { ] ^ / ^ ^ ( / _ : < [ }     ",
"          . $ | 1 2 2 2 2 2 2 2 2 2 3 2 2 4 4 2 2 2 5 6 7 8     ",
"          9 0 a } b c d d a a e d b d b b b b b f g < > c h     ",
"          i g j k l m n o p p p p p q r s t t u v g < w c x     ",
"          y g z A B C n D E E E F G H I J t K L M g < N c O     ",
"          y g z A P Q R S T T G U V W v J J K X Y g < N c Z     ",
"          i g z k ` n E  ...+.@.#.I $.$.%.t K K K g < N c Z     ",
"          i g z z n j T &.&.&.*.=.I $.$.%.K K K K g < N c h     ",
"          i g z z R q -.;.;.;.>.=.$.$.,.s t '.K K g < N c h     ",
"          i g ).n !.$.~.v ~.~.{.s t t ].^.^./.(.^.g < N c h     ",
"          i _.:.<.U [.s t t t t }.'.K |.(.1.2.3.(.g < N c h     ",
"          @ 4.5.6.7.s t 8.8.8.8.9.'.K ^.0.a.2.3.b.g < N c h     ",
"          + c.d.$.{.K K e.e.e.e.].K K |.(.1.a.(.f.g g.N c h     ",
"          : c.;.h.i.K '.j.j.j.j.t K K e.^.^.1.|.K g k.N c h     ",
"          : c.l.$.i.K K m.m.m.m.Y K K K n.n.^.o.J g p.N c h     ",
"          : c.l.$.i.K K m.m.m.m.Y K K K n.n.^.o.J g p.N c q.    ",
"          r.s.g g g g g g g g g g g g g g g g g g 0 6 t.u.v.w.  ",
"          5 x.y.y.y.y.y.y.y.y.y.y.y.y.y.z.A.B.B.C.D.E.F.G.w.w.w.",
"          H.e I.I.I.I.J.K.K.K.K.O L.t.t.M.e I.N.h O.P.w.w.w.w.  ",
"                    Q.R.g > S.} T.x U.V.W.X.P.Y.Z.w.w.w.w.      ",
"      `. +_ _ _ _ _ _ _ _ _ _ _ _ _ _ _ _ _ _ .+.+.+++++@+      ",
"    . #+9 U.r.$+9 U.r.$+9 U.r.$+9 U.r.$+9 U.r.$+9 U.r.p.%+      ",
"  `.1 9 U.r.$+9 U.r.$+9 U.r.$+9 U.r.$+9 U.r.$+9 U.r.g b &+w.    ",
"`.R.9 U.r.$+9 U.r.$+9 U.r.$+9 U.r.$+9 U.r.$+9 U.r.g *+=+a w.    ",
"-+& ;+>+,+-+;+- ,+# '+>+,+r.6 >+)+$ 6 >+)+$ 6 !+| > L.~+w.      ",
"0 w > > > > > {+,+,+,+,+,+C.C.C.C.C.C.C.C.C.C.]+^+t./+          ",
"                                                                ",
"                                                                "};
