/* XPM */
static char * icon_help_20x20_xpm[] = {
"20 20 142 2",
"  	c None",
". 	c #726F31",
"+ 	c #7A7839",
"@ 	c #7B7937",
"# 	c #7B7A36",
"$ 	c #7A7935",
"% 	c #7B7A35",
"& 	c #706E2E",
"* 	c #77763B",
"= 	c #B9B95E",
"- 	c #F0EE81",
"; 	c #EAE878",
"> 	c #E7E673",
", 	c #E5E56D",
"' 	c #E4E36A",
") 	c #E5E56F",
"! 	c #D2D159",
"~ 	c #77762D",
"{ 	c #7E7D4E",
"] 	c #F3F183",
"^ 	c #FBF988",
"/ 	c #E9E76E",
"( 	c #DAD755",
"_ 	c #D4D24E",
": 	c #D1CF49",
"< 	c #CFCD45",
"[ 	c #CFCD42",
"} 	c #CECD43",
"| 	c #CDCD41",
"1 	c #ABAC30",
"2 	c #6D6B2D",
"3 	c #6E6C36",
"4 	c #E4E272",
"5 	c #F4F282",
"6 	c #DBD95E",
"7 	c #BEBF38",
"8 	c #BBB940",
"9 	c #BEBC41",
"0 	c #BDBC41",
"a 	c #BBBA40",
"b 	c #C1C046",
"c 	c #BFBF3A",
"d 	c #C5C535",
"e 	c #C9C630",
"f 	c #949321",
"g 	c #5C5A2C",
"h 	c #76754A",
"i 	c #ECEA70",
"j 	c #E1DF69",
"k 	c #B8BB35",
"l 	c #808229",
"m 	c #77751F",
"n 	c #6D6B24",
"o 	c #626121",
"p 	c #5E5E25",
"q 	c #6D6B1F",
"r 	c #797925",
"s 	c #B9BB28",
"t 	c #C9C835",
"u 	c #A09E22",
"v 	c #605F2B",
"w 	c #686742",
"x 	c #C7C65E",
"y 	c #A9A842",
"z 	c #939431",
"A 	c #64642D",
"B 	c #757524",
"C 	c #C4C538",
"D 	c #CECC3A",
"E 	c #A09D23",
"F 	c #605E2A",
"G 	c #5F5F27",
"H 	c #636323",
"I 	c #5C5A29",
"J 	c #8F8D3F",
"K 	c #D3D147",
"L 	c #CECC3F",
"M 	c #A7A626",
"N 	c #605D30",
"O 	c #7C7C46",
"P 	c #A9A652",
"Q 	c #D5D463",
"R 	c #DADC4A",
"S 	c #C9CA39",
"T 	c #8D8C28",
"U 	c #5E5D32",
"V 	c #BFBE6D",
"W 	c #E9E877",
"X 	c #E1DE67",
"Y 	c #D2D357",
"Z 	c #B7B92C",
"` 	c #8C8D23",
" .	c #575724",
"..	c #767646",
"+.	c #E8E778",
"@.	c #F1EF80",
"#.	c #E0DE54",
"$.	c #C6C636",
"%.	c #A7A52B",
"&.	c #6D6D26",
"*.	c #595928",
"=.	c #86854B",
"-.	c #ECEA79",
";.	c #DBD956",
">.	c #C4C43C",
",.	c #94952D",
"'.	c #5E5F26",
").	c #8E8E50",
"!.	c #DDDD6E",
"~.	c #D4D352",
"{.	c #B4B42A",
"].	c #6C6D21",
"^.	c #6F6E2E",
"/.	c #BCBC44",
"(.	c #C3C244",
"_.	c #9F9E2B",
":.	c #6A6A25",
"<.	c #72732C",
"[.	c #77762A",
"}.	c #58581A",
"|.	c #7F7F7F",
"1.	c #9B9A47",
"2.	c #868641",
"3.	c #777720",
"4.	c #939039",
"5.	c #FBF98C",
"6.	c #EDE97B",
"7.	c #C8C641",
"8.	c #6C6B23",
"9.	c #7D7A29",
"0.	c #F1ED8D",
"a.	c #E2DF6D",
"b.	c #A7A528",
"c.	c #6D6A1C",
"d.	c #7B7928",
"e.	c #D7D657",
"f.	c #C8C838",
"g.	c #94921A",
"h.	c #5C5915",
"i.	c #737023",
"j.	c #68641D",
"k.	c #5E5B1C",
"            . + @ @ # $ % &             ",
"        * = - ; > > , ' ) ! ~           ",
"      { ] ^ / ( _ : < [ } | 1 2         ",
"    3 4 5 6 7 8 9 0 a b c d e f g       ",
"    h i j k l m n o p q r s t u v       ",
"    w x y z A           B C D E F       ",
"      G H I             J K L M N       ",
"                    O P Q R S T U       ",
"                { V W X Y Z `  .        ",
"              ..+.@.#.$.%.&.*.          ",
"              =.-.;.>.,.'.              ",
"              ).!.~.{.].                ",
"              ^./.(._.:.                ",
"                <.[.}.    |.|.|.|.|.|.  ",
"                                |.|.|.|.",
"                1.2.3.      |.|.|.|.    ",
"              4.5.6.7.8.|.|.|.          ",
"              9.0.a.b.c.|.              ",
"              d.e.f.g.h.                ",
"                i.j.k.                  "};
