/* XPM */
static char * icon_file_hidden_20x20_xpm[] = {
"20 20 60 1",
" 	c None",
".	c #5B5B5B",
"+	c #5F5E5E",
"@	c #696968",
"#	c #6B6B69",
"$	c #747474",
"%	c #838383",
"&	c #7E7E7E",
"*	c #707070",
"=	c #616161",
"-	c #B2B2AE",
";	c #B2B2B2",
">	c #B1B0AF",
",	c #474747",
"'	c #676766",
")	c #868584",
"!	c #ADAAA8",
"~	c #434343",
"{	c #6C6C6C",
"]	c #8F8E8E",
"^	c #ABA9A8",
"/	c #3A3A3A",
"(	c #5D5C5C",
"_	c #AAA9A9",
":	c #787777",
"<	c #6E6D6D",
"[	c #676767",
"}	c #5A5A5A",
"|	c #5D5C5B",
"1	c #9D9B9A",
"2	c #969492",
"3	c #9F9E9D",
"4	c #626160",
"5	c #585656",
"6	c #6D6D6D",
"7	c #3F3F3F",
"8	c #8B8A88",
"9	c #919090",
"0	c #747473",
"a	c #6B6A6A",
"b	c #777777",
"c	c #6B6A69",
"d	c #B2B2B1",
"e	c #7F7F7F",
"f	c #6F6D6B",
"g	c #6E6E6E",
"h	c #7D7D7D",
"i	c #656362",
"j	c #757575",
"k	c #62615F",
"l	c #6A6A6A",
"m	c #747372",
"n	c #787878",
"o	c #5C5C5C",
"p	c #4E4E4E",
"q	c #565553",
"r	c #6E6E6D",
"s	c #727271",
"t	c #6D6C6C",
"u	c #656564",
"                    ",
"                    ",
"  ..+@#$%&*=        ",
"  .-;;;;;>;;,       ",
"  ';;;;;;);;!~      ",
"  {;;;;;;];;;^/     ",
"  (;;;;;;_:<[$}     ",
"  |;;;;;;;;1234     ",
"  5;;;;;;;;;;;6     ",
"  7;;;;;;;;;;;8     ",
"   9;;;;;;;;;;;.    ",
"   0;;;;;;;;;;;ab   ",
"   c;;;;;;;;;;;d$e  ",
"   f;;;;;;;;;;;;ghe ",
"   i;;;;;;;;;;;;jhe ",
"   k;;;;;;;;;;;;le  ",
"    m;;;;;;nl=oop   ",
"    qrst[uo         ",
"                    ",
"                    "};
