/* XPM */
static char * icon_folder_closed_20x20_xpm[] = {
"20 20 120 2",
"  	c None",
". 	c #6C6747",
"+ 	c #6F6748",
"@ 	c #6E6847",
"# 	c #6C6647",
"$ 	c #605C3F",
"% 	c #F5F4D6",
"& 	c #D7D0AE",
"* 	c #C8C299",
"= 	c #D3CBAA",
"- 	c #5E583D",
"; 	c #6D6848",
"> 	c #FDF9DE",
", 	c #DED9B5",
"' 	c #CAC39D",
") 	c #D6D0AF",
"! 	c #C9C29A",
"~ 	c #CEC8A1",
"{ 	c #534D36",
"] 	c #514B34",
"^ 	c #4F4D34",
"/ 	c #4E4933",
"( 	c #2D2B1E",
"_ 	c #706A49",
": 	c #FDFDFC",
"< 	c #F0EED3",
"[ 	c #E7E3C6",
"} 	c #F3EED8",
"| 	c #EEEBCD",
"1 	c #F9F4D8",
"2 	c #F9F4DA",
"3 	c #EBE5C8",
"4 	c #F2EDCF",
"5 	c #E8E4C5",
"6 	c #ECE9CB",
"7 	c #E4E0C1",
"8 	c #C6BF97",
"9 	c #504D34",
"0 	c #6F6A4A",
"a 	c #F7F2D4",
"b 	c #D8D3B3",
"c 	c #C7C39C",
"d 	c #CAC6A1",
"e 	c #D2CDA5",
"f 	c #CCC69F",
"g 	c #D0CBA3",
"h 	c #CAC39B",
"i 	c #BFBA90",
"j 	c #CDC6A6",
"k 	c #CFD1A6",
"l 	c #CDC99E",
"m 	c #A9A172",
"n 	c #4E4A32",
"o 	c #E8E3C5",
"p 	c #CCC79D",
"q 	c #CCC8A1",
"r 	c #CBC7A0",
"s 	c #C3BE96",
"t 	c #C9C39A",
"u 	c #C5BF96",
"v 	c #C5C096",
"w 	c #BEB98F",
"x 	c #BBB98C",
"y 	c #A69F6D",
"z 	c #4D4A32",
"A 	c #E9E5C6",
"B 	c #C4BE99",
"C 	c #C7C198",
"D 	c #C7C298",
"E 	c #C9C49A",
"F 	c #D4D0AB",
"G 	c #C1BB92",
"H 	c #CBC49C",
"I 	c #C3BD92",
"J 	c #C8C399",
"K 	c #C3BD94",
"L 	c #F3EFD2",
"M 	c #CFCAA2",
"N 	c #CFCAA4",
"O 	c #C6BF99",
"P 	c #C4BF95",
"Q 	c #D1CAA2",
"R 	c #968E5F",
"S 	c #E4DFBF",
"T 	c #CCC69D",
"U 	c #C0BB91",
"V 	c #BDBA90",
"W 	c #B7B488",
"X 	c #BDB78C",
"Y 	c #A59E6C",
"Z 	c #443F2C",
"` 	c #F2EED1",
" .	c #CEC89F",
"..	c #BEB98D",
"+.	c #C3BB94",
"@.	c #C6C197",
"#.	c #B9B28A",
"$.	c #C8C199",
"%.	c #C6BF95",
"&.	c #4D4732",
"*.	c #C2BA93",
"=.	c #BCB489",
"-.	c #CEC9A1",
";.	c #CDC69E",
">.	c #BFB790",
",.	c #C2BC93",
"'.	c #BBB68C",
").	c #48432F",
"!.	c #7F7F7F",
"~.	c #C5BF94",
"{.	c #ACA475",
"].	c #ABA374",
"^.	c #726B3F",
"/.	c #49432E",
"(.	c #010000",
"_.	c #514D34",
":.	c #504B33",
"<.	c #585339",
"[.	c #44412B",
"}.	c #0F0C09",
"                                        ",
"                                        ",
"                                        ",
"        . + @ #                         ",
"      $ % & * = -                       ",
"    ; > , ' ) ! ~ { ] ^ ^ ^ ^ / (       ",
"    _ : < [ } | 1 2 3 4 5 6 7 8 9       ",
"    0 a b c d e f g h i j k l m n       ",
"    0 o p q r s * t u v w h x y z       ",
"    0 A B C D E F G H I ' J K y z       ",
"    0 L v M D D N O i G i P Q R z       ",
"    0 S T u T U V T D G W P X Y Z       ",
"    0 `  .D ..i +.@.u #...$.%.y &.      ",
"    0 o  .*.p =.-.U ;.>.,.'.! R ).!.!.!.",
"    0 ~.{.].].Y Y Y Y Y Y Y Y ^./.!.!.  ",
"    (._.:.:.:.<.<.<.<.<.<.<.<.[.}.!.    ",
"                                        ",
"                                        ",
"                                        ",
"                                        "};
