/* XPM */
static char * icon_question_32x32_xpm[] = {
"32 32 584 2",
"  	c None",
". 	c #303037",
"+ 	c #41464E",
"@ 	c #1D203B",
"# 	c #192056",
"$ 	c #192257",
"% 	c #1B1F40",
"& 	c #222752",
"* 	c #37373F",
"= 	c #2F333A",
"- 	c #333747",
"; 	c #1F5441",
"> 	c #2C9742",
", 	c #32BF23",
"' 	c #33C51F",
") 	c #3AC822",
"! 	c #3BCD23",
"~ 	c #3BCF23",
"{ 	c #37BE23",
"] 	c #369D32",
"^ 	c #272738",
"/ 	c #424447",
"( 	c #414241",
"_ 	c #232326",
": 	c #1D1F1D",
"< 	c #27A21B",
"[ 	c #2FBA17",
"} 	c #2FC71B",
"| 	c #38C828",
"1 	c #3BC92B",
"2 	c #3ED026",
"3 	c #3FCC2F",
"4 	c #40CF30",
"5 	c #3FCD2F",
"6 	c #3FCD28",
"7 	c #3CCB26",
"8 	c #3CC428",
"9 	c #3EC027",
"0 	c #32982F",
"a 	c #232F27",
"b 	c #3F3F49",
"c 	c #191B27",
"d 	c #279015",
"e 	c #30BB2B",
"f 	c #33C31B",
"g 	c #34C423",
"h 	c #45CF30",
"i 	c #41D032",
"j 	c #48D333",
"k 	c #46D82E",
"l 	c #49D434",
"m 	c #42D02B",
"n 	c #3FCD27",
"o 	c #3FC92B",
"p 	c #3BC727",
"q 	c #32B91B",
"r 	c #2FAE19",
"s 	c #2C9219",
"t 	c #1B201F",
"u 	c #192A26",
"v 	c #27A127",
"w 	c #32B919",
"x 	c #37C31F",
"y 	c #37C71F",
"z 	c #3CD024",
"A 	c #41D02A",
"B 	c #4ED83B",
"C 	c #85E877",
"D 	c #CCF3CB",
"E 	c #D0F2CB",
"F 	c #D0F3CB",
"G 	c #C0F1B1",
"H 	c #8AE87E",
"I 	c #5FDC4F",
"J 	c #37C923",
"K 	c #38CC20",
"L 	c #3BC327",
"M 	c #32BA19",
"N 	c #2EB217",
"O 	c #269217",
"P 	c #272B2B",
"Q 	c #0D1930",
"R 	c #27A71B",
"S 	c #33BE1B",
"T 	c #36C41D",
"U 	c #3CD428",
"V 	c #7FE66F",
"W 	c #F1F5F1",
"X 	c #F4F6F4",
"Y 	c #F5F6F5",
"Z 	c #F6F6F5",
"` 	c #F7F7F7",
" .	c #F6F7F6",
"..	c #F5F7F5",
"+.	c #F6F6F7",
"@.	c #F5F5F4",
"#.	c #F4F5F1",
"$.	c #98E490",
"%.	c #37C51F",
"&.	c #37C023",
"*.	c #2EBB15",
"=.	c #249D11",
"-.	c #2F323C",
";.	c #2E2F38",
">.	c #26972B",
",.	c #2CBA17",
"'.	c #32C31D",
").	c #3BC82B",
"!.	c #46D432",
"~.	c #E8F4E6",
"{.	c #F5F5F5",
"].	c #F5F6F4",
"^.	c #F6F6F6",
"/.	c #F3F4F2",
"(.	c #A8EA9B",
"_.	c #30BB17",
":.	c #2FB815",
"<.	c #27B611",
"[.	c #239313",
"}.	c #373837",
"|.	c #2B3B37",
"1.	c #2BAE15",
"2.	c #32C11D",
"3.	c #B8F0B1",
"4.	c #F6F7F5",
"5.	c #F5F5F6",
"6.	c #F4F5F3",
"7.	c #F2F5F2",
"8.	c #8DDC81",
"9.	c #2EC019",
"0.	c #2EB815",
"a.	c #2BB611",
"b.	c #28B80F",
"c.	c #2E3632",
"d.	c #222226",
"e.	c #26A12E",
"f.	c #36C81D",
"g.	c #5DD848",
"h.	c #F6F6F4",
"i.	c #D1F5C4",
"j.	c #57EE41",
"k.	c #4EE53B",
"l.	c #4EDD38",
"m.	c #93F188",
"n.	c #D1F3CC",
"o.	c #F3F6F2",
"p.	c #F4F6F2",
"q.	c #F3F4F3",
"r.	c #F3F3F2",
"s.	c #3AC528",
"t.	c #2FB915",
"u.	c #2FB619",
"v.	c #2CB317",
"w.	c #2CAE15",
"x.	c #373737",
"y.	c #22273F",
"z.	c #2CC417",
"A.	c #33C11B",
"B.	c #3FCC27",
"C.	c #6DE260",
"D.	c #F4F7F4",
"E.	c #E2F6DC",
"F.	c #58EE44",
"G.	c #56EB41",
"H.	c #58EB3F",
"I.	c #52E13C",
"J.	c #4EDF37",
"K.	c #64E254",
"L.	c #71E665",
"M.	c #79E667",
"N.	c #ECF4EC",
"O.	c #F5F6F6",
"P.	c #F1F3EE",
"Q.	c #BAE4B5",
"R.	c #26B811",
"S.	c #23B30D",
"T.	c #2CB213",
"U.	c #2E3B2F",
"V.	c #232834",
"W.	c #2EC419",
"X.	c #32C41D",
"Y.	c #38CB24",
"Z.	c #40D428",
"`.	c #59DC45",
" +	c #F3F7F2",
".+	c #F0F7EE",
"++	c #79F168",
"@+	c #5BEB41",
"#+	c #59E740",
"$+	c #54E83E",
"%+	c #51DE39",
"&+	c #4CDB37",
"*+	c #4AD832",
"=+	c #42D92F",
"-+	c #40D82C",
";+	c #7DE870",
">+	c #F3F5F3",
",+	c #F1F5EE",
"'+	c #F1F3F1",
")+	c #BFE6B9",
"!+	c #2AB811",
"~+	c #23B10D",
"{+	c #20B00B",
"]+	c #242B27",
"^+	c #323237",
"/+	c #2A9A1B",
"(+	c #30C31B",
"_+	c #37CB1F",
":+	c #3CCF28",
"<+	c #48D730",
"[+	c #92EE87",
"}+	c #ABF2A0",
"|+	c #8DF07A",
"1+	c #5DEA44",
"2+	c #5AE840",
"3+	c #54E13C",
"4+	c #52DE3B",
"5+	c #4EDC3C",
"6+	c #49D635",
"7+	c #45D432",
"8+	c #41D42E",
"9+	c #3ED42A",
"0+	c #38D024",
"a+	c #EAF5E8",
"b+	c #F2F3EE",
"c+	c #F0F3F0",
"d+	c #BEE6B8",
"e+	c #2BBF13",
"f+	c #27BE11",
"g+	c #27B50E",
"h+	c #24AD0D",
"i+	c #209E09",
"j+	c #1F1F33",
"k+	c #1B1F3F",
"l+	c #30B519",
"m+	c #3CCB2C",
"n+	c #4EDC34",
"o+	c #4EDC38",
"p+	c #56E53E",
"q+	c #56E546",
"r+	c #55E344",
"s+	c #58E143",
"t+	c #4EDC37",
"u+	c #49DC39",
"v+	c #46D932",
"w+	c #45D02F",
"x+	c #3FD42B",
"y+	c #47DC2F",
"z+	c #70EA5F",
"A+	c #EEF4EE",
"B+	c #F0F3EE",
"C+	c #9EDB98",
"D+	c #24B70F",
"E+	c #27B50D",
"F+	c #23B10A",
"G+	c #27B011",
"H+	c #05092C",
"I+	c #191F42",
"J+	c #3ECC26",
"K+	c #47D032",
"L+	c #4DD737",
"M+	c #55DF3F",
"N+	c #55E33C",
"O+	c #4EE539",
"P+	c #4EDF36",
"Q+	c #4CDB36",
"R+	c #45D332",
"S+	c #45D136",
"T+	c #45D434",
"U+	c #68DE5A",
"V+	c #60DD50",
"W+	c #EEF5EE",
"X+	c #F4F4F5",
"Y+	c #F2F3F0",
"Z+	c #F0F1EE",
"`+	c #98DD90",
" @	c #24BB0F",
".@	c #27BA0E",
"+@	c #24B20B",
"@@	c #27AF13",
"#@	c #24AB0F",
"$@	c #0D0D33",
"%@	c #191F4A",
"&@	c #32B71B",
"*@	c #3BC923",
"=@	c #40CF28",
"-@	c #44CF33",
";@	c #4FD73B",
">@	c #52D93E",
",@	c #4FDB3F",
"'@	c #51E038",
")@	c #4BDC37",
"!@	c #4CDE33",
"~@	c #48D638",
"{@	c #4FDB3E",
"]@	c #D0F1CB",
"^@	c #C9F2C1",
"/@	c #F2F4F2",
"(@	c #F0F4EC",
"_@	c #E8F1E4",
":@	c #22B30C",
"<@	c #23AF0A",
"[@	c #26AD11",
"}@	c #28AB0F",
"|@	c #0F133B",
"1@	c #191F49",
"2@	c #32B71D",
"3@	c #37C727",
"4@	c #3CCB24",
"5@	c #4FD136",
"6@	c #4FD53A",
"7@	c #52DC3E",
"8@	c #50DF37",
"9@	c #4ADD32",
"0@	c #49DC32",
"a@	c #AEF0A3",
"b@	c #F5F5F3",
"c@	c #F5F6F3",
"d@	c #F1F4F0",
"e@	c #F0F2F0",
"f@	c #2AC315",
"g@	c #28C013",
"h@	c #23B60E",
"i@	c #22B008",
"j@	c #2BA817",
"k@	c #0E133A",
"l@	c #171D41",
"m@	c #2FB61B",
"n@	c #44D133",
"o@	c #48D033",
"p@	c #4CD337",
"q@	c #54D43B",
"r@	c #4DD437",
"s@	c #49D438",
"t@	c #49D832",
"u@	c #47DB2F",
"v@	c #F4F5F4",
"w@	c #DCF2D8",
"x@	c #D9F0D5",
"y@	c #5DD14D",
"z@	c #2BC317",
"A@	c #28BA13",
"B@	c #2BBE11",
"C@	c #27B90D",
"D@	c #26B011",
"E@	c #28AF0F",
"F@	c #27A90D",
"G@	c #0A0A32",
"H@	c #1D2333",
"I@	c #2CA617",
"J@	c #34C424",
"K@	c #42C92F",
"L@	c #49CC32",
"M@	c #4FCF3C",
"N@	c #49D034",
"O@	c #4FD337",
"P@	c #4CD537",
"Q@	c #42D42F",
"R@	c #6FE660",
"S@	c #F0F4F0",
"T@	c #34CD20",
"U@	c #32CB1D",
"V@	c #2FC81B",
"W@	c #2EC719",
"X@	c #2AC015",
"Y@	c #23BA0E",
"Z@	c #1FB10A",
"`@	c #23AE09",
" #	c #20AB07",
".#	c #23AA0E",
"+#	c #2AA915",
"@#	c #090930",
"##	c #1F1F1F",
"$#	c #2CA119",
"%#	c #33C01B",
"&#	c #3BC823",
"*#	c #3FC92F",
"=#	c #44CB2F",
"-#	c #4CCC3A",
";#	c #4ACB32",
">#	c #44CF2B",
",#	c #6FE25D",
"'#	c #F5F7F4",
")#	c #F1F6F2",
"!#	c #32C81D",
"~#	c #2FC819",
"{#	c #27BF13",
"]#	c #23B609",
"^#	c #1FAA06",
"/#	c #20A80B",
"(#	c #1FA509",
"_#	c #1B1F2F",
":#	c #324E41",
"<#	c #32BD19",
"[#	c #33BF23",
"}#	c #3FC82B",
"|#	c #40C52C",
"1#	c #44C82F",
"2#	c #45CC37",
"3#	c #3BD327",
"4#	c #67DD58",
"5#	c #F4F4F1",
"6#	c #F0F3EC",
"7#	c #ECF3EA",
"8#	c #30C81B",
"9#	c #2BC115",
"0#	c #2ABD11",
"a#	c #27B60E",
"b#	c #23AE0E",
"c#	c #26A013",
"d#	c #22A60A",
"e#	c #13470A",
"f#	c #2C3037",
"g#	c #2FB71B",
"h#	c #38C024",
"i#	c #3BC427",
"j#	c #3EC52A",
"k#	c #37CF23",
"l#	c #37CD23",
"m#	c #B8F4AB",
"n#	c #EEF3EE",
"o#	c #CBF3C8",
"p#	c #2FC115",
"q#	c #2BB811",
"r#	c #27B915",
"s#	c #23B713",
"t#	c #1FAD05",
"u#	c #1FA905",
"v#	c #22A011",
"w#	c #209F0F",
"x#	c #0B3B20",
"y#	c #1B1F1D",
"z#	c #2C8F2F",
"A#	c #34B21F",
"B#	c #36BD1D",
"C#	c #36C426",
"D#	c #3BC527",
"E#	c #33C91F",
"F#	c #33BF1B",
"G#	c #2FBD15",
"H#	c #2BB913",
"I#	c #23AD0D",
"J#	c #1DAB04",
"K#	c #1DA503",
"L#	c #1FA00C",
"M#	c #238023",
"N#	c #222824",
"O#	c #2F2F32",
"P#	c #2EB315",
"Q#	c #32BD1D",
"R#	c #33BF1F",
"S#	c #32C019",
"T#	c #34C020",
"U#	c #37BF23",
"V#	c #97DB8D",
"W#	c #EAF1E6",
"X#	c #B7E0B0",
"Y#	c #4FC03F",
"Z#	c #27B10D",
"`#	c #22B80C",
" $	c #20AF07",
".$	c #19B004",
"+$	c #1DB004",
"@$	c #1DAA03",
"#$	c #1BA502",
"$$	c #1D9F08",
"%$	c #2E3C32",
"&$	c #263332",
"*$	c #2C981F",
"=$	c #2EB019",
"-$	c #30B81B",
";$	c #2CBA1B",
">$	c #32B81D",
",$	c #2BBD15",
"'$	c #64CF50",
")$	c #EAEEE8",
"!$	c #E6ECE0",
"~$	c #E4EADF",
"{$	c #C1DDB8",
"]$	c #3BB92B",
"^$	c #1FB009",
"/$	c #1DB307",
"($	c #1BB105",
"_$	c #1DB003",
":$	c #17AF02",
"<$	c #19A603",
"[$	c #17A602",
"}$	c #1D8226",
"|$	c #222422",
"1$	c #27272B",
"2$	c #289119",
"3$	c #2BB515",
"4$	c #28B70F",
"5$	c #28B717",
"6$	c #2FB819",
"7$	c #2FB91B",
"8$	c #27B913",
"9$	c #E0ECDF",
"0$	c #E6EEE2",
"a$	c #E8EAE2",
"b$	c #E6E8E0",
"c$	c #DDE6D8",
"d$	c #42B533",
"e$	c #1BB305",
"f$	c #19B204",
"g$	c #1BAF02",
"h$	c #1BAE01",
"i$	c #1BA303",
"j$	c #22920D",
"k$	c #262E26",
"l$	c #717171",
"m$	c #1F2F23",
"n$	c #28983F",
"o$	c #27AE0F",
"p$	c #27AF11",
"q$	c #26AE0F",
"r$	c #24AF0B",
"s$	c #77DB69",
"t$	c #E6E8DF",
"u$	c #DDEADF",
"v$	c #D8EAD9",
"w$	c #A9D8A8",
"x$	c #3CB22A",
"y$	c #19B103",
"z$	c #17B002",
"A$	c #17AE01",
"B$	c #19A201",
"C$	c #17A201",
"D$	c #238015",
"E$	c #262E27",
"F$	c #656766",
"G$	c #7F7F7F",
"H$	c #193E27",
"I$	c #209626",
"J$	c #20A807",
"K$	c #23A90B",
"L$	c #1DAF07",
"M$	c #1BB206",
"N$	c #5ACC47",
"O$	c #DCE2D8",
"P$	c #A8D0A0",
"Q$	c #37B627",
"R$	c #17AD01",
"S$	c #17AB02",
"T$	c #19A803",
"U$	c #179A01",
"V$	c #1F7413",
"W$	c #262E28",
"X$	c #686C68",
"Y$	c #2C2F2C",
"Z$	c #1F3B34",
"`$	c #1F8E19",
" %	c #22A60C",
".%	c #1BA902",
"+%	c #17A902",
"@%	c #17A801",
"#%	c #17A702",
"$%	c #1DA108",
"%%	c #1BA104",
"&%	c #207927",
"*%	c #2C3833",
"=%	c #2C2E2E",
"-%	c #6E706D",
";%	c #232323",
">%	c #072336",
",%	c #0B3A1F",
"'%	c #199708",
")%	c #17A005",
"!%	c #15AD00",
"~%	c #15A800",
"{%	c #229034",
"]%	c #1D261F",
"^%	c #1B221F",
"/%	c #262728",
"(%	c #6F6F6E",
"_%	c #1D1D2E",
":%	c #0D1130",
"<%	c #0B0F22",
"[%	c #020837",
"}%	c #00023B",
"|%	c #000226",
"1%	c #0F1122",
"2%	c #222734",
"3%	c #6C706C",
"                                                                ",
"                      . + @ # $ % & *                           ",
"                = - ; > , ' ) ! ~ { ] ^ / (                     ",
"            _ : < [ } | 1 2 3 4 5 6 7 8 9 0 a b                 ",
"          c d e f g 1 2 h i j k l m n o p q r s t               ",
"        u v w x y z A B C D E F G H I J K L M N O P             ",
"      Q R S T ) U V W X Y Z `  ...+.@.#.$.%.&.M *.=.-.          ",
"    ;.>.,.'.).!.~.{.].^. . .`  .....@.]./.(.f _.:.<.[.}.        ",
"    |.1.2.) n 3.Y Y ^. .` ` `  ...4.Y 5.6.7.8.9.0.a.b.c.        ",
"  d.e.} f.z g.h.`  .`  .i.j.k.l.m.n.o.p.6.q.r.s.t.u.v.w.x.      ",
"  y.z.A.) B.C.4.` D.E.F.G.H.I.J.K.L.M.N.O.6.P.Q.2.R.S.T.U.      ",
"  V.W.X.Y.Z.`.Z  +.+++@+#+$+%+&+*+=+-+;+>+,+'+)+*.!+~+{+]+      ",
"^+/+(+_+~ :+<+[+}+|+1+2+3+4+5+6+7+8+9+0+a+b+c+d+e+f+g+h+i+j+    ",
"k+l+X.! m+4 <+n+o+p+q+r+s+t+u+v+w+x+y+z+A+'+B+C+e+D+E+F+G+H+    ",
"I+l+%.J J+K+L+5+M+M+N+O+P+Q+R+S+T+U+V+W+X+Y+Z+`+ @.@+@@@#@$@    ",
"%@&@%.*@=@-@L+;@>@,@'@)@!@~@{@]@^@{.@.>+/@(@_@f+ @:@<@[@}@|@    ",
"1@2@3@4@=@j 5@6@;@7@8@9@0@a@b@@.c@{.>+7.d@e@f@g@h@F+i@#@j@k@    ",
"l@m@y 1 B.n@o@p@q@r@s@t@u@@.v@v@@.{.w@x@y@z@A@B@C@F+D@E@F@G@    ",
"H@I@J@) m+K@L@M@N@O@P@Q@R@Z {.v@S@T@U@V@W@X@f+Y@Z@`@ #.#+#@#    ",
"##$#%#%.&#*#=#L@-#;#>#U ,#'#)#v@/@!#!#~#z@{#.@C@]# #^#/#(#_#    ",
"  :#<#[#L }#o |#1#2#=@3#4#v@5#6#7#8#} z@9#0#a#F+i@b#c#d#e#      ",
"  f#g#w h#L p i#j#).Y.k#l#m#n#o#X.9.z@p#q#r#s#i@t#u#v#w#x#      ",
"  y#z#A#B#A.[#C#L D#K K E#!#} F#<#G#H# @C@+@D@I#J#K#L#M#N#      ",
"    O#1.P#Q#R#S#T#U#A.8#} V#W#X#Y#<.Z#`#F+ $.$+$@$#$$$%$        ",
"    &$*$=$-$;$>$>$Q#,$p#'$)$!$~${$]$^$/$($($_$:$<$[$}$|$        ",
"      1$2$3$4$5$6$7$8$ @9$0$a$b$c$d$($e$f$:$g$h$i$j$k$l$        ",
"        m$n$o$p$q$r$`#`#s$t$u$v$w$x$y$z$:$A$B$C$D$E$F$G$G$G$G$  ",
"          H$I$J$K$J$L$/$M$N$O$P$Q$A$R$[$S$T$U$V$W$X$G$G$G$G$G$G$",
"            Y$Z$`$ %.%+%+%+%@%h$A$A$#%$%%%&%*%=%-%G$G$G$G$G$G$  ",
"                ;%>%,%'%)%!%~%!%!%~%{%]%^%/%(%G$G$G$G$G$        ",
"                      _%:%<%[%}%|%1%2%3%G$                      ",
"                                                                "};
