/* XPM */
static char * icon_drive_fixed_20x20_xpm[] = {
"20 20 67 1",
" 	c None",
".	c #555555",
"+	c #5D5D5D",
"@	c #616161",
"#	c #606060",
"$	c #5F5F5F",
"%	c #626262",
"&	c #4F4F4F",
"*	c #474747",
"=	c #595959",
"-	c #F9F9F9",
";	c #D7D7D7",
">	c #D1D1D1",
",	c #CFCFCF",
"'	c #CCCCCC",
")	c #CACACA",
"!	c #C9C9C9",
"~	c #B7B7B7",
"{	c #505050",
"]	c #FDFDFD",
"^	c #FCFCFC",
"/	c #FAFAFA",
"(	c #F7F7F7",
"_	c #F2F2F2",
":	c #E8E8E8",
"<	c #525252",
"[	c #878787",
"}	c #414141",
"|	c #EEEEEE",
"1	c #CDCDCD",
"2	c #CECECE",
"3	c #D2D8D2",
"4	c #CDCFCD",
"5	c #C1C1C1",
"6	c #585858",
"7	c #838383",
"8	c #444444",
"9	c #464646",
"0	c #E7E7E7",
"a	c #C3C3C3",
"b	c #00FE00",
"c	c #48E948",
"d	c #BBBBBB",
"e	c #515151",
"f	c #868686",
"g	c #EBEBEB",
"h	c #C8C8C8",
"i	c #C6C6C6",
"j	c #C5C5C5",
"k	c #C0C0C0",
"l	c #BDBDBD",
"m	c #484848",
"n	c #858585",
"o	c #E4E4E4",
"p	c #B8B8B8",
"q	c #B6B6B6",
"r	c #3C3C3C",
"s	c #7F7F7F",
"t	c #BCBCBC",
"u	c #BFBFBF",
"v	c #BEBEBE",
"w	c #BABABA",
"x	c #5B5B5B",
"y	c #7E7E7E",
"z	c #575757",
"A	c #565656",
"B	c #393939",
"                    ",
"                    ",
"                    ",
"                    ",
"                    ",
"                    ",
"  .+@@@@#$$$$$@%@&* ",
" =-;>>>>,''''')!~** ",
"{]^/////////(__:<[} ",
"<|!1!),,,,,22345678 ",
"90aaaaaaaaaaabcdef8 ",
"8ghi)h!!h))j5kldmn} ",
"9oppppp~~~~~qqqq<[rs",
"9otluvldddddwwd~xmys",
" zzzzz=zzzzzzzA{Bys ",
"                    ",
"                    ",
"                    ",
"                    ",
"                    "};
