/* XPM */
static char * icon_linux_32x32_xpm[] = {
"32 32 237 2",
"  	c None",
". 	c #07070A",
"+ 	c #020204",
"@ 	c #07070C",
"# 	c #0F0F0F",
"$ 	c #545453",
"% 	c #0D0D0E",
"& 	c #0C0C0C",
"* 	c #181819",
"= 	c #080809",
"- 	c #070709",
"; 	c #121213",
"> 	c #0E0E10",
", 	c #111113",
"' 	c #333334",
") 	c #040405",
"! 	c #D0D0CF",
"~ 	c #B3B3B2",
"{ 	c #8A8A8A",
"] 	c #DFDFDE",
"^ 	c #5F5F5F",
"/ 	c #060607",
"( 	c #010103",
"_ 	c #E0E0DF",
": 	c #454545",
"< 	c #BDBDBE",
"[ 	c #D9D9D9",
"} 	c #010102",
"| 	c #D8D8D7",
"1 	c #68501B",
"2 	c #9B7E08",
"3 	c #745C09",
"4 	c #9F8A3C",
"5 	c #E2CDA0",
"6 	c #E4B638",
"7 	c #EBC10B",
"8 	c #EDCD26",
"9 	c #F1CE16",
"0 	c #DCB30D",
"a 	c #A29974",
"b 	c #CD9208",
"c 	c #E8AE0A",
"d 	c #ECCA13",
"e 	c #F2D320",
"f 	c #DEBC12",
"g 	c #CCA009",
"h 	c #927108",
"i 	c #A59C88",
"j 	c #A17B1B",
"k 	c #C29A06",
"l 	c #BC8609",
"m 	c #C78E0C",
"n 	c #C59934",
"o 	c #868686",
"p 	c #030304",
"q 	c #686869",
"r 	c #2B2B2C",
"s 	c #C9C9C9",
"t 	c #B8AC96",
"u 	c #A77707",
"v 	c #B2852B",
"w 	c #BFAC85",
"x 	c #C6C1B7",
"y 	c #D5D5D4",
"z 	c #444444",
"A 	c #141415",
"B 	c #101012",
"C 	c #171718",
"D 	c #020202",
"E 	c #393839",
"F 	c #FEFEFC",
"G 	c #DFDEDD",
"H 	c #C3C2C2",
"I 	c #CECECC",
"J 	c #EBEBEA",
"K 	c #727272",
"L 	c #363637",
"M 	c #DBDBDB",
"N 	c #FBFBFA",
"O 	c #EEEEEC",
"P 	c #F9F9F7",
"Q 	c #0A0A0A",
"R 	c #4F4F50",
"S 	c #E8E8E7",
"T 	c #F1F1F1",
"U 	c #F9F9F8",
"V 	c #FCFCFB",
"W 	c #F5F5F4",
"X 	c #EAEAE9",
"Y 	c #E6E6E5",
"Z 	c #B2B1B1",
"` 	c #181718",
" .	c #575756",
"..	c #EFEFEF",
"+.	c #F7F7F6",
"@.	c #E0E0E0",
"#.	c #C6C6C6",
"$.	c #424143",
"%.	c #0B0B0C",
"&.	c #09090B",
"*.	c #E7E7E6",
"=.	c #CFCFCF",
"-.	c #10100F",
";.	c #242425",
">.	c #747474",
",.	c #F4F4F3",
"'.	c #0E0E0E",
").	c #121211",
"!.	c #1F1F20",
"~.	c #181818",
"{.	c #C1C1C0",
"].	c #EAEAEA",
"^.	c #999999",
"/.	c #030204",
"(.	c #4B4B4B",
"_.	c #F3F3F2",
":.	c #ECECEC",
"<.	c #A7A7A7",
"[.	c #5A5A5A",
"}.	c #EEEEED",
"|.	c #AAAAA9",
"1.	c #656564",
"2.	c #F2F2F1",
"3.	c #212122",
"4.	c #E6AC0A",
"5.	c #896908",
"6.	c #70603E",
"7.	c #D9D9D8",
"8.	c #F7ECC2",
"9.	c #6D6538",
"0.	c #090807",
"a.	c #3B3622",
"b.	c #4D4006",
"c.	c #7D5806",
"d.	c #7C590F",
"e.	c #C28D08",
"f.	c #F3BB0B",
"g.	c #F5BD0C",
"h.	c #A07A0B",
"i.	c #313133",
"j.	c #A4A4A3",
"k.	c #F7D45B",
"l.	c #A27C08",
"m.	c #0D0A04",
"n.	c #57460B",
"o.	c #EFBC0B",
"p.	c #C78D08",
"q.	c #E5AC09",
"r.	c #E7AE0A",
"s.	c #F1B90B",
"t.	c #ECB60B",
"u.	c #7C6207",
"v.	c #373739",
"w.	c #A9A8A7",
"x.	c #C7C7C7",
"y.	c #DEBC48",
"z.	c #C99108",
"A.	c #654806",
"B.	c #3D2A05",
"C.	c #5F4406",
"D.	c #DFA809",
"E.	c #EEB50B",
"F.	c #F4BD0B",
"G.	c #F0BD0B",
"H.	c #1A1204",
"I.	c #9D9D9C",
"J.	c #C4C4C4",
"K.	c #D8B247",
"L.	c #E4AB09",
"M.	c #D69D08",
"N.	c #D09808",
"O.	c #E5AD0A",
"P.	c #C28911",
"Q.	c #EAB00A",
"R.	c #9E850A",
"S.	c #A0A09F",
"T.	c #5C564C",
"U.	c #9B7309",
"V.	c #F3B90C",
"W.	c #EDB50A",
"X.	c #C68C10",
"Y.	c #D3A70A",
"Z.	c #7E5F0A",
"`.	c #C3C3C3",
" +	c #585858",
".+	c #130E06",
"++	c #A77A09",
"@+	c #F4BB0C",
"#+	c #EFB710",
"$+	c #D89B09",
"%+	c #EFB50D",
"&+	c #EEB80B",
"*+	c #D7A109",
"=+	c #878278",
"-+	c #2A1B04",
";+	c #B88607",
">+	c #F2BA0E",
",+	c #EFB70D",
"'+	c #E9B00A",
")+	c #C09935",
"!+	c #908264",
"~+	c #636363",
"{+	c #C38908",
"]+	c #D79A0D",
"^+	c #E2A709",
"/+	c #F0B810",
"(+	c #F3B80C",
"_+	c #EAAF0A",
":+	c #D19508",
"<+	c #3B2604",
"[+	c #3F2904",
"}+	c #B67F09",
"|+	c #F1B70E",
"1+	c #E6AD0F",
"2+	c #C89A25",
"3+	c #9A8657",
"4+	c #7F7F7F",
"5+	c #654103",
"6+	c #8B5D15",
"7+	c #A06C14",
"8+	c #B47B0C",
"9+	c #C28A09",
"0+	c #D09A10",
"a+	c #B98107",
"b+	c #8D5B05",
"c+	c #4B402D",
"d+	c #2B2B2D",
"e+	c #565656",
"f+	c #4E4E4F",
"g+	c #545455",
"h+	c #66563B",
"i+	c #8D5F07",
"j+	c #CF9607",
"k+	c #D49B08",
"l+	c #BE8707",
"m+	c #916B21",
"n+	c #717171",
"                                                                ",
"                          . + + + + @                           ",
"                        + + + + + # $ %                         ",
"                        + + + + + & * = -                       ",
"                      + ; > + + , ' ) + +                       ",
"                      + ! ~ + + { ] ^ / +                       ",
"                      ( _ : + - < % [ + +                       ",
"                      } | 1 2 3 4 + [ + +                       ",
"                      } 5 6 7 8 9 0 a + + +                     ",
"                      } b c d e f g h + + +                     ",
"                      } i j k l m n o p q r                     ",
"                      ( s t u v w x y z A B C                   ",
"                    D E F G H I J F F F + + + K                 ",
"                    L M F N O P F F F F Q + + +                 ",
"                  + R S N N T U V W X Y Z ` + + +               ",
"                ( +  .S N N ..+.V W S @.#.$.%.%.+ +             ",
"              } &.&.J F F F F F F F F N *.=.) -.A + +           ",
"              } ;.>.F F F U F F U F U N F ,.'.).A + +           ",
"              !.~.{.F F N ].F F N F F N F F ^.+ /./.+           ",
"              + (._.F F F :.F U N U F N F F <.+ + + +           ",
"            + + [.F V V F }.U U F F F F F N |.+ ) + + +         ",
"            + + 1.F V V F 2.F F F F F F F N |.+ 3.+ + +         ",
"            4.5.6.7.F F F +.F F F F F F F 8.9.0.+ / a.b.        ",
"      c.d.e.f.g.h.i.j.F F N F F F F U F F k.l.m.+ / n.o.        ",
"    p.q.r.s.g.g.t.u.v.w.F F F F F F N U x.y.z.A.B.C.D.s.        ",
"    z.E.g.g.g.g.F.G.H./.I.F F F F F N F J.K.L.M.N.O.f.g.        ",
"    P.Q.g.g.g.g.g.g.R.) S.F F N F U F F T.U.V.V.V.g.g.g.g.W.    ",
"    X.Q.g.g.g.g.g.g.Y.Z.F U F N F F `. +.+++g.g.g.g.g.g.@+#+    ",
"    $+%+@+g.g.g.g.g.&+*+=+|.|.|.<.^.+ + -+;+g.g.g.>+,+'+)+!+~+  ",
"    {+]+^+'+/+g.@+(+_+:+<++ + + + + + + [+}+@+(+|+1+2+3+4+4+4+  ",
"        5+6+7+8+9+0+a+b+c+d+e+e+e+f+R g+h+i+j+k+l+m+4+4+4+n+    ",
"                                                                "};
