/* XPM */
static char * icon_info_20x20_xpm[] = {
"20 20 214 2",
"  	c None",
". 	c #111217",
"+ 	c #040514",
"@ 	c #000219",
"# 	c #010214",
"$ 	c #0A0B13",
"% 	c #06060A",
"& 	c #24274A",
"* 	c #141B64",
"= 	c #3540A4",
"- 	c #303BA5",
"; 	c #2D39AA",
"> 	c #2E39A2",
", 	c #28339D",
"' 	c #141A57",
") 	c #111325",
"! 	c #050608",
"~ 	c #0A0B25",
"{ 	c #1E257B",
"] 	c #2A38BC",
"^ 	c #3B49C7",
"/ 	c #3C4AC9",
"( 	c #6771E1",
"_ 	c #727CE4",
": 	c #5864DA",
"< 	c #3C4AC7",
"[ 	c #3C4AC6",
"} 	c #222EB3",
"| 	c #181E6E",
"1 	c #030412",
"2 	c #0D1036",
"3 	c #1C27A7",
"4 	c #3442BC",
"5 	c #3A48C0",
"6 	c #3B49C6",
"7 	c #7D86E0",
"8 	c #E3E4F7",
"9 	c #ECEDF6",
"0 	c #CCD0FA",
"a 	c #5461D6",
"b 	c #3C4ACA",
"c 	c #3A48C6",
"d 	c #3542C3",
"e 	c #151E95",
"f 	c #0C0E23",
"g 	c #131528",
"h 	c #1A249C",
"i 	c #3846C0",
"j 	c #3A48C1",
"k 	c #3A49C7",
"l 	c #3B4AC8",
"m 	c #8B94E2",
"n 	c #F2F2F7",
"o 	c #F4F5F8",
"p 	c #F1F2F9",
"q 	c #6873D8",
"r 	c #3B4AC7",
"s 	c #3442CB",
"t 	c #222B8E",
"u 	c #121213",
"v 	c #1C2267",
"w 	c #3947BE",
"x 	c #3A48C2",
"y 	c #3A4AC8",
"z 	c #3B4AC9",
"A 	c #6974DA",
"B 	c #CBCFF8",
"C 	c #DDDFF8",
"D 	c #A6ACF3",
"E 	c #4956D3",
"F 	c #3A4AC7",
"G 	c #3C4BCD",
"H 	c #3845C0",
"I 	c #141743",
"J 	c #070814",
"K 	c #28339C",
"L 	c #3B4ACB",
"M 	c #3C4ACB",
"N 	c #5561D6",
"O 	c #5C67D8",
"P 	c #4B58D3",
"Q 	c #3B4ACA",
"R 	c #3A49CB",
"S 	c #1D2685",
"T 	c #010108",
"U 	c #171B3F",
"V 	c #3340AF",
"W 	c #3B49C4",
"X 	c #3B49C8",
"Y 	c #6C76DE",
"Z 	c #959DE4",
"` 	c #9BA2E4",
" .	c #9FA7E4",
"..	c #7C86E3",
"+.	c #414FD0",
"@.	c #2B36A1",
"#.	c #0B0D22",
"$.	c #1D2467",
"%.	c #3947BD",
"&.	c #3A48C3",
"*.	c #3A49C4",
"=.	c #3A48C5",
"-.	c #4C59D7",
";.	c #98A0F0",
">.	c #F1F2FA",
",.	c #F6F7F9",
"'.	c #ADB4F6",
").	c #404ED1",
"!.	c #3A49C9",
"~.	c #090D39",
"{.	c #171F73",
"].	c #3A47BD",
"^.	c #3947C2",
"/.	c #3C4AC8",
"(.	c #727CE6",
"_.	c #EAEBF7",
":.	c #F6F7F8",
"<.	c #A6ADEF",
"[.	c #3C4ACD",
"}.	c #3B4AC5",
"|.	c #080C44",
"1.	c #171F72",
"2.	c #3A49C8",
"3.	c #3A49C5",
"4.	c #3B49C9",
"5.	c #6E77E4",
"6.	c #ECECFC",
"7.	c #F6F7FA",
"8.	c #A7ADEF",
"9.	c #3C4ACE",
"0.	c #080D45",
"a.	c #1D2468",
"b.	c #3A48C4",
"c.	c #6D77E4",
"d.	c #ECECFD",
"e.	c #F7F8FD",
"f.	c #3A4AC9",
"g.	c #3A49C6",
"h.	c #3B49C5",
"i.	c #0A0E3D",
"j.	c #171B40",
"k.	c #3441B3",
"l.	c #3B49C3",
"m.	c #ECEDFD",
"n.	c #FAFAFE",
"o.	c #3B49CC",
"p.	c #3A4ACA",
"q.	c #2C38A3",
"r.	c #0D0F26",
"s.	c #03040E",
"t.	c #27319B",
"u.	c #F8F9FA",
"v.	c #3B49CD",
"w.	c #3A48CA",
"x.	c #1B247F",
"y.	c #010106",
"z.	c #121864",
"A.	c #3B48C1",
"B.	c #6C76E2",
"C.	c #ECEDFC",
"D.	c #F8F8F8",
"E.	c #3542C0",
"F.	c #070B47",
"G.	c #090B20",
"H.	c #212CA0",
"I.	c #EEEFFD",
"J.	c #FBFBFD",
"K.	c #B1B7F7",
"L.	c #424FD2",
"M.	c #222983",
"N.	c #212223",
"O.	c #0F1239",
"P.	c #3440B0",
"Q.	c #505DD2",
"R.	c #BCC0F5",
"S.	c #F4F5F9",
"T.	c #FAFAFD",
"U.	c #E3E4FD",
"V.	c #6E78E9",
"W.	c #3C4AC5",
"X.	c #3845C4",
"Y.	c #313B97",
"Z.	c #272936",
"`.	c #6F6F6F",
" +	c #7F7F7F",
".+	c #111331",
"++	c #21297A",
"@+	c #2A37BE",
"#+	c #656FDF",
"$+	c #8E95E2",
"%+	c #979DE6",
"&+	c #969DE3",
"*+	c #9299DD",
"=+	c #7C85E6",
"-+	c #3846D4",
";+	c #2330B3",
">+	c #151C6E",
",+	c #2A2A33",
"'+	c #808080",
")+	c #030307",
"!+	c #161A46",
"~+	c #121856",
"{+	c #28329E",
"]+	c #232EAD",
"^+	c #232FAF",
"/+	c #2431A6",
"(+	c #293292",
"_+	c #2A2D5A",
":+	c #23263C",
"<+	c #2C2C34",
"[+	c #050617",
"}+	c #000114",
"|+	c #0D0D19",
"1+	c #2F2F2F",
"              . + @ # $                 ",
"        % & * = - ; > , ' ) !           ",
"      ~ { ] ^ / ( _ : < [ } | 1         ",
"    2 3 4 5 6 7 8 9 0 a b c d e f       ",
"  g h i j k l m n o p q / b r s t u     ",
"  v w x x y z A B C D E z F F G H I     ",
"J K w l ^ L M M N O P M G Q ^ z R S T   ",
"U V W Q X M Y Z `  ...+.G M b z b @.#.  ",
"$.%.&.*.=.M -.;.>.,.'.).r L z !.l W ~.  ",
"{.].6 X ^.r /.(._.:.<.[.}.L z z l M |.  ",
"1.5 2.z 3.4.r 5.6.7.8.9.Q r l Q r b 0.  ",
"a.&.k 3.b.L M c.d.e.8.[.f.L L !.g.h.i.  ",
"j.k.r 6 l.z M c.m.n.<.o.f.l l p.X q.r.  ",
"s.t.4.r /.6 6 c.d.u.<.v.y p.y 2.w.x.y.  ",
"  z.h./.M ^ A.B.C.D.<.9.Q y F *.E.F.    ",
"  G.H.^ X j h._ I.J.K.L.[ z 3.< M.N.    ",
"    O.P.i l.Q.R.S.T.U.V.X W.X.Y.Z.`. + +",
"      .+++@+#+$+%+&+*+=+-+;+>+,+'+ + +  ",
"        )+!+~+{+]+^+/+(+_+:+<+ + +      ",
"              [+}+@ }+|+1+              "};
