/* XPM */
static char * icon_folder_opened_20x20_xpm[] = {
"20 20 155 2",
"  	c None",
". 	c #635F40",
"+ 	c #706949",
"@ 	c #6F6A48",
"# 	c #6D6848",
"$ 	c #615C40",
"% 	c #C6C599",
"& 	c #B7B086",
"* 	c #C6C197",
"= 	c #ABA47A",
"- 	c #454330",
"; 	c #6E6949",
"> 	c #B6B083",
", 	c #B1AA7C",
"' 	c #BFB890",
") 	c #B3AC82",
"! 	c #C4BE95",
"~ 	c #ADA97C",
"{ 	c #544F37",
"] 	c #514C36",
"^ 	c #504D35",
"/ 	c #4F4A34",
"( 	c #2E2C1F",
"_ 	c #706B49",
": 	c #A8A88F",
"< 	c #ADAA7C",
"[ 	c #ADA77C",
"} 	c #B4AC87",
"| 	c #AEA879",
"1 	c #A49E6D",
"2 	c #ADA578",
"3 	c #A29A6B",
"4 	c #AEA777",
"5 	c #9C9661",
"6 	c #A59F6E",
"7 	c #B2AD7F",
"8 	c #AAA373",
"9 	c #625D40",
"0 	c #C5BF94",
"a 	c #BCB68F",
"b 	c #B8B487",
"c 	c #B1AD82",
"d 	c #B4B07F",
"e 	c #B0AA79",
"f 	c #B1AC7C",
"g 	c #AFA878",
"h 	c #ACA879",
"i 	c #AAA279",
"j 	c #9DA168",
"k 	c #9C975F",
"l 	c #9A925F",
"m 	c #5E5A3D",
"n 	c #3C3927",
"o 	c #59543A",
"p 	c #636142",
"q 	c #76714D",
"r 	c #635E42",
"s 	c #535036",
"t 	c #5D583E",
"u 	c #57543A",
"v 	c #676444",
"w 	c #676244",
"x 	c #666343",
"y 	c #7C7953",
"z 	c #9A9A63",
"A 	c #948C59",
"B 	c #5E5C3D",
"C 	c #4F4B36",
"D 	c #DEDBB9",
"E 	c #EEEBCF",
"F 	c #D8D5B1",
"G 	c #DAD7B7",
"H 	c #CFCDA6",
"I 	c #D4D2A9",
"J 	c #DFDCBA",
"K 	c #D1CDA6",
"L 	c #CBC8A2",
"M 	c #DEDBBB",
"N 	c #CECAA3",
"O 	c #D2CDA7",
"P 	c #3F3C2A",
"Q 	c #A39D6C",
"R 	c #968E5B",
"S 	c #575538",
"T 	c #333122",
"U 	c #E7E5C8",
"V 	c #C3C098",
"W 	c #D2CEA5",
"X 	c #C4C295",
"Y 	c #CFCFA4",
"Z 	c #D5D0AE",
"` 	c #C5C498",
" .	c #D0CBA9",
"..	c #BCB98D",
"+.	c #CCC7A3",
"@.	c #C3BD92",
"#.	c #6C6747",
"$.	c #81794D",
"%.	c #968D5D",
"&.	c #747458",
"*.	c #D7D4B0",
"=.	c #CBC99E",
"-.	c #CBC99C",
";.	c #C3BF96",
">.	c #C9C79A",
",.	c #BDBA8E",
"'.	c #C0BE93",
").	c #BEBE8F",
"!.	c #C2BD93",
"~.	c #BAB689",
"{.	c #BBB58C",
"].	c #46422F",
"^.	c #8E8A5B",
"/.	c #4E4B33",
"(.	c #4F4C37",
"_.	c #E2DEC1",
":.	c #D4D1A9",
"<.	c #C6C297",
"[.	c #C5C396",
"}.	c #BBB78A",
"|.	c #BFBD92",
"1.	c #BBBA8C",
"2.	c #BFBD8E",
"3.	c #BDB88E",
"4.	c #BAB48B",
"5.	c #BFBB8E",
"6.	c #5F5F40",
"7.	c #807B51",
"8.	c #484530",
"9.	c #393623",
"0.	c #C4C399",
"a.	c #C1BD92",
"b.	c #C8C699",
"c.	c #BFBB90",
"d.	c #C9C89C",
"e.	c #B9B488",
"f.	c #BDB98E",
"g.	c #C0BC91",
"h.	c #C0B991",
"i.	c #C3BE94",
"j.	c #2B2A1B",
"k.	c #3D3A28",
"l.	c #7F7F7F",
"m.	c #272417",
"n.	c #9B9166",
"o.	c #AEA675",
"p.	c #ACA575",
"q.	c #A69F6D",
"r.	c #A29A67",
"s.	c #222115",
"t.	c #17160D",
"u.	c #2C2919",
"v.	c #524E35",
"w.	c #514D34",
"x.	c #0C0907",
"                                        ",
"                                        ",
"                                        ",
"          . + @ #                       ",
"        $ % & * = -                     ",
"      ; > , ' ) ! ~ { ] ^ ^ ^ ^ / (     ",
"      _ : < [ } | 1 2 3 4 5 6 7 8 9     ",
"      # 0 a b c d e f g h i j k l m     ",
"    n o p q r s t u v u w x y z A B     ",
"  C D E F G H I J K L M N O P Q R S     ",
"  T U V W X Y Z ` %  ...+.@.#.$.%.S     ",
"    &.*.=.-.;.>.,.'.` ).!.~.{.].^./.    ",
"    (._.:.<.[.}.|.1.2.3.4.5.4.6.7.8.    ",
"    9.0.a.b.c.d.e.f.~.g.h.i.f.8 j.k.l.l.",
"      m.n.o.p.p.q.q.q.q.q.q.q.r.s.t.l.l.",
"      u.v.w.w.w.o o o o o o o o m.x.l.  ",
"                                        ",
"                                        ",
"                                        ",
"                                        "};
