/* XPM */
static char * icon_folder_noaccess_20x20_xpm[] = {
"20 20 139 2",
"  	c None",
". 	c #6C6747",
"+ 	c #6F6748",
"@ 	c #6E6847",
"# 	c #6C6647",
"$ 	c #605C3F",
"% 	c #F5F4D6",
"& 	c #D7D0AE",
"* 	c #8B6A53",
"= 	c #980301",
"- 	c #CC0000",
"; 	c #F10000",
"> 	c #D00000",
", 	c #7C0000",
"' 	c #6D6848",
") 	c #FDF9DE",
"! 	c #DED9B5",
"~ 	c #A48067",
"{ 	c #C00000",
"] 	c #EC0000",
"^ 	c #E60000",
"/ 	c #AF0000",
"( 	c #F90000",
"_ 	c #FF0000",
": 	c #BF0000",
"< 	c #343222",
"[ 	c #4F4D34",
"} 	c #4E4933",
"| 	c #2D2B1E",
"1 	c #706A49",
"2 	c #FDFDFC",
"3 	c #969584",
"4 	c #C80000",
"5 	c #FD0000",
"6 	c #CA0000",
"7 	c #F9F4D8",
"8 	c #F9F4DA",
"9 	c #EBE5C8",
"0 	c #AC0000",
"a 	c #FA0000",
"b 	c #AE0000",
"c 	c #777565",
"d 	c #C6BF97",
"e 	c #504D34",
"f 	c #6F6A4A",
"g 	c #F7F2D4",
"h 	c #B30505",
"i 	c #EF0000",
"j 	c #C20000",
"k 	c #B22019",
"l 	c #D0CBA3",
"m 	c #CAC39B",
"n 	c #BFBA90",
"o 	c #9D0000",
"p 	c #A30403",
"q 	c #A9A172",
"r 	c #4E4A32",
"s 	c #E8E3C5",
"t 	c #CBC7A0",
"u 	c #C34536",
"v 	c #B22018",
"w 	c #C5BF96",
"x 	c #C5C096",
"y 	c #BEB98F",
"z 	c #EE0000",
"A 	c #E70000",
"B 	c #A69F6D",
"C 	c #4D4A32",
"D 	c #E9E5C6",
"E 	c #CE0000",
"F 	c #E80000",
"G 	c #C7C298",
"H 	c #C9C49A",
"I 	c #AD3F33",
"J 	c #B41812",
"K 	c #C3BD92",
"L 	c #CAC39D",
"M 	c #AB0000",
"N 	c #EB0000",
"O 	c #F3EFD2",
"P 	c #C00403",
"Q 	c #CDAA85",
"R 	c #CFCAA4",
"S 	c #A73F32",
"T 	c #AD281F",
"U 	c #C2AF87",
"V 	c #F80000",
"W 	c #E00000",
"X 	c #968E5F",
"Y 	c #E4DFBF",
"Z 	c #820F0C",
"` 	c #F60000",
" .	c #B70000",
"..	c #C0BB91",
"+.	c #BDBA90",
"@.	c #CCC69D",
"#.	c #933126",
"$.	c #A50000",
"%.	c #FE0000",
"&.	c #A59E6C",
"*.	c #443F2C",
"=.	c #F2EED1",
"-.	c #ABA684",
";.	c #C70000",
">.	c #A80000",
",.	c #C3BB94",
"'.	c #C6C197",
").	c #810000",
"!.	c #FC0000",
"~.	c #B10000",
"{.	c #827D62",
"].	c #4D4732",
"^.	c #CEC89F",
"/.	c #876650",
"(.	c #DF0000",
"_.	c #B60000",
":.	c #DA0000",
"<.	c #A45E47",
"[.	c #C9C29A",
"}.	c #48432F",
"|.	c #7F7F7F",
"1.	c #C5BF94",
"2.	c #ACA475",
"3.	c #ABA374",
"4.	c #968F65",
"5.	c #930502",
"6.	c #C30000",
"7.	c #F70000",
"8.	c #D30000",
"9.	c #7B0402",
"0.	c #826C4A",
"a.	c #726B3F",
"b.	c #49432E",
"c.	c #010000",
"d.	c #514D34",
"e.	c #504B33",
"f.	c #585339",
"g.	c #44412B",
"h.	c #0F0C09",
"                                        ",
"                                        ",
"                                        ",
"        . + @ #                         ",
"      $ % & * = - ; > ,                 ",
"    ' ) ! ~ { ] ^ / ( _ : < [ } |       ",
"    1 2 3 4 5 6 7 8 9 0 a b c d e       ",
"    f g h i j _ k l m n o _ p q r       ",
"    f s 6 _ t u 5 v w x y z A B C       ",
"    f D E F G H I _ J K L M N B C       ",
"    f O P _ Q G R S _ T U V W X C       ",
"    f Y Z `  ...+.@.#._ $.%.P &.*.      ",
"    f =.-.;.( >.,.'.w ).!.~.{.B ].      ",
"    f s ^./.(.5 ; _.a _ :.<.[.X }.|.|.|.",
"    f 1.2.3.4.5.6.7.8.9.0.&.&.a.b.|.|.  ",
"    c.d.e.e.e.f.f.f.f.f.f.f.f.g.h.|.    ",
"                                        ",
"                                        ",
"                                        ",
"                                        "};
