/* XPM */
static char * icon_sound_32x32_xpm[] = {
"32 32 364 2",
"  	c None",
". 	c #434242",
"+ 	c #3C3A3A",
"@ 	c #222121",
"# 	c #0D0D0D",
"$ 	c #504F4E",
"% 	c #7B7978",
"& 	c #3C3B3B",
"* 	c #262424",
"= 	c #0C0B0B",
"- 	c #151414",
"; 	c #171616",
"> 	c #474544",
", 	c #A8A5A4",
"' 	c #1A1919",
") 	c #0E0E0E",
"! 	c #090909",
"~ 	c #0F0F0F",
"{ 	c #1E1D1D",
"] 	c #1F1E1E",
"^ 	c #1C1B1B",
"/ 	c #605D5C",
"( 	c #CAC8C5",
"_ 	c #4D4D4C",
": 	c #141414",
"< 	c #080707",
"[ 	c #0A0909",
"} 	c #10100F",
"| 	c #1B1A1A",
"1 	c #1D1C1C",
"2 	c #232222",
"3 	c #817F7D",
"4 	c #DAD6D3",
"5 	c #7F7C7A",
"6 	c #101010",
"7 	c #070707",
"8 	c #0B0A0A",
"9 	c #121111",
"0 	c #1F1F1F",
"a 	c #898786",
"b 	c #EBE8E5",
"c 	c #A5A3A0",
"d 	c #262524",
"e 	c #0B0B0B",
"f 	c #0E0D0D",
"g 	c #0C0C0C",
"h 	c #111010",
"i 	c #252424",
"j 	c #706E6D",
"k 	c #EDEBEA",
"l 	c #E7E4E1",
"m 	c #51504F",
"n 	c #0D0C0C",
"o 	c #141312",
"p 	c #1D1D1B",
"q 	c #1E1D1C",
"r 	c #262525",
"s 	c #ABAAA8",
"t 	c #E7E6E5",
"u 	c #B3B0AF",
"v 	c #1C1C1C",
"w 	c #0A0A0A",
"x 	c #131211",
"y 	c #1E1E1D",
"z 	c #1F1E1D",
"A 	c #211F1F",
"B 	c #282726",
"C 	c #2A2929",
"D 	c #706F6D",
"E 	c #E5E4E3",
"F 	c #DAD7D6",
"G 	c #888685",
"H 	c #141313",
"I 	c #0E0E0D",
"J 	c #1A1A19",
"K 	c #252422",
"L 	c #262323",
"M 	c #2A2928",
"N 	c #5F5D5C",
"O 	c #605E5C",
"P 	c #5D5C5B",
"Q 	c #5B5959",
"R 	c #646362",
"S 	c #BDBBBA",
"T 	c #E6E3E2",
"U 	c #CBC9C7",
"V 	c #575656",
"W 	c #080808",
"X 	c #121211",
"Y 	c #151515",
"Z 	c #191918",
"` 	c #2A2927",
" .	c #2C2A29",
"..	c #2C2928",
"+.	c #2A2A28",
"@.	c #6A6969",
"#.	c #D9D8D7",
"$.	c #DBDAD8",
"%.	c #D7D6D5",
"&.	c #C6C5C4",
"*.	c #848382",
"=.	c #E2E0DE",
"-.	c #E0DEDC",
";.	c #B9B6B5",
">.	c #363636",
",.	c #161515",
"'.	c #2D2B2A",
").	c #2D2C2A",
"!.	c #2C2B2A",
"~.	c #636262",
"{.	c #E8E7E6",
"].	c #DDDBD9",
"^.	c #D9D7D7",
"/.	c #B4B3B2",
"(.	c #B7B6B5",
"_.	c #E5E3E1",
":.	c #D6D4D3",
"<.	c #9B9A98",
"[.	c #706F6F",
"}.	c #7B7B7B",
"|.	c #464646",
"1.	c #272625",
"2.	c #2E2D2B",
"3.	c #2F2E2D",
"4.	c #4C4C4B",
"5.	c #D3D1D0",
"6.	c #C6C4C3",
"7.	c #BBB8B7",
"8.	c #B8B6B4",
"9.	c #B5B2B2",
"0.	c #9C9A98",
"a.	c #B1AFAE",
"b.	c #E1E0DD",
"c.	c #D1CFCC",
"d.	c #848281",
"e.	c #272727",
"f.	c #343333",
"g.	c #505050",
"h.	c #929191",
"i.	c #DFDFDF",
"j.	c #2D2C2B",
"k.	c #302E2D",
"l.	c #2B2A29",
"m.	c #4F4F4F",
"n.	c #C1BFBE",
"o.	c #A3A1A0",
"p.	c #A2A09F",
"q.	c #A19F9E",
"r.	c #8D8B8B",
"s.	c #B0AEAD",
"t.	c #E0DEDB",
"u.	c #CBC8C7",
"v.	c #636362",
"w.	c #1A1A1A",
"x.	c #323131",
"y.	c #272726",
"z.	c #ADACAC",
"A.	c #4B4B4B",
"B.	c #1F1D1D",
"C.	c #312F2D",
"D.	c #302F2C",
"E.	c #32302E",
"F.	c #484848",
"G.	c #BAB8B7",
"H.	c #969494",
"I.	c #979595",
"J.	c #92908F",
"K.	c #918F8F",
"L.	c #807E7D",
"M.	c #ADABAA",
"N.	c #DEDBD9",
"O.	c #C5C3C2",
"P.	c #5B5A59",
"Q.	c #191919",
"R.	c #2F2F2F",
"S.	c #2B2B2B",
"T.	c #4E4D4D",
"U.	c #767575",
"V.	c #696868",
"W.	c #201F1F",
"X.	c #2B2B29",
"Y.	c #312F2E",
"Z.	c #363432",
"`.	c #31302E",
" +	c #545453",
".+	c #AFAEAD",
"++	c #828180",
"@+	c #858383",
"#+	c #838281",
"$+	c #82807F",
"%+	c #716F6E",
"&+	c #A3A09F",
"*+	c #DADAD8",
"=+	c #C0BFBD",
"-+	c #575655",
";+	c #131313",
">+	c #333333",
",+	c #474747",
"'+	c #32302F",
")+	c #333131",
"!+	c #373534",
"~+	c #31302F",
"{+	c #4A4949",
"]+	c #A8A6A5",
"^+	c #767573",
"/+	c #797877",
"(+	c #7A7977",
"_+	c #7A7877",
":+	c #6A6968",
"<+	c #9F9D9C",
"[+	c #D2CFCD",
"}+	c #B6B4B3",
"|+	c #525251",
"1+	c #2C2B2B",
"2+	c #3B3A3A",
"3+	c #494949",
"4+	c #444343",
"5+	c #2D2B2B",
"6+	c #323130",
"7+	c #363535",
"8+	c #383736",
"9+	c #302F2F",
"0+	c #444444",
"a+	c #6B6A69",
"b+	c #6D6B6A",
"c+	c #605E5E",
"d+	c #8C8A89",
"e+	c #BCBAB9",
"f+	c #A7A5A4",
"g+	c #5B5A5A",
"h+	c #100F0F",
"i+	c #232323",
"j+	c #353434",
"k+	c #444443",
"l+	c #292828",
"m+	c #242322",
"n+	c #2F2D2C",
"o+	c #3E3C3B",
"p+	c #5E5D5B",
"q+	c #605F5E",
"r+	c #545352",
"s+	c #B5B4B2",
"t+	c #9F9D9D",
"u+	c #6D6C6C",
"v+	c #181818",
"w+	c #232322",
"x+	c #2B2A2A",
"y+	c #393939",
"z+	c #262523",
"A+	c #333231",
"B+	c #373635",
"C+	c #43413F",
"D+	c #413F3D",
"E+	c #2F2E2E",
"F+	c #353534",
"G+	c #656362",
"H+	c #4E4D4C",
"I+	c #515050",
"J+	c #515150",
"K+	c #474645",
"L+	c #A6A3A3",
"M+	c #9C9B99",
"N+	c #767574",
"O+	c #171717",
"P+	c #212121",
"Q+	c #222120",
"R+	c #3E3B3A",
"S+	c #454341",
"T+	c #252323",
"U+	c #454443",
"V+	c #494746",
"W+	c #494847",
"X+	c #42413F",
"Y+	c #41403F",
"Z+	c #8B8988",
"`+	c #989795",
" @	c #878584",
".@	c #121212",
"+@	c #191818",
"@@	c #212020",
"#@	c #302E2E",
"$@	c #343332",
"%@	c #3A3937",
"&@	c #3F3E3C",
"*@	c #444240",
"=@	c #3B3838",
"-@	c #636261",
";@	c #918F8E",
">@	c #888686",
",@	c #111111",
"'@	c #252423",
")@	c #333130",
"!@	c #393736",
"~@	c #44413E",
"{@	c #464341",
"]@	c #4D4B4B",
"^@	c #858483",
"/@	c #696766",
"(@	c #181817",
"_@	c #272525",
":@	c #353432",
"<@	c #3C3B39",
"[@	c #494744",
"}@	c #44413F",
"|@	c #353332",
"1@	c #787776",
"2@	c #757373",
"3@	c #272626",
"4@	c #0F0E0E",
"5@	c #1B1B1A",
"6@	c #212120",
"7@	c #2A2827",
"8@	c #3D3C39",
"9@	c #494645",
"0@	c #4C4946",
"a@	c #3B3A38",
"b@	c #7F7F7F",
"c@	c #403F3F",
"d@	c #727070",
"e@	c #777575",
"f@	c #525150",
"g@	c #161616",
"h@	c #21201F",
"i@	c #2E2C2B",
"j@	c #393634",
"k@	c #42403D",
"l@	c #43413E",
"m@	c #4A4644",
"n@	c #494544",
"o@	c #424141",
"p@	c #6A6868",
"q@	c #686666",
"r@	c #2C2C2C",
"s@	c #171716",
"t@	c #353331",
"u@	c #3F3C39",
"v@	c #474440",
"w@	c #484541",
"x@	c #484542",
"y@	c #3E3C3A",
"z@	c #757575",
"A@	c #3E3D3D",
"B@	c #131212",
"C@	c #282727",
"D@	c #383735",
"E@	c #413E3B",
"F@	c #4A4744",
"G@	c #4C4845",
"H@	c #454240",
"I@	c #2D2D2D",
"J@	c #3A3939",
"K@	c #6F6E6D",
"L@	c #3C3A39",
"M@	c #42403E",
"N@	c #474542",
"O@	c #323030",
"P@	c #464545",
"Q@	c #313030",
"R@	c #363433",
"S@	c #3A3836",
"T@	c #373736",
"U@	c #747474",
"V@	c #3D3D3D",
"W@	c #6A6A6A",
"                                                                ",
"                                    . + @ #                     ",
"                                $ % & * # = - ;                 ",
"                              > , . ' ) ! ~ { ] ^               ",
"                            / ( _ : # < [ } | 1 2 ]             ",
"                          3 4 5 ~ 6 [ 7 8 9 ' ^ 0 @             ",
"                        a b c d e f < 7 g h | ^ | ] i           ",
"                      j k l m 9 8 n 7 7 g o p q 1 { r           ",
"                      s t u v ) ) w 7 ! g x 1 y z A B C         ",
"                    D E F G H = f ! 7 e I h J { K L B M         ",
"          N O P Q R S T U V g g # W W n X Y Z z `  ...+.        ",
"        @.#.$.%.&.*.=.-.;.>.# g e 7 W I ,.Z Z q M '.).!.i       ",
"      ~.{.].].^./.(._.:.<.0 g g w 6 & [.}.|.| | 1.).2.3.M       ",
"    4.5.6.7.8.9.0.a.b.c.d.9 g w ~ e.f.g.h.i.e.{ 1.j.3.k.l.      ",
"    m.n.o.o.p.q.r.s.t.u.v.) g g w.x.y.& V z.A.B.` C.D.E. .      ",
"    F.G.H.I.J.K.L.M.N.O.P.6 ) g Q.R.S.>.T.U.V.W.X.Y.E.Z.`.      ",
"     +.+++@+#+$+%+&+*+=+-+# # g ;+i S.>+,+V A.W.X.'+)+!+~+      ",
"    {+]+^+/+(+_+:+<+[+}+|+w # g 9 ] e.1+2+3+4+z 5+6+7+8+9+      ",
"    0+q.:+a+a+b+c+d+e+f+g+g ~ # h+^ i+i j+k+l+m+n+)+o+o+9+      ",
"    7+++P p+q+c+r+d.s+t+u+6 ~ 6 ~ v+w+x+y+y+z+j.A+B+C+D+E+      ",
"      F+G+H+I+J+K+g+L+M+N+O+) g 6 ~ P+R.9+Q+j.'+!+R+S+o+T+      ",
"        y+U+V+W+X+Y+Z+`+ @@ g w h+) .@+@@@r #@$@%@&@*@=@W.      ",
"          j.#@~+~+~+-@;@>@f.) ; n ,@Y 1 '@M )@!@~@S+{@!@        ",
"                    ]@Z+^@/@} 6 # ~ (@] _@j.:@<@[@[@}@|@        ",
"                      -@1@2@3@h 4@- 5@6@7@'+8@&@9@0@a@l+b@b@    ",
"                      c@d@e@f@g@) ' h@'@i@j@k@l@m@n@|@W.b@b@b@  ",
"                        o@p@q@r@4@s@T+M t@u@v@w@x@y@i z@b@b@b@b@",
"                          A@2@T.) B@C@3.D@E@F@G@H@3.I@b@b@b@b@b@",
"                            J@K@3@;+2 A+L@M@N@}@O@>+b@b@b@b@b@  ",
"                              >+P@6@{ Q@R@S@!@T@>+U@b@b@b@      ",
"                                  q C@r i i V@W@b@b@            ",
"                                                                "};
