/* XPM */
static char * icon_cut_20x20_xpm[] = {
"20 20 66 1",
" 	c None",
".	c #FEFEFE",
"+	c #EDF4F9",
"@	c #C6CBCF",
"#	c #FFFFFF",
"$	c #96989A",
"%	c #838485",
"&	c #A6A9AA",
"*	c #F8FBFD",
"=	c #7F8080",
"-	c #ABACAE",
";	c #F7F9FC",
">	c #888889",
",	c #989899",
"'	c #888888",
")	c #D7DBDE",
"!	c #BDBEC0",
"~	c #8B8C8C",
"{	c #ADB0B3",
"]	c #F7FBFD",
"^	c #C2C3C4",
"/	c #898989",
"(	c #8F8F8F",
"_	c #D3D6D9",
":	c #F6FAFC",
"<	c #CDCED0",
"[	c #828282",
"}	c #A0A3A5",
"|	c #808283",
"1	c #777777",
"2	c #434343",
"3	c #202121",
"4	c #515253",
"5	c #555657",
"6	c #252626",
"7	c #242525",
"8	c #3D3E3F",
"9	c #2F3030",
"0	c #3F4042",
"a	c #6C6D6D",
"b	c #3B3B3B",
"c	c #313232",
"d	c #3D3E3E",
"e	c #212121",
"f	c #333638",
"g	c #727171",
"h	c #232323",
"i	c #2D2F31",
"j	c #737373",
"k	c #303131",
"l	c #262626",
"m	c #232425",
"n	c #7F7F7F",
"o	c #444445",
"p	c #222323",
"q	c #28292A",
"r	c #525252",
"s	c #343435",
"t	c #2A2A2B",
"u	c #222222",
"v	c #494848",
"w	c #27292B",
"x	c #2C2C2C",
"y	c #070707",
"z	c #202020",
"A	c #5B5B5B",
"                    ",
"                    ",
"          .+        ",
"          .@        ",
"          #$        ",
"          #%        ",
"   &*     #=        ",
"    -;    .>        ",
"    ,').  .!        ",
"     '~{. ]^        ",
"       /(_:<        ",
"        ['}|        ",
"         1234       ",
"          5676890   ",
"         abcd3  ef  ",
"        gh ijkl  mn ",
"        op qn rstu  ",
"        vw xn       ",
"         yzA        ",
"                    "};
