/* XPM */
static char * icon_copy_20x20_xpm[] = {
"20 20 187 2",
"  	c None",
". 	c #565656",
"+ 	c #73716F",
"@ 	c #6E6E6D",
"# 	c #D7D7D5",
"$ 	c #D9D7D4",
"% 	c #B2AFAB",
"& 	c #585655",
"* 	c #DCD5C3",
"= 	c #D7CEBD",
"- 	c #CBC8C0",
"; 	c #DBD9D7",
"> 	c #D0CFCE",
", 	c #267926",
"' 	c #58BA58",
") 	c #5ABC5A",
"! 	c #1B631B",
"~ 	c #9E9C98",
"{ 	c #A3A19E",
"] 	c #5F574A",
"^ 	c #D4CDBB",
"/ 	c #DED8C5",
"( 	c #5C4E37",
"_ 	c #84735A",
": 	c #7F6F56",
"< 	c #878482",
"[ 	c #95938F",
"} 	c #7B7874",
"| 	c #298429",
"1 	c #59BE59",
"2 	c #53B953",
"3 	c #75736F",
"4 	c #73706C",
"5 	c #6F6864",
"6 	c #83735A",
"7 	c #817057",
"8 	c #64543E",
"9 	c #5D4E38",
"0 	c #85745B",
"a 	c #585551",
"b 	c #68C768",
"c 	c #54514D",
"d 	c #554B47",
"e 	c #827158",
"f 	c #8A7961",
"g 	c #B2A899",
"h 	c #C5C1BC",
"i 	c #C6C4C2",
"j 	c #267D26",
"k 	c #67C867",
"l 	c #C5C4C2",
"m 	c #C4C2BE",
"n 	c #958671",
"o 	c #62523C",
"p 	c #5D4F38",
"q 	c #8C7C64",
"r 	c #D4CFC7",
"s 	c #DDDDDB",
"t 	c #DBDBDB",
"u 	c #CECFCD",
"v 	c #358835",
"w 	c #74D074",
"x 	c #68C568",
"y 	c #237923",
"z 	c #CDCDCA",
"A 	c #DBDADA",
"B 	c #DEDEDD",
"C 	c #BCB4AA",
"D 	c #8F7F68",
"E 	c #D6D1CB",
"F 	c #416B40",
"G 	c #215821",
"H 	c #4C984C",
"I 	c #56AD56",
"J 	c #64C364",
"K 	c #2F932F",
"L 	c #1F6E1F",
"M 	c #124C12",
"N 	c #487048",
"O 	c #C6C1B7",
"P 	c #806F56",
"Q 	c #62533D",
"R 	c #CFC9C0",
"S 	c #F4F4F4",
"T 	c #195D19",
"U 	c #71C671",
"V 	c #96EA96",
"W 	c #80DB80",
"X 	c #73D273",
"Y 	c #47BE47",
"Z 	c #41BF41",
"` 	c #F7F7F7",
" .	c #CAC3BB",
"..	c #7E6D54",
"+.	c #8B7B63",
"@.	c #CFC9C1",
"#.	c #F0F0EF",
"$.	c #357A35",
"%.	c #93EA93",
"&.	c #83E083",
"*.	c #70CF70",
"=.	c #4ABD4A",
"-.	c #F2F2F2",
";.	c #C9C3BA",
">.	c #897961",
",.	c #CFCAC2",
"'.	c #307530",
").	c #65B865",
"!.	c #67BB67",
"~.	c #236D23",
"{.	c #F1F1F1",
"].	c #D8D4CE",
"^.	c #887861",
"/.	c #BCB4A8",
"(.	c #F3F2F2",
"_.	c #F5F5F5",
":.	c #ECEDEC",
"<.	c #3F7E3F",
"[.	c #2B722B",
"}.	c #EAECEA",
"|.	c #F0F0F0",
"1.	c #D4D0CA",
"2.	c #594B35",
"3.	c #87765F",
"4.	c #BAB2A6",
"5.	c #EFEFEF",
"6.	c #EEEEEE",
"7.	c #EDEDEC",
"8.	c #EDEDED",
"9.	c #D3CFCA",
"0.	c #544631",
"a.	c #85755D",
"b.	c #D4D0CB",
"c.	c #4B3D28",
"d.	c #4B3E29",
"e.	c #B8B0A4",
"f.	c #F3F3F3",
"g.	c #E7E6E4",
"h.	c #554730",
"i.	c #4B3F29",
"j.	c #82725A",
"k.	c #B0A698",
"l.	c #F1F1F0",
"m.	c #E6E5E3",
"n.	c #5F4F38",
"o.	c #7F7F7F",
"p.	c #463925",
"q.	c #817059",
"r.	c #F1F0F0",
"s.	c #EEEEED",
"t.	c #5F4F39",
"u.	c #473724",
"v.	c #7D6D55",
"w.	c #A39786",
"x.	c #E1DEDB",
"y.	c #E2E0DC",
"z.	c #E1DFDB",
"A.	c #D8D5CF",
"B.	c #D1CDC6",
"C.	c #CCC6BE",
"D.	c #C4BDB3",
"E.	c #5B4E36",
"F.	c #433522",
"G.	c #7E6D55",
"H.	c #877861",
"I.	c #908471",
"J.	c #90826F",
"K.	c #8E816D",
"L.	c #8D806D",
"M.	c #8C7F6D",
"N.	c #897C69",
"O.	c #887A67",
"P.	c #877965",
"Q.	c #847560",
"R.	c #81735E",
"S.	c #81735D",
"T.	c #7D6C54",
"U.	c #5C5346",
"V.	c #5F4D37",
"W.	c #706148",
"X.	c #6E5E47",
"Y.	c #695941",
"Z.	c #64553D",
"`.	c #60513A",
" +	c #5A4B36",
".+	c #544531",
"++	c #52432E",
"                . + + .                 ",
"              @ # $ $ % &               ",
"      * = - ; > , ' ) ! ~ { ] ^ /       ",
"    ( _ : < [ } | 1 2 ! 3 4 5 6 7 8     ",
"    9 0 : a a a , b ) ! c c d e 7 8     ",
"    9 f g h i i j k 2 ! l l m n e o     ",
"    p q r s t u v w x y z A B C 7 o     ",
"    ( D E F G H I w J K L M N O P Q     ",
"    9 q R S T U V W X Y Z M `  ...Q     ",
"    9 +.@.#.S $.%.&.*.=.! -.-.;.P Q     ",
"    9 >.,.#.S S '.).!.~.-.{.{.].P 8     ",
"    ( ^./.(._.-.:.<.[.}.|.|.{.1...8     ",
"    2.3.4.|.5.|.-.|.6.6.7.6.8.9...8     ",
"    0.a.4.|.|.-.8.8.6.5.6.5.5.b...c.    ",
"    d.a.e.5.f.{.{.{.{.{.{.-.-.g...h.    ",
"    i.j.k.|.f.f.-.-.-.l.l.-.{.m...n.o.  ",
"    p.q.k.{.-.|.l.r.{.{.#.s.#.g...t.o.o.",
"    u.v.w.x.y.z.z.z.z.z.A.B.C.D...E.o.o.",
"    F.G.H.I.J.K.L.M.N.O.P.Q.R.S.T.U.o.  ",
"      V.W.X.Y.Z.`. + +.+++c.c.c.c.o.    "};
