/* XPM */
static char * icon_error_32x32_xpm[] = {
"32 32 442 2",
"  	c None",
". 	c #111111",
"+ 	c #141414",
"@ 	c #151515",
"# 	c #161616",
"$ 	c #171F17",
"% 	c #131D13",
"& 	c #142613",
"* 	c #152813",
"= 	c #181818",
"- 	c #A34242",
"; 	c #DA4242",
"> 	c #ED3636",
", 	c #EE3737",
"' 	c #EB3131",
") 	c #B73B3B",
"! 	c #121212",
"~ 	c #0D0D0D",
"{ 	c #1A1A1A",
"] 	c #191919",
"^ 	c #A64545",
"/ 	c #EF3939",
"( 	c #F23737",
"_ 	c #F33D3D",
": 	c #F43F3F",
"< 	c #F53F3F",
"[ 	c #F54040",
"} 	c #F33C3C",
"| 	c #F13939",
"1 	c #EE3333",
"2 	c #E83131",
"3 	c #E42D2D",
"4 	c #772929",
"5 	c #2D0F0F",
"6 	c #0A0909",
"7 	c #1E1E1E",
"8 	c #C73030",
"9 	c #EA3F3F",
"0 	c #F53C3C",
"a 	c #F64444",
"b 	c #F54747",
"c 	c #F74A4A",
"d 	c #F84949",
"e 	c #F84D4D",
"f 	c #F84C4C",
"g 	c #F64545",
"h 	c #F44141",
"i 	c #F23838",
"j 	c #EC3131",
"k 	c #E93333",
"l 	c #DB3230",
"m 	c #D72727",
"n 	c #5C1817",
"o 	c #070707",
"p 	c #281E1E",
"q 	c #ED3838",
"r 	c #F63E3E",
"s 	c #F84242",
"t 	c #FA7676",
"u 	c #FAC4C4",
"v 	c #F85050",
"w 	c #F85454",
"x 	c #F95454",
"y 	c #F95151",
"z 	c #FA5555",
"A 	c #F74C4C",
"B 	c #F74242",
"C 	c #F23C3C",
"D 	c #EF3838",
"E 	c #EB2F2F",
"F 	c #EA2D2D",
"G 	c #E22424",
"H 	c #DD2626",
"I 	c #841F1F",
"J 	c #050505",
"K 	c #1D1D1D",
"L 	c #E43C3A",
"M 	c #FA3C3C",
"N 	c #FBC3C3",
"O 	c #FBFBFB",
"P 	c #FBEEEE",
"Q 	c #FA5D5D",
"R 	c #FB5E5E",
"S 	c #FB5B5B",
"T 	c #FB5D5D",
"U 	c #FA5454",
"V 	c #F94D4D",
"W 	c #F84747",
"X 	c #F34242",
"Y 	c #F03939",
"Z 	c #EF2D2D",
"` 	c #EC2323",
" .	c #E72929",
"..	c #E22323",
"+.	c #DA2323",
"@.	c #9A201E",
"#.	c #030303",
"$.	c #7A302F",
"%.	c #FB3737",
"&.	c #FBC9C9",
"*.	c #FBBEBE",
"=.	c #FB6464",
"-.	c #FB6363",
";.	c #FB5F5F",
">.	c #F95656",
",.	c #F44040",
"'.	c #F23636",
").	c #F26C6C",
"!.	c #F4C9C9",
"~.	c #F1EFEF",
"{.	c #EFBEBE",
"].	c #DB2121",
"^.	c #D72020",
"/.	c #58100F",
"(.	c #020202",
"_.	c #F43B3B",
":.	c #F74646",
"<.	c #FB8181",
"[.	c #FA6464",
"}.	c #FA6262",
"|.	c #F95959",
"1.	c #F74F4F",
"2.	c #F74848",
"3.	c #F58F8F",
"4.	c #F6F4F4",
"5.	c #F3F3F3",
"6.	c #F2F0F0",
"7.	c #EFECEC",
"8.	c #ECB4B3",
"9.	c #DA3636",
"0.	c #D31C1C",
"a.	c #060303",
"b.	c #171717",
"c.	c #A54646",
"d.	c #F53D3D",
"e.	c #F84545",
"f.	c #FBF9F9",
"g.	c #FBC7C7",
"h.	c #FA6060",
"i.	c #FA5858",
"j.	c #F85353",
"k.	c #F6C2C2",
"l.	c #F6F2F2",
"m.	c #F6F6F6",
"n.	c #F4F4F4",
"o.	c #F2F1F1",
"p.	c #EFEFEF",
"q.	c #EDE9E9",
"r.	c #E6A9A8",
"s.	c #5D1B1B",
"t.	c #E14A4A",
"u.	c #FA9A9A",
"v.	c #FBFAFA",
"w.	c #FA6969",
"x.	c #FA5959",
"y.	c #F95555",
"z.	c #F8C1C1",
"A.	c #F7F5F5",
"B.	c #F6F5F5",
"C.	c #F3F2F2",
"D.	c #EFEEEE",
"E.	c #EEE9E9",
"F.	c #ECDFDF",
"G.	c #D01919",
"H.	c #572D2D",
"I.	c #EC3F3F",
"J.	c #F53E3E",
"K.	c #FAC5C5",
"L.	c #FAFAFA",
"M.	c #FAEDED",
"N.	c #FA5151",
"O.	c #F94444",
"P.	c #F9C1C1",
"Q.	c #F2F2F2",
"R.	c #EFEDED",
"S.	c #EFE8E8",
"T.	c #ECECEC",
"U.	c #DC3B3B",
"V.	c #D11A1A",
"W.	c #893939",
"X.	c #F43939",
"Y.	c #F64343",
"Z.	c #FAF5F5",
"`.	c #FAF7F7",
" +	c #F9F7F7",
".+	c #F9F9F9",
"++	c #F4F3F3",
"@+	c #F0F0F0",
"#+	c #ECD8D8",
"$+	c #E32626",
"%+	c #8A2424",
"&+	c #000000",
"*+	c #F03535",
"=+	c #F43C3C",
"-+	c #F74444",
";+	c #F95050",
">+	c #FBF5F5",
",+	c #F7F7F7",
"'+	c #EEDCDC",
")+	c #ED5A5A",
"!+	c #E40808",
"~+	c #D21616",
"{+	c #CC1515",
"]+	c #F13636",
"^+	c #F54242",
"/+	c #FA5B5B",
"(+	c #FB6969",
"_+	c #FB6C6C",
":+	c #FBDEDE",
"<+	c #F8F8F8",
"[+	c #F3A8A8",
"}+	c #EF1D1D",
"|+	c #EF2525",
"1+	c #ED1616",
"2+	c #EA1A1A",
"3+	c #E51C1C",
"4+	c #D81010",
"5+	c #D11313",
"6+	c #CC1313",
"7+	c #F13535",
"8+	c #F84B4B",
"9+	c #FB6767",
"0+	c #FB6B6B",
"a+	c #FA6363",
"b+	c #FACECE",
"c+	c #F5F4F4",
"d+	c #F22828",
"e+	c #EC2F2F",
"f+	c #EC2525",
"g+	c #E92929",
"h+	c #E92828",
"i+	c #E81F1F",
"j+	c #E31A1A",
"k+	c #DA1B1B",
"l+	c #D51717",
"m+	c #CF1515",
"n+	c #CB1212",
"o+	c #F84A4A",
"p+	c #F95252",
"q+	c #FB6A6A",
"r+	c #FA6666",
"s+	c #FAEEEE",
"t+	c #F5F1F1",
"u+	c #F43E3E",
"v+	c #EB2C2C",
"w+	c #EA2828",
"x+	c #E92B2B",
"y+	c #E62A2A",
"z+	c #E12727",
"A+	c #DE2020",
"B+	c #D91B1B",
"C+	c #CE1414",
"D+	c #EF3434",
"E+	c #FB5A5A",
"F+	c #FB6161",
"G+	c #FB9797",
"H+	c #F5F5F5",
"I+	c #F3F0F0",
"J+	c #F38686",
"K+	c #EF2A2A",
"L+	c #E42A2A",
"M+	c #E02626",
"N+	c #D91F1F",
"O+	c #D41616",
"P+	c #D41313",
"Q+	c #CD1313",
"R+	c #CB1414",
"S+	c #EE3131",
"T+	c #F23B3B",
"U+	c #FBCBCB",
"V+	c #F7F6F6",
"W+	c #F5F3F3",
"X+	c #F2BFBF",
"Y+	c #E83B3B",
"Z+	c #E42121",
"`+	c #DD2323",
" @	c #D61C1C",
".@	c #D31717",
"+@	c #D41010",
"@@	c #CD1616",
"#@	c #CA1313",
"$@	c #9A3D3D",
"%@	c #F54646",
"&@	c #FAE9E9",
"*@	c #F23939",
"=@	c #EF3737",
"-@	c #F47E7E",
";@	c #F1DBDB",
">@	c #E96767",
",@	c #DB1C1C",
"'@	c #D31212",
")@	c #822121",
"!@	c #572626",
"~@	c #EB2E2E",
"{@	c #EF3636",
"]@	c #F33E3E",
"^@	c #F8E0E0",
"/@	c #F7A7A7",
"(@	c #F03838",
"_@	c #EE3434",
":@	c #EE3A3A",
"<@	c #F2E3E3",
"[@	c #F0E9E9",
"}@	c #EFBCBC",
"|@	c #E56666",
"1@	c #D81515",
"2@	c #D51414",
"3@	c #D21414",
"4@	c #231313",
"5@	c #E62727",
"6@	c #ED2E2E",
"7@	c #F36666",
"8@	c #F9F6F6",
"9@	c #F8F5F5",
"0@	c #F8F7F7",
"a@	c #F8F6F6",
"b@	c #F66363",
"c@	c #EE3636",
"d@	c #EC3232",
"e@	c #F29191",
"f@	c #F1F1F1",
"g@	c #F0EFEF",
"h@	c #EEEBEB",
"i@	c #E9E4E4",
"j@	c #E08181",
"k@	c #D71C1A",
"l@	c #CD1414",
"m@	c #C91212",
"n@	c #0A0A0A",
"o@	c #991E1E",
"p@	c #E72626",
"q@	c #F5A7A7",
"r@	c #F5B1B1",
"s@	c #ED3333",
"t@	c #EC3939",
"u@	c #EEA2A2",
"v@	c #F0EEEE",
"w@	c #EBEBEB",
"x@	c #E9E5E5",
"y@	c #E8D1D1",
"z@	c #670404",
"A@	c #090909",
"B@	c #D42121",
"C@	c #EB1D1D",
"D@	c #F4E2E2",
"E@	c #F4F2F2",
"F@	c #F43636",
"G@	c #EC3333",
"H@	c #EB3030",
"I@	c #EA2E2E",
"J@	c #E72A2A",
"K@	c #ED9393",
"L@	c #EDEBEB",
"M@	c #ECE9E9",
"N@	c #EBE9E9",
"O@	c #E9D2D2",
"P@	c #E14646",
"Q@	c #C81111",
"R@	c #060606",
"S@	c #8D1917",
"T@	c #DC2020",
"U@	c #EC2727",
"V@	c #F1E0E0",
"W@	c #F2DFDF",
"X@	c #EA2F2F",
"Y@	c #E92D2D",
"Z@	c #E62929",
"`@	c #E22525",
" #	c #E86363",
".#	c #EBC8C8",
"+#	c #EDEDED",
"@#	c #EBE5E5",
"##	c #E67171",
"$#	c #5F0E0E",
"%#	c #040404",
"&#	c #C61D1D",
"*#	c #D71D1D",
"=#	c #E91313",
"-#	c #EFB7B7",
";#	c #F0EDED",
">#	c #F1E7E7",
",#	c #E52828",
"'#	c #E12424",
")#	c #E02323",
"!#	c #DC1F1F",
"~#	c #E23636",
"{#	c #E8A8A8",
"]#	c #E9E6E6",
"^#	c #E8E4E4",
"/#	c #E46060",
"(#	c #CB1010",
"_#	c #CC1010",
":#	c #831212",
"<#	c #BC2222",
"[#	c #D11D1B",
"}#	c #E01413",
"|#	c #EFA8A8",
"1#	c #EFDCDC",
"2#	c #EFABAB",
"3#	c #DD2020",
"4#	c #DB1E1E",
"5#	c #D71A1A",
"6#	c #DC1E1E",
"7#	c #DB5353",
"8#	c #E8D5D5",
"9#	c #E04C4C",
"0#	c #CA0F0F",
"a#	c #9C100E",
"b#	c #666663",
"c#	c #7F7F7F",
"d#	c #991212",
"e#	c #CC1E1E",
"f#	c #D41C1A",
"g#	c #D61515",
"h#	c #D81B1B",
"i#	c #D61919",
"j#	c #D41515",
"k#	c #D51818",
"l#	c #D41717",
"m#	c #D41B1B",
"n#	c #DA1919",
"o#	c #D50A0A",
"p#	c #CD0F0F",
"q#	c #7E0909",
"r#	c #0C0404",
"s#	c #911818",
"t#	c #D21818",
"u#	c #D81414",
"v#	c #D31616",
"w#	c #D31111",
"x#	c #780D0D",
"y#	c #040000",
"z#	c #646461",
"A#	c #0B0303",
"B#	c #1B0707",
"C#	c #661D1D",
"D#	c #CF1818",
"E#	c #681A1A",
"F#	c #060000",
"G#	c #676764",
"H#	c #010101",
"I#	c #6B6B68",
"                                                                ",
"                      . + @ # $ % & *                           ",
"                @ # = - ; > , , > ' ) + ! ~                     ",
"            { ] ^ / ( _ : < [ < } | 1 2 3 4 5 6                 ",
"          7 8 9 0 a b c d e f d g h i j k l m n o               ",
"        p q r s t u v w x y z v A B C D E F G H I J             ",
"      K L r M N O O P Q R S T U V W X Y Z `  ...+.@.#.          ",
"    ] $.< %.&.O O O O *.=.-.;.Q >.A ,.'.).!.~.{.].^./.(.        ",
"    K _.:.<.O O O O O O -.-.[.}.|.1.2.3.4.5.6.7.8.9.0.a.        ",
"  b.c.d.e.f.O O O O O O g.-.[.h.i.j.k.l.m.n.o.p.q.r.0.s.(.      ",
"  { t.[ u.v.O O O O O O O w.Q x.y.z.A.B.4.5.C.D.E.F.0.G.(.      ",
"  H.I.J.K.f.O O O O O O L.M.N.O.P.A.4.B.n.n.Q.R.S.T.U.V.(.      ",
"# W.X.Y.Z.O O O O O O O L.L.`. +.+A.m.B.++n.Q.@+R.#+$+G.%+&+    ",
"= *+=+-+;+>+O O O O O L.L.L..+.+,+m.B.n.++C.Q.@+'+)+!+~+{+&+    ",
"= ]+^+d y /+=.(+_+:+L.L.L.L..+<+m.m.m.++[+}+|+1+2+3+4+5+6+&+    ",
"= 7+,.8+y.;.9+0+_+w.a+b+L.<+<+,+m.c+d+e+f+g+h+i+j+k+l+m+n+&+    ",
"= *+J.o+p+S =.(+q+r+s+.+.+<+<+m.m.t+u+v+w+x+y+z+A+B+l+C+6+&+    ",
"# D+_ 2.y E+F+-.G+L..+.+.+<+,+H+H+n.I+J+K+h+L+M+N+O+P+Q+R+&+    ",
"+ S+T+^+8+x E+U+.+.+.+.+<+V+W+H+n.C.C.I+X+Y+Z+`+ @.@+@@@#@&+    ",
". $@]+< %@A &@L..+.+.+.+,+*@=@-@5.5.C.C.6.;@>@,@ @O+'@{+)@&+    ",
"  !@~@{@]@^@L.L..+.+<+,+/@(@_@:@<@5.5.Q.~.[@}@|@1@2@3@{+&+      ",
"  4@5@6@7@<+8@9@0@a@,+B.b@c@_@d@e@C.Q.f@~.g@h@i@j@k@l@m@&+      ",
"  n@o@p@q@H+4.,+m.H+H+r@{@s@d@j t@u@g@v@p.E.w@x@y@C+n+z@&+      ",
"    A@B@C@D@5.++n.E@n.F@G@s@H@I@J@K@D.h@L@M@N@O@P@{+Q@&+        ",
"    R@S@T@U@V@C.C.Q.W@X@X@Y@J@Z@`@ #.#+#w@@#i@##6+m@$#&+        ",
"      %#&#*#=#-#;#~.>#,#$+`@'#)#!#~#{#T.]#^#/#(#_#:#&+          ",
"        %#<#[#}#|#1#2#3#!#4#4#5#5#6#7#8#8#9#0#_#a#&+b#c#c#c#c#  ",
"          #.d#e#f#g#h#h#5#i#i#j#k#l#m#n#o#p#_#q#&+b#c#c#c#c#c#c#",
"            #.r#s#t#u#k#k#k#v#v#v#v#w#R+n+x#y#&+z#c#c#c#c#c#c#  ",
"                (.A#B#C#G.G.D#@@@@@@E#F#&+&+G#c#c#c#c#          ",
"                      (.(.(.H#H#H#&+&+I#c#                      ",
"                                                                "};
