/* XPM */
static char * icon_pipe_20x20_xpm[] = {
"20 20 108 2",
"  	c None",
". 	c #474747",
"+ 	c #3D3D3D",
"@ 	c #838383",
"# 	c #DBDBDB",
"$ 	c #D4D4D4",
"% 	c #C0C0C0",
"& 	c #898989",
"* 	c #767676",
"= 	c #565656",
"- 	c #505050",
"; 	c #B6B6B6",
"> 	c #F1F1F1",
", 	c #F4F4F4",
"' 	c #EAEAEA",
") 	c #E5E5E5",
"! 	c #D2D2D2",
"~ 	c #A8A8A8",
"{ 	c #8F8F8F",
"] 	c #434343",
"^ 	c #363636",
"/ 	c #646464",
"( 	c #666666",
"_ 	c #787878",
": 	c #7C7C7C",
"< 	c #7E7E7E",
"[ 	c #B2B2B2",
"} 	c #E2E2E2",
"| 	c #E4E4E4",
"1 	c #EFEFEF",
"2 	c #F3F3F3",
"3 	c #DADADA",
"4 	c #9A9A9A",
"5 	c #656565",
"6 	c #EEEEEE",
"7 	c #EDEDED",
"8 	c #C4C4C4",
"9 	c #9D9D9D",
"0 	c #B3B3B3",
"a 	c #454545",
"b 	c #626262",
"c 	c #8D8D8D",
"d 	c #CECECE",
"e 	c #D5D5D5",
"f 	c #E3E3E3",
"g 	c #E7E7E7",
"h 	c #DDDDDD",
"i 	c #A5A5A5",
"j 	c #F2F2F2",
"k 	c #232323",
"l 	c #2C2C2C",
"m 	c #323232",
"n 	c #404040",
"o 	c #595959",
"p 	c #818181",
"q 	c #939393",
"r 	c #A7A7A7",
"s 	c #ACACAC",
"t 	c #C1C1C1",
"u 	c #CDCDCD",
"v 	c #949494",
"w 	c #DFDFDF",
"x 	c #2B2B2B",
"y 	c #303030",
"z 	c #464646",
"A 	c #4D4D4D",
"B 	c #000000",
"C 	c #3B3B3B",
"D 	c #4C4C4C",
"E 	c #747474",
"F 	c #9E9E9E",
"G 	c #BABABA",
"H 	c #333333",
"I 	c #414141",
"J 	c #8A8A8A",
"K 	c #383838",
"L 	c #020202",
"M 	c #424242",
"N 	c #6F6F6F",
"O 	c #858585",
"P 	c #6C6C6C",
"Q 	c #ADADAD",
"R 	c #2F2F2F",
"S 	c #3E3E3E",
"T 	c #585858",
"U 	c #A6A6A6",
"V 	c #242424",
"W 	c #282828",
"X 	c #3A3A3A",
"Y 	c #484848",
"Z 	c #5A5A5A",
"` 	c #979797",
" .	c #202020",
"..	c #7F7F7F",
"+.	c #7D7D7D",
"@.	c #CCCCCC",
"#.	c #111111",
"$.	c #2D2D2D",
"%.	c #5C5C5C",
"&.	c #292929",
"*.	c #393939",
"=.	c #6B6B6B",
"-.	c #A1A1A1",
";.	c #353535",
">.	c #686868",
",.	c #9C9C9C",
"'.	c #B7B7B7",
").	c #313131",
"                                        ",
"                                        ",
"                                        ",
"                                        ",
"    . +                                 ",
"  @ # $ % & * =                         ",
"- ; > , ' ) ! ~ { ] ^ / ( _ _ :         ",
"< [ } | 1 , 2 ) 3 4 5 6 7 8 9 0 a       ",
"b c 8 d e 3 f g h i j k k k l m n ^     ",
"- o p q r s t u v w x k k k y z A +     ",
"B C A D E & c F * G k k l H + I J K     ",
"  L M - - - N O P Q k k H R S T U ]     ",
"    V W X Y D Z 5 ` k l ^ C - T r .     ",
"          B  .C a ..k X C + / +.@.M     ",
"              #.$.%.&.$.*.=.-.F ; Y : : ",
"                  ;.>.. +.,.'.r Y : ..  ",
"                      x I I ).W ..      ",
"                                        ",
"                                        ",
"                                        "};
