/* XPM */
static char * icon_select_20x20_xpm[] = {
"20 20 64 1",
" 	c None",
".	c #3238A9",
"+	c #2F35AE",
"@	c #454CAE",
"#	c #4751D6",
"$	c #383DA7",
"%	c #36397B",
"&	c #454CAA",
"*	c #626BDD",
"=	c #363CAB",
"-	c #4A4C77",
";	c #3036AB",
">	c #454CA8",
",	c #626ADD",
"'	c #3A3FAF",
")	c #343779",
"!	c #1E2273",
"~	c #3942B8",
"{	c #5359AA",
"]	c #7176E2",
"^	c #3D42B2",
"/	c #373A7E",
"(	c #3D48CE",
"_	c #4147C2",
":	c #4E54A9",
"<	c #7F84E8",
"[	c #555BCC",
"}	c #373B8A",
"|	c #676778",
"1	c #242877",
"2	c #4D54E0",
"3	c #4A53C3",
"4	c #4A50A9",
"5	c #9399EE",
"6	c #787DDD",
"7	c #2A30AB",
"8	c #515382",
"9	c #4950D6",
"0	c #6C74E9",
"a	c #9AA0EF",
"b	c #A2A5EB",
"c	c #4F54C0",
"d	c #383A8B",
"e	c #68687B",
"f	c #7F7F7F",
"g	c #3B41C4",
"h	c #6972E6",
"i	c #8D94EC",
"j	c #5C62D1",
"k	c #232788",
"l	c #494A6A",
"m	c #1E2365",
"n	c #4F59DE",
"o	c #4E55D7",
"p	c #292EA0",
"q	c #393B70",
"r	c #6F6F74",
"s	c #3B41CA",
"t	c #2A30A5",
"u	c #3B3E7C",
"v	c #71717A",
"w	c #242995",
"x	c #373A74",
"y	c #72727B",
"                    ",
"                    ",
"                    ",
"                    ",
"              .+    ",
"            @#$%    ",
"           &*=-     ",
"   ;      >,')      ",
"   !~    {]^/       ",
"    (_  :<[}|       ",
"    12345678        ",
"     90abcde   fff  ",
"     ghijkl ffff    ",
"     mnopqrfff      ",
"      stuvff        ",
"      wxy           ",
"                    ",
"                    ",
"                    ",
"                    "};
