/* XPM */
static char * icon_link2_20x20_xpm[] = {
"20 20 109 2",
"  	c None",
". 	c #3D3D3D",
"+ 	c #919191",
"@ 	c #D1D1D1",
"# 	c #B9B9B9",
"$ 	c #4B4B4B",
"% 	c #8B8B8B",
"& 	c #BCBCBC",
"* 	c #494949",
"= 	c #5B5B5B",
"- 	c #373737",
"; 	c #8C8C8C",
"> 	c #C7C7C7",
", 	c #BFBFBF",
"' 	c #CECECE",
") 	c #4E4E4E",
"! 	c #3E3E3E",
"~ 	c #424242",
"{ 	c #8E8E8E",
"] 	c #D0D0D0",
"^ 	c #BDBDBD",
"/ 	c #8D8D8D",
"( 	c #CDCDCD",
"_ 	c #444444",
": 	c #525252",
"< 	c #6D6D6D",
"[ 	c #383838",
"} 	c #D8D8D8",
"| 	c #C1C1C1",
"1 	c #515151",
"2 	c #B0B0B0",
"3 	c #DEDEDE",
"4 	c #434343",
"5 	c #3B3B3B",
"6 	c #C8C8C8",
"7 	c #D5D5D5",
"8 	c #636363",
"9 	c #4F4F4F",
"0 	c #AEAEAE",
"a 	c #F8F8F8",
"b 	c #474747",
"c 	c #818181",
"d 	c #949494",
"e 	c #595959",
"f 	c #E6E6E6",
"g 	c #7E7E7E",
"h 	c #E1E1E1",
"i 	c #D4D4D4",
"j 	c #575757",
"k 	c #929292",
"l 	c #404040",
"m 	c #9B9B9B",
"n 	c #787878",
"o 	c #333333",
"p 	c #5F5F5F",
"q 	c #B2B2B2",
"r 	c #E0E0E0",
"s 	c #CBCBCB",
"t 	c #464646",
"u 	c #4C4C4C",
"v 	c #A1A1A1",
"w 	c #E7E7E7",
"x 	c #4D4D4D",
"y 	c #313131",
"z 	c #666666",
"A 	c #A5A5A5",
"B 	c #D9D9D9",
"C 	c #9C9C9C",
"D 	c #C0C0C0",
"E 	c #CACACA",
"F 	c #E3E3E3",
"G 	c #565656",
"H 	c #616161",
"I 	c #A8A8A8",
"J 	c #D7D7D7",
"K 	c #C6C6C6",
"L 	c #A9A9A9",
"M 	c #363636",
"N 	c #C5C5C5",
"O 	c #D3D3D3",
"P 	c #7F7F7F",
"Q 	c #626262",
"R 	c #5A5A5A",
"S 	c #414141",
"T 	c #606060",
"U 	c #A0A0A0",
"V 	c #CCCCCC",
"W 	c #E2E2E2",
"X 	c #DADADA",
"Y 	c #C3C3C3",
"Z 	c #3A3A3A",
"` 	c #7A7A7A",
" .	c #393939",
"..	c #484848",
"+.	c #838383",
"@.	c #A4A4A4",
"#.	c #7B7B7B",
"$.	c #D2D2D2",
"%.	c #585858",
"&.	c #7D7D7D",
"*.	c #B6B6B6",
"=.	c #646464",
"-.	c #8F8F8F",
";.	c #4A4A4A",
">.	c #747474",
",.	c #656565",
"'.	c #343434",
").	c #7C7C7C",
"!.	c #ACACAC",
"                                        ",
"    . + @ # $                           ",
"      . % @ & *                         ",
"  =     - ; > , $                       ",
"  ' )   ! ~ { ] ^ *                     ",
"  / ( _ : < [ ; } | 1                   ",
"  _ { 1 2 3 4 5 6 7 8 )                 ",
"    ~ 9 0 a b c # d e f )               ",
"      - g h i j k l m e n j             ",
"      o p q r s t   u v f w x           ",
"        y z A B @ $ C ^ D E F G         ",
"          [ H I J K e L M % N O 1       ",
"  P         M Q m 7 O ) R S g & s 1     ",
"  P P P       l T U V W X Y Z ` | V 9   ",
"  P P P P g      ...+.@.2 Q t  .#.& $.  ",
"  P P P P P g     l 5 ..x %.M    .&.*.  ",
"        P P P g g     ! =.-.;.     .>.  ",
"              P P P P P l &.i ,.    '.  ",
"                ).P P P P 4 !.] T       ",
"                                        "};
