/* XPM */
static char * icon_ok_20x20_xpm[] = {
"20 20 120 2",
"  	c None",
". 	c #3E9530",
"+ 	c #61C84D",
"@ 	c #43AE2B",
"# 	c #369316",
"$ 	c #2B7E1B",
"% 	c #A0E295",
"& 	c #C8DCC1",
"* 	c #449D30",
"= 	c #2F8813",
"- 	c #175B0C",
"; 	c #7CD46B",
"> 	c #68B152",
", 	c #32911C",
"' 	c #2F8A13",
") 	c #1C5D12",
"! 	c #48C82F",
"~ 	c #3DA61D",
"{ 	c #2A8D14",
"] 	c #2D8512",
"^ 	c #245E1B",
"/ 	c #45CA2B",
"( 	c #3CA31C",
"_ 	c #2A8C13",
": 	c #2A8512",
"< 	c #2D8C13",
"[ 	c #185A0D",
"} 	c #37882A",
"| 	c #2E5728",
"1 	c #3BA21B",
"2 	c #2C8112",
"3 	c #1A5910",
"4 	c #337C27",
"5 	c #8FC183",
"6 	c #306322",
"7 	c #379E1B",
"8 	c #2C8912",
"9 	c #2C8212",
"0 	c #1C5B12",
"a 	c #3F7F32",
"b 	c #C2E9BA",
"c 	c #6BB75B",
"d 	c #2B601E",
"e 	c #267419",
"f 	c #287814",
"g 	c #2E8B16",
"h 	c #43C129",
"i 	c #2F9016",
"j 	c #2F8616",
"k 	c #1E5E13",
"l 	c #39802B",
"m 	c #9CD78F",
"n 	c #73BE60",
"o 	c #65BF53",
"p 	c #6ABF57",
"q 	c #5EC348",
"r 	c #64C451",
"s 	c #64C24F",
"t 	c #64C14F",
"u 	c #5EC248",
"v 	c #5CC247",
"w 	c #38A91E",
"x 	c #2C7120",
"y 	c #3F563D",
"z 	c #387F2A",
"A 	c #5FB44B",
"B 	c #5AB544",
"C 	c #3EA526",
"D 	c #3F9F2C",
"E 	c #359722",
"F 	c #368F1E",
"G 	c #34901F",
"H 	c #338E1B",
"I 	c #308B18",
"J 	c #2C8E15",
"K 	c #2E8F14",
"L 	c #2B6B1E",
"M 	c #404F3E",
"N 	c #2D7C1D",
"O 	c #4AA22F",
"P 	c #3BA522",
"Q 	c #2D9621",
"R 	c #309124",
"S 	c #32891A",
"T 	c #318617",
"U 	c #2E8617",
"V 	c #2C8617",
"W 	c #2C8514",
"X 	c #288017",
"Y 	c #28631C",
"Z 	c #41523F",
"` 	c #7C7C7C",
" .	c #7F7F7F",
"..	c #247914",
"+.	c #228F16",
"@.	c #238D18",
"#.	c #2F8817",
"$.	c #2D8213",
"%.	c #2E8413",
"&.	c #2B651E",
"*.	c #404E3E",
"=.	c #7C7E7B",
"-.	c #1B7110",
";.	c #248A13",
">.	c #287B12",
",.	c #264F1E",
"'.	c #2B5723",
").	c #26561D",
"!.	c #235519",
"~.	c #225218",
"{.	c #41513D",
"].	c #787878",
"^.	c #1E6C0F",
"/.	c #287912",
"(.	c #2D4828",
"_.	c #7A7E79",
":.	c #787E77",
"<.	c #777D76",
"[.	c #277417",
"}.	c #335C2C",
"                                        ",
"                                        ",
"                        . + @ #         ",
"                      $ % & * = -       ",
"                      $ ; > , ' )       ",
"                      $ ! ~ { ] ^       ",
"                      $ / ( _ : -       ",
"                      $ / ( < ] [       ",
"            } |       $ / 1 < 2 3       ",
"          4 5 6       $ / 7 8 9 0       ",
"        a b c d e e f g h i j 9 k       ",
"      l m n o p q r s t u v w x y       ",
"    z A B C D E F G H I J K L M         ",
"    N O P Q R S T U V W X Y Z `  . . . .",
"      ..+.@.#.$.%.%.%.%.&.*.=. . . .    ",
"        -.;.>.,.'.).!.~.{.]. .          ",
"          ^./.(._.:.<.<.                ",
"            [.}.                        ",
"                                        ",
"                                        "};
