/* XPM */
static char * icon_fb_list_vertical_details_20x20_xpm[] = {
"20 20 18 1",
" 	c None",
".	c #000000",
"+	c #FFFFFF",
"@	c #510000",
"#	c #E40000",
"$	c #0F0000",
"%	c #E80000",
"&	c #FF0000",
"*	c #960000",
"=	c #BE0000",
"-	c #000B3A",
";	c #0028CC",
">	c #002BD8",
",	c #0033FF",
"'	c #00135F",
")	c #001055",
"!	c #001D9A",
"~	c #00061F",
"                    ",
"                    ",
"....................",
".        .    .    .",
".        .    .    .",
"....................",
".++++++++++++++++++.",
".++++++++++++++++++.",
".+@#$++++++++++++++.",
".+%&*+....+...+...+.",
".+.=.+....+...+...+.",
".++++++++++++++++++.",
".+-;.++++++++++++++.",
".+>,'+....+...+...+.",
".+)!~+....+...+...+.",
".++++++++++++++++++.",
".++++++++++++++++++.",
"....................",
"                    ",
"                    "};
