/* XPM */
static char * icon_power_32x32_xpm[] = {
"32 32 321 2",
"  	c None",
". 	c #6F6F6F",
"+ 	c #8B8B8B",
"@ 	c #A9A9A9",
"# 	c #A0A0A0",
"$ 	c #9D9D9D",
"% 	c #999999",
"& 	c #989898",
"* 	c #959595",
"= 	c #919191",
"- 	c #636363",
"; 	c #747474",
"> 	c #858585",
", 	c #D5D5D5",
"' 	c #E1E1E1",
") 	c #E7E7E7",
"! 	c #E3E3E3",
"~ 	c #DFDFDF",
"{ 	c #DCDCDC",
"] 	c #D9D9D9",
"^ 	c #D8D8D8",
"/ 	c #D6D6D6",
"( 	c #D2D2D2",
"_ 	c #BEBEBE",
": 	c #9B9B9B",
"< 	c #606060",
"[ 	c #3A3A3A",
"} 	c #696969",
"| 	c #B2B2B2",
"1 	c #E5E5E5",
"2 	c #E2E2E2",
"3 	c #EDEDED",
"4 	c #EBEBEB",
"5 	c #C6C6C6",
"6 	c #AAAAAA",
"7 	c #B6B6B6",
"8 	c #B1B1B1",
"9 	c #ACACAC",
"0 	c #4C4C4C",
"a 	c #DADADA",
"b 	c #EAEAEA",
"c 	c #AFAFAF",
"d 	c #B0B0B0",
"e 	c #909090",
"f 	c #565656",
"g 	c #AEAEAE",
"h 	c #ABABAB",
"i 	c #A8A8A8",
"j 	c #898989",
"k 	c #DBDBDB",
"l 	c #D0D0D0",
"m 	c #949494",
"n 	c #676767",
"o 	c #595959",
"p 	c #575757",
"q 	c #585858",
"r 	c #555555",
"s 	c #474747",
"t 	c #8D8D8D",
"u 	c #A6A6A6",
"v 	c #A7A7A7",
"w 	c #878787",
"x 	c #6E6E6E",
"y 	c #D3D3D3",
"z 	c #CCCCCC",
"A 	c #767676",
"B 	c #6D6D6D",
"C 	c #6B6B6B",
"D 	c #7F7F7F",
"E 	c #9F9F9F",
"F 	c #A4A4A4",
"G 	c #A2A2A2",
"H 	c #A3A3A3",
"I 	c #5C5C5C",
"J 	c #8A8A8A",
"K 	c #818181",
"L 	c #BCBCBC",
"M 	c #B7B7B7",
"N 	c #B4B4B4",
"O 	c #ADADAD",
"P 	c #828282",
"Q 	c #717171",
"R 	c #454545",
"S 	c #30302D",
"T 	c #353532",
"U 	c #3B3B37",
"V 	c #B9B9B9",
"W 	c #BBBBBB",
"X 	c #7D7D7D",
"Y 	c #8E8E8E",
"Z 	c #656565",
"` 	c #545454",
" .	c #383835",
"..	c #989788",
"+.	c #55544C",
"@.	c #393935",
"#.	c #989789",
"$.	c #5E5D56",
"%.	c #E0E0E0",
"&.	c #CFCFCF",
"*.	c #9C9C9C",
"=.	c #797979",
"-.	c #181816",
";.	c #94938B",
">.	c #5D5C54",
",.	c #4C4B45",
"'.	c #181817",
").	c #8C8C83",
"!.	c #5E5E55",
"~.	c #4D4D46",
"{.	c #D4D4D4",
"].	c #CECECE",
"^.	c #C4C4C4",
"/.	c #B8B8B8",
"(.	c #9A9A9A",
"_.	c #757575",
":.	c #535353",
"<.	c #212120",
"[.	c #87877D",
"}.	c #5F5E51",
"|.	c #525148",
"1.	c #222220",
"2.	c #79786D",
"3.	c #616051",
"4.	c #515048",
"5.	c #8C8C8C",
"6.	c #DDDDDD",
"7.	c #D7D7D7",
"8.	c #CBCBCB",
"9.	c #C3C3C3",
"0.	c #B5B5B5",
"a.	c #848484",
"b.	c #616161",
"c.	c #505050",
"d.	c #343433",
"e.	c #7E7D73",
"f.	c #716F5B",
"g.	c #55544B",
"h.	c #353534",
"i.	c #757468",
"j.	c #706E5A",
"k.	c #525249",
"l.	c #DEDEDE",
"m.	c #C2C2C2",
"n.	c #B3B3B3",
"o.	c #A5A5A5",
"p.	c #929292",
"q.	c #5E5E5E",
"r.	c #4D4D4D",
"s.	c #78766A",
"t.	c #73715D",
"u.	c #58574E",
"v.	c #C8C8C8",
"w.	c #BFBFBF",
"x.	c #A1A1A1",
"y.	c #6A6A6A",
"z.	c #4E4D4A",
"A.	c #4B4B4B",
"B.	c #363635",
"C.	c #7A786C",
"D.	c #767460",
"E.	c #5A5950",
"F.	c #D1D1D1",
"G.	c #C0BFBD",
"H.	c #929080",
"I.	c #504E3E",
"J.	c #23200E",
"K.	c #494949",
"L.	c #373736",
"M.	c #7D7B6F",
"N.	c #797763",
"O.	c #5F5E55",
"P.	c #727169",
"Q.	c #6D6C5F",
"R.	c #605F5A",
"S.	c #434342",
"T.	c #767569",
"U.	c #54544B",
"V.	c #242424",
"W.	c #282828",
"X.	c #CCCCCA",
"Y.	c #95904C",
"Z.	c #A79D19",
"`.	c #797765",
" +	c #6F6D5F",
".+	c #4A4412",
"++	c #695F00",
"@+	c #2A2712",
"#+	c #585856",
"$+	c #7D7C70",
"%+	c #7B7966",
"&+	c #696961",
"*+	c #919190",
"=+	c #777669",
"-+	c #72705C",
";+	c #5D5C56",
">+	c #868686",
",+	c #181818",
"'+	c #A3A291",
")+	c #B6AD21",
"!+	c #C0B417",
"~+	c #656131",
"{+	c #615E49",
"]+	c #6E6610",
"^+	c #807400",
"/+	c #443E0B",
"(+	c #464643",
"_+	c #83837E",
":+	c #BABAB8",
"<+	c #807F73",
"[+	c #76756C",
"}+	c #C5C5C5",
"|+	c #ACACAB",
"1+	c #78776B",
"2+	c #6F6E66",
"3+	c #1C1C1C",
"4+	c #B3B2A3",
"5+	c #9F9833",
"6+	c #CFC320",
"7+	c #BFB416",
"8+	c #7F7609",
"9+	c #827805",
"0+	c #8E8302",
"a+	c #534B06",
"b+	c #43423A",
"c+	c #858480",
"d+	c #B9B9B8",
"e+	c #74736F",
"f+	c #C1C1C1",
"g+	c #C9C9C9",
"h+	c #A1A1A0",
"i+	c #656560",
"j+	c #979797",
"k+	c #686868",
"l+	c #DCDCDB",
"m+	c #918D4F",
"n+	c #CEC329",
"o+	c #9C931B",
"p+	c #B9AE14",
"q+	c #AB9F09",
"r+	c #9E9204",
"s+	c #615802",
"t+	c #4A4937",
"u+	c #4F4F4D",
"v+	c #E8E8E8",
"w+	c #BBBBBA",
"x+	c #969695",
"y+	c #888888",
"z+	c #5B5B5B",
"A+	c #DADAD7",
"B+	c #B0AC7B",
"C+	c #C6BB2E",
"D+	c #7E7934",
"E+	c #817F67",
"F+	c #8A8326",
"G+	c #AEA208",
"H+	c #7F7604",
"I+	c #49483F",
"J+	c #696968",
"K+	c #525251",
"L+	c #7A7A7A",
"M+	c #6C6C6C",
"N+	c #5A5A5A",
"O+	c #646464",
"P+	c #C1BD91",
"Q+	c #CDC340",
"R+	c #8C8536",
"S+	c #9B9A8A",
"T+	c #ADADAA",
"U+	c #797653",
"V+	c #766D05",
"W+	c #575434",
"X+	c #787878",
"Y+	c #5F5F5D",
"Z+	c #626262",
"`+	c #5F5F5F",
" @	c #151515",
".@	c #BAB342",
"+@	c #999446",
"@@	c #AFAEA4",
"#@	c #656351",
"$@	c #81817F",
"%@	c #636362",
"&@	c #BABABA",
"*@	c #9E9E9E",
"=@	c #515151",
"-@	c #111111",
";@	c #B1AF95",
">@	c #BCBBB0",
",@	c #939393",
"'@	c #5D5D5D",
")@	c #2F2F2F",
"!@	c #727272",
"~@	c #2A2A2A",
"{@	c #707070",
"]@	c #666666",
"^@	c #5F5F5E",
"/@	c #7E7E7E",
"(@	c #525252",
"_@	c #131313",
":@	c #CACACA",
"<@	c #808080",
"[@	c #777777",
"}@	c #3C3C3C",
"|@	c #838383",
"1@	c #4E4E4E",
"2@	c #7B7B7B",
"3@	c #414141",
"4@	c #4A4A4A",
"5@	c #464646",
"6@	c #434343",
"7@	c #3E3E3E",
"8@	c #4D4D4C",
"9@	c #969696",
"0@	c #323232",
"a@	c #737373",
"b@	c #7C7C7C",
"c@	c #161616",
"d@	c #4A4A48",
"e@	c #2E2E2E",
"f@	c #303030",
"        . + @ # $ % & * = -                                     ",
"  ; > , ' ) ! ~ { ] ^ / ( _ : < [                               ",
"} | 1 2 { { 3 ) 1 ) 4 5 6 7 8 9 # 0                             ",
"% 2 ~ a | b ] _ c c d e f g h i @ j                             ",
"e k / l i m n o p p q r s t u u v w                             ",
"x ^ y z 5 A . x B C C C D E F G H I                             ",
"J K @ | L M N | 8 O 6 i u : P Q 0 R S T             S U         ",
"J ( V W : X = : % * Y D D Z < r `  ...+.          @.#.$.        ",
"J ( y a ~ %.] &.5 V g *.t =.} p -.;.>.,.        '.).!.~.        ",
"+ ( {.{ ! ' ^ ].^./.9 (.J _.Z :.<.[.}.|.        1.2.3.4.        ",
"5.y , 6.! %.7.8.9.0.i * a.Q b.c.d.e.f.g.        h.i.j.k.        ",
"5.y / ~ ! l., 8.m.n.o.p.K x q.r.h.s.t.u.        h.i.j.k.        ",
"5.y 7.' ! { y v.w.c x.t X y.z.A.B.C.D.E.        h.i.j.k.        ",
"t {.^ 2 ! k F.G.H.h $ J =.I.J.K.L.M.N.O.d.P.Q.R.S.T.j.U.V.W.W.  ",
"t , a ! 2 ^ X.Y.Z.`.%  +.+++@+K.#+$+%+&+8 M L 9.*+=+-+;+7 _ >+,+",
"t / a ! 2 / '+)+!+~+{+]+^+/+(+_+:+<+[+i _ }+7.2 |+1+2+*.9.h p 3+",
"X / k ! ' 4+5+6+7+8+9+0+a+b+c+2 d+e+u M 7 7 f+g+h+i+(.h j+n k+3+",
"X 7.6.! l+m+n+o+p+q+r+s+t+u+! v+w+|+n.O 9 h h h x+* G y+z+C - 3+",
"X ^ ~ A+B+C+D+E+F+G+H+I+J+K+X D L+_.Q M+k+Z < q.I I N+A.n O+z+,+",
"X ^ ~ P+Q+R+S+T+U+V+W+X+C Y+E d N N 8 9 F $ m Y j y+w q.Z+`+f  @",
"X ] %..@+@@@m.| F #@$@A } %@H 0.V &@N g o.*@m t j w w q.q.q.=@-@",
"X ] ~ ;@>@v._ g H m >+; k+_.o.M L V n.h H : ,@t y+w w q.'@'@)@  ",
"X k ~ k F.}+&@h E e P !@n A o.7 V M c i # % p.5.y+w w q.'@q.~@  ",
"X a l.a &.f+7 v *.t K {@]@^@m | (.> _.{@k+- I z+. a./@r '@(@_@  ",
"/@] { 7.:@L 8 F % 5.<@{@]@'@X g H (.e j P /@X+[@L+> x ` I }@    ",
"y.7.] y 5 /.O x.& 5.<@{@k+< _.# h # & ,@t j |@<@w w ]@o 1@-@    ",
"  1@k+o.n.N 9 x.% t |@; M+`+A.w F 2@]@- '@o :.=@w w 1@r ~@      ",
"        3@:.c.r.4@5@6@7@}@W./@8@9@(.(.& m e J y+w K r.0@-@      ",
"                              7@a@Y e e Y J > |@b@b.0 c@        ",
"                                ` :.d@< < `+'@I 3@e@-@          ",
"                                      Z+j+* X C r.f@            ",
"                                      - @ v + ; ` f@            "};
