/* XPM */
static char * icon_chat_32x32_xpm[] = {
"32 32 661 2",
"  	c None",
". 	c #353535",
"+ 	c #9DA69F",
"@ 	c #A4ADA7",
"# 	c #A7B5B2",
"$ 	c #A3B1AB",
"% 	c #98A59F",
"& 	c #909F97",
"* 	c #8C948E",
"= 	c #626260",
"- 	c #D8D6D2",
"; 	c #F4F1EC",
"> 	c #F2EFEB",
", 	c #F5F2ED",
"' 	c #E9E6E1",
") 	c #787876",
"! 	c #9DA297",
"~ 	c #92998C",
"{ 	c #ACB6AB",
"] 	c #A8B6AB",
"^ 	c #9EAD9F",
"/ 	c #778678",
"( 	c #4C5F5E",
"_ 	c #6C7E7A",
": 	c #4A5C58",
"< 	c #959591",
"[ 	c #F8F5F0",
"} 	c #FAF7F2",
"| 	c #FEFBF6",
"1 	c #B9B6B1",
"2 	c #303030",
"3 	c #414040",
"4 	c #FCF9F4",
"5 	c #FFFCF7",
"6 	c #82817F",
"7 	c #787C6F",
"8 	c #788477",
"9 	c #7B8B80",
"0 	c #85978B",
"a 	c #4E6054",
"b 	c #506359",
"c 	c #4D5C54",
"d 	c #556B63",
"e 	c #A1AFA7",
"f 	c #96A49C",
"g 	c #DDDAD6",
"h 	c #FAF8F3",
"i 	c #B4B1AB",
"j 	c #373736",
"k 	c #FDFAF5",
"l 	c #F8F5F1",
"m 	c #F0EDE8",
"n 	c #87918C",
"o 	c #4C5D50",
"p 	c #354844",
"q 	c #2F4442",
"r 	c #324946",
"s 	c #39504E",
"t 	c #253E3F",
"u 	c #253A3F",
"v 	c #71837D",
"w 	c #ADBDB2",
"x 	c #B2C0BA",
"y 	c #D9E0D8",
"z 	c #FBF8F3",
"A 	c #F0EBE3",
"B 	c #403F3F",
"C 	c #475752",
"D 	c #334842",
"E 	c #243C3C",
"F 	c #2D4443",
"G 	c #253D3B",
"H 	c #273F37",
"I 	c #3A524B",
"J 	c #2D4341",
"K 	c #6E7E76",
"L 	c #4E6052",
"M 	c #506258",
"N 	c #9CA79B",
"O 	c #FAF7F3",
"P 	c #FEF9F1",
"Q 	c #464545",
"R 	c #93928D",
"S 	c #F8F6F1",
"T 	c #EDEAE6",
"U 	c #474747",
"V 	c #1C2E26",
"W 	c #253A34",
"X 	c #243C37",
"Y 	c #263E3B",
"Z 	c #284040",
"` 	c #28403F",
" .	c #294139",
"..	c #3F5348",
"+.	c #3E5349",
"@.	c #3B4F45",
"#.	c #3E5047",
"$.	c #32443A",
"%.	c #485742",
"&.	c #737966",
"*.	c #4B4B4B",
"=.	c #A09E9C",
"-.	c #F2EEE6",
";.	c #ABA9A4",
">.	c #F7F2EA",
",.	c #F6F3EE",
"'.	c #DBD9D4",
").	c #1E2F26",
"!.	c #1E332C",
"~.	c #213A36",
"{.	c #223A39",
"].	c #283E3D",
"^.	c #263C3E",
"/.	c #293F3D",
"(.	c #374C42",
"_.	c #4D604F",
":.	c #536554",
"<.	c #566451",
"[.	c #5D6857",
"}.	c #5D6C57",
"|.	c #646B56",
"1.	c #93968E",
"2.	c #D2CFCB",
"3.	c #D5D1CB",
"4.	c #95938F",
"5.	c #F1EFEA",
"6.	c #DBD9D5",
"7.	c #686867",
"8.	c #202B27",
"9.	c #1F302D",
"0.	c #203633",
"a.	c #213834",
"b.	c #223636",
"c.	c #213938",
"d.	c #20383A",
"e.	c #20393A",
"f.	c #33483E",
"g.	c #41503F",
"h.	c #566552",
"i.	c #67735F",
"j.	c #596451",
"k.	c #6C7865",
"l.	c #727E6B",
"m.	c #6A7364",
"n.	c #4B4E4B",
"o.	c #777674",
"p.	c #908D8A",
"q.	c #E0DDD9",
"r.	c #8E8D8B",
"s.	c #202C2B",
"t.	c #1D302E",
"u.	c #1F3430",
"v.	c #203431",
"w.	c #20332F",
"x.	c #1F3836",
"y.	c #243B35",
"z.	c #33493E",
"A.	c #3D5147",
"B.	c #37493F",
"C.	c #44564C",
"D.	c #46584B",
"E.	c #4B5D51",
"F.	c #606E5C",
"G.	c #536352",
"H.	c #334841",
"I.	c #3E4342",
"J.	c #404040",
"K.	c #EFECE7",
"L.	c #EDEAE5",
"M.	c #494948",
"N.	c #494949",
"O.	c #202827",
"P.	c #202C2E",
"Q.	c #1D2E2C",
"R.	c #1C3131",
"S.	c #203332",
"T.	c #1F3331",
"U.	c #203834",
"V.	c #324636",
"W.	c #475645",
"X.	c #35473E",
"Y.	c #1F3635",
"Z.	c #243939",
"`.	c #2C423E",
" +	c #2B4340",
".+	c #506259",
"++	c #3E4F45",
"@+	c #4C5848",
"#+	c #494B49",
"$+	c #3E3E3D",
"%+	c #3D3E3C",
"&+	c #7C7D6D",
"*+	c #A39A80",
"=+	c #A4A18F",
"-+	c #ABB0A2",
";+	c #AEAF9F",
">+	c #93967F",
",+	c #202928",
"'+	c #20282E",
")+	c #1F2E31",
"!+	c #1F3337",
"~+	c #1F3437",
"{+	c #1D3436",
"]+	c #203632",
"^+	c #2A4239",
"/+	c #374B40",
"(+	c #364940",
"_+	c #31463F",
":+	c #304441",
"<+	c #293E41",
"[+	c #253D40",
"}+	c #2C4142",
"|+	c #273E3D",
"1+	c #48594E",
"2+	c #4C504D",
"3+	c #3A3A3A",
"4+	c #F1EEEA",
"5+	c #424240",
"6+	c #878671",
"7+	c #A39F89",
"8+	c #ACA68D",
"9+	c #AEA791",
"0+	c #9F9B86",
"a+	c #757865",
"b+	c #6F7866",
"c+	c #212A21",
"d+	c #1E2C28",
"e+	c #1E2A2E",
"f+	c #1F2F30",
"g+	c #1F3237",
"h+	c #1F3138",
"i+	c #1E3238",
"j+	c #31443D",
"k+	c #566054",
"l+	c #8A8A72",
"m+	c #9D987C",
"n+	c #B5AD95",
"o+	c #908E78",
"p+	c #2A3F3D",
"q+	c #1F363C",
"r+	c #263C41",
"s+	c #273F40",
"t+	c #1D383E",
"u+	c #223B3B",
"v+	c #3B3B3A",
"w+	c #CAC1AA",
"x+	c #A79F88",
"y+	c #A49D85",
"z+	c #A79C85",
"A+	c #B8AE92",
"B+	c #B7B196",
"C+	c #A4A189",
"D+	c #6D745D",
"E+	c #374739",
"F+	c #202A20",
"G+	c #173029",
"H+	c #173030",
"I+	c #1E3030",
"J+	c #1E3336",
"K+	c #213436",
"L+	c #324342",
"M+	c #6A725C",
"N+	c #8F8C75",
"O+	c #B1A890",
"P+	c #BDB296",
"Q+	c #CFC2A5",
"R+	c #C1B69B",
"S+	c #91907C",
"T+	c #5D635A",
"U+	c #7F8575",
"V+	c #9BA293",
"W+	c #788179",
"X+	c #4E524C",
"Y+	c #C8BCA4",
"Z+	c #DFD1B6",
"`+	c #D7CFB5",
" @	c #82826D",
".@	c #8C8E7B",
"+@	c #9E9E89",
"@@	c #969A83",
"#@	c #8C917D",
"$@	c #666B59",
"%@	c #314538",
"&@	c #202A21",
"*@	c #163129",
"=@	c #173130",
"-@	c #1F3032",
";@	c #203537",
">@	c #4E5D4A",
",@	c #95937D",
"'@	c #ACA18C",
")@	c #B1A488",
"!@	c #B8AB94",
"~@	c #AEA188",
"{@	c #BCB095",
"]@	c #B8AA8E",
"^@	c #C6B59A",
"/@	c #C3BC9E",
"(@	c #E7DEC6",
"_@	c #EBE2C8",
":@	c #E8E2C9",
"<@	c #D5CFB7",
"[@	c #8F8A77",
"}@	c #A29D89",
"|@	c #C3B99E",
"1@	c #D7CFB0",
"2@	c #C5C6B0",
"3@	c #7A8471",
"4@	c #687563",
"5@	c #2C413C",
"6@	c #2C453D",
"7@	c #4E5E4F",
"8@	c #2D4235",
"9@	c #1C3129",
"0@	c #1D332E",
"a@	c #1E3331",
"b@	c #213839",
"c@	c #888B76",
"d@	c #ABA38A",
"e@	c #A99E87",
"f@	c #B2A68C",
"g@	c #B9AE95",
"h@	c #A99E86",
"i@	c #A69C84",
"j@	c #A99D83",
"k@	c #CCBCA3",
"l@	c #C5BBA1",
"m@	c #E8DCC7",
"n@	c #D6CCB1",
"o@	c #DED8BA",
"p@	c #DFDAC0",
"q@	c #95917D",
"r@	c #676E5B",
"s@	c #ACA789",
"t@	c #D5CCAC",
"u@	c #DFD9C2",
"v@	c #B9B7A3",
"w@	c #394D4C",
"x@	c #1F373C",
"y@	c #374C44",
"z@	c #324339",
"A@	c #212B24",
"B@	c #1F332D",
"C@	c #1F3431",
"D@	c #273934",
"E@	c #969177",
"F@	c #ABA185",
"G@	c #ADA588",
"H@	c #B1A98C",
"I@	c #BBB395",
"J@	c #BBB192",
"K@	c #BAAE8F",
"L@	c #C6B89A",
"M@	c #C9BA9B",
"N@	c #C3B89A",
"O@	c #BEAE92",
"P@	c #D0C1A3",
"Q@	c #D9CDAC",
"R@	c #DDD2B5",
"S@	c #BBB095",
"T@	c #6A705A",
"U@	c #828472",
"V@	c #C7BEA3",
"W@	c #E6DEC1",
"X@	c #E1D8BE",
"Y@	c #909688",
"Z@	c #253B3E",
"`@	c #1F363F",
" #	c #233B41",
".#	c #2C3F3E",
"+#	c #1F2D24",
"@#	c #21352F",
"##	c #1C3330",
"$#	c #1F3632",
"%#	c #38453B",
"&#	c #8E846B",
"*#	c #9F9479",
"=#	c #B7AA8E",
"-#	c #B4A689",
";#	c #C2B498",
">#	c #BAAF8F",
",#	c #CAC1A4",
"'#	c #CDC3A9",
")#	c #AFA88A",
"!#	c #BEAD90",
"~#	c #CCBC9D",
"{#	c #DBCEAF",
"]#	c #D8CDAE",
"^#	c #CCBE9F",
"/#	c #98947B",
"(#	c #4D584D",
"_#	c #96947E",
":#	c #D9CAAC",
"<#	c #B0A68C",
"[#	c #30403F",
"}#	c #1D343C",
"|#	c #1F363D",
"1#	c #213943",
"2#	c #253C3E",
"3#	c #1E2E29",
"4#	c #203730",
"5#	c #1C3432",
"6#	c #243A39",
"7#	c #31453F",
"8#	c #565F46",
"9#	c #6D6E55",
"0#	c #898268",
"a#	c #9B8C70",
"b#	c #AC9A7E",
"c#	c #B3A487",
"d#	c #B7AB8D",
"e#	c #D8D7C4",
"f#	c #D5D4C2",
"g#	c #CABB9E",
"h#	c #C7B89A",
"i#	c #CFBFA2",
"j#	c #C8B89B",
"k#	c #AC9C7D",
"l#	c #9B8F71",
"m#	c #6E6953",
"n#	c #646750",
"o#	c #737768",
"p#	c #3A4A45",
"q#	c #1D383B",
"r#	c #1E383F",
"s#	c #1F3339",
"t#	c #1D373F",
"u#	c #1E3536",
"v#	c #202D25",
"w#	c #1F332E",
"x#	c #1F3533",
"y#	c #243B3B",
"z#	c #273E3A",
"A#	c #394F3D",
"B#	c #4E5C47",
"C#	c #686C53",
"D#	c #877E64",
"E#	c #9C8F75",
"F#	c #A5987F",
"G#	c #363636",
"H#	c #BCB097",
"I#	c #BFB39B",
"J#	c #B4A489",
"K#	c #AB9A7F",
"L#	c #B29F83",
"M#	c #AC9C81",
"N#	c #898266",
"O#	c #6C6A50",
"P#	c #6C6B54",
"Q#	c #686B54",
"R#	c #656758",
"S#	c #666C5B",
"T#	c #1E373A",
"U#	c #1E363C",
"V#	c #1D333A",
"W#	c #18343F",
"X#	c #1B3035",
"Y#	c #22322D",
"Z#	c #1F3432",
"`#	c #213A38",
" $	c #253C3C",
".$	c #324841",
"+$	c #3B5141",
"@$	c #55634C",
"#$	c #6D735A",
"$$	c #707058",
"%$	c #737270",
"&$	c #847D63",
"*$	c #757054",
"=$	c #69684E",
"-$	c #76745B",
";$	c #847C61",
">$	c #746E55",
",$	c #62664F",
"'$	c #565D46",
")$	c #616A51",
"!$	c #6D7257",
"~$	c #887E68",
"{$	c #535747",
"]$	c #1A373A",
"^$	c #1C3338",
"/$	c #193239",
"($	c #19323A",
"_$	c #21302D",
":$	c #1D322E",
"<$	c #1D3735",
"[$	c #20383C",
"}$	c #29423F",
"|$	c #324942",
"1$	c #465A4A",
"2$	c #5D6D5B",
"3$	c #A2A19E",
"4$	c #5B624A",
"5$	c #58614A",
"6$	c #4D5A42",
"7$	c #4A5A42",
"8$	c #596048",
"9$	c #5C614A",
"0$	c #56614B",
"a$	c #55644B",
"b$	c #5B634B",
"c$	c #707358",
"d$	c #6D6E59",
"e$	c #2E413C",
"f$	c #1C3339",
"g$	c #1B3137",
"h$	c #183237",
"i$	c #1F2E2B",
"j$	c #1D312D",
"k$	c #716F6D",
"l$	c #445840",
"m$	c #455A41",
"n$	c #44583D",
"o$	c #375237",
"p$	c #3B5237",
"q$	c #47563E",
"r$	c #5B644D",
"s$	c #696F59",
"t$	c #6C6D58",
"u$	c #575F4C",
"v$	c #29403B",
"w$	c #1A3339",
"x$	c #1D313A",
"y$	c #1E2F36",
"z$	c #1B2E2F",
"A$	c #4F4F4E",
"B$	c #D1CDC7",
"C$	c #E2E0D9",
"D$	c #EBE9E2",
"E$	c #F4F0E8",
"F$	c #F7F3EB",
"G$	c #FBF7F2",
"H$	c #AEABA6",
"I$	c #355139",
"J$	c #314D31",
"K$	c #2E4F32",
"L$	c #2F4D31",
"M$	c #455B41",
"N$	c #485C43",
"O$	c #4B5D45",
"P$	c #586451",
"Q$	c #32473C",
"R$	c #1C3B3D",
"S$	c #18313A",
"T$	c #1B2E35",
"U$	c #1C2F33",
"V$	c #827F7D",
"W$	c #F5F0E9",
"X$	c #F9F4EC",
"Y$	c #FAF6EE",
"Z$	c #FDF9F3",
"`$	c #FCF8F2",
" %	c #FDF9F2",
".%	c #CFCBC4",
"+%	c #304F33",
"@%	c #2B4A2D",
"#%	c #2E4C30",
"$%	c #365237",
"%%	c #516B53",
"&%	c #4D6149",
"*%	c #4F5E48",
"=%	c #37493D",
"-%	c #1E363B",
";%	c #1C343A",
">%	c #1E333A",
",%	c #1E3138",
"'%	c #1C3038",
")%	c #7B7977",
"!%	c #EAE6DE",
"~%	c #FAF5ED",
"{%	c #FCF7EF",
"]%	c #F8F4EC",
"^%	c #FCF7F0",
"/%	c #D5D1CC",
"(%	c #355338",
"_%	c #2E4C31",
":%	c #314F34",
"<%	c #385338",
"[%	c #3E583E",
"}%	c #435E44",
"|%	c #3F5A43",
"1%	c #284332",
"2%	c #243D3C",
"3%	c #243C3D",
"4%	c #22353B",
"5%	c #1F2E34",
"6%	c #F2EEE7",
"7%	c #F6F1E9",
"8%	c #FFFAF2",
"9%	c #E3E0DB",
"0%	c #334E3B",
"a%	c #314F35",
"b%	c #3E563E",
"c%	c #3E5A42",
"d%	c #3D5B42",
"e%	c #3F5A44",
"f%	c #274132",
"g%	c #273F34",
"h%	c #324A46",
"i%	c #545D5D",
"j%	c #7F7F7F",
"k%	c #F8F3EB",
"l%	c #F6F2EA",
"m%	c #C0BCB7",
"n%	c #354933",
"o%	c #405741",
"p%	c #445B44",
"q%	c #566952",
"r%	c #586E55",
"s%	c #415743",
"t%	c #33483B",
"u%	c #21362F",
"v%	c #293E37",
"w%	c #213631",
"x%	c #475251",
"y%	c #FEF9F3",
"z%	c #FDF8F0",
"A%	c #F5F1E9",
"B%	c #DEDCD4",
"C%	c #6C6B68",
"D%	c #425648",
"E%	c #485B42",
"F%	c #4B5A41",
"G%	c #4A5A40",
"H%	c #4D5E45",
"I%	c #566851",
"J%	c #324638",
"K%	c #1E312D",
"L%	c #1E312E",
"M%	c #36443F",
"N%	c #535C59",
"O%	c #BAB6B3",
"P%	c #F3EEE6",
"Q%	c #DAD6CF",
"R%	c #969390",
"S%	c #263B34",
"T%	c #415445",
"U%	c #4D5944",
"V%	c #475440",
"W%	c #394B39",
"X%	c #314435",
"Y%	c #21322B",
"Z%	c #202E2B",
"`%	c #333F3B",
" &	c #747675",
".&	c #CEC9C4",
"+&	c #F3EEE7",
"@&	c #A3A09C",
"#&	c #22302B",
"$&	c #22322C",
"%&	c #1E3129",
"&&	c #1F3230",
"*&	c #29392C",
"=&	c #263529",
"-&	c #36433C",
";&	c #1E2C29",
">&	c #333D3C",
",&	c #606160",
"'&	c #565554",
")&	c #595857",
"!&	c #4D4C4B",
"                                            . . . . . . . .     ",
"                        + @ # $ % & * . . = - ; ; ; > , ' ) .   ",
"                  ! ~ { ] ^ / ( _ : . < [ } | 1 2 3 | | 4 5 6 . ",
"                7 8 9 0 a b c d e f . g h } | i 2 j 5 k l 5 m . ",
"            n o p q r s t u v w x y . z z 5 k A 2 B z 4 z z z . ",
"            C D E F G H I J K L M N . O | | } P Q R S 4 [ z T U ",
"        V W X Y Z `  ...+.@.#.$.%.&.*.=.5 k 5 -.;.>.k k ,.'.U   ",
"        ).!.~.{.].^./.(._.:.<.[.}.|.1.U 2.| 4 3.2 4.5., 6.7.U   ",
"      8.9.0.a.b.c.d.e.f.g.h.i.j.k.l.m.n.o.z z -.p.>.; q.r.U     ",
"      s.t.u.v.w.x.y.z.A.B.C.D.E.F.G.H.I.J.K.} L.U U M.*.N.      ",
"    O.P.Q.R.S.T.U.V.W.X.Y.Z.`. +.+++@+#+$+k O %+&+*+=+-+;+>+    ",
"    ,+'+)+!+~+{+]+^+/+(+_+:+<+[+}+|+1+2+3+4+5+6+7+8+9+0+a+b+    ",
"  c+d+e+f+g+h+i+j+k+l+m+n+o+p+q+r+s+t+u+3+v+w+x+y+z+A+B+C+D+E+  ",
"  F+G+H+I+J+K+L+M+N+O+P+Q+R+S+T+U+V+W+X+3+Y+Z+`+ @.@+@@@#@$@%@  ",
"  &@*@=@-@;@>@,@'@)@!@~@{@]@^@/@(@_@:@<@[@}@|@1@2@3@4@5@6@7@8@  ",
"  c+9@0@a@b@c@d@e@f@g@h@i@j@k@l@m@n@o@p@q@r@s@t@:@u@v@w@x@y@z@  ",
"  A@B@0@C@D@E@F@G@H@I@J@K@L@M@N@O@P@Q@R@S@T@U@V@W@X@Y@Z@`@ #.#  ",
"  +#@###$#%#&#*#=#]@-#;#>#,#'#)#!#~#{#]#^#/#(#_#:#<#[#}#|#1#2#  ",
"  3#4#5#6#7#8#9#0#a#b#c#d#. e#f#g#h#i#j#k#l#m#n#o#p#q#r#s#t#u#  ",
"  v#w#x#y#z#A#B#C#D#E#F#. G#H#I#J#K#L#M#N#O#P#Q#R#S#T#U#V#W#X#  ",
"    Y#Z#`# $.$+$@$#$$$. 5 %$&$*$=$-$;$>$,$'$)$!$~${$]$^$/$($    ",
"    _$:$<$[$}$|$1$2$3+3$5 ) 4$5$6$7$8$9$0$a$b$c$d$e$f$g$h$X#    ",
"      i$j$. . . . . ,.z 5 k$l$m$n$o$p$q$r$s$t$u$v$w$x$y$z$      ",
"      . A$B$C$D$E$F$k k G$H$. I$J$K$L$M$N$O$P$Q$R$V#S$T$U$      ",
"    . V$W$X$3 2 1 Y$Z$`$ %.%. +%@%#%$%%%&%*%=%-%;%>%,%'%        ",
"  . )%!%~%{%j 2 i ]%{%^%k /%. (%_%:%<%[%}%|%1%2%3%4%h+5%        ",
"  . 6%7%{%{%B 2 A 8%F$]%| 9%. 0%:%a%b%c%d%e%f%g%h%~+i%j%        ",
"  . X$k%Y$8%R Q P P l%l%~%m%. n%o%p%q%r%s%t%u%v%w%x%j%j%j%j%    ",
"  . | y%z%{%>.;.-.{%k%A%B%C%D%E%F%G%H%I%J%K%L%M%N%j%j%j%j%j%    ",
"  . O%>.A%8%4.2 3.{%P%Q%R%j$S%T%U%V%W%X%Y%Z%`% &j%j%j%j%        ",
"    . . .&E$>.p.-.+&@&. #&$&%&&&*&=&-&;&>&,&j%j%                ",
"        . . '&)&!&A$.                                           "};
