/* XPM */
static char * icon_monitor2_32x32_xpm[] = {
"32 32 159 2",
"  	c None",
". 	c #898989",
"+ 	c #878787",
"@ 	c #858585",
"# 	c #838383",
"$ 	c #7F7F7F",
"% 	c #7E7E7E",
"& 	c #737373",
"* 	c #494949",
"= 	c #424242",
"- 	c #393939",
"; 	c #373737",
"> 	c #353535",
", 	c #343434",
"' 	c #333333",
") 	c #313131",
"! 	c #2F2F2F",
"~ 	c #2A2A2A",
"{ 	c #222222",
"] 	c #6F6F6F",
"^ 	c #434343",
"/ 	c #3B3B3B",
"( 	c #2E2E2E",
"_ 	c #2C2C2C",
": 	c #2B2B2B",
"< 	c #292929",
"[ 	c #282828",
"} 	c #252525",
"| 	c #1F1F1F",
"1 	c #707070",
"2 	c #3A3A3A",
"3 	c #070707",
"4 	c #060606",
"5 	c #050505",
"6 	c #080808",
"7 	c #101010",
"8 	c #242424",
"9 	c #191919",
"0 	c #323144",
"a 	c #343346",
"b 	c #343146",
"c 	c #333045",
"d 	c #323045",
"e 	c #2D2B40",
"f 	c #2C2A3F",
"g 	c #2C2A3D",
"h 	c #2D2B3E",
"i 	c #2C2B3E",
"j 	c #2A293A",
"k 	c #282839",
"l 	c #292839",
"m 	c #282738",
"n 	c #272538",
"o 	c #29273A",
"p 	c #272727",
"q 	c #1A1A1A",
"r 	c #0A0A0A",
"s 	c #353348",
"t 	c #373449",
"u 	c #39374C",
"v 	c #37354A",
"w 	c #333245",
"x 	c #313144",
"y 	c #303043",
"z 	c #312E43",
"A 	c #2E2C3F",
"B 	c #272639",
"C 	c #262538",
"D 	c #252336",
"E 	c #252437",
"F 	c #383838",
"G 	c #0D0D0D",
"H 	c #363449",
"I 	c #3B3A4F",
"J 	c #38374C",
"K 	c #302F42",
"L 	c #302E41",
"M 	c #262437",
"N 	c #6D6D6D",
"O 	c #0C0C0C",
"P 	c #363548",
"Q 	c #353247",
"R 	c #343245",
"S 	c #2E2D40",
"T 	c #2D2C3F",
"U 	c #282639",
"V 	c #272637",
"W 	c #696969",
"X 	c #0B0B0B",
"Y 	c #343447",
"Z 	c #2B2A3D",
"` 	c #2B2A3C",
" .	c #2B293C",
"..	c #2A283B",
"+.	c #262536",
"@.	c #676767",
"#.	c #353447",
"$.	c #333144",
"%.	c #2A2839",
"&.	c #242435",
"*.	c #252435",
"=.	c #3D3D3D",
"-.	c #0E0E0E",
";.	c #2B293E",
">.	c #2B293A",
",.	c #242336",
"'.	c #242334",
").	c #2C2B3C",
"!.	c #404040",
"~.	c #333346",
"{.	c #323245",
"].	c #232233",
"^.	c #242233",
"/.	c #252334",
"(.	c #1B1B1B",
"_.	c #686868",
":.	c #222132",
"<.	c #454545",
"[.	c #212121",
"}.	c #2E2C41",
"|.	c #2D2A3F",
"1.	c #232334",
"2.	c #212031",
"3.	c #232132",
"4.	c #484848",
"5.	c #2D2D2D",
"6.	c #1C1C1C",
"7.	c #2C293E",
"8.	c #28273A",
"9.	c #4B4B4B",
"0.	c #272437",
"a.	c #1D1D1D",
"b.	c #606060",
"c.	c #0F0F0F",
"d.	c #282538",
"e.	c #272435",
"f.	c #636363",
"g.	c #141414",
"h.	c #474747",
"i.	c #4E4E4E",
"j.	c #595959",
"k.	c #565656",
"l.	c #525252",
"m.	c #4D4D4D",
"n.	c #575757",
"o.	c #232323",
"p.	c #626262",
"q.	c #1E1E1E",
"r.	c #171717",
"s.	c #090909",
"t.	c #020202",
"u.	c #030202",
"v.	c #030303",
"w.	c #010101",
"x.	c #040404",
"y.	c #3F3F3F",
"z.	c #181818",
"A.	c #515151",
"B.	c #262626",
"                                                                ",
"                                                                ",
"  . + + + @ @ @ + @ + + @ + + @ @ + + @ @ @ # @ @ @ # $ %       ",
"& * = - ; > , ' ) ) ) ) ) ) ) ) ) ) ) ! ! ! ! ) ' ' ) ~ {       ",
"] ^ / ' ) ( ( _ : : : : : : : : ~ < < < < < [ ~ _ _ : } |       ",
"1 2 , 3 3 3 3 4 4 4 5 5 5 5 4 4 4 4 5 4 4 3 3 6 6 7 8 | 9       ",
"1 - ' 6 0 a a b b c d e f f f g h i j k l m n n o ) p | q       ",
"1 - ' r s t u v a a w w w 0 x y y z A B C D E n n / ~ | 9       ",
"1 F ' G H v I J a w w w 0 x y K K L o n M E D n n / ~ | 9       ",
"N - ' O P t v a Q a R S T A i k l l U B C M D n V / ~ | 9       ",
"W - ' X Y t t a a R S Z g `  .....l l B C M M M +./ : | 9       ",
"@.F ' X Y t #.a $.Z Z Z g  . .....l l U U D D M +./ ~ | 9       ",
"@.F ' X Y #.#.w i Z  .g g  . ...%.l U U U D &.+.*./ ~ | 9       ",
"@.=.' -.Y #.#.Z ;...>.>.>.l l U U U U C C E ,.D './ : | 9       ",
"@.=.' O Y a a )...o l o l o U U U n B C M ,.'.,.D !.: | 9       ",
"@./ , X Q ~.{...l n n n n M M M M M D D D ].^././.!._ | (.      ",
"_.=.' X Q w x o U M M M M M M ,.D D D D D ].:.^./.<.( [.(.      ",
"_.=., O }.K |.n M ,.,.,.,.1.*.*.*.*.].].:.2.3.^./.4.5.[.6.      ",
"@./ , X 7.o 8.n E *.*.*.*.*.*.*.*.*.].].:.3.:.^.^.9.( [.6.      ",
"@./ ' G ;.U n 0.D *.*.*.*.*.*.D D D /././.].:././.4.! { a.      ",
"b.- ' c.Z U n d.M D D D D D M M M M D '.D /././.e.<.! { a.      ",
"f.F ) g.h.= h.h.4.i.i.i.i.j.j.k.l.m.l.l.9.9.<.h.n.f.[ o.a.      ",
"p.> ) q.~ p < ! ! ! ! ! ! ) ) ' ) ) ) ) ) ( 5.( _ _ } o.6.      ",
"b.) _ } { [.[.[.| [.| | | [.[.| | | | | | | | | | o.o.q.r.$ $   ",
"* < o.| a.a.a.a.a.a.a.a.a.a.a.a.a.a.6.(.(.(.(.(.(.a.a.9 g.$ $   ",
"  7 O X O X X X X X X X X X X r r r r s.s.s.s.s.s.s.s.6 3 $ $ $ ",
"        _ t.t.t.t.u.u.v.v.v.v.t.t.t.t.t.t.t.t.t.t.w.$ $ $ $ $ $ ",
"          - <.< ! } o.r.r.-.r 3 3 3 3 4 4 5 x.w.w.$ $ $ $ $ $   ",
"              9.9.y.) [.[.q z.G -.O O r 3 w.w.$ $ $ $ $ $ $ $   ",
"                      A.A.[ B.O 3 w.w.$ $ $ $ $ $ $ $           ",
"                                                                ",
"                                                                "};
