/* XPM */
static char * icon_game_controller_20x20_xpm[] = {
"20 20 140 2",
"  	c None",
". 	c #F6F6F6",
"+ 	c #E0E0E0",
"@ 	c #D9D9D9",
"# 	c #F3F3F3",
"$ 	c #EBEBEB",
"% 	c #DC4444",
"& 	c #D1C1C1",
"* 	c #E23535",
"= 	c #B6B9B9",
"- 	c #DDDDDD",
"; 	c #F0F0F0",
"> 	c #C3C3C3",
", 	c #B7B3B3",
"' 	c #838383",
") 	c #E33D3D",
"! 	c #AE8B8B",
"~ 	c #CA2222",
"{ 	c #A7A7A7",
"] 	c #BCBCBC",
"^ 	c #E5E5E5",
"/ 	c #D7D7D7",
"( 	c #B7B7B7",
"_ 	c #A8A8A8",
": 	c #616161",
"< 	c #5D5D5D",
"[ 	c #3F3F3F",
"} 	c #4E4E4E",
"| 	c #5E5E5E",
"1 	c #454545",
"2 	c #949494",
"3 	c #373737",
"4 	c #979797",
"5 	c #4D4D4D",
"6 	c #CDCCCC",
"7 	c #AAAAAA",
"8 	c #757575",
"9 	c #B5B5B5",
"0 	c #3D3D3D",
"a 	c #9F9F9F",
"b 	c #A0A0A0",
"c 	c #DA5252",
"d 	c #C63B3B",
"e 	c #888888",
"f 	c #919191",
"g 	c #4B4B4B",
"h 	c #939393",
"i 	c #535353",
"j 	c #C0BEBE",
"k 	c #C83232",
"l 	c #B82323",
"m 	c #797F7F",
"n 	c #484848",
"o 	c #636363",
"p 	c #424141",
"q 	c #555555",
"r 	c #3E3E3E",
"s 	c #5B5B5B",
"t 	c #828282",
"u 	c #8A8A8A",
"v 	c #B21717",
"w 	c #5B5A5A",
"x 	c #3F3E3E",
"y 	c #333333",
"z 	c #222222",
"A 	c #212121",
"B 	c #9E9E9E",
"C 	c #797979",
"D 	c #D1D1D1",
"E 	c #B0B0B0",
"F 	c #D72D2D",
"G 	c #747474",
"H 	c #353434",
"I 	c #383838",
"J 	c #444444",
"K 	c #EEEEEE",
"L 	c #A9A8A8",
"M 	c #5D5C5C",
"N 	c #525252",
"O 	c #444343",
"P 	c #2B2B2B",
"Q 	c #E9E9E9",
"R 	c #E4E4E4",
"S 	c #B1B1B1",
"T 	c #C6C6C6",
"U 	c #605F5F",
"V 	c #595858",
"W 	c #2A2A2A",
"X 	c #6B6B6B",
"Y 	c #CBCBCB",
"Z 	c #BDBDBD",
"` 	c #A9A9A9",
" .	c #ADADAD",
"..	c #8F8D8D",
"+.	c #515050",
"@.	c #646464",
"#.	c #C7C7C7",
"$.	c #E4C0C0",
"%.	c #B64F4F",
"&.	c #A99696",
"*.	c #7D7D7D",
"=.	c #626161",
"-.	c #504E4E",
";.	c #282828",
">.	c #727272",
",.	c #B8B8B8",
"'.	c #A3A3A3",
").	c #ABABAB",
"!.	c #CD4848",
"~.	c #CD2222",
"{.	c #B82222",
"].	c #A5A5A5",
"^.	c #292929",
"/.	c #2F2F2F",
"(.	c #202020",
"_.	c #6F6F6F",
":.	c #B4B4B4",
"<.	c #7A7A7A",
"[.	c #8B8B8B",
"}.	c #A18787",
"|.	c #863636",
"1.	c #975E5E",
"2.	c #323232",
"3.	c #6D6D6D",
"4.	c #989898",
"5.	c #A1A1A1",
"6.	c #626262",
"7.	c #262626",
"8.	c #505050",
"9.	c #808080",
"0.	c #A2A2A2",
"a.	c #9D9D9D",
"b.	c #898989",
"c.	c #858585",
"d.	c #4C4C4C",
"e.	c #7B7B7B",
"f.	c #1B1B1B",
"g.	c #343434",
"h.	c #5A5A5A",
"i.	c #090909",
"            . + @                       ",
"        # $ % & * = -                   ",
"      ; > , ' ) ! ~ { { ]               ",
"    ^ / ( ( _ { : < [ } |               ",
"  ; 1 2 3 { 4 5         6 7 8           ",
"  9 4 0 a b 5           _ c d e         ",
"  f g h [ i           j e k l m         ",
"  n b { b o           e p q r r s       ",
"    t { { u           v w x y z o       ",
"    A B _ C       D E F o G g H         ",
"      I J I     K K / L M N O P         ",
"              Q R S { T U V W X         ",
"            Y Z ` {  ...+.H @.` #.      ",
"          #.$.%.&.{ *.=.-.;.>.{ ,.'.    ",
"        ).> !.~.{.].;.^./.(._.' b :.:.  ",
"        <.[.}.|.1.'.b 2.y [ 3.3.4.5.6.  ",
"          7.8.3.9.0.a.5.b.' 8 c.a ' d.  ",
"              z 7.N o e.4 b b a C ^.    ",
"                  f.z g.< h.N 1 A       ",
"                        ;.^.i.          "};
