/* XPM */
static char * icon_executable_20x20_xpm[] = {
"20 20 96 2",
"  	c None",
". 	c #FAFAFA",
"+ 	c #F5F5F5",
"@ 	c #F3F3F3",
"# 	c #E9E9E9",
"$ 	c #E8E8E8",
"% 	c #DFDFDF",
"& 	c #DEDEDE",
"* 	c #D8D8D8",
"= 	c #D5D5D5",
"- 	c #525252",
"; 	c #D3D3D3",
"> 	c #D4D4D4",
", 	c #D0D0D0",
"' 	c #C7C7C7",
") 	c #C4C4C4",
"! 	c #C3C3C3",
"~ 	c #A7A7A7",
"{ 	c #CACACA",
"] 	c #ADADAD",
"^ 	c #C9C9C9",
"/ 	c #C5C5C5",
"( 	c #BEBEBE",
"_ 	c #B8B8B8",
": 	c #B6B6B6",
"< 	c #505050",
"[ 	c #3CEC3C",
"} 	c #737373",
"| 	c #C8C8C8",
"1 	c #BCBCBC",
"2 	c #B7B7B7",
"3 	c #B5B5B5",
"4 	c #4D4D4D",
"5 	c #32EC32",
"6 	c #00FF00",
"7 	c #12B812",
"8 	c #717171",
"9 	c #C6C6C6",
"0 	c #C0C0C0",
"a 	c #B4B4B4",
"b 	c #B3B3B3",
"c 	c #464646",
"d 	c #38EC38",
"e 	c #0AD80A",
"f 	c #B2B2B2",
"g 	c #B1B1B1",
"h 	c #424242",
"i 	c #35EC35",
"j 	c #BABABA",
"k 	c #B0B0B0",
"l 	c #AFAFAF",
"m 	c #3E3E3E",
"n 	c #CBCBCB",
"o 	c #3D3D3D",
"p 	c #2CFF2C",
"q 	c #E0E0E0",
"r 	c #F1F1F1",
"s 	c #1CFA1C",
"t 	c #9AE69A",
"u 	c #F0F0F0",
"v 	c #1BFF1B",
"w 	c #45F545",
"x 	c #D6D6D6",
"y 	c #EBEBEB",
"z 	c #CFCFCF",
"A 	c #C1C1C1",
"B 	c #BFBFBF",
"C 	c #40EC40",
"D 	c #00FE00",
"E 	c #74E874",
"F 	c #DCDCDC",
"G 	c #CCCCCC",
"H 	c #BDBDBD",
"I 	c #BBBBBB",
"J 	c #69E369",
"K 	c #D2D2D2",
"L 	c #3F3F3F",
"M 	c #B9B9B9",
"N 	c #ACACAC",
"O 	c #444444",
"P 	c #7D7D7D",
"Q 	c #7F7F7F",
"R 	c #DADADA",
"S 	c #A9A9A9",
"T 	c #A4A4A4",
"U 	c #A6A6A6",
"V 	c #A5A5A5",
"W 	c #A0A0A0",
"X 	c #919191",
"Y 	c #474747",
"Z 	c #656565",
"` 	c #535353",
" .	c #4C4C4C",
"..	c #4A4A4A",
"+.	c #4B4B4B",
"@.	c #454545",
"                                        ",
"                                        ",
"    . + + + + + + + @ # $ % & * = -     ",
"    + * ; ; ; ; > ; ; , , ' ) ! ~ -     ",
"    + * { { { ] { { { { ^ / ( _ : <     ",
"    + * { { { [ } ^ ^ ^ | ! 1 2 3 4     ",
"    + * { { ^ 5 6 7 8 ' 9 0 _ a b c     ",
"    + * { { ^ d 6 6 e 8 ! ( 2 f g h     ",
"    + * { ^ ^ i 6 6 6 6 e j a k l m     ",
"    + > { ^ ' i 6 6 6 6 6 n f l l o     ",
"    + > { ^ ' i 6 6 6 6 p q g l l o     ",
"    r ; { ' / i 6 6 6 s t g l l l o     ",
"    u ; | 9 ) i 6 v w x k l l l l o     ",
"    y z ! A B C D E F g l l l l l o     ",
"    # G 0 H I J K a f k l l l l l L     ",
"    % ! I M M 9 f k l l l l l N ~ O P Q ",
"    R ! b b g l S ~ T U U V U W X Y Q   ",
"    Z `  ...4 +.O @.c c c c L o o  .    ",
"                                        ",
"                                        "};
