/* XPM */
static char * icon_paste_20x20_xpm[] = {
"20 20 207 2",
"  	c None",
". 	c #565656",
"+ 	c #73716F",
"@ 	c #6E6E6D",
"# 	c #D7D7D5",
"$ 	c #D9D7D4",
"% 	c #B2AFAB",
"& 	c #585655",
"* 	c #DCD5C3",
"= 	c #D7CEBD",
"- 	c #CBC8C0",
"; 	c #DBD9D7",
"> 	c #D0CFCE",
", 	c #A9A7A3",
"' 	c #84827E",
") 	c #383736",
"! 	c #9D9B97",
"~ 	c #9E9C98",
"{ 	c #A3A19E",
"] 	c #5F574A",
"^ 	c #D4CDBB",
"/ 	c #DED8C5",
"( 	c #5C4E37",
"_ 	c #84735A",
": 	c #7F6F56",
"< 	c #878482",
"[ 	c #95938F",
"} 	c #7B7874",
"| 	c #7B7975",
"1 	c #7A7773",
"2 	c #797672",
"3 	c #75736F",
"4 	c #73706C",
"5 	c #6F6864",
"6 	c #83735A",
"7 	c #817057",
"8 	c #64543E",
"9 	c #5D4E38",
"0 	c #85745B",
"a 	c #AA9F8F",
"b 	c #464340",
"c 	c #3E3C39",
"d 	c #3E3B39",
"e 	c #3C3A37",
"f 	c #373532",
"g 	c #312D2B",
"h 	c #A99E8D",
"i 	c #8A7961",
"j 	c #DFDCD7",
"k 	c #C5C1BC",
"l 	c #C6C4C2",
"m 	c #C6C5C4",
"n 	c #C5C4C2",
"o 	c #C4C2BE",
"p 	c #CCC6BD",
"q 	c #827158",
"r 	c #62523C",
"s 	c #5D4F38",
"t 	c #8C7C64",
"u 	c #D4CFC7",
"v 	c #EDECEB",
"w 	c #E1E0DF",
"x 	c #E0E0DE",
"y 	c #E0DFDE",
"z 	c #E1E0DE",
"A 	c #E2E1E0",
"B 	c #C9C3BA",
"C 	c #8F7F68",
"D 	c #D6D1CB",
"E 	c #F4F4F4",
"F 	c #F5F5F5",
"G 	c #F8F8F8",
"H 	c #FAFAFA",
"I 	c #F9F8F8",
"J 	c #F7F7F7",
"K 	c #D2CEC6",
"L 	c #806F56",
"M 	c #62533D",
"N 	c #CFC9C0",
"O 	c #F0F0EF",
"P 	c #F3F3F3",
"Q 	c #EFEEED",
"R 	c #F2F2F2",
"S 	c #D4CFC9",
"T 	c #7E6D54",
"U 	c #8B7B63",
"V 	c #CFC9C1",
"W 	c #CFD4DF",
"X 	c #6F7F9F",
"Y 	c #425780",
"Z 	c #F1F1F1",
"` 	c #897961",
" .	c #CFCAC2",
"..	c #F3F2F2",
"+.	c #436093",
"@.	c #86A0CF",
"#.	c #557BBB",
"$.	c #253C61",
"%.	c #F0F0F0",
"&.	c #887861",
"*.	c #BCB4A8",
"=.	c #446195",
"-.	c #88A2D4",
";.	c #6388C7",
">.	c #21375B",
",.	c #EEEEED",
"'.	c #EFEFEF",
").	c #DCD9D4",
"!.	c #594B35",
"~.	c #87765F",
"{.	c #BAB2A6",
"].	c #5E84C4",
"^.	c #263D65",
"/.	c #EDEDEC",
"(.	c #EEEEEE",
"_.	c #EDEDED",
":.	c #DBD8D4",
"<.	c #544631",
"[.	c #85755D",
"}.	c #436195",
"|.	c #8BA6D6",
"1.	c #6B8EC8",
"2.	c #2A4370",
"3.	c #DCD9D5",
"4.	c #4B3D28",
"5.	c #4B3E29",
"6.	c #B8B0A4",
"7.	c #6A7DA1",
"8.	c #476090",
"9.	c #3B64A7",
"0.	c #32548D",
"a.	c #89A5D5",
"b.	c #5F86C5",
"c.	c #32558E",
"d.	c #2D477A",
"e.	c #2A4274",
"f.	c #475875",
"g.	c #D1D3D7",
"h.	c #554730",
"i.	c #4B3F29",
"j.	c #82725A",
"k.	c #B0A698",
"l.	c #DADDE2",
"m.	c #3F5886",
"n.	c #87A1D2",
"o.	c #A2B8DC",
"p.	c #86A3D2",
"q.	c #7597CD",
"r.	c #4673BC",
"s.	c #4371BB",
"t.	c #284171",
"u.	c #E6E5E3",
"v.	c #5F4F38",
"w.	c #7F7F7F",
"x.	c #463925",
"y.	c #817059",
"z.	c #DCDFE4",
"A.	c #304E81",
"B.	c #9CB3D8",
"C.	c #8BA7D5",
"D.	c #7193CB",
"E.	c #4570B6",
"F.	c #294272",
"G.	c #D7DADF",
"H.	c #E7E6E4",
"I.	c #5F4F39",
"J.	c #473724",
"K.	c #7D6D55",
"L.	c #A39786",
"M.	c #E1DEDB",
"N.	c #E2E0DC",
"O.	c #CDCED0",
"P.	c #324D7D",
"Q.	c #577EBF",
"R.	c #5176B3",
"S.	c #213A64",
"T.	c #C4C4C4",
"U.	c #D1CDC6",
"V.	c #CCC6BE",
"W.	c #C4BDB3",
"X.	c #5B4E36",
"Y.	c #433522",
"Z.	c #7E6D55",
"`.	c #877861",
" +	c #908471",
".+	c #90826F",
"++	c #8E816D",
"@+	c #827A6E",
"#+	c #2E4E85",
"$+	c #28416E",
"%+	c #776F68",
"&+	c #877965",
"*+	c #847560",
"=+	c #81735E",
"-+	c #81735D",
";+	c #7D6C54",
">+	c #5C5346",
",+	c #5F4D37",
"'+	c #706148",
")+	c #6E5E47",
"!+	c #695941",
"~+	c #64553D",
"{+	c #60513A",
"]+	c #53473D",
"^+	c #50473E",
"/+	c #544531",
"(+	c #52432E",
"                . + + .                 ",
"              @ # $ $ % &               ",
"      * = - ; > , ' ) ! ~ { ] ^ /       ",
"    ( _ : < [ } | 1 1 2 3 4 5 6 7 8     ",
"    9 0 a b c c d e e e e f g h 7 8     ",
"    9 i j k l l m n n n n n o p q r     ",
"    s t u v w x x y w w z w A B 7 r     ",
"    ( C D E F E E F G H H I J K L M     ",
"    9 t N O E E P Q O R R R R S T M     ",
"    9 U V O E E W X Y W R Z Z S L M     ",
"    9 `  ...F E +.@.#.$.%.%.Z j L 8     ",
"    ( &.*.Z %.%.=.-.;.>.,.%.'.).T 8     ",
"    !.~.{.%.'.%.=.-.].^./.(._.:.T 8     ",
"    <.[.{.%.%.R }.|.1.2.(.'.'.3.T 4.    ",
"    5.[.6.7.8.9.0.a.b.c.d.e.f.g.T h.    ",
"    i.j.k.l.m.n.o.p.q.r.s.t.l.u.T v.w.  ",
"    x.y.k.Z z.A.B.C.D.E.F.G.O H.T I.w.w.",
"    J.K.L.M.N.O.P.Q.R.S.T.U.V.W.T X.w.w.",
"    Y.Z.`. +.+++@+#+$+%+&+*+=+-+;+>+w.  ",
"      ,+'+)+!+~+{+]+^+/+(+4.4.4.4.w.    "};
