/* XPM */
static char * icon_wand_20x20_xpm[] = {
"20 20 112 2",
"  	c None",
". 	c #272D2F",
"+ 	c #2D4E56",
"@ 	c #46616A",
"# 	c #31555E",
"$ 	c #3A4649",
"% 	c #4B5C5F",
"& 	c #3A5760",
"* 	c #BEEBF6",
"= 	c #9DC4CC",
"- 	c #5F7A82",
"; 	c #4A5B60",
"> 	c #586F73",
", 	c #A8D5DF",
"' 	c #5B7078",
") 	c #A0C8D0",
"! 	c #BFEFF9",
"~ 	c #BFF2F9",
"{ 	c #7DAFC3",
"] 	c #B1E2EB",
"^ 	c #B1E3EB",
"/ 	c #2E3940",
"( 	c #617679",
"_ 	c #BBECF5",
": 	c #BDF0F7",
"< 	c #BCEFF7",
"[ 	c #BBEEF6",
"} 	c #B0E2ED",
"| 	c #45575F",
"1 	c #3F4B4E",
"2 	c #96C4D5",
"3 	c #BEF0F8",
"4 	c #BAEDF5",
"5 	c #B6E7F1",
"6 	c #85A9B1",
"7 	c #506971",
"8 	c #B1E3ED",
"9 	c #B5E8EF",
"0 	c #BBEEF5",
"a 	c #BDF0F9",
"b 	c #C0F0F9",
"c 	c #B9E9F2",
"d 	c #B2DFE6",
"e 	c #617A81",
"f 	c #3B474F",
"g 	c #38555B",
"h 	c #B1DFE8",
"i 	c #AFE0E9",
"j 	c #ACDEE7",
"k 	c #B2E3ED",
"l 	c #B1E0E8",
"m 	c #A8D5E0",
"n 	c #B7E8F2",
"o 	c #7A9CAB",
"p 	c #373D48",
"q 	c #455356",
"r 	c #627A7D",
"s 	c #445456",
"t 	c #4D5D60",
"u 	c #83A9B3",
"v 	c #ADDDEA",
"w 	c #9ECED7",
"x 	c #3C474D",
"y 	c #363F40",
"z 	c #565A5B",
"A 	c #2B3233",
"B 	c #B0DDE6",
"C 	c #2D3032",
"D 	c #515149",
"E 	c #A29D92",
"F 	c #2C2A27",
"G 	c #667E81",
"H 	c #AFDCE5",
"I 	c #30383C",
"J 	c #403E3B",
"K 	c #756856",
"L 	c #817862",
"M 	c #484237",
"N 	c #363C3E",
"O 	c #83A1B0",
"P 	c #322F2B",
"Q 	c #494236",
"R 	c #776B59",
"S 	c #C9BEA9",
"T 	c #757061",
"U 	c #7F7F7F",
"V 	c #36322B",
"W 	c #4E4A45",
"X 	c #8C8069",
"Y 	c #D4C6A4",
"Z 	c #736A55",
"` 	c #1C1C1C",
" .	c #4A4540",
"..	c #867A67",
"+.	c #B2A88F",
"@.	c #6B5F4D",
"#.	c #4E4740",
"$.	c #6D6252",
"%.	c #9E927B",
"&.	c #4D4638",
"*.	c #403B35",
"=.	c #7D6F5A",
"-.	c #746B59",
";.	c #443F35",
">.	c #433E38",
",.	c #7D6F5B",
"'.	c #7D725E",
").	c #2E2D28",
"!.	c #403B33",
"~.	c #574E41",
"{.	c #35342D",
"].	c #37322A",
"                .                       ",
"  + @ #       $ %                       ",
"  & * = - ; > , '                       ",
"  # ) ! ~ { ] ^ /                       ",
"    ( _ : < [ } |                       ",
"    1 2 3 : 4 5 6 $                     ",
"    7 8 9 0 a b c d e f                 ",
"  g h i j k c l m 5 n o p               ",
"$ q r s t u v w x y z                   ",
"          A B k C D E F                 ",
"            G H I J K L M               ",
"            N O   P Q R S T             ",
"        U U   .     V W X Y Z           ",
"      U U U U U       `  ...+.@.        ",
"        U U U U U       ` #.$.%.&.      ",
"          U   U U U U     ` *.=.-.;.    ",
"                  U U U U   ` >.,.'.).  ",
"                      U U U U ` !.~.{.  ",
"                            U U ` ].{.  ",
"                                        "};
