/* XPM */
static char * icon_pipe_32x32_xpm[] = {
"32 32 173 2",
"  	c None",
". 	c #555555",
"+ 	c #4A4A4A",
"@ 	c #474747",
"# 	c #3D3D3D",
"$ 	c #444444",
"% 	c #9D9D9D",
"& 	c #ABABAB",
"* 	c #999999",
"= 	c #919191",
"- 	c #7F7F7F",
"; 	c #606060",
"> 	c #636363",
", 	c #838383",
"' 	c #CDCDCD",
") 	c #EBEBEB",
"! 	c #DBDBDB",
"~ 	c #D4D4D4",
"{ 	c #CACACA",
"] 	c #C0C0C0",
"^ 	c #898989",
"/ 	c #767676",
"( 	c #515151",
"_ 	c #565656",
": 	c #585858",
"< 	c #505050",
"[ 	c #B6B6B6",
"} 	c #DADADA",
"| 	c #EAEAEA",
"1 	c #F1F1F1",
"2 	c #F4F4F4",
"3 	c #F3F3F3",
"4 	c #E5E5E5",
"5 	c #D2D2D2",
"6 	c #BCBCBC",
"7 	c #A8A8A8",
"8 	c #8F8F8F",
"9 	c #464646",
"0 	c #2F2F2F",
"a 	c #363636",
"b 	c #646464",
"c 	c #666666",
"d 	c #787878",
"e 	c #7C7C7C",
"f 	c #6B6B6B",
"g 	c #484848",
"h 	c #3B3B3B",
"i 	c #7E7E7E",
"j 	c #B2B2B2",
"k 	c #D7D7D7",
"l 	c #E2E2E2",
"m 	c #E4E4E4",
"n 	c #E9E9E9",
"o 	c #EFEFEF",
"p 	c #E8E8E8",
"q 	c #BABABA",
"r 	c #9A9A9A",
"s 	c #656565",
"t 	c #EDEDED",
"u 	c #C4C4C4",
"v 	c #A3A3A3",
"w 	c #B3B3B3",
"x 	c #313131",
"y 	c #424242",
"z 	c #6D6D6D",
"A 	c #C8C8C8",
"B 	c #CBCBCB",
"C 	c #D9D9D9",
"D 	c #E1E1E1",
"E 	c #ECECEC",
"F 	c #DEDEDE",
"G 	c #AFAFAF",
"H 	c #717171",
"I 	c #232323",
"J 	c #1B1B1B",
"K 	c #191919",
"L 	c #1A1A1A",
"M 	c #2A2A2A",
"N 	c #454545",
"O 	c #626262",
"P 	c #8D8D8D",
"Q 	c #CECECE",
"R 	c #D5D5D5",
"S 	c #E3E3E3",
"T 	c #E7E7E7",
"U 	c #DDDDDD",
"V 	c #6A6A6A",
"W 	c #B9B9B9",
"X 	c #C9C9C9",
"Y 	c #434343",
"Z 	c #2C2C2C",
"` 	c #323232",
" .	c #373737",
"..	c #404040",
"+.	c #3A3A3A",
"@.	c #969696",
"#.	c #A0A0A0",
"$.	c #D8D8D8",
"%.	c #8E8E8E",
"&.	c #878787",
"*.	c #989898",
"=.	c #333333",
"-.	c #3C3C3C",
";.	c #393939",
">.	c #3F3F3F",
",.	c #2B2B2B",
"'.	c #595959",
").	c #737373",
"!.	c #818181",
"~.	c #939393",
"{.	c #A7A7A7",
"].	c #ACACAC",
"^.	c #C1C1C1",
"/.	c #BBBBBB",
"(.	c #676767",
"_.	c #303030",
":.	c #4D4D4D",
"<.	c #4C4C4C",
"[.	c #5A5A5A",
"}.	c #888888",
"|.	c #929292",
"1.	c #9B9B9B",
"2.	c #A5A5A5",
"3.	c #A9A9A9",
"4.	c #B4B4B4",
"5.	c #616161",
"6.	c #979797",
"7.	c #242424",
"8.	c #5E5E5E",
"9.	c #4F4F4F",
"0.	c #000000",
"a.	c #494949",
"b.	c #414141",
"c.	c #686868",
"d.	c #747474",
"e.	c #8B8B8B",
"f.	c #9E9E9E",
"g.	c #909090",
"h.	c #C7C7C7",
"i.	c #707070",
"j.	c #383838",
"k.	c #545454",
"l.	c #020202",
"m.	c #6F6F6F",
"n.	c #7D7D7D",
"o.	c #858585",
"p.	c #848484",
"q.	c #3E3E3E",
"r.	c #797979",
"s.	c #282828",
"t.	c #4B4B4B",
"u.	c #959595",
"v.	c #5D5D5D",
"w.	c #757575",
"x.	c #6C6C6C",
"y.	c #8C8C8C",
"z.	c #949494",
"A.	c #BDBDBD",
"B.	c #696969",
"C.	c #5C5C5C",
"D.	c #2D2D2D",
"E.	c #BEBEBE",
"F.	c #353535",
"G.	c #828282",
"H.	c #262626",
"I.	c #535353",
"J.	c #A6A6A6",
"K.	c #A4A4A4",
"L.	c #C3C3C3",
"M.	c #B0B0B0",
"N.	c #525252",
"O.	c #AEAEAE",
"P.	c #252525",
"                                                                ",
"                                                                ",
"                                                                ",
"                                                                ",
"                                                                ",
"                                                                ",
"                                                                ",
"                                                                ",
"        . + @ # $                                               ",
"      . % & * = - ; >                                           ",
"    $ , ' ) ! ~ { ] ^ / ( _ :                                   ",
"    < [ } | 1 2 3 | 4 5 6 7 8 : 9 0 a : b c d d d e f g         ",
"  h i j ~ k l m n o 2 3 p 4 } ' q r s * m t u v % w [ d x       ",
"  y z 7 A { B C l 4 D n 3 1 E F G ; D t H I J K L L I M @ x     ",
"  N O P v j u Q Q R } S D T U Q V W X Y I I I I Z `  .a ..a +.  ",
"  N ; > P @.#.j ] X { R ~ $.R %.&.S *.I I I I Z ` =.-.;.g _ >.  ",
"  ,.< '.).d !.~.v {.].^.Q ' /.(.*.R ,.I I I I -._.9 # N :.g <.  ",
"    =.$ '.[.z - }.|.1.2.3.4.G 5.u 6.I I I 7.` x -.h 9 :.8.5.9.  ",
"    0.h a.b.:.<.c.d.^ P e.f.g.; h.i.I I I Z =.j.# b.< k.s e :   ",
"      l.;. .9 < g < < m.n.o.p.$ #.k.I I I =.0 h q.: . : r.@.(   ",
"        0.7.7.s._.. g <.t.[.m.y u.v.I I Z a h a.< : w.d.P r <.  ",
"                  0.7.Z g a.9 j.#.8 I I =.h h <.. x.i y.z.z.a.  ",
"                      0.0.7.x # b - I I +.h # ( b n.y.r A.B.-.  ",
"                          0.0.0.b.C.<.I D.;.h . , g.@.E.].g 7.  ",
"                                7.F.G.H.`  .I.c.i.e.J.6 g 7.- - ",
"                                  7.:...( O 6.K.] L.M.N.7.- - - ",
"                                    7.j.@ ^ * 4.6 O.a P.- - -   ",
"                                          b.7.7.x s.- - -       ",
"                                                                ",
"                                                                ",
"                                                                ",
"                                                                "};
