/* XPM */
static char * icon_install_32x32_xpm[] = {
"32 32 293 2",
"  	c None",
". 	c #5B5B5B",
"+ 	c #5F5E5E",
"@ 	c #696968",
"# 	c #6B6B69",
"$ 	c #747474",
"% 	c #838383",
"& 	c #7E7E7E",
"* 	c #707070",
"= 	c #616161",
"- 	c #B5B2AE",
"; 	c #C8C5C1",
"> 	c #CDCAC6",
", 	c #CECBC7",
"' 	c #D3D0CC",
") 	c #D1CFCE",
"! 	c #B1B0AF",
"~ 	c #E2E1DF",
"{ 	c #D0CFCC",
"] 	c #474747",
"^ 	c #676766",
"/ 	c #C4C1BD",
"( 	c #D1CECB",
"_ 	c #CFCCC8",
": 	c #CDCAC7",
"< 	c #CDCAC8",
"[ 	c #868584",
"} 	c #F5F5F4",
"| 	c #EAE9E7",
"1 	c #ADAAA8",
"2 	c #434343",
"3 	c #6C6C6C",
"4 	c #D4D1CD",
"5 	c #D4D1CE",
"6 	c #5D5C5C",
"7 	c #D1CFCC",
"8 	c #D9D6D3",
"9 	c #D8D5D2",
"0 	c #5D5C5B",
"a 	c #D5D3D1",
"b 	c #DCD9D6",
"c 	c #DDDAD9",
"d 	c #DCDAD8",
"e 	c #585656",
"f 	c #D7D4D3",
"g 	c #DEDCDA",
"h 	c #E0DFDD",
"i 	c #E3E1E1",
"j 	c #CFCCC9",
"k 	c #8F8E8E",
"l 	c #D5D5D5",
"m 	c #F0EFEE",
"n 	c #DBD9D7",
"o 	c #ABA9A8",
"p 	c #3A3A3A",
"q 	c #3F3F3F",
"r 	c #B3B3B2",
"s 	c #E3E1DF",
"t 	c #E7E6E4",
"u 	c #E8E8E6",
"v 	c #D2D0CD",
"w 	c #AAA9A9",
"x 	c #787777",
"y 	c #6E6D6D",
"z 	c #676767",
"A 	c #5A5A5A",
"B 	c #919090",
"C 	c #E4E2E1",
"D 	c #E5E4E2",
"E 	c #E6E6E3",
"F 	c #747473",
"G 	c #E5E3E2",
"H 	c #ECEBE9",
"I 	c #EBEAE9",
"J 	c #566D9E",
"K 	c #4C6397",
"L 	c #6B6A69",
"M 	c #ECEAE9",
"N 	c #EFEEED",
"O 	c #EEEDEB",
"P 	c #4D6497",
"Q 	c #A8BDE4",
"R 	c #6886C2",
"S 	c #3A4558",
"T 	c #6F6D6B",
"U 	c #F2F0EF",
"V 	c #F3F1F1",
"W 	c #F4F2F2",
"X 	c #546B9C",
"Y 	c #9AB2DE",
"Z 	c #4667B2",
"` 	c #33415D",
" .	c #656362",
"..	c #EDECEC",
"+.	c #F5F4F3",
"@.	c #F4F3F2",
"#.	c #F6F6F6",
"$.	c #445D91",
"%.	c #86A2D6",
"&.	c #34415E",
"*.	c #62615F",
"=.	c #B5B3B2",
"-.	c #F9F8F7",
";.	c #F6F5F4",
">.	c #F7F7F6",
",.	c #DBD8D7",
"'.	c #445D92",
").	c #87A4D7",
"!.	c #4667B1",
"~.	c #334362",
"{.	c #969492",
"].	c #9F9E9D",
"^.	c #626160",
"/.	c #747372",
"(.	c #F3F2F0",
"_.	c #F6F4F3",
":.	c #F7F6F4",
"<.	c #6678A2",
"[.	c #6679A2",
"}.	c #6779A3",
"|.	c #677AA3",
"1.	c #305397",
"2.	c #8AA6D7",
"3.	c #4665AE",
"4.	c #283C67",
"5.	c #2E4062",
"6.	c #2E4063",
"7.	c #293A5C",
"8.	c #57637E",
"9.	c #565553",
"0.	c #6E6E6D",
"a.	c #727271",
"b.	c #6D6C6C",
"c.	c #415391",
"d.	c #9FB6DF",
"e.	c #94AEDB",
"f.	c #8EA8D7",
"g.	c #809BD0",
"h.	c #6F8ECA",
"i.	c #4364AE",
"j.	c #3E5FA2",
"k.	c #405FA5",
"l.	c #4364AB",
"m.	c #3C5A96",
"n.	c #283B64",
"o.	c #4B6397",
"p.	c #6180C0",
"q.	c #5F7FBF",
"r.	c #5676BB",
"s.	c #5374B9",
"t.	c #4668B2",
"u.	c #4263AC",
"v.	c #4364AC",
"w.	c #35549D",
"x.	c #354972",
"y.	c #39548F",
"z.	c #5E7DBE",
"A.	c #5677BB",
"B.	c #5478C3",
"C.	c #4163AF",
"D.	c #3D5EA6",
"E.	c #3A5396",
"F.	c #3A4F7D",
"G.	c #F2F2F0",
"H.	c #6B6A6A",
"I.	c #525252",
"J.	c #575757",
"K.	c #585858",
"L.	c #35518B",
"M.	c #6685C3",
"N.	c #4160A7",
"O.	c #38549A",
"P.	c #46526F",
"Q.	c #F6F4F4",
"R.	c #F7F6F6",
"S.	c #B2B2B1",
"T.	c #4D4D4D",
"U.	c #484848",
"V.	c #4F4F4F",
"W.	c #4E4E4E",
"X.	c #3B3B3B",
"Y.	c #363636",
"Z.	c #444444",
"`.	c #F3F3F3",
" +	c #EEEEEE",
".+	c #F5F5F5",
"++	c #F0F0F0",
"@+	c #E5E5E5",
"#+	c #33508B",
"$+	c #415A97",
"%+	c #3D579A",
"&+	c #354B78",
"*+	c #F8F7F7",
"=+	c #FBFAFA",
"-+	c #F9F9F8",
";+	c #6E6E6E",
">+	c #DADADA",
",+	c #D6D6D6",
"'+	c #C6C6C6",
")+	c #B1B1B1",
"!+	c #373737",
"~+	c #2D2D2D",
"{+	c #FBFBFB",
"]+	c #EAEAEA",
"^+	c #DDDDDD",
"/+	c #DEDEDE",
"(+	c #D7D7D7",
"_+	c #3C5588",
":+	c #304B80",
"<+	c #FBFBFA",
"[+	c #FAF9F9",
"}+	c #F4F4F3",
"|+	c #F4F4F4",
"1+	c #F3F3F2",
"2+	c #757575",
"3+	c #C7C7C7",
"4+	c #CACACA",
"5+	c #C3C3C3",
"6+	c #A8A8A8",
"7+	c #464646",
"8+	c #929292",
"9+	c #3C3C3C",
"0+	c #565656",
"a+	c #F9F9F9",
"b+	c #F8F8F8",
"c+	c #F2F2F2",
"d+	c #EFEFEF",
"e+	c #F8F8F7",
"f+	c #F5F4F4",
"g+	c #6A6A6A",
"h+	c #E9E9E9",
"i+	c #EBEBEB",
"j+	c #8B8B8B",
"k+	c #939393",
"l+	c #323232",
"m+	c #535353",
"n+	c #F1F1F1",
"o+	c #CCCCCC",
"p+	c #C9C9C9",
"q+	c #C8C8C8",
"r+	c #C8C8C7",
"s+	c #787878",
"t+	c #5C5C5C",
"u+	c #C4C4C4",
"v+	c #C2C2C2",
"w+	c #8E8E8E",
"x+	c #545454",
"y+	c #E6E6E6",
"z+	c #C5C5C5",
"A+	c #656564",
"B+	c #909090",
"C+	c #DBDBDB",
"D+	c #C1C1C1",
"E+	c #C4C9C4",
"F+	c #47EA47",
"G+	c #19F719",
"H+	c #48EA48",
"I+	c #3E3E3E",
"J+	c #5F5F5F",
"K+	c #555555",
"L+	c #D8D8D8",
"M+	c #383838",
"N+	c #A4A4A4",
"O+	c #858585",
"P+	c #868686",
"Q+	c #878787",
"R+	c #818181",
"S+	c #454545",
"T+	c #646464",
"U+	c #7F7F7F",
"V+	c #AFAFAF",
"W+	c #9C9C9C",
"X+	c #9D9D9D",
"Y+	c #9B9B9B",
"Z+	c #9E9E9E",
"`+	c #9F9F9F",
" @	c #959595",
".@	c #515151",
"+@	c #616261",
"@@	c #656665",
"#@	c #303030",
"$@	c #969696",
"%@	c #9A9A9A",
"&@	c #979797",
"*@	c #5E615E",
"=@	c #353635",
"-@	c #686868",
";@	c #ADADAD",
">@	c #989898",
",@	c #333333",
"'@	c #4A4A4A",
")@	c #353535",
"!@	c #2E2E2E",
". . + @ # $ % & * =                                             ",
". - ; > , ' ) ! ~ { ]                                           ",
"^ / > ( _ : < [ } | 1 2                                         ",
"3 > 4 5 5 . . + @ # $ % & * =                                   ",
"6 7 8 9 5 . - ; > , ' ) ! ~ { ]                                 ",
"0 a b c d ^ / > ( _ : < [ } | 1 2                               ",
"e f g h i 3 > 4 5 5 j j k l m n o p                             ",
"q r s t u 6 7 8 9 5 v 5 w x y z $ A                             ",
"  B C D E 0 a b . . + @ # $ % & * =                             ",
"  F G H I e f g . - ; > , ' ) J K { ]                           ",
"  L M N O q r s ^ / > ( _ : P Q R S 1 2                         ",
"  T t U V W B C 3 > 4 5 5 j X Y Z ` n o p                       ",
"   ...+.@.#.F G 6 7 8 9 5 v $.%.Z &.z $ A                       ",
"  *.=.-.;.>.L M 0 a b c d ,.'.).!.~.{.].^.                      ",
"    /.(._.:.T t e f <.[.}.|.1.2.3.4.5.6.7.8.                    ",
"    9.0.a.b. ...q r c.d.e.f.g.h.i.j.k.l.m.n.                    ",
"            *.=.-.B C o.p.q.r.s.t.u.v.w.x..                     ",
"              /.(.F G H y.z.A.B.C.D.E.F.G.H.                    ",
"      I.I.J.K.9.0.L M N O L.M.A.N.O.P.Q.R.S.$ T.U.V.I.W.X.Y.Z.  ",
"    V.`. +.+++@+@+T t U V W #+$+%+&+*+=+-+:.;+>+>+l ,+'+)+!+~+  ",
"  U.{+]+^+/+(+(+(+ ...+.@.#.>._+:+<+[+}+|+1+2+3+4+4+5+6+7+8+9+  ",
"0+a+b+c+ +d+c+|+|+*.=.-.;.>.;.e+e+e+f+} `.c+g+|+|+h+i+U.j+k+l+  ",
"m+n+o+p+p+q+q+p+p+p+/.(._.:.a+#.r+s+g+= t+t+W.p+p+u+v+q w+k+9+  ",
"x+y+o+3+u+z+'+'+z+5+9.0.a.b.z A+t+v+v+v+v+u+5+z+3+v+'+q B+k+9+  ",
"x+C+v+5+u+5+5+5+5+5+5+v+D+5+5+5+5+z+z+z+z+E+F+G+H+u+u+I+B+k+9+  ",
"x+>+q+u+5+5+z+z+z+z+v+v+5+5+5+5+5+5+5+5+z+'+'+u+'+z+4+9+B+J+X.  ",
"K+L+q+'+q+p+p+p+p+p+p+p+p+p+p+p+p+p+p+p+p+p+p+p+p+p+D+X.t+3 M+  ",
"m+N+O+P+O+O+O+O+O+P+O+O+P+Q+P+P+P+P+Q+O+P+P+O+P+P+O+R+S+;+T+X.U+",
"V.V+W+X+Y+W+W+W+Z+Z+W+W+W+X+X+X+X+X+`+X+X+W+W+Z+X+ @8+.@+@@@#@U+",
"0+N+$@Y+W+X+Z+W+W+W+Y+Y+Y+%@Y+Y+Y+W+W+W+W+W+Y+W+W+&@8+] *@=@-@  ",
"I.;@&@>@&@$@$@$@$@$@$@$@$@$@$@$@k+k+k+k+k+k+k+&@ @B+8+M+,@z     ",
"  '@)@M+M+M+M+M+M+M+9+M+M+M+M+M+M+M+M+M+M+M+M+M+M+M+)@!@-@      "};
