/* XPM */
static char * icon_trash_32x32_xpm[] = {
"32 32 390 2",
"  	c None",
". 	c #5B5B5B",
"+ 	c #5F5E5E",
"@ 	c #696968",
"# 	c #6B6B69",
"$ 	c #747474",
"% 	c #838383",
"& 	c #707070",
"* 	c #616161",
"= 	c #6F6A4A",
"- 	c #C8C5C1",
"; 	c #CDCAC6",
"> 	c #CECBC7",
", 	c #D3D0CC",
"' 	c #D1CFCE",
") 	c #E2E1DF",
"! 	c #D0CFCC",
"~ 	c #474747",
"{ 	c #B9B494",
"] 	c #EBE7CA",
"^ 	c #E9E5C6",
"/ 	c #E8E3C5",
"( 	c #F7F2D4",
"_ 	c #706A49",
": 	c #6D6848",
"< 	c #676766",
"[ 	c #D1CECB",
"} 	c #CFCCC8",
"| 	c #CDCAC7",
"1 	c #CDCAC8",
"2 	c #F5F5F4",
"3 	c #EAE9E7",
"4 	c #ADAAA8",
"5 	c #3B3B3B",
"6 	c #ABA67C",
"7 	c #C1BB96",
"8 	c #CCC79D",
"9 	c #D8D3B3",
"0 	c #FDFDFC",
"a 	c #FDF9DE",
"b 	c #605C3F",
"c 	c #3C3C3C",
"d 	c #666666",
"e 	c #D1CECA",
"f 	c #D2CFCC",
"g 	c #CECBC8",
"h 	c #CFCCC9",
"i 	c #D5D5D5",
"j 	c #F0EFEE",
"k 	c #DBD9D7",
"l 	c #ABA9A8",
"m 	c #434239",
"n 	c #BBB58C",
"o 	c #CCC8A1",
"p 	c #C7C39C",
"q 	c #F0EED3",
"r 	c #DED9B5",
"s 	c #F5F4D6",
"t 	c #696444",
"u 	c #7B7B7B",
"v 	c #7E7E7E",
"w 	c #363636",
"x 	c #454545",
"y 	c #ECECEC",
"z 	c #3B3A3A",
"A 	c #BFBCB9",
"B 	c #C6C3C0",
"C 	c #C7C4C1",
"D 	c #CCCAC7",
"E 	c #D3D0CD",
"F 	c #787777",
"G 	c #6E6D6D",
"H 	c #676767",
"I 	c #58574F",
"J 	c #B5B18A",
"K 	c #CAC6A1",
"L 	c #E7E3C6",
"M 	c #CAC39D",
"N 	c #D7D0AE",
"O 	c #635B3C",
"P 	c #B8B6B5",
"Q 	c #B1B0AF",
"R 	c #4A4A4A",
"S 	c #E2E2E2",
"T 	c #F5F5F5",
"U 	c #252423",
"V 	c #ABA8A5",
"W 	c #B4B1B0",
"X 	c #B9B7B5",
"Y 	c #C2BFBE",
"Z 	c #CECBC9",
"` 	c #BCBAB7",
" .	c #9C9A99",
"..	c #959391",
"+.	c #9F9E9D",
"@.	c #545352",
"#.	c #858058",
"$.	c #D2CDA5",
"%.	c #EEEBCD",
"&.	c #D6D0AF",
"*.	c #C8C299",
"=.	c #6E6847",
"-.	c #B1AEAB",
";.	c #BEBBB9",
">.	c #868584",
",.	c #888988",
"'.	c #787878",
").	c #CBCBCB",
"!.	c #CECECE",
"~.	c #A3A2A0",
"{.	c #B0AEAE",
"].	c #B9B8B7",
"^.	c #C1BFBF",
"/.	c #D0CDCD",
"(.	c #DBDAD8",
"_.	c #E3E2DF",
":.	c #535353",
"<.	c #706A41",
"[.	c #CCC69F",
"}.	c #F9F4D8",
"|.	c #C9C29A",
"1.	c #D3CBAA",
"2.	c #625C3D",
"3.	c #B6B3B0",
"4.	c #8F8E8E",
"5.	c #434343",
"6.	c #3D3D3D",
"7.	c #B1B1B1",
"8.	c #AAABAA",
"9.	c #606060",
"0.	c #818181",
"a.	c #C6C6C5",
"b.	c #E7E7E7",
"c.	c #AEACAB",
"d.	c #BCBAB8",
"e.	c #C5C4C1",
"f.	c #CECCCA",
"g.	c #D8D8D6",
"h.	c #D7D7D6",
"i.	c #3E3E3E",
"j.	c #CBC69E",
"k.	c #F9F4DA",
"l.	c #CEC8A1",
"m.	c #5E583D",
"n.	c #BEBBBA",
"o.	c #C4C1BE",
"p.	c #AAA9A9",
"q.	c #3A3A3A",
"r.	c #393939",
"s.	c #9D9D9D",
"t.	c #AFAFAF",
"u.	c #ADADAD",
"v.	c #999999",
"w.	c #6F6F6F",
"x.	c #DAD9D9",
"y.	c #CBCBC9",
"z.	c #AFADAC",
"A.	c #B6B4B3",
"B.	c #C0BFBD",
"C.	c #C5C5C5",
"D.	c #D5D5D3",
"E.	c #484747",
"F.	c #B9B28A",
"G.	c #EAE4C7",
"H.	c #534D36",
"I.	c #B1AFAF",
"J.	c #C0BFBE",
"K.	c #D5D2D0",
"L.	c #D7D4D1",
"M.	c #C0BEBB",
"N.	c #4F4F4F",
"O.	c #AFB0AF",
"P.	c #AEAEAE",
"Q.	c #A1A1A1",
"R.	c #777777",
"S.	c #797978",
"T.	c #F0F0EF",
"U.	c #C8C8C7",
"V.	c #B2B1B1",
"W.	c #BDBBBB",
"X.	c #C7C6C6",
"Y.	c #838382",
"Z.	c #EDE8CA",
"`.	c #504A33",
" +	c #B9B8B6",
".+	c #CFCDCC",
"++	c #E4E1E1",
"@+	c #E7E4E4",
"#+	c #E8E5E5",
"$+	c #9D9B9A",
"%+	c #969492",
"&+	c #5D5D5D",
"*+	c #353535",
"=+	c #414141",
"-+	c #B1B2B1",
";+	c #B0B0B0",
">+	c #A7A8A7",
",+	c #626262",
"'+	c #797979",
")+	c #F4F4F4",
"!+	c #CECEC9",
"~+	c #B4B4B3",
"{+	c #BCBBB9",
"]+	c #505050",
"^+	c #D5D1B3",
"/+	c #46442B",
"(+	c #A5A3A2",
"_+	c #D9D7D6",
":+	c #E5E3E1",
"<+	c #EAE8E6",
"[+	c #EBEAE8",
"}+	c #E9E8E6",
"|+	c #8D8D8D",
"1+	c #D7D7D7",
"2+	c #DCDCDC",
"3+	c #757575",
"4+	c #3F3F3F",
"5+	c #B3B4B3",
"6+	c #B2B4B2",
"7+	c #A3A3A3",
"8+	c #757574",
"9+	c #7C7C7C",
"0+	c #EDEDEA",
"a+	c #BDBCB8",
"b+	c #C7C3A4",
"c+	c #302E17",
"d+	c #AFADAD",
"e+	c #D0CECC",
"f+	c #E2E0DE",
"g+	c #E9E8E5",
"h+	c #D9D8D8",
"i+	c #727272",
"j+	c #5A5A5A",
"k+	c #303030",
"l+	c #AEAFAE",
"m+	c #7A8E79",
"n+	c #7E917D",
"o+	c #A8A9A8",
"p+	c #A5A5A4",
"q+	c #6A6A6A",
"r+	c #EEEEED",
"s+	c #919084",
"t+	c #B5B3B2",
"u+	c #C9C7C6",
"v+	c #C9C8C7",
"w+	c #DDDDDC",
"x+	c #E6E6E6",
"y+	c #B9B9B9",
"z+	c #585858",
"A+	c #333333",
"B+	c #B6B6B6",
"C+	c #ACACAC",
"D+	c #617E60",
"E+	c #275B24",
"F+	c #20591E",
"G+	c #2A5E27",
"H+	c #3A6637",
"I+	c #A8A8A8",
"J+	c #ABABAB",
"K+	c #A3A4A3",
"L+	c #666764",
"M+	c #DFDFDF",
"N+	c #E9E8E8",
"O+	c #EBEAEA",
"P+	c #EAEAEA",
"Q+	c #C6C6C6",
"R+	c #575757",
"S+	c #595959",
"T+	c #4D724C",
"U+	c #21591F",
"V+	c #215A1F",
"W+	c #265C23",
"X+	c #A3A5A3",
"Y+	c #969E95",
"Z+	c #4B7049",
"`+	c #2B5D28",
" @	c #B7B7B7",
".@	c #6D6D6D",
"+@	c #767676",
"@@	c #383838",
"#@	c #3E6B3D",
"$@	c #245A22",
"%@	c #9EA39E",
"&@	c #A7A7A7",
"*@	c #2E5E2B",
"=@	c #255A22",
"-@	c #22591F",
";@	c #849383",
">@	c #AAAAAA",
",@	c #8C8C8C",
"'@	c #969696",
")@	c #376635",
"!@	c #A6A6A6",
"~@	c #678064",
"{@	c #255B22",
"]@	c #235920",
"^@	c #386335",
"/@	c #A5A6A5",
"(@	c #9E9E9E",
"_@	c #848484",
":@	c #7D7D7D",
"<@	c #7A7A7A",
"[@	c #2F2F2F",
"}@	c #5F5F5F",
"|@	c #6B846A",
"1@	c #255B23",
"2@	c #20591D",
"3@	c #1B5919",
"4@	c #A9A9A9",
"5@	c #658064",
"6@	c #456F43",
"7@	c #9B9B9B",
"8@	c #4B4B4B",
"9@	c #545454",
"0@	c #3A6838",
"a@	c #225920",
"b@	c #738972",
"c@	c #A6A8A6",
"d@	c #2D5E2A",
"e@	c #ABACAB",
"f@	c #ACB1AC",
"g@	c #A9ADA9",
"h@	c #A2AAA2",
"i@	c #ADAFAD",
"j@	c #426A3F",
"k@	c #225A1F",
"l@	c #969E96",
"m@	c #9A9A9A",
"n@	c #686868",
"o@	c #313131",
"p@	c #AAB0AA",
"q@	c #255D24",
"r@	c #527851",
"s@	c #AEB0AE",
"t@	c #A5A5A5",
"u@	c #356332",
"v@	c #929D92",
"w@	c #9C9C9C",
"x@	c #464646",
"y@	c #245D23",
"z@	c #899B89",
"A@	c #A2A3A2",
"B@	c #828282",
"C@	c #B2B2B2",
"D@	c #5E7F5D",
"E@	c #426C3F",
"F@	c #A8AAA8",
"G@	c #386635",
"H@	c #6A8368",
"I@	c #9DA29D",
"J@	c #305E2D",
"K@	c #7F7F7F",
"L@	c #B3B3B3",
"M@	c #6C866B",
"N@	c #30622E",
"O@	c #245B22",
"P@	c #295E26",
"Q@	c #2B5C28",
"R@	c #265B23",
"S@	c #989898",
"T@	c #A0A1A0",
"U@	c #889888",
"V@	c #3E6A3C",
"W@	c #2C5C29",
"X@	c #285A25",
"Y@	c #386536",
"Z@	c #525252",
"`@	c #909090",
" #	c #3D6A3C",
".#	c #496F46",
"+#	c #A2A2A2",
"@#	c #959595",
"##	c #717171",
"$#	c #A4A4A4",
"%#	c #A0A0A0",
"&#	c #929292",
"*#	c #323232",
"=#	c #8A8A8A",
"-#	c #8E8E8E",
";#	c #343434",
">#	c #2D2D2D",
",#	c #2E2E2E",
"'#	c #424242",
")#	c #8B8B8B",
"!#	c #737373",
"~#	c #979797",
"{#	c #646464",
"]#	c #6C6C6C",
"^#	c #373737",
"/#	c #656565",
"        . + @ # $ % & * = = = = = =                             ",
"        . - ; > , ' ) ! ~ { ] ^ / ( _ :                         ",
"        < ; [ } | 1 2 3 4 5 6 7 8 9 0 a b $                     ",
"      c d e f f g h i j k l m n o p q r s t u v &               ",
"  w x y z A B C D E F G H $ I J K K L M N O P Q ) *             ",
"  R S T U V W X Y Z `  ...+.@.#.$.%.&.*.=.-.;.>.2 ! ~           ",
"  x ,.'.).!.~.{.].^./.(.) _.:.<.[.}.|.1.2.3.4.i 3 4 4 5.        ",
"  6.7.8.9.0.a.b.c.X d.e.f.g.h.i.j.k.l.m.n.o.p.F j k l q.        ",
"  r.s.t.u.v.w.% x.y.z.A.B.C.D.E.F.G.H.I.J.K.L.M.G H $ q.r.      ",
"    N.O.O.t.P.Q.R.S.T.U.V.W.X.Y.9.Z.`. +.+++@+#+$+%++.&+b.*+    ",
"    =+-+O.t.;+P.>+>+,+'+)+!+~+{+]+^+/+(+_+:+<+[+}+_.|+1+2+3+*+  ",
"    4+5+6+O.t.;+t.P.P.7+8+9+0+a+5 b+c+d+e+k f+g+(.h+S i+j+. r.  ",
"    k+s.5+O.l+m+n+o+u.P.u.p+q+& r+s+Q t+u+v+a.w+x+y+9.:.w.z+A+  ",
"      &+B+C+D+E+F+G+H+u.I+u.J+K+$ L+M+N+O+P+Q+R+S+d i+R.'+=+    ",
"      N.B+I+T+U+U+V+W+X+Y+Z+`+C+C+X+H $  @* S+.@R.3+'+'.+@@@    ",
"      =+7.I+#@$@%@J+u.&@*@=@-@;@J+>@>@,@q+& +@'+'+'+'+R.+@k+    ",
"      A+'@>+)@$@!@u.u.J+~@{@]@^@/@J+>@(@_@:@<@'+'+'+'+3+R+[@    ",
"        }@|@1@2@3@P.P.u.4@H+5@=@6@C+>@7@_@9+<@u '+'.'.i+8@      ",
"        9@P.0@a@b@P.P.u.J+c@I+d@=@e@J+7@_@9+u '+'+'.'.$ c       ",
"        c f@g@h@i@t.P.C+J+J+J+j@k@l@J+m@_@u <@'+'+'+R.n@A+      ",
"        o@p@f@q@r@s@t.u.J+J+t@u@k@v@>@w@_@<@'+'+'+'+'+x@        ",
"          S+t.y@1@z@;+u.J+J+A@k@=@X+4@w@B@<@'+'.'.R.R.i.        ",
"          x C@D@y@E@F@P.G@H@I+I@J@t@I+7@K@<@R.R.+@+@+@@@        ",
"          8@F@L@M@N@O@P@Q@R@2@t@!@t@7+S@v '.R.3+3+3+i+*+        ",
"          r.T@4@4@U@V@W@X@=@Y@!@t@t@7+'@:@R.+@+@3+3+Z@o@R.      ",
"            A+`@Q.t@!@4@t@ #.#t@t@+#(@@#9++@+@+@+@##6.R.R.R.    ",
"              *+q.0.t@4@!@&@I+t@$#%#(@&#u +@+@+@+@##i.R.R.R.R.  ",
"                  *#i.=#S@&@I++#Q.s.7@-#u +@+@+@+@##;#+@R.R.R.R.",
"                      >#,#'#)#t@!@(@S@`@u +@+@+@+@R+[@!#R.R.R.R.",
"                            [@4+& s.~#)#R.!#i+9.w ;#{#+@R.R.R.  ",
"                                k+o@q.]#+@9.r.^#/#R.R.R.R.R.    ",
"                                      ,#5.;#R.R.R.              "};
