/* XPM */
static char * icon_wand_32x32_xpm[] = {
"32 32 238 2",
"  	c None",
". 	c #2A3335",
"+ 	c #3F4C4F",
"@ 	c #36565E",
"# 	c #5A7881",
"$ 	c #374447",
"% 	c #7A9AA0",
"& 	c #4D5F63",
"* 	c #506F79",
"= 	c #BDEAF5",
"- 	c #6B8990",
"; 	c #607C82",
"> 	c #455C62",
", 	c #42565A",
"' 	c #90B7BF",
") 	c #ADDCE5",
"! 	c #5B7078",
"~ 	c #6C8B91",
"{ 	c #B0DCE5",
"] 	c #9FCAD1",
"^ 	c #55737B",
"/ 	c #3D555C",
"( 	c #94BCC4",
"_ 	c #ADDDE6",
": 	c #A9D7E0",
"< 	c #3C4B52",
"[ 	c #475E63",
"} 	c #B0DDE6",
"| 	c #BEEFF8",
"1 	c #BEF1F8",
"2 	c #99CCDA",
"3 	c #8EC0D1",
"4 	c #B2E5ED",
"5 	c #B4E7EF",
"6 	c #9BC8D0",
"7 	c #313E45",
"8 	c #384B4F",
"9 	c #9DC4CB",
"0 	c #BBECF5",
"a 	c #BCEFF6",
"b 	c #BBEEF6",
"c 	c #B3E5EF",
"d 	c #9ECAD5",
"e 	c #45575F",
"f 	c #59757C",
"g 	c #A6D6E3",
"h 	c #BDEFF7",
"i 	c #BCEFF7",
"j 	c #BAEDF5",
"k 	c #B6E7F1",
"l 	c #A8D6E0",
"m 	c #6F8D95",
"n 	c #3E4E52",
"o 	c #40575D",
"p 	c #A0CFDD",
"q 	c #BCEEF6",
"r 	c #B8EAF3",
"s 	c #B0DFE9",
"t 	c #8DB3BB",
"u 	c #637B80",
"v 	c #435256",
"w 	c #242830",
"x 	c #4F6970",
"y 	c #90BAC3",
"z 	c #B3E6EF",
"A 	c #B4E7EE",
"B 	c #B9ECF3",
"C 	c #BBEEF5",
"D 	c #BDF0F9",
"E 	c #BEF0F9",
"F 	c #BDEEF7",
"G 	c #B9E9F2",
"H 	c #B4E2E9",
"I 	c #A4CED5",
"J 	c #607980",
"K 	c #47575F",
"L 	c #313B41",
"M 	c #374D52",
"N 	c #92BAC3",
"O 	c #B3E5EE",
"P 	c #AEE1E9",
"Q 	c #B2E4ED",
"R 	c #B5E7F0",
"S 	c #BAECF5",
"T 	c #B8E8F1",
"U 	c #B7E8F1",
"V 	c #B2E1EB",
"W 	c #B4E4ED",
"X 	c #B3E3EC",
"Y 	c #ADDBE4",
"Z 	c #9BC5D0",
"` 	c #6F8C97",
" .	c #2A3C40",
"..	c #7EA5AD",
"+.	c #A9D8E0",
"@.	c #A4D0D8",
"#.	c #9CC8D0",
"$.	c #A5D3DD",
"%.	c #ACDBE5",
"&.	c #B6E6F0",
"*.	c #B0E0E8",
"=.	c #739199",
"-.	c #69838D",
";.	c #51636C",
">.	c #52656D",
",.	c #54676F",
"'.	c #4A5A63",
").	c #44525B",
"!.	c #3D4851",
"~.	c #414E51",
"{.	c #5C7175",
"].	c #657F83",
"^.	c #4D6062",
"/.	c #455557",
"(.	c #4C5C5F",
"_.	c #718F97",
":.	c #8AB1BC",
"<.	c #ADDDEA",
"[.	c #A2D2DD",
"}.	c #495B63",
"|.	c #3C474D",
"1.	c #374144",
"2.	c #3B4344",
"3.	c #55595A",
"4.	c #384649",
"5.	c #596F74",
"6.	c #AFDDE7",
"7.	c #AFDFE9",
"8.	c #4E5F67",
"9.	c #31373A",
"0.	c #404442",
"a.	c #52544F",
"b.	c #88867F",
"c.	c #413F3B",
"d.	c #394446",
"e.	c #A3CDD5",
"f.	c #4F6169",
"g.	c #2D3133",
"h.	c #434440",
"i.	c #5A5951",
"j.	c #9A9487",
"k.	c #5A564D",
"l.	c #322F2A",
"m.	c #667E81",
"n.	c #A8D4DD",
"o.	c #30383C",
"p.	c #3A3C3B",
"q.	c #48453F",
"r.	c #746755",
"s.	c #7D725E",
"t.	c #776E5A",
"u.	c #474136",
"v.	c #455154",
"w.	c #91B4BD",
"x.	c #4B5B64",
"y.	c #292826",
"z.	c #3C3833",
"A.	c #574E40",
"B.	c #6E6452",
"C.	c #AC9E86",
"D.	c #887E6E",
"E.	c #5F594C",
"F.	c #2C3133",
"G.	c #6B838C",
"H.	c #46555D",
"I.	c #2E2B26",
"J.	c #453F34",
"K.	c #62584A",
"L.	c #7D7261",
"M.	c #C0B49A",
"N.	c #99907B",
"O.	c #656050",
"P.	c #7E7E7E",
"Q.	c #7F7F7F",
"R.	c #1A1E1F",
"S.	c #2F373E",
"T.	c #35312A",
"U.	c #46423C",
"V.	c #58534B",
"W.	c #8B7F68",
"X.	c #BDAE94",
"Y.	c #A0947B",
"Z.	c #665D4A",
"`.	c #515353",
" +	c #232220",
".+	c #35322F",
"++	c #5F584D",
"@+	c #8A7F6C",
"#+	c #B0A38A",
"$+	c #9D937B",
"%+	c #635B4B",
"&+	c #1E1D1D",
"*+	c #423E39",
"=+	c #696053",
"-+	c #837866",
";+	c #ADA188",
">+	c #998A74",
",+	c #625848",
"'+	c #1B1B1B",
")+	c #3D3834",
"!+	c #534B43",
"~+	c #6C6151",
"{+	c #A19076",
"]+	c #81735B",
"^+	c #4C4537",
"/+	c #201F1D",
"(+	c #322F2B",
"_+	c #4E473E",
":+	c #756958",
"<+	c #877A65",
"[+	c #675E4E",
"}+	c #403B31",
"|+	c #1D1C1B",
"1+	c #393530",
"2+	c #605648",
"3+	c #736755",
"4+	c #847761",
"5+	c #5A5345",
"6+	c #413C32",
"7+	c #36322E",
"8+	c #4C463D",
"9+	c #7C6E5A",
"0+	c #7C715D",
"a+	c #6F6654",
"b+	c #2E2D28",
"c+	c #3A3938",
"d+	c #302D29",
"e+	c #544C40",
"f+	c #5E5547",
"g+	c #5B5345",
"h+	c #32312B",
"i+	c #2E2E2C",
"j+	c #39352F",
"k+	c #494238",
"l+	c #4C453A",
"m+	c #35342D",
"n+	c #2E2A25",
"o+	c #36322A",
"                                                                ",
"                                                                ",
"                        . +                                     ",
"      @ #             $ % &                                     ",
"      * = - ; >     , ' ) !                                     ",
"        ~ { { ] ^ / ( _ : <                                     ",
"        [ } | 1 2 3 4 5 6 7                                     ",
"        8 9 0 a a b b c d e                                     ",
"          f g h i a j k l m n                                   ",
"          o p q a a j r s t u v w                               ",
"        x y z A B C D E F G H I J K L                           ",
"      M N _ O P Q R S T U V W X Y Z ` w                         ",
"     ...+.@.#.#.$.%.&.*.=.-.;.>.,.'.).!.                        ",
"    ~.{.].^./.(._.:.<.[.}.|.1.2.3.                              ",
"                4.5.6.7.8.9.0.a.b.c.                            ",
"                  d.e.X f.g.h.i.j.k.l.                          ",
"                  w m.n.f.o.p.q.r.s.t.u.                        ",
"                    v.w.x.  y.z.A.B.C.D.E.                      ",
"                    F.G.H.    I.J.K.L.M.N.O.                    ",
"              P.Q.    R.S.      T.U.V.W.X.Y.Z.                  ",
"              P.P.Q.Q.Q.`.         +.+++@+#+$+%+                ",
"            Q.Q.Q.Q.Q.Q.Q.          &+*+=+-+;+>+,+              ",
"          Q.Q.Q.P.P.Q.Q.Q.Q.Q.        '+)+!+~+{+]+^+            ",
"                  Q.Q.Q.Q.Q.Q.Q.        /+(+_+:+<+[+}+          ",
"                    Q.Q.  Q.Q.Q.Q.Q.      |+1+2+3+4+5+6+        ",
"                              Q.Q.Q.P.Q.    '+7+8+9+0+a+b+      ",
"                                  Q.Q.Q.Q.Q.Q.c+d+e+f+g+h+      ",
"                                      Q.Q.Q.Q.Q.i+j+k+l+m+      ",
"                                            P.P.Q.'+n+o+        ",
"                                                                ",
"                                                                ",
"                                                                "};
