/* XPM */
static char * icon_print2_32x32_xpm[] = {
"32 32 164 2",
"  	c None",
". 	c #3C3C3C",
"+ 	c #383838",
"@ 	c #353535",
"# 	c #2F2F2F",
"$ 	c #2E2E2E",
"% 	c #333333",
"& 	c #919191",
"* 	c #4D534D",
"= 	c #4F564F",
"- 	c #757575",
"; 	c #828282",
"> 	c #989898",
", 	c #363636",
"' 	c #4D4D4D",
") 	c #606260",
"! 	c #13F20A",
"~ 	c #0EB912",
"{ 	c #282C29",
"] 	c #676767",
"^ 	c #616161",
"/ 	c #292929",
"( 	c #565656",
"_ 	c #686868",
": 	c #7D7D7D",
"< 	c #777777",
"[ 	c #323232",
"} 	c #373737",
"| 	c #2D2D2D",
"1 	c #313131",
"2 	c #949494",
"3 	c #172617",
"4 	c #14A414",
"5 	c #204F20",
"6 	c #525252",
"7 	c #717171",
"8 	c #404040",
"9 	c #8E8E8E",
"0 	c #1A1A1A",
"a 	c #111111",
"b 	c #1E1E1E",
"c 	c #484848",
"d 	c #4B4B4B",
"e 	c #4C4C4C",
"f 	c #555555",
"g 	c #727272",
"h 	c #7E7E7E",
"i 	c #848484",
"j 	c #343434",
"k 	c #3D3D3D",
"l 	c #505050",
"m 	c #656565",
"n 	c #3A2B18",
"o 	c #312D27",
"p 	c #707070",
"q 	c #515151",
"r 	c #858585",
"s 	c #222222",
"t 	c #070707",
"u 	c #202020",
"v 	c #474747",
"w 	c #4F4F4F",
"x 	c #626262",
"y 	c #8B8B8B",
"z 	c #9B9B9B",
"A 	c #A3A3A3",
"B 	c #A0A0A0",
"C 	c #A4A4A4",
"D 	c #D3D3D3",
"E 	c #C8C8C8",
"F 	c #252525",
"G 	c #1F1F1F",
"H 	c #0F0F0F",
"I 	c #929292",
"J 	c #F78F00",
"K 	c #463723",
"L 	c #7C7C7C",
"M 	c #2B2B2B",
"N 	c #494949",
"O 	c #9E9E9E",
"P 	c #3E3E3E",
"Q 	c #060606",
"R 	c #A1A1A1",
"S 	c #C2C2C2",
"T 	c #BEBEBE",
"U 	c #D0D0D0",
"V 	c #E0E0E0",
"W 	c #F2F2F2",
"X 	c #E2E2E2",
"Y 	c #ECECEC",
"Z 	c #D6D6D6",
"` 	c #AEAEAE",
" .	c #232323",
"..	c #141414",
"+.	c #080808",
"@.	c #444444",
"#.	c #646464",
"$.	c #1B1B1B",
"%.	c #282828",
"&.	c #2A2A2A",
"*.	c #636363",
"=.	c #121212",
"-.	c #E4E4E4",
";.	c #CBCBCB",
">.	c #EFEFEF",
",.	c #D9D9D9",
"'.	c #F4F4F4",
").	c #DADADA",
"!.	c #C1C1C1",
"~.	c #0E0E0E",
"{.	c #939393",
"].	c #3A3A3A",
"^.	c #434343",
"/.	c #0C0C0C",
"(.	c #B4B4B4",
"_.	c #CFCFCF",
":.	c #DCDCDC",
"<.	c #A6A6A6",
"[.	c #DFDFDF",
"}.	c #CCCCCC",
"|.	c #EDEDED",
"1.	c #A2A2A2",
"2.	c #1C1C1C",
"3.	c #090909",
"4.	c #5B5B5B",
"5.	c #595959",
"6.	c #606060",
"7.	c #212121",
"8.	c #1D1D1D",
"9.	c #6E6E6E",
"0.	c #D7D7D7",
"a.	c #D5D5D5",
"b.	c #BFBFBF",
"c.	c #EBEBEB",
"d.	c #E6E6E6",
"e.	c #101010",
"f.	c #464646",
"g.	c #171717",
"h.	c #414141",
"i.	c #5A5A5A",
"j.	c #5F5F5F",
"k.	c #B8B8B8",
"l.	c #C6C6C6",
"m.	c #C3C3C3",
"n.	c #7A7A7A",
"o.	c #666666",
"p.	c #0A0A0A",
"q.	c #3B3B3B",
"r.	c #0B0B0B",
"s.	c #161616",
"t.	c #272727",
"u.	c #3F3F3F",
"v.	c #303030",
"w.	c #878787",
"x.	c #131313",
"y.	c #0D0D0D",
"z.	c #151515",
"A.	c #191919",
"B.	c #2C2C2C",
"C.	c #7F7F7F",
"D.	c #050505",
"E.	c #020202",
"F.	c #030303",
"G.	c #040404",
"                                                                ",
"                                                                ",
"                                                                ",
"                                                                ",
"                                                                ",
"                                                                ",
"                                                                ",
"                                                                ",
"                                                                ",
"        . + @ # # $ %                                           ",
"      . & * = - ; > % , + , , ,                                 ",
"      ' ) ! ~ { ] ^ / ( _ : < [ , , } } + | $ 1                 ",
"    , 2 3 4 5 6 7 $ 8 9 0 a b c d e f _ g h i # j , j + k       ",
"    l m n o % p q / : r s t u $ v w x y z A B C D E F G H       ",
"  1 I 0 J K ' L M N O P Q G ^ R S T U V W X Y X Z `  ...+.      ",
"  @.#.$.%.# 7 v &.: *.=.H c z S E -.;.>.,.'.).!.S |  .~.t       ",
"d {.' c ].d L %.^.r u /.j ; (._.:.<.,.[.}.|.D ,.1.F 2.3.t       ",
"c 4.e *.] 5.6.e l N 7.8.9.z ` 0.a.;.Y b.Y c.d.a.% / e.t t       ",
"s f...g.0  .@ h.5.f f.6 q 8 {.i.j.] ` k.l.m.n.o.%.8.p.t Q       ",
"2.q.t t +.r./.H e.=.s.0 t.1 x u.v.F w w.t.7.2.u  .x.+.t Q       ",
"..q.Q Q Q Q Q Q Q Q Q t t +.3.r.y.a x.z.A.$.8.G 0 r.+.t =.      ",
"=.q.Q Q Q Q Q Q Q Q Q Q Q Q Q Q Q Q t t +.3.p./.r.+.+.Q B.C.    ",
"=.q.Q Q Q Q Q Q Q Q Q Q Q Q Q Q Q Q Q Q Q Q Q Q Q t D.E.C.C.C.C.",
"e.%.Q Q Q Q Q Q Q Q Q Q Q Q Q Q Q Q Q Q Q Q Q Q Q t F.].C.C.C.C.",
"  C.C.C.M | $ =.G.D.Q Q Q Q Q Q Q Q Q Q Q Q Q Q Q D.H *.C.C.C.  ",
"        C.C.C.C.C.C.( ( ].F.F.F.F.F.Q Q D.F.D.F.F.E.M C.C.C.C.  ",
"                C.C.C.C.C.C.C.C.C.C.M M B.B.8.E.E.E.C.C.C.C.    ",
"                              C.C.C.C.C.C.C.C.C.C.C.C.C.C.C.    ",
"                                        C.C.C.C.C.C.C.C.C.      ",
"                                                                ",
"                                                                ",
"                                                                "};
