/* XPM */
static char * icon_cancel_20x20_xpm[] = {
"20 20 90 1",
" 	c None",
".	c #D6514C",
"+	c #F8E6E3",
"@	c #F26A65",
"#	c #FFCFC9",
"$	c #FFBAAF",
"%	c #FBB0A8",
"&	c #F48783",
"*	c #D2251E",
"=	c #FF290D",
"-	c #FF5A41",
";	c #FF9A8E",
">	c #FFD2CD",
",	c #FA938B",
"'	c #F61D0A",
")	c #A01000",
"!	c #DD2A12",
"~	c #FE7C6A",
"{	c #FEC5BF",
"]	c #FF9F91",
"^	c #FD9A8F",
"/	c #FA2F17",
"(	c #CA1804",
"_	c #A81A07",
":	c #F05D49",
"<	c #FEA39E",
"[	c #FF8F8A",
"}	c #FD695B",
"|	c #EF1B00",
"1	c #891002",
"2	c #9A1200",
"3	c #FE4E3A",
"4	c #FF8B89",
"5	c #FD361B",
"6	c #A81100",
"7	c #F96350",
"8	c #FB3419",
"9	c #FF8F81",
"0	c #DC6F62",
"a	c #FD482E",
"b	c #F31E01",
"c	c #DE2107",
"d	c #E64D36",
"e	c #FE6956",
"f	c #F35B47",
"g	c #FF654E",
"h	c #FD1F02",
"i	c #EC1B02",
"j	c #8B0D00",
"k	c #9F1806",
"l	c #FB4D33",
"m	c #FF7E6D",
"n	c #F53821",
"o	c #7F7F7F",
"p	c #FF9383",
"q	c #FF624D",
"r	c #FA1C00",
"s	c #841103",
"t	c #6B0C00",
"u	c #952112",
"v	c #FA4A32",
"w	c #FB8777",
"x	c #C01500",
"y	c #F8B8B1",
"z	c #F88475",
"A	c #FF3014",
"B	c #810D00",
"C	c #6A0C00",
"D	c #943D2E",
"E	c #F4432C",
"F	c #F89B8F",
"G	c #D21700",
"H	c #F9BEB9",
"I	c #F88A7E",
"J	c #FB492F",
"K	c #830D00",
"L	c #CB4C3B",
"M	c #F8705F",
"N	c #F48070",
"O	c #F97465",
"P	c #F73E28",
"Q	c #880E00",
"R	c #692B21",
"S	c #DB4F39",
"T	c #D71700",
"U	c #7B1002",
"V	c #F91C00",
"W	c #891103",
"X	c #621D12",
"Y	c #7D190C",
"                    ",
"                    ",
"              .     ",
"             +@     ",
"    #$      %&*     ",
"    =-;>    ,')     ",
"      !~{] ^/(      ",
"       _:<[}|1      ",
"        23456       ",
"         7890       ",
"        abcdef      ",
"       ghijklmn  oo ",
"      pqrsotuvwxoo  ",
"     yzAB  oCDEFGo  ",
"    HIJK ooooCLMNo  ",
"    OPQoooo   RSTUo ",
"    VWoo       XYo  ",
"                    ",
"                    ",
"                    "};
