/* XPM */
static char * icon_folder_opened_32x32_xpm[] = {
"32 32 398 2",
"  	c None",
". 	c #59553B",
"+ 	c #6E6949",
"@ 	c #71694A",
"# 	c #706A49",
"$ 	c #6D6748",
"% 	c #5F5B43",
"& 	c #5B573F",
"* 	c #B7B493",
"= 	c #C1BD9B",
"- 	c #B5AD8A",
"; 	c #B2AD87",
"> 	c #AEA881",
", 	c #ADA683",
"' 	c #868164",
") 	c #45412F",
"! 	c #524E3A",
"~ 	c #B5B090",
"{ 	c #CDCAA7",
"] 	c #DAD6B3",
"^ 	c #CBC49F",
"/ 	c #C9C39C",
"( 	c #C5BF97",
"_ 	c #C2BA95",
": 	c #AFA985",
"< 	c #847F61",
"[ 	c #544F39",
"} 	c #645F42",
"| 	c #C2BC96",
"1 	c #C7C199",
"2 	c #CAC59E",
"3 	c #C2BB94",
"4 	c #C4BE98",
"5 	c #C4BE97",
"6 	c #C4BE95",
"7 	c #BDB78D",
"8 	c #B7B28A",
"9 	c #8F8963",
"0 	c #5B553A",
"a 	c #544F36",
"b 	c #4F4C34",
"c 	c #4F4D34",
"d 	c #4E4B33",
"e 	c #4D4832",
"f 	c #363323",
"g 	c #242218",
"h 	c #787351",
"i 	c #B7B188",
"j 	c #B2AE89",
"k 	c #B3AE81",
"l 	c #B4AE83",
"m 	c #B5AF84",
"n 	c #B5AE85",
"o 	c #B2AC81",
"p 	c #B6B084",
"q 	c #AEA87B",
"r 	c #A8A275",
"s 	c #A59F6F",
"t 	c #A29C6E",
"u 	c #A09A6D",
"v 	c #9F9A6E",
"w 	c #9B9568",
"x 	c #9F996C",
"y 	c #999468",
"z 	c #A19C71",
"A 	c #9E986E",
"B 	c #989266",
"C 	c #898356",
"D 	c #3B3527",
"E 	c #777250",
"F 	c #B1AD89",
"G 	c #ABAA8B",
"H 	c #AEAB7D",
"I 	c #AEA97D",
"J 	c #AEA87E",
"K 	c #B3AB85",
"L 	c #B1AA81",
"M 	c #AEA879",
"N 	c #A7A171",
"O 	c #A7A070",
"P 	c #ADA578",
"Q 	c #A79F70",
"R 	c #A49C6D",
"S 	c #ACA575",
"T 	c #A7A06F",
"U 	c #9D9763",
"V 	c #A29D6A",
"W 	c #A6A170",
"X 	c #AFAA7B",
"Y 	c #ABA475",
"Z 	c #A19B6C",
"` 	c #847F58",
" .	c #443D2E",
"..	c #797452",
"+.	c #B3AE85",
"@.	c #B8B388",
"#.	c #B6B086",
"$.	c #B4AF83",
"%.	c #B1AC80",
"&.	c #AFAA7E",
"*.	c #AFAA7D",
"=.	c #B0AB7B",
"-.	c #AFAA79",
";.	c #AEA978",
">.	c #AEA878",
",.	c #ADA676",
"'.	c #ACA778",
").	c #AAA477",
"!.	c #AAA376",
"~.	c #A0A06C",
"{.	c #9E9F67",
"].	c #9E9963",
"^.	c #9D9662",
"/.	c #9A9463",
"(.	c #847F57",
"_.	c #6F6A4C",
":.	c #ACA77F",
"<.	c #A29D74",
"[.	c #A49F75",
"}.	c #A19C72",
"|.	c #A39E73",
"1.	c #A29D72",
"2.	c #A39E72",
"3.	c #A29D70",
"4.	c #A49F72",
"5.	c #A09B6F",
"6.	c #9D986C",
"7.	c #9B966B",
"8.	c #9A956B",
"9.	c #9B966C",
"0.	c #969464",
"a.	c #9E9A68",
"b.	c #9B9860",
"c.	c #98925E",
"d.	c #96905F",
"e.	c #88845B",
"f.	c #4F4B34",
"g.	c #47442F",
"h.	c #4B4732",
"i.	c #5C583D",
"j.	c #636043",
"k.	c #6A6747",
"l.	c #7A7550",
"m.	c #736E4D",
"n.	c #6E694B",
"o.	c #646043",
"p.	c #666245",
"q.	c #6B6648",
"r.	c #676345",
"s.	c #6E6B4A",
"t.	c #666344",
"u.	c #615E43",
"v.	c #6C6749",
"w.	c #6E6A4A",
"x.	c #696645",
"y.	c #76734E",
"z.	c #8D8A5E",
"A.	c #9B9A64",
"B.	c #96915C",
"C.	c #948E5D",
"D.	c #4F4C35",
"E.	c #B5B288",
"F.	c #B5B28F",
"G.	c #BDBA9D",
"H.	c #C8C4A9",
"I.	c #BEBB9A",
"J.	c #BCB996",
"K.	c #C1BD9C",
"L.	c #B8B592",
"M.	c #B3B18C",
"N.	c #BEBA9A",
"O.	c #B5B18F",
"P.	c #B2AE8A",
"Q.	c #B2AF8A",
"R.	c #B8B594",
"S.	c #BBB899",
"T.	c #B5B18D",
"U.	c #B5B18C",
"V.	c #B4AF8B",
"W.	c #868264",
"X.	c #413D2B",
"Y.	c #A09C69",
"Z.	c #999360",
"`.	c #958E5D",
" +	c #87835A",
".+	c #433C2D",
"++	c #4D4A35",
"@+	c #D1CDA7",
"#+	c #D0CCAA",
"$+	c #E1DEBE",
"%+	c #E3E0C2",
"&+	c #D6D3AE",
"*+	c #D5D2AF",
"=+	c #D1CFA9",
"-+	c #CFCDA6",
";+	c #D3D1A9",
">+	c #D6D3AD",
",+	c #D8D6B1",
"'+	c #D1CEA6",
")+	c #CDCAA3",
"!+	c #CCC8A3",
"~+	c #D2CFAB",
"{+	c #CECAA4",
"]+	c #CDC9A2",
"^+	c #CBC69F",
"/+	c #B8B390",
"(+	c #7B775A",
"_+	c #9B9465",
":+	c #9A9261",
"<+	c #878359",
"[+	c #7B7758",
"}+	c #D0CEB3",
"|+	c #D8D6B5",
"1+	c #C3C098",
"2+	c #CECAA1",
"3+	c #CECBA1",
"4+	c #C4C295",
"5+	c #CACA9E",
"6+	c #CFCFA5",
"7+	c #D4CFAC",
"8+	c #CECBA5",
"9+	c #C5C498",
"0+	c #C8C69C",
"a+	c #D0CBA9",
"b+	c #C3BF97",
"c+	c #BDBA8F",
"d+	c #CAC5A0",
"e+	c #C8C39C",
"f+	c #BFBA8F",
"g+	c #B5B08B",
"h+	c #B1AC8B",
"i+	c #514C31",
"j+	c #9A9464",
"k+	c #958E5F",
"l+	c #595640",
"m+	c #B6B390",
"n+	c #CAC7A2",
"o+	c #CFCCA6",
"p+	c #CECBA2",
"q+	c #CCC99E",
"r+	c #C8C699",
"s+	c #C7C59A",
"t+	c #C8C59B",
"u+	c #CCC9A0",
"v+	c #C0BD91",
"w+	c #C1BF94",
"x+	c #C3C197",
"y+	c #C9C69E",
"z+	c #C1C094",
"A+	c #BEBC8F",
"B+	c #C4C097",
"C+	c #C2BD93",
"D+	c #BDB88C",
"E+	c #BAB68E",
"F+	c #B6B28C",
"G+	c #6B6548",
"H+	c #908A5E",
"I+	c #918C5D",
"J+	c #858159",
"K+	c #423B2C",
"L+	c #75725A",
"M+	c #C8C59F",
"N+	c #D5D2AE",
"O+	c #CECCA3",
"P+	c #CBC99E",
"Q+	c #CAC89B",
"R+	c #C5C298",
"S+	c #C3C096",
"T+	c #C7C498",
"U+	c #C3C094",
"V+	c #BDBA8E",
"W+	c #BEBC91",
"X+	c #C0BE93",
"Y+	c #C4C397",
"Z+	c #C0BF91",
"`+	c #BEBD8F",
" @	c #C0BC91",
".@	c #BEB98E",
"+@	c #BAB689",
"@@	c #BAB68B",
"#@	c #B8B48C",
"$@	c #A8A582",
"%@	c #3C3926",
"&@	c #8E8A5D",
"*@	c #848058",
"=@	c #403A2C",
"-@	c #494633",
";@	c #BBB891",
">@	c #D1CEA7",
",@	c #D0CDA4",
"'@	c #C6C297",
")@	c #C5C296",
"!@	c #C3C195",
"~@	c #BDBA8D",
"{@	c #BCBB8E",
"]@	c #BCBB8D",
"^@	c #BFBD8F",
"/@	c #BEBA8E",
"(@	c #BCB88D",
"_@	c #BBB58C",
":@	c #BCB78C",
"<@	c #BEBA8D",
"[@	c #BBB58B",
"}@	c #B7B68A",
"|@	c #B6B38C",
"1@	c #797650",
"2@	c #878257",
"3@	c #827E57",
"4@	c #363424",
"5@	c #8C896C",
"6@	c #CECBA4",
"7@	c #CBC79E",
"8@	c #C6C397",
"9@	c #C4C195",
"0@	c #C2BF93",
"a@	c #C0BE91",
"b@	c #BFBC8F",
"c@	c #BCB98D",
"d@	c #BCB98C",
"e@	c #BDBA8C",
"f@	c #BDB98E",
"g@	c #BEB98F",
"h@	c #BCB68D",
"i@	c #BEB88E",
"j@	c #C0BC90",
"k@	c #BCB78D",
"l@	c #BBB78F",
"m@	c #B3B188",
"n@	c #95906E",
"o@	c #47442D",
"p@	c #7D7952",
"q@	c #413C2D",
"r@	c #4D4C3B",
"s@	c #BFBC91",
"t@	c #C1BD92",
"u@	c #C7C598",
"v@	c #C1BE92",
"w@	c #BFBB90",
"x@	c #C7C599",
"y@	c #C1BF93",
"z@	c #B8B387",
"A@	c #BBB78B",
"B@	c #BBB78C",
"C@	c #B9B588",
"D@	c #BDB98D",
"E@	c #BFBA90",
"F@	c #BFB890",
"G@	c #C0BA91",
"H@	c #C2BD92",
"I@	c #BEB990",
"J@	c #AFAB88",
"K@	c #66644C",
"L@	c #706B4A",
"M@	c #3F3C2D",
"N@	c #242219",
"O@	c #827E5D",
"P@	c #A49E75",
"Q@	c #AFA97C",
"R@	c #B4AE7E",
"S@	c #B2AB7C",
"T@	c #B1AA7C",
"U@	c #B2AD7E",
"V@	c #AFA97A",
"W@	c #AAA473",
"X@	c #ABA574",
"Y@	c #ABA474",
"Z@	c #ABA575",
"`@	c #ACA676",
" #	c #ACA576",
".#	c #AAA372",
"+#	c #A49C6A",
"@#	c #98946C",
"##	c #99946B",
"$#	c #272418",
"%#	c #343227",
"&#	c #7F7F7F",
"*#	c #45422F",
"=#	c #7C7551",
"-#	c #8D875D",
";#	c #999166",
">#	c #989166",
",#	c #979166",
"'#	c #968F64",
")#	c #948E61",
"!#	c #938D60",
"~#	c #918A5C",
"{#	c #8A855B",
"]#	c #8F895F",
"^#	c #333020",
"/#	c #323025",
"(#	c #100E0A",
"_#	c #48442E",
":#	c #514D34",
"<#	c #59543A",
"[#	c #555137",
"}#	c #545036",
"|#	c #433F2B",
"1#	c #3A3837",
"                                                                ",
"                                                                ",
"                                                                ",
"                                                                ",
"                                                                ",
"                . + @ # # $ %                                   ",
"              & * = - ; > , ' )                                 ",
"            ! ~ { ] ^ / ( _ : < [                               ",
"          } | 1 ( 2 3 4 5 6 7 8 9 0 a b c c c c c d e f g       ",
"          h i j k l m n o p q r s t u v u w x y z A B C D       ",
"          E F G H I J K L M N O P Q R S T U V W X Y Z `  .      ",
"          ..+.@.#.$.%.&.*.=.-.;.X >.,.'.).!.~.{.].^./.(. .      ",
"          _.:.<.[.}.|.1.1.2.3.4.5.6.7.8.8.9.0.a.b.c.d.e. .      ",
"    f.g.h.i.j.k.l.m.n.o.p.q.r.j.s.t.u.v.w.x.y.z.A.B.C.e. .      ",
"  D.E.F.G.H.I.J.K.L.M.M.L.N.O.P.Q.R.S.T.U.V.W.X.Y.Z.`. +.+      ",
"  ++@+#+$+%+] &+*+=+-+;+>+,+'+)+!+~+*+{+]+^+/+(+_+:+`.<+.+      ",
"    [+}+|+1+2+3+4+5+6+7+8+9+9+0+a+b+c+d+e+f+g+h+i+j+k+<+.+      ",
"    l+m+n+o+p+q+r+s+t+u+t+v+w+x+y+z+A+B+C+D+E+F+G+H+I+J+K+      ",
"    h.L+M+N+O+P+Q+R+S+T+U+V+W+X+Y+Z+`+ @.@+@@@#@$@%@&@*@=@      ",
"      -@;@>@>+,@'@)@!@~@V+W+{@]@^@/@(@_@:@<@[@}@|@1@2@3@=@      ",
"      4@5@u+6@7@8@9@0@a@b@c@c@d@e@f@g@h@i@j@k@l@m@n@o@p@q@      ",
"        r@!@s@t@u@v@w@x@y@z@A@B@C@D@E@F@G@H@f@E@I@J@K@L@M@      ",
"        N@O@P@Q@R@S@T@U@V@W@X@X@Y@Z@`@ #`@,.S .#+#@###$#%#&#&#&#",
"          *#=#-#;#>#,#,#'#)#)#)#)#)#)#)#)#)#)#!#~#{#]#^#/#&#&#  ",
"          (#_#:#:#:#:#:#a <#<#<#<#<#<#<#<#<#<#<#<#[#}#|#1#&#    ",
"                                                                ",
"                                                                ",
"                                                                ",
"                                                                ",
"                                                                ",
"                                                                ",
"                                                                "};
