/* XPM */
static char * icon_fb_list_standard_20x20_xpm[] = {
"20 20 31 1",
" 	c None",
".	c #000000",
"+	c #FFFFFF",
"@	c #510000",
"#	c #E40000",
"$	c #0F0000",
"%	c #000B3A",
"&	c #0028CC",
"*	c #E80000",
"=	c #FF0000",
"-	c #960000",
";	c #002BD8",
">	c #0033FF",
",	c #00135F",
"'	c #BE0000",
")	c #001055",
"!	c #001D9A",
"~	c #00061F",
"{	c #3A3800",
"]	c #B0AD00",
"^	c #3A0037",
"/	c #CC00C5",
"(	c #8E8B00",
"_	c #FFFA00",
":	c #6F6C00",
"<	c #9A0094",
"[	c #FF00F6",
"}	c #550052",
"|	c #565300",
"1	c #1F1E00",
"2	c #1D001B",
"                    ",
"                    ",
"                    ",
"....................",
".++++++++++++++++++.",
".++++++++++++++++++.",
".+@#$++++++%&.+++++.",
".+*=-+...++;>,+...+.",
".+.'.+...++)!~+...+.",
".++++++++++++++++++.",
".++++++++++++++++++.",
".+{]{++++++^/.+++++.",
".+(_:+...++<[}+...+.",
".+.|1+...++.}2+...+.",
".++++++++++++++++++.",
".++++++++++++++++++.",
"....................",
"                    ",
"                    ",
"                    "};
