/* XPM */
static char * icon_clipboard_empty_32x32_xpm[] = {
"32 32 170 2",
"  	c None",
". 	c #82817F",
"+ 	c #CECCCB",
"@ 	c #B8B6B5",
"# 	c #989795",
"$ 	c #807F7D",
"% 	c #817F7E",
"& 	c #E3E1E0",
"* 	c #DFDEDC",
"= 	c #6C6B6B",
"- 	c #E4E3E2",
"; 	c #95938F",
"> 	c #62615F",
", 	c #E4E3E0",
"' 	c #E1DEDA",
") 	c #DEDBD7",
"! 	c #DDDBD9",
"~ 	c #D9D7D4",
"{ 	c #B2AFAB",
"] 	c #928F8C",
"^ 	c #585655",
"/ 	c #584832",
"( 	c #5B4C32",
"_ 	c #64563F",
": 	c #685B49",
"< 	c #685E50",
"[ 	c #6F6658",
"} 	c #93918B",
"| 	c #C2BEBA",
"1 	c #C2BFBB",
"2 	c #C3C0BC",
"3 	c #B3B0AC",
"4 	c #AFACA8",
"5 	c #A6A39F",
"6 	c #9B9894",
"7 	c #989591",
"8 	c #5F5E5B",
"9 	c #5D5B58",
"0 	c #5A4B36",
"a 	c #54462F",
"b 	c #CABAA3",
"c 	c #C1B19A",
"d 	c #B0A089",
"e 	c #AEA08B",
"f 	c #ADADAA",
"g 	c #7B7874",
"h 	c #75726E",
"i 	c #74716D",
"j 	c #716E6A",
"k 	c #73706C",
"l 	c #76736F",
"m 	c #625D55",
"n 	c #AA987E",
"o 	c #AE9E83",
"p 	c #A89981",
"q 	c #4C3E2A",
"r 	c #B2A28A",
"s 	c #84735A",
"t 	c #80735B",
"u 	c #9D968D",
"v 	c #6A6763",
"w 	c #6C6965",
"x 	c #6B6864",
"y 	c #686561",
"z 	c #66635F",
"A 	c #696662",
"B 	c #5E5851",
"C 	c #7B6B52",
"D 	c #827158",
"E 	c #7C6C55",
"F 	c #60513A",
"G 	c #554832",
"H 	c #928168",
"I 	c #806F56",
"J 	c #504D49",
"K 	c #4D4A46",
"L 	c #4C4945",
"M 	c #4A4743",
"N 	c #494642",
"O 	c #4B4741",
"P 	c #4A4741",
"Q 	c #4C4842",
"R 	c #4F4A43",
"S 	c #4D473F",
"T 	c #5E5443",
"U 	c #716149",
"V 	c #817057",
"W 	c #5A4A35",
"X 	c #5A4B35",
"Y 	c #85745B",
"Z 	c #75664F",
"` 	c #61533F",
" .	c #66563F",
"..	c #64543C",
"+.	c #64553D",
"@.	c #63533C",
"#.	c #62523B",
"$.	c #65553E",
"%.	c #685841",
"&.	c #6F5F47",
"*.	c #554732",
"=.	c #86755C",
"-.	c #87765D",
";.	c #806F57",
">.	c #7D6C54",
",.	c #7C6C53",
"'.	c #5A4A34",
").	c #534530",
"!.	c #837259",
"~.	c #594A33",
"{.	c #544631",
"].	c #88775E",
"^.	c #5E4E37",
"/.	c #594A34",
"(.	c #605038",
"_.	c #594935",
":.	c #7E6D54",
"<.	c #605139",
"[.	c #564631",
"}.	c #7F6E55",
"|.	c #4B3C25",
"1.	c #685840",
"2.	c #4A3C25",
"3.	c #493B25",
"4.	c #483A24",
"5.	c #78684F",
"6.	c #473822",
"7.	c #75644C",
"8.	c #51422C",
"9.	c #6B5B43",
"0.	c #7D6C53",
"a.	c #63533B",
"b.	c #50422B",
"c.	c #605039",
"d.	c #7F7F7F",
"e.	c #5F4E37",
"f.	c #7B6A51",
"g.	c #4F422B",
"h.	c #7C6B52",
"i.	c #564633",
"j.	c #5B4A37",
"k.	c #7F6F56",
"l.	c #7E6E55",
"m.	c #7A6950",
"n.	c #6D5E46",
"o.	c #64543E",
"p.	c #60513B",
"q.	c #5F5139",
"r.	c #53442D",
"s.	c #50442E",
"t.	c #544830",
"u.	c #53422D",
"v.	c #5F4D37",
"w.	c #706148",
"x.	c #6E5F46",
"y.	c #6E5E47",
"z.	c #6B5A43",
"A.	c #695941",
"B.	c #63543D",
"C.	c #5A4C37",
"D.	c #544531",
"E.	c #544530",
"F.	c #52432E",
"G.	c #4B3D28",
"H.	c #4B402A",
"I.	c #544431",
"J.	c #56462F",
"K.	c #564632",
"L.	c #55462E",
"M.	c #52462D",
"                          . + @ # $                             ",
"                        % & * = - ; >                           ",
"                        , ' ) ! ~ { ] ^                         ",
"          / ( _ : < [ } | 1 2 3 4 5 6 7 8 9 0 0 0 0             ",
"        a b c d e f g g g g g g g h i j k l m n o p 0           ",
"        q r s t u j v w w w w x y z z z A w B C D E F           ",
"        G H s I J K L M N M M M N O P Q R S T U D V W           ",
"        X Y Y s Z `  ...+.+.+.....@.#.#.$.%.&.D D V W           ",
"        *.=.-.=.-.-.;.;.;.;.;.;.;.>.,.,.C I D D D D '.          ",
"        ).Y -.-.-.-.-.-.-.-.-.-.-.s !.!.D D D D D D ~.          ",
"        {.-.-.-.-.].-.-.-.-.-.-.-.s !.!.D D D D D V ^.          ",
"        /.-.-.].].].].].].].-.-.-.s !.D D D D D D I (.          ",
"        0 -.].].].].].].].].].-.-.s !.D D D D D V I F           ",
"        _.=.=.=.-.-.].].].].].s !.D D D D D D D I :.<.          ",
"        [.=.=.=.=.=.-.-.-.-.=.!.!.D D D D D D D }.:.<.          ",
"        |.!.!.Y s s s !.D D D I I I I I I I I I I I 1.          ",
"        2.!.!.s s s !.!.D D D I I I I I I I I I I I 1.          ",
"        3.D !.!.D !.D D D I I I I I I I I I I I }.:.1.3.        ",
"        4.D D D D D D D I I I I I I I I I I I I :.:.5.3.        ",
"        6.7.D D D D D I I I I I I I I I I I I I :.:.5.8.        ",
"          9.D D D V I I I I I I I I I I I I I }.:.:.0.8.        ",
"          a.D D V I I I I I I I I I I I I I I :.:.:.0.8.        ",
"          F D I I I I I I I I I I I I I I I :.:.:.:.:.b.        ",
"          F I I I I I I I I I I I I I I I I :.:.:.:.:.8.        ",
"          c.I I I I I I I I I I I I I I :.:.:.:.:.:.:.8.d.d.    ",
"          <.}.I I I I I I I I I I I I I :.:.:.:.:.:.:.8.d.d.d.  ",
"          c.:.I I I I I I I I I I I I }.:.:.:.:.:.:.:.8.d.d.d.  ",
"          e.f.I I I I I I I I I I :.:.:.:.:.:.:.:.:.0.g.d.d.    ",
"          ^.h.I I I I I I I I I I :.:.:.:.:.:.:.h.h.:.i.d.      ",
"          j.k.I I I D V V }.I k.l.:.:.m.n.o.p.q.r.s.t.d.        ",
"          u.v.w.x.y.z.A.+.B.F C.0 D.E.F.G.                      ",
"            H.I.J.K.L.M.                                        "};
