/* XPM */
static char * icon_socket_20x20_xpm[] = {
"20 20 165 2",
"  	c None",
". 	c #F1F1F1",
"+ 	c #EEEEEE",
"@ 	c #E9E9E9",
"# 	c #E4E4E4",
"$ 	c #E1E1E1",
"% 	c #E6E6E6",
"& 	c #A7A7A7",
"* 	c #929292",
"= 	c #ECECEC",
"- 	c #E9E8E6",
"; 	c #E5E1E0",
"> 	c #E4E1DF",
", 	c #E3E1DF",
"' 	c #DFDDD8",
") 	c #E4E2DF",
"! 	c #EFEFEF",
"~ 	c #E2E2E1",
"{ 	c #2C2C2C",
"] 	c #EBEAE9",
"^ 	c #E0DDDA",
"/ 	c #DCD8D3",
"( 	c #D9D5D0",
"_ 	c #F7F7F6",
": 	c #B6B6B5",
"< 	c #DBD7D1",
"[ 	c #DDD9D5",
"} 	c #DFDCD8",
"| 	c #B7B4B0",
"1 	c #3E3D3D",
"2 	c #EBEAEA",
"3 	c #E4E2DE",
"4 	c #E0DDD9",
"5 	c #DFDCD9",
"6 	c #757473",
"7 	c #DAD4CF",
"8 	c #DAD5D0",
"9 	c #DDD9D4",
"0 	c #DCD9D4",
"a 	c #DDDAD5",
"b 	c #B7B4AF",
"c 	c #DDDAD6",
"d 	c #DBD7D2",
"e 	c #DDDBD8",
"f 	c #DEDBD7",
"g 	c #DCD9D5",
"h 	c #E1DEDA",
"i 	c #E3E1DD",
"j 	c #DCD8D4",
"k 	c #D0CDC8",
"l 	c #BFBDB9",
"m 	c #B7B5B3",
"n 	c #BCBAB7",
"o 	c #BFBDBA",
"p 	c #BAB9B7",
"q 	c #B3B3B1",
"r 	c #1A1918",
"s 	c #E0DDDB",
"t 	c #CFCCC8",
"u 	c #9F9E9D",
"v 	c #939290",
"w 	c #939391",
"x 	c #9E9E9D",
"y 	c #949493",
"z 	c #999897",
"A 	c #747474",
"B 	c #959490",
"C 	c #DAD6D2",
"D 	c #B6B3AF",
"E 	c #0D0C0C",
"F 	c #C6C5C1",
"G 	c #A3A3A2",
"H 	c #4B4B4B",
"I 	c #2E2E2E",
"J 	c #A3A3A3",
"K 	c #666565",
"L 	c #3B3B3B",
"M 	c #8C8C8B",
"N 	c #83807E",
"O 	c #D8D4CF",
"P 	c #B8B5B1",
"Q 	c #C6C4C1",
"R 	c #A0A09E",
"S 	c #5A5A5A",
"T 	c #303030",
"U 	c #A4A4A4",
"V 	c #555554",
"W 	c #343434",
"X 	c #888887",
"Y 	c #6F6D6D",
"Z 	c #D8D4D0",
"` 	c #BAB7B3",
" .	c #D6D5D2",
"..	c #A9A9A9",
"+.	c #ACACAC",
"@.	c #9C9C9B",
"#.	c #ABABAB",
"$.	c #6F6F6E",
"%.	c #858481",
"&.	c #E1DEDB",
"*.	c #A1A1A0",
"=.	c #888888",
"-.	c #393939",
";.	c #A0A09F",
">.	c #969594",
",.	c #5F5F5E",
"'.	c #A19F9B",
").	c #DFDCD7",
"!.	c #B2AFAA",
"~.	c #3B3A3A",
"{.	c #DFDDD9",
"].	c #8C8B8A",
"^.	c #969695",
"/.	c #727271",
"(.	c #989897",
"_.	c #717170",
":.	c #BDBAB7",
"<.	c #BEBBB7",
"[.	c #585655",
"}.	c #666666",
"|.	c #C0BEBB",
"1.	c #E6E4E3",
"2.	c #DEDAD6",
"3.	c #C3BFBB",
"4.	c #B1ADA9",
"5.	c #B5B1AE",
"6.	c #BCB9B4",
"7.	c #C1BDB9",
"8.	c #E2DFDC",
"9.	c #E6E5E4",
"0.	c #F8F7F6",
"a.	c #B3B1AE",
"b.	c #3C3B3B",
"c.	c #7F7F7F",
"d.	c #E6E6E5",
"e.	c #E3E1DE",
"f.	c #D9D5CF",
"g.	c #EAE9E5",
"h.	c #5B5B5B",
"i.	c #E0DCD9",
"j.	c #E1DFDB",
"k.	c #E3E0DD",
"l.	c #B2AEAA",
"m.	c #40403F",
"n.	c #515151",
"o.	c #6B6B69",
"p.	c #878685",
"q.	c #AAA9A7",
"r.	c #C1BFBC",
"s.	c #BEBBB8",
"t.	c #C0BDBA",
"u.	c #CBC7C4",
"v.	c #CECAC6",
"w.	c #D3D0CD",
"x.	c #D3CECA",
"y.	c #ACA9A3",
"z.	c #414140",
"A.	c #1A1A1A",
"B.	c #333333",
"C.	c #717070",
"D.	c #858382",
"E.	c #888685",
"F.	c #95938F",
"G.	c #908D89",
"H.	c #837F7C",
"                                        ",
"      . . + @ # $ % & *                 ",
"      = - ; > , ' ) ! ! ! ! ! ~ {       ",
"      ] ^ / ( / _ : < [ } / [ | 1       ",
"      2 3 4 4 5 - 6 7 8 9 0 a b 1       ",
"      2 3 c d a e f g g h h h | 1       ",
"      2 i j k l m n o p q } } b r       ",
"      2 s t u v w x y z A B C D E       ",
"      2 ^ F G H I J K L M N O P E       ",
"      2 4 Q R S T U V W X Y Z ` E       ",
"      2 4  ...+.x @.#.u $.%./ b 1       ",
"      2 4 &.+.*.=.-.;.>.,.'.).!.~.      ",
"      2 {.a ].>.^./.(._.L :.} !.~.      ",
"      2 {./ <.[._.A }.I |.h h !.~.      ",
"      1.2./ c 3.4.5.6.7.8.h h !.~.      ",
"      9.4 / < g 0.a.' &.8.f h !.b.c.c.c.",
"      d.e./ f./ g.h.i.j.k.4 h l.m.c.c.  ",
"      n.o.p.q.r.s.t.u.v.w.x.O y.z.c.    ",
"                A.B.C.D.E.F.G.H.n.      ",
"                                        "};
