/* XPM */
static char * icon_warning_32x32_xpm[] = {
"32 32 524 2",
"  	c None",
". 	c #4B4B16",
"+ 	c #535313",
"@ 	c #343415",
"# 	c #50501A",
"$ 	c #D1C717",
"% 	c #E9D91E",
"& 	c #C8B93D",
"* 	c #0A0A0C",
"= 	c #4A4A1E",
"- 	c #D6C720",
"; 	c #F6ED22",
"> 	c #EEE528",
", 	c #E9E020",
"' 	c #D1C138",
") 	c #0D0D0F",
"! 	c #6F6F2A",
"~ 	c #F7F225",
"{ 	c #F7F327",
"] 	c #F3F12A",
"^ 	c #EEE62D",
"/ 	c #E8D429",
"( 	c #363612",
"_ 	c #4E4E23",
": 	c #F4EC2D",
"< 	c #F8F736",
"[ 	c #F7F52E",
"} 	c #F6F431",
"| 	c #F4F22E",
"1 	c #F2F02F",
"2 	c #DBCE43",
"3 	c #101012",
"4 	c #6F6F38",
"5 	c #FAF737",
"6 	c #F9F839",
"7 	c #F7F734",
"8 	c #F7F62D",
"9 	c #F4F129",
"0 	c #E9DA31",
"a 	c #474711",
"b 	c #515137",
"c 	c #FAF741",
"d 	c #FBF94D",
"e 	c #F9F946",
"f 	c #FAF841",
"g 	c #F9F93A",
"h 	c #F7F72F",
"i 	c #F5F337",
"j 	c #F1EB2A",
"k 	c #CDBC69",
"l 	c #121214",
"m 	c #83834B",
"n 	c #FBFA49",
"o 	c #FAF94C",
"p 	c #FAFA45",
"q 	c #F9F846",
"r 	c #F8F731",
"s 	c #F6F42A",
"t 	c #F3F32C",
"u 	c #EADF2F",
"v 	c #353514",
"w 	c #626241",
"x 	c #FBFB4C",
"y 	c #FBFB5B",
"z 	c #FAFA53",
"A 	c #FAF950",
"B 	c #FAF75F",
"C 	c #F7F14E",
"D 	c #F6EE4D",
"E 	c #F3F22E",
"F 	c #F3F32A",
"G 	c #EFE62D",
"H 	c #CDBD64",
"I 	c #8C8C47",
"J 	c #FBFB4F",
"K 	c #FAFA56",
"L 	c #FAF959",
"M 	c #F8F783",
"N 	c #4A4A41",
"O 	c #454538",
"P 	c #42422D",
"Q 	c #E7D95D",
"R 	c #F4F32A",
"S 	c #F4F12D",
"T 	c #EBDD33",
"U 	c #232317",
"V 	c #6E6E3C",
"W 	c #FAF94A",
"X 	c #FBFB57",
"Y 	c #FAF956",
"Z 	c #FAF958",
"` 	c #53534A",
" .	c #515144",
"..	c #3F3F39",
"+.	c #4B4B2E",
"@.	c #3C3C27",
"#.	c #F4F227",
"$.	c #F5F228",
"%.	c #F0E52A",
"&.	c #CCB94C",
"*.	c #121213",
"=.	c #8B8B45",
"-.	c #FBFA4B",
";.	c #FAFA54",
">.	c #FAFA55",
",.	c #525249",
"'.	c #4C4C3F",
").	c #343436",
"!.	c #46462D",
"~.	c #F3E825",
"{.	c #F3F327",
"].	c #EDE725",
"^.	c #E4DA26",
"/.	c #2F2F14",
"(.	c #676735",
"_.	c #F9F73D",
":.	c #FBFB4B",
"<.	c #FAFA52",
"[.	c #FAFA51",
"}.	c #FAF94D",
"|.	c #494943",
"1.	c #46463D",
"2.	c #373731",
"3.	c #40402B",
"4.	c #373722",
"5.	c #F2ED27",
"6.	c #F4F224",
"7.	c #EEEB20",
"8.	c #E8DF24",
"9.	c #C7B75E",
"0.	c #0F0F10",
"a.	c #7C7C36",
"b.	c #FAF83C",
"c.	c #FAFA4D",
"d.	c #FAFA4B",
"e.	c #F9F84C",
"f.	c #44443E",
"g.	c #3C3C33",
"h.	c #3F3F32",
"i.	c #303023",
"j.	c #2E2E1F",
"k.	c #F3E526",
"l.	c #F4EA21",
"m.	c #EEED20",
"n.	c #EAE520",
"o.	c #E2D019",
"p.	c #101011",
"q.	c #5F5F2D",
"r.	c #F8F134",
"s.	c #F9F93F",
"t.	c #FAF943",
"u.	c #F9F947",
"v.	c #F9F841",
"w.	c #3B3B32",
"x.	c #37372E",
"y.	c #38382B",
"z.	c #353521",
"A.	c #F1E224",
"B.	c #F3EB22",
"C.	c #ECEB1F",
"D.	c #E9E31E",
"E.	c #E6D918",
"F.	c #C6B248",
"G.	c #767631",
"H.	c #FAF736",
"I.	c #F9F83D",
"J.	c #F9F845",
"K.	c #F9F83E",
"L.	c #F8F842",
"M.	c #F7F73A",
"N.	c #AEA931",
"O.	c #3A3A2D",
"P.	c #333323",
"Q.	c #34341F",
"R.	c #A6A11A",
"S.	c #F0EB23",
"T.	c #EBEA1D",
"U.	c #E5E01D",
"V.	c #E1DA1C",
"W.	c #D5C322",
"X.	c #16160B",
"Y.	c #585828",
"Z.	c #F6EE30",
"`.	c #F8F541",
" +	c #F7F73D",
".+	c #F7F73C",
"++	c #F7F63A",
"@+	c #F6F23D",
"#+	c #F5F256",
"$+	c #393922",
"%+	c #33331E",
"&+	c #34341E",
"*+	c #E2D738",
"=+	c #E8DD23",
"-+	c #EBE41E",
";+	c #E9E619",
">+	c #E4E118",
",+	c #DCD918",
"'+	c #DAD110",
")+	c #BFAB3D",
"!+	c #070707",
"~+	c #6D6D2D",
"{+	c #F8F63A",
"]+	c #F9F73B",
"^+	c #F7F738",
"/+	c #F5F438",
"(+	c #F5F436",
"_+	c #F5F330",
":+	c #F3F230",
"<+	c #39371F",
"[+	c #30301C",
"}+	c #25251C",
"|+	c #E7DD21",
"1+	c #E6DD27",
"2+	c #E8E123",
"3+	c #E7E21D",
"4+	c #DFDA12",
"5+	c #D9D510",
"6+	c #D6D111",
"7+	c #DCD20B",
"8+	c #080806",
"9+	c #525226",
"0+	c #F7EF2A",
"a+	c #F7F539",
"b+	c #F7F635",
"c+	c #F4F235",
"d+	c #F4F22F",
"e+	c #F5F22D",
"f+	c #F3EE25",
"g+	c #3B3A1F",
"h+	c #2A2A19",
"i+	c #EDE624",
"j+	c #E9E025",
"k+	c #E4DE1F",
"l+	c #E0D91A",
"m+	c #DCD711",
"n+	c #D7D10C",
"o+	c #D4CF0F",
"p+	c #DAD109",
"q+	c #B1A147",
"r+	c #050505",
"s+	c #717126",
"t+	c #F7F131",
"u+	c #F7F533",
"v+	c #F4F333",
"w+	c #F4F234",
"x+	c #F3F134",
"y+	c #F4F22D",
"z+	c #F4F02B",
"A+	c #F3F029",
"B+	c #F1EF27",
"C+	c #A39D30",
"D+	c #2B2B1A",
"E+	c #A5A02A",
"F+	c #EADE22",
"G+	c #E9E31F",
"H+	c #E0D820",
"I+	c #E0DB15",
"J+	c #D9D40F",
"K+	c #D5D10D",
"L+	c #D2CF0A",
"M+	c #D3CC0E",
"N+	c #D1C10A",
"O+	c #131305",
"P+	c #47471A",
"Q+	c #CEC01E",
"R+	c #F5EE25",
"S+	c #F5F52B",
"T+	c #F3F22F",
"U+	c #F3F030",
"V+	c #F2EF30",
"W+	c #F3ED2F",
"X+	c #F4EC2B",
"Y+	c #F3EE27",
"Z+	c #F0E42B",
"`+	c #ECE22F",
" @	c #353118",
".@	c #ECE015",
"+@	c #EBDD19",
"@@	c #E5E11B",
"#@	c #DDD81D",
"$@	c #DBD611",
"%@	c #D6D10D",
"&@	c #D1CD0A",
"*@	c #D0CB08",
"=@	c #CEC90B",
"-@	c #CCBF06",
";@	c #AB9B42",
">@	c #686717",
",@	c #E6D92E",
"'@	c #F1EC24",
")@	c #F3F128",
"!@	c #F1EF2B",
"~@	c #F1ED2F",
"{@	c #F2ED30",
"]@	c #F3ED2C",
"^@	c #F3EC28",
"/@	c #F1E628",
"(@	c #E9E331",
"_@	c #EEDF22",
":@	c #E4D91A",
"<@	c #E2D617",
"[@	c #E2D61D",
"}@	c #E1DA19",
"|@	c #DDD717",
"1@	c #D7D00D",
"2@	c #D2CD0B",
"3@	c #CFCB08",
"4@	c #C9C408",
"5@	c #CDC406",
"6@	c #C9BA07",
"7@	c #040404",
"8@	c #3D3D0F",
"9@	c #E7D412",
"0@	c #EADE2B",
"a@	c #F0EC22",
"b@	c #F1EC29",
"c@	c #F1EE2A",
"d@	c #F1EA2B",
"e@	c #EFE928",
"f@	c #EEE42B",
"g@	c #EEE32C",
"h@	c #E9DB32",
"i@	c #928C37",
"j@	c #211D0E",
"k@	c #615C0E",
"l@	c #D3C62D",
"m@	c #D9D418",
"n@	c #DAD611",
"o@	c #D3CD0B",
"p@	c #CDC806",
"q@	c #CAC406",
"r@	c #C7C206",
"s@	c #C4B805",
"t@	c #A39042",
"u@	c #030303",
"v@	c #53530B",
"w@	c #EDDB10",
"x@	c #E7DF23",
"y@	c #EEE921",
"z@	c #EBE624",
"A@	c #EEE824",
"B@	c #EEE726",
"C@	c #EDE625",
"D@	c #EDE522",
"E@	c #EFE227",
"F@	c #EADD22",
"G@	c #9B9912",
"H@	c #1B1B0F",
"I@	c #14140D",
"J@	c #72720B",
"K@	c #DCCD11",
"L@	c #D8D111",
"M@	c #D3CD0E",
"N@	c #D1CB09",
"O@	c #CECA07",
"P@	c #C9C406",
"Q@	c #C6BE05",
"R@	c #C3BB07",
"S@	c #C8BC03",
"T@	c #7F7F7F",
"U@	c #3D3D08",
"V@	c #B2A609",
"W@	c #E1D218",
"X@	c #E5E119",
"Y@	c #EAE51E",
"Z@	c #ECE424",
"`@	c #EDE621",
" #	c #E9E421",
".#	c #ECE522",
"+#	c #EAE322",
"@#	c #EFE21D",
"##	c #ECE013",
"$#	c #8D8D0D",
"%#	c #151509",
"&#	c #101009",
"*#	c #13130A",
"=#	c #686309",
"-#	c #D9CB10",
";#	c #D8CF0C",
">#	c #D3CE0B",
",#	c #CDC706",
"'#	c #C8C305",
")#	c #C0B407",
"!#	c #BEB207",
"~#	c #AB9F18",
"{#	c #020202",
"]#	c #818181",
"^#	c #565607",
"/#	c #E2D70B",
"(#	c #E1D911",
"_#	c #E4DF0E",
":#	c #E6E218",
"<#	c #E7E31E",
"[#	c #E7E21F",
"}#	c #E5DF21",
"|#	c #E5DE23",
"1#	c #E5DD20",
"2#	c #E5DB24",
"3#	c #DCD41A",
"4#	c #D5C915",
"5#	c #716A2A",
"6#	c #1B1B08",
"7#	c #6D6D08",
"8#	c #CDC21C",
"9#	c #D3C90A",
"0#	c #D7D30B",
"a#	c #D2CD0A",
"b#	c #CFC806",
"c#	c #CDC506",
"d#	c #C8C105",
"e#	c #C7C005",
"f#	c #C5BD04",
"g#	c #BFB807",
"h#	c #BBB108",
"i#	c #C0B002",
"j#	c #757573",
"k#	c #808080",
"l#	c #E1D707",
"m#	c #E0D80F",
"n#	c #E1E00F",
"o#	c #E3DE14",
"p#	c #E4E111",
"q#	c #E6E411",
"r#	c #E5E114",
"s#	c #E5E014",
"t#	c #E4E013",
"u#	c #E3DB17",
"v#	c #E2D91B",
"w#	c #DDD51C",
"x#	c #DED61A",
"y#	c #D8CF11",
"z#	c #D1CB13",
"A#	c #D3C80B",
"B#	c #D5CD0A",
"C#	c #D4CB0E",
"D#	c #CFCA08",
"E#	c #CDC906",
"F#	c #CCC705",
"G#	c #C7C405",
"H#	c #C4BC06",
"I#	c #C5BF05",
"J#	c #C1B404",
"K#	c #C0B003",
"L#	c #6E6E6B",
"M#	c #494909",
"N#	c #C2B207",
"O#	c #DCD010",
"P#	c #E0D80E",
"Q#	c #E2DE10",
"R#	c #E2DF0D",
"S#	c #E1E010",
"T#	c #E1DE0F",
"U#	c #E0DF11",
"V#	c #E0DF10",
"W#	c #E0DD0F",
"X#	c #E1DD15",
"Y#	c #E5DE1A",
"Z#	c #DCD612",
"`#	c #D5CF0E",
" $	c #D5CE0D",
".$	c #D4D00C",
"+$	c #D3CF0C",
"@$	c #CECA08",
"#$	c #C9C407",
"$$	c #CBC604",
"%$	c #C5C104",
"&$	c #C7C204",
"*$	c #C7C002",
"=$	c #C6B802",
"-$	c #A8991E",
";$	c #070701",
">$	c #6D6D6B",
",$	c #484808",
"'$	c #BFAC06",
")$	c #DACA10",
"!$	c #D4CB23",
"~$	c #D8C71E",
"{$	c #D6D219",
"]$	c #DFD410",
"^$	c #DED410",
"/$	c #E1D80D",
"($	c #DDD210",
"_$	c #E0DA0C",
":$	c #E0DA0F",
"<$	c #DED60F",
"[$	c #D9D10B",
"}$	c #D7CC0B",
"|$	c #D7CE09",
"1$	c #D6CD09",
"2$	c #CEC804",
"3$	c #C8BE04",
"4$	c #CBC103",
"5$	c #C6B904",
"6$	c #C3B206",
"7$	c #C3B303",
"8$	c #BFB302",
"9$	c #A89913",
"0$	c #0A0801",
"a$	c #4E4E08",
"b$	c #2F2F01",
"c$	c #202001",
"d$	c #2D2D04",
"e$	c #2E2E04",
"f$	c #232305",
"g$	c #363606",
"h$	c #3E3E06",
"i$	c #525207",
"j$	c #5C5C07",
"k$	c #5D5D07",
"l$	c #5E5E06",
"m$	c #5B5B05",
"n$	c #575705",
"o$	c #4E4E05",
"p$	c #494605",
"q$	c #3A3803",
"r$	c #2A2703",
"s$	c #272703",
"t$	c #1B1B03",
"u$	c #161602",
"v$	c #080802",
"w$	c #070502",
"x$	c #010101",
"y$	c #646462",
"                                                                ",
"                          . + @                                 ",
"                        # $ % & *                               ",
"                      = - ; > , ' )                             ",
"                      ! ~ { ] ^ / (                             ",
"                    _ : < [ } | 1 2 3                           ",
"                    4 5 6 < 7 8 9 0 a                           ",
"                  b c d e f g h i j k l                         ",
"                  m n o o p q r s t u v                         ",
"                w x y z A B C D E F G H l                       ",
"                I J K L M N O P Q R S T U                       ",
"              V W X Y Z `  ...+.@.#.$.%.&.*.                    ",
"              =.-.;.>.K ,.'.).!.@.~.{.].^./.                    ",
"            (._.:.<.[.}.|.1.2.3.4.5.6.7.8.9.0.                  ",
"            a.b.}.c.d.e.f.g.h.i.j.k.l.m.n.o.p.                  ",
"          q.r.b.s.t.u.v.w.x.y.i.z.A.B.C.D.E.F.*                 ",
"          G.H.I.J.K.L.M.N.O.P.Q.R.n.S.T.U.V.W.X.                ",
"        Y.Z.`.s. +.+++@+#+$+%+&+*+=+-+;+>+,+'+)+!+              ",
"        ~+{+]+^+M./+(+_+:+<+[+}+|+1+2+3+4+5+6+7+8+              ",
"      9+0+a+a+b+c+d+d+e+f+g+}+h+i+j+k+l+m+n+o+p+q+r+            ",
"      s+t+u+v+w+x+y+z+A+B+C+D+E+F+G+H+I+J+K+L+M+N+O+            ",
"    P+Q+R+S+T+U+V+W+X+Y+Z+`+ @.@+@@@#@$@%@&@*@=@-@;@r+          ",
"    >@,@'@)@!@~@{@]@^@/@(@_@:@<@[@}@|@1@2@*@3@4@5@6@7@          ",
"  8@9@0@a@b@c@d@d@e@f@g@h@i@j@k@l@m@n@M+o@3@p@q@r@s@t@u@        ",
"  v@w@x@y@z@A@B@C@D@E@F@G@H@I@X.J@K@L@M@N@O@p@P@Q@R@S@u@T@      ",
"U@V@W@X@Y@Z@`@ #.#+#@###$#%#&#*#=#-#;#>#O@,#p@'#Q@)#!#~#{#]#    ",
"^#/#(#_#:#<#[#}#|#1#2#3#4#5#6#7#8#9#0#a#b#c#d#e#f#g#h#i#{#j#k#  ",
"^#l#m#n#o#p#q#r#s#t#u#v#w#x#y#z#A#B#C#D#E#F#G#f#H#I#J#K#{#L#T@T@",
"M#N#O#P#Q#R#S#T#U#V#W#X#Y#Z#`# $.$+$+$@$#$$$%$&$f#*$=$-$;$>$T@T@",
"  ,$'$)$!$~${$]$^$/$($_$:$<$[$p+}$|$1$2$3$4$5$6$7$8$9$0$>$T@T@  ",
"    a$b$c$d$e$f$g$h$i$j$k$l$m$n$o$p$q$r$s$t$u$v$w$x$x$y$        ",
"                                                                "};
