/* XPM */
static char * icon_file_www_32x32_xpm[] = {
"32 32 381 2",
"  	c None",
". 	c #636363",
"+ 	c #605F5F",
"@ 	c #616060",
"# 	c #636261",
"$ 	c #575756",
"% 	c #5C5C5C",
"& 	c #565656",
"* 	c #646362",
"= 	c #545454",
"- 	c #5D5C5C",
"; 	c #626161",
"> 	c #6D6C6B",
", 	c #CAC8C6",
"' 	c #D1CFCD",
") 	c #D2D0CE",
"! 	c #D7D4D2",
"~ 	c #DBD9D8",
"{ 	c #DAD8D5",
"] 	c #D8D7D4",
"^ 	c #CECCCB",
"/ 	c #D3D1D0",
"( 	c #D4D2D2",
"_ 	c #858380",
": 	c #D0D0D0",
"< 	c #747474",
"[ 	c #737271",
"} 	c #626160",
"| 	c #D7D6D4",
"1 	c #D9D7D6",
"2 	c #DEDDDB",
"3 	c #E1E0DF",
"4 	c #E4E2E1",
"5 	c #E1DFDF",
"6 	c #DAD9D8",
"7 	c #D9D8D8",
"8 	c #DCDBDA",
"9 	c #D1CECD",
"0 	c #878582",
"a 	c #F7F6F5",
"b 	c #D6D5D5",
"c 	c #787776",
"d 	c #6A6967",
"e 	c #D8D6D4",
"f 	c #E3E2E0",
"g 	c #E3E2E1",
"h 	c #E4E2E0",
"i 	c #E5E4E3",
"j 	c #E5E4E4",
"k 	c #E5E4E2",
"l 	c #DEDDDC",
"m 	c #DCDADA",
"n 	c #D6D3D1",
"o 	c #999692",
"p 	c #FCFCFC",
"q 	c #EFEFEF",
"r 	c #C8C6C4",
"s 	c #B9B6B6",
"t 	c #686866",
"u 	c #696867",
"v 	c #D7D5D5",
"w 	c #E4E3E2",
"x 	c #E2E0E0",
"y 	c #A4ADA7",
"z 	c #A3B1AB",
"A 	c #98A59F",
"B 	c #8C948E",
"C 	c #918E8C",
"D 	c #F5F4F3",
"E 	c #C9C6C5",
"F 	c #C2C2C0",
"G 	c #6B6A69",
"H 	c #DCDAD9",
"I 	c #E0DFDE",
"J 	c #E5E3E3",
"K 	c #95978D",
"L 	c #788477",
"M 	c #85978B",
"N 	c #506359",
"O 	c #556B63",
"P 	c #A1AFA7",
"Q 	c #8C998D",
"R 	c #E4EAE4",
"S 	c #DDE0D9",
"T 	c #E1DFDE",
"U 	c #D0CFCD",
"V 	c #C1BFBF",
"W 	c #6A6A6A",
"X 	c #646262",
"Y 	c #DFDDDC",
"Z 	c #475752",
"` 	c #243C3C",
" .	c #2D4443",
"..	c #273F37",
"+.	c #2D4341",
"@.	c #4E6052",
"#.	c #506258",
"$.	c #CCD4CA",
"%.	c #D5DCD5",
"&.	c #E5EBE5",
"*.	c #E8ECE5",
"=.	c #CDCDC0",
"-.	c #666666",
";.	c #616160",
">.	c #575757",
",.	c #494949",
"'.	c #595958",
").	c #DFDDDD",
"!.	c #7B837E",
"~.	c #213A36",
"{.	c #283E3D",
"].	c #263C3E",
"^.	c #374C42",
"/.	c #536554",
"(.	c #5D6857",
"_.	c #5D6C57",
":.	c #C2C7BA",
"<.	c #CBD1C7",
"[.	c #919787",
"}.	c #BAB7A9",
"|.	c #B2AE9D",
"1.	c #B4B19D",
"2.	c #989695",
"3.	c #ABA9A8",
"4.	c #484848",
"5.	c #5F5E5E",
"6.	c #E0DEDD",
"7.	c #1D302E",
"8.	c #203431",
"9.	c #1F3836",
"0.	c #243B35",
"a.	c #3D5147",
"b.	c #44564C",
"c.	c #4B5D51",
"d.	c #606E5C",
"e.	c #334841",
"f.	c #364B43",
"g.	c #6E796E",
"h.	c #BBB79E",
"i.	c #BFB59C",
"j.	c #D2D1C3",
"k.	c #C9C7C4",
"l.	c #C7C5C4",
"m.	c #525252",
"n.	c #E0DFDF",
"o.	c #A0A3A2",
"p.	c #1F2E31",
"q.	c #1F3437",
"r.	c #203632",
"s.	c #2A4239",
"t.	c #364940",
"u.	c #304441",
"v.	c #253D40",
"w.	c #2C4142",
"x.	c #48594E",
"y.	c #8A9587",
"z.	c #AEAD96",
"A.	c #A39F89",
"B.	c #ACA68D",
"C.	c #9F9B86",
"D.	c #9B9F94",
"E.	c #686767",
"F.	c #E3E1E0",
"G.	c #173029",
"H.	c #1E3030",
"I.	c #213436",
"J.	c #6A725C",
"K.	c #8F8C75",
"L.	c #BDB296",
"M.	c #C1B69B",
"N.	c #5D635A",
"O.	c #7F8575",
"P.	c #788179",
"Q.	c #A2A290",
"R.	c #DFD1B6",
"S.	c #82826D",
"T.	c #8C8E7B",
"U.	c #969A83",
"V.	c #666B59",
"W.	c #D2D1CF",
"X.	c #5C5B5B",
"Y.	c #6C6B6B",
"Z.	c #1C3129",
"`.	c #1E3331",
" +	c #888B76",
".+	c #A99E87",
"++	c #B2A68C",
"@+	c #A99E86",
"#+	c #A99D83",
"$+	c #C5BBA1",
"%+	c #E8DCC7",
"&+	c #DED8BA",
"*+	c #95917D",
"=+	c #ACA789",
"-+	c #E8E2C9",
";+	c #DFD9C2",
">+	c #394D4C",
",+	c #374C44",
"'+	c #D9D7D5",
")+	c #656464",
"!+	c #E5E3E2",
"~+	c #21352F",
"{+	c #1F3632",
"]+	c #8E846B",
"^+	c #B7AA8E",
"/+	c #B8AA8E",
"(+	c #C2B498",
"_+	c #CAC1A4",
":+	c #AFA88A",
"<+	c #BEAD90",
"[+	c #DBCEAF",
"}+	c #CCBE9F",
"|+	c #4D584D",
"1+	c #D9CAAC",
"2+	c #B0A68C",
"3+	c #1D343C",
"4+	c #213943",
"5+	c #717070",
"6+	c #5E5E5E",
"7+	c #DBD8D8",
"8+	c #1F332E",
"9+	c #243B3B",
"0+	c #394F3D",
"a+	c #686C53",
"b+	c #877E64",
"c+	c #A5987F",
"d+	c #C2B79B",
"e+	c #BFB39B",
"f+	c #B4A489",
"g+	c #B29F83",
"h+	c #898266",
"i+	c #6C6B54",
"j+	c #656758",
"k+	c #666C5B",
"l+	c #1E363C",
"m+	c #18343F",
"n+	c #838382",
"o+	c #6F6E6D",
"p+	c #D0CFCF",
"q+	c #919694",
"r+	c #1D3735",
"s+	c #29423F",
"t+	c #465A4A",
"u+	c #5D6D5B",
"v+	c #63715C",
"w+	c #686B53",
"x+	c #58614A",
"y+	c #4D5A42",
"z+	c #596048",
"A+	c #56614B",
"B+	c #5B634B",
"C+	c #6D6E59",
"D+	c #2E413C",
"E+	c #1B3137",
"F+	c #AAAFB0",
"G+	c #E9E9E8",
"H+	c #C4C3C2",
"I+	c #686666",
"J+	c #737171",
"K+	c #9D9B9B",
"L+	c #E3E1DF",
"M+	c #1C2B2A",
"N+	c #213431",
"O+	c #2A4140",
"P+	c #2C4545",
"Q+	c #314F44",
"R+	c #576E5A",
"S+	c #355139",
"T+	c #314D31",
"U+	c #2F4D31",
"V+	c #485C43",
"W+	c #586451",
"X+	c #1C3B3D",
"Y+	c #1D333A",
"Z+	c #1B2E35",
"`+	c #EAEAE8",
" @	c #EAE8E8",
".@	c #EEEDEC",
"+@	c #767474",
"@@	c #E2E0DE",
"#@	c #686B69",
"$@	c #202B25",
"%@	c #18312F",
"&@	c #1A3336",
"*@	c #203A3E",
"=@	c #2E4238",
"-@	c #355338",
";@	c #2E4C31",
">@	c #385338",
",@	c #435E44",
"'@	c #284332",
")@	c #243C3D",
"!@	c #22353B",
"~@	c #1F2E34",
"{@	c #EDEBEA",
"]@	c #ECEBEA",
"^@	c #EFEEED",
"/@	c #7A7A79",
"(@	c #E3E3E1",
"_@	c #EAE8E7",
":@	c #9FA2A0",
"<@	c #202A24",
"[@	c #1D2D2B",
"}@	c #1D3330",
"|@	c #2D413C",
"1@	c #354933",
"2@	c #405741",
"3@	c #566952",
"4@	c #415743",
"5@	c #21362F",
"6@	c #213631",
"7@	c #475251",
"8@	c #7F7F7F",
"9@	c #ECEBEB",
"0@	c #838282",
"a@	c #686766",
"b@	c #E9E8E6",
"c@	c #EDEBEB",
"d@	c #C7C8C7",
"e@	c #465450",
"f@	c #1D312D",
"g@	c #415445",
"h@	c #4D5944",
"i@	c #394B39",
"j@	c #21322B",
"k@	c #333F3B",
"l@	c #9C9C9C",
"m@	c #F2F1F1",
"n@	c #F1F0F0",
"o@	c #F3F2F1",
"p@	c #D2D1D0",
"q@	c #646363",
"r@	c #F0EFEE",
"s@	c #F0EEEE",
"t@	c #F2F0F0",
"u@	c #F1F0EF",
"v@	c #F3F0F0",
"w@	c #F4F2F0",
"x@	c #F6F4F3",
"y@	c #F6F6F6",
"z@	c #F9F9F8",
"A@	c #F9F8F8",
"B@	c #F5F4F4",
"C@	c #F3F3F3",
"D@	c #F3F2F2",
"E@	c #F5F5F5",
"F@	c #F6F5F5",
"G@	c #F4F3F3",
"H@	c #626262",
"I@	c #6D6C6C",
"J@	c #EFEEEE",
"K@	c #F4F4F3",
"L@	c #F4F3F2",
"M@	c #F5F3F2",
"N@	c #F8F7F6",
"O@	c #FAF9F9",
"P@	c #F9F9F9",
"Q@	c #FAFAFA",
"R@	c #FBFAFA",
"S@	c #FBFBFB",
"T@	c #F8F8F8",
"U@	c #7B7A7A",
"V@	c #7D7D7D",
"W@	c #636262",
"X@	c #F6F6F5",
"Y@	c #FCFBFB",
"Z@	c #FDFDFD",
"`@	c #5B5B5B",
" #	c #FBFBFA",
".#	c #EDEDEC",
"+#	c #EAEAEA",
"@#	c #E6E6E6",
"##	c #949393",
"$#	c #727171",
"%#	c #6F6E6E",
"&#	c #666565",
"*#	c #646464",
"=#	c #5D5D5D",
"-#	c #706F6F",
";#	c #727272",
">#	c #6E6D6D",
"                                                                ",
"                                                                ",
"                                                                ",
"                                                                ",
"          . + @ # $ % & * = + @ - ; >                           ",
"          ; , ' ) ! ~ { ] ^ / ( , _ : < [                       ",
"          } / | 1 2 3 4 5 6 7 8 9 0 a b , c                     ",
"          d e f g h i j k l m 2 n o p q r s t                   ",
"          u v w i x 4 f 5 y z A B C 2 D 3 E F .                 ",
"          G H I J w K L M N O P Q R S T w U V W                 ",
"          X Y 5 5 Z `  ...+.@.#.$.%.&.*.=.-.;.>.,.              ",
"          '.Y ).!.~.{.].^./.(._.:.<.[.}.|.1.2.3.4.              ",
"          5.6.).7.8.9.0.a.b.c.d.e.f.g.h.i.j.k.l.m.              ",
"          * n.o.p.q.r.s.t.u.v.w.x.y.z.A.B.C.D., =               ",
"          E.F.G.H.I.J.K.L.M.N.O.P.Q.R.S.T.U.V.W.X.              ",
"          Y.T Z.`. +.+++@+#+$+%+&+*+=+-+;+>+,+'+)+              ",
"          -.!+~+{+]+^+/+(+_+:+<+[+}+|+1+2+3+4+T 5+              ",
"          6+7+8+9+0+a+b+c+d+e+f+g+h+i+j+k+l+m+F.n+              ",
"          o+p+q+r+s+t+u+v+w+x+y+z+A+B+C+D+E+F+G+H+I+            ",
"          J+K+L+M+N+O+P+Q+R+S+T+U+V+W+X+Y+Z+`+ @.@Y.            ",
"            +@@@#@$@%@&@*@=@-@;@>@,@'@)@!@~@{@]@^@/@            ",
"            Y.(@_@:@<@[@}@|@1@2@3@4@5@6@7@8@8@9@^@0@8@8@8@8@8@8@",
"            a@b@9@]@c@d@e@f@g@h@i@j@k@8@8@l@m@n@o@p@6+8@8@8@8@  ",
"            q@]@r@s@t@u@v@w@x@y@z@A@y@B@y@C@D@E@F@G@H@8@8@8@    ",
"            I@J@K@G@L@M@F@N@O@O@P@P@Q@R@Q@Q@S@Q@p T@U@V@8@      ",
"            W@X@Q@P@P@P@R@Q@S@Y@p Y@p p p p S@p Z@Z@l@V@        ",
"            `@P@P@O@p p p p  # #.#+#@###$#%#&#*#W@+ =#          ",
"            >.@ E.-#5+;#$#>#>#>#-.@ +                           ",
"                                                                ",
"                                                                ",
"                                                                ",
"                                                                "};
