/* XPM */
static char * icon_security_32x32_xpm[] = {
"32 32 264 2",
"  	c None",
". 	c #807B6F",
"+ 	c #969386",
"@ 	c #949083",
"# 	c #928C7F",
"$ 	c #8D897A",
"% 	c #8D8878",
"& 	c #8D887A",
"* 	c #7D776A",
"= 	c #8B867D",
"- 	c #D2D0C4",
"; 	c #BDBAA7",
"> 	c #847D6A",
", 	c #7A7562",
"' 	c #777362",
") 	c #756F5E",
"! 	c #8B8671",
"~ 	c #9B9981",
"{ 	c #686151",
"] 	c #959083",
"^ 	c #EFEFED",
"/ 	c #9B957D",
"( 	c #827E69",
"_ 	c #666353",
": 	c #625F50",
"< 	c #5E5B4C",
"[ 	c #524F42",
"} 	c #716C5B",
"| 	c #87826D",
"1 	c #797662",
"2 	c #595446",
"3 	c #99958A",
"4 	c #F0F0EC",
"5 	c #7E7965",
"6 	c #6C6756",
"7 	c #75715F",
"8 	c #7F7C68",
"9 	c #706C5B",
"0 	c #5C5849",
"a 	c #979286",
"b 	c #C8C5B4",
"c 	c #676453",
"d 	c #787361",
"e 	c #6F6C5B",
"f 	c #5D594A",
"g 	c #928D7F",
"h 	c #BAB8A4",
"i 	c #646051",
"j 	c #878372",
"k 	c #D0C7B5",
"l 	c #D3CAB6",
"m 	c #8C8878",
"n 	c #ABA992",
"o 	c #B3AB97",
"p 	c #D0C7B3",
"q 	c #D1C8B4",
"r 	c #CDC4B0",
"s 	c #CECCBC",
"t 	c #746D5D",
"u 	c #BDB5A2",
"v 	c #B1A897",
"w 	c #D7CEBC",
"x 	c #5C5546",
"y 	c #9F9B84",
"z 	c #534F40",
"A 	c #7A7363",
"B 	c #C9C1AD",
"C 	c #C8C0AC",
"D 	c #C7BFAB",
"E 	c #C5BDA9",
"F 	c #BEB6A2",
"G 	c #847F72",
"H 	c #76705E",
"I 	c #3E382B",
"J 	c #A39C88",
"K 	c #BBB39F",
"L 	c #8D8673",
"M 	c #D2C9B6",
"N 	c #CCC3AF",
"O 	c #898371",
"P 	c #494334",
"Q 	c #655E4E",
"R 	c #86806C",
"S 	c #BEB7A3",
"T 	c #B9B29E",
"U 	c #867E6D",
"V 	c #3B3527",
"W 	c #4F4A3A",
"X 	c #95907C",
"Y 	c #A9A18D",
"Z 	c #7C7763",
"` 	c #CCC4B1",
" .	c #9D9783",
"..	c #8A8470",
"+.	c #8A8571",
"@.	c #898571",
"#.	c #88836F",
"$.	c #85816D",
"%.	c #827E6A",
"&.	c #817D69",
"*.	c #807C68",
"=.	c #7F7B67",
"-.	c #7A7662",
";.	c #6F6C58",
">.	c #625F4B",
",.	c #34321E",
"'.	c #8E8773",
").	c #89836F",
"!.	c #847F6B",
"~.	c #827D69",
"{.	c #7F7B68",
"].	c #7E7A66",
"^.	c #7D7A66",
"/.	c #73705C",
"(.	c #63604C",
"_.	c #CFC6B2",
":.	c #736D59",
"<.	c #67624E",
"[.	c #66614D",
"}.	c #635F4B",
"|.	c #645F4B",
"1.	c #615C48",
"2.	c #57533F",
"3.	c #605C48",
"4.	c #585440",
"5.	c #4C4935",
"6.	c #45412D",
"7.	c #CAC2AF",
"8.	c #87826E",
"9.	c #837F6B",
"0.	c #797763",
"a.	c #787662",
"b.	c #706E5A",
"c.	c #62604C",
"d.	c #88826E",
"e.	c #777561",
"f.	c #75735F",
"g.	c #6E6C58",
"h.	c #908975",
"i.	c #9C9581",
"j.	c #7A7763",
"k.	c #767461",
"l.	c #6B6955",
"m.	c #D0C7B4",
"n.	c #726C58",
"o.	c #635E4A",
"p.	c #625E4A",
"q.	c #5E5A46",
"r.	c #55503C",
"s.	c #55513D",
"t.	c #4F4C38",
"u.	c #3B3622",
"v.	c #464646",
"w.	c #606060",
"x.	c #484848",
"y.	c #373737",
"z.	c #CEC5B2",
"A.	c #9B9581",
"B.	c #7E7B67",
"C.	c #7B7864",
"D.	c #6C6A56",
"E.	c #3D3824",
"F.	c #7F7F7F",
"G.	c #616161",
"H.	c #D9D9D9",
"I.	c #ABABAB",
"J.	c #8F8F8F",
"K.	c #7B7B7B",
"L.	c #3A3A3A",
"M.	c #B9B19D",
"N.	c #95917D",
"O.	c #7A7864",
"P.	c #66624E",
"Q.	c #53503C",
"R.	c #302C18",
"S.	c #4F4F4F",
"T.	c #DDDDDD",
"U.	c #929292",
"V.	c #8E8E8E",
"W.	c #4A4A4A",
"X.	c #212121",
"Y.	c #A9A08F",
"Z.	c #787561",
"`.	c #767460",
" +	c #5F5C48",
".+	c #56533F",
"++	c #2E2A17",
"@+	c #4D4D4D",
"#+	c #CDCDCD",
"$+	c #8B8B8B",
"%+	c #868686",
"&+	c #222222",
"*+	c #726A5B",
"=+	c #7D7864",
"-+	c #74705C",
";+	c #787460",
">+	c #797561",
",+	c #77735F",
"'+	c #74715D",
")+	c #6F6D59",
"!+	c #706D59",
"~+	c #6D6B57",
"{+	c #575440",
"]+	c #484531",
"^+	c #2D2B19",
"/+	c #CBCBCB",
"(+	c #CCCCCC",
"_+	c #909090",
":+	c #8D8D8D",
"<+	c #474747",
"[+	c #41392E",
"}+	c #453E33",
"|+	c #443D32",
"1+	c #3B342A",
"2+	c #352F26",
"3+	c #322C23",
"4+	c #3D382D",
"5+	c #353025",
"6+	c #050403",
"7+	c #404040",
"8+	c #BDBDBD",
"9+	c #767676",
"0+	c #4C4C4C",
"a+	c #333333",
"b+	c #1F1F1F",
"c+	c #3F3F3F",
"d+	c #B9B9B9",
"e+	c #BCBCBC",
"f+	c #343434",
"g+	c #202020",
"h+	c #BEBEBE",
"i+	c #C1C1C1",
"j+	c #707070",
"k+	c #515151",
"l+	c #8A8A8A",
"m+	c #787878",
"n+	c #6E6E6E",
"o+	c #363636",
"p+	c #B6B6B6",
"q+	c #C2C2C2",
"r+	c #5F5F5F",
"s+	c #454545",
"t+	c #383838",
"u+	c #2D2D2D",
"v+	c #C0C0C0",
"w+	c #9D9D9D",
"x+	c #646464",
"y+	c #494949",
"z+	c #3D3D3D",
"A+	c #2E2E2E",
"B+	c #434343",
"C+	c #B5B5B5",
"D+	c #9F9F9F",
"E+	c #9A9A9A",
"F+	c #818181",
"G+	c #525252",
"H+	c #313131",
"I+	c #1A1A1A",
"J+	c #A3A3A3",
"K+	c #737373",
"L+	c #2F2F2F",
"M+	c #1C1C1C",
"N+	c #1E1E1E",
"O+	c #272727",
"                                                                ",
"          . + @ # $ % & *                                       ",
"        = - ; > , ' ) ! ~ {                                     ",
"      ] ^ / ( _ : < [ } | 1 2                                   ",
"      3 4 5 6         7 8 9 0                                   ",
"      a b c             d e f                                   ",
"      g h i             j } 0                                   ",
"  k l m n : o p p p q r s t : u v                               ",
"w l p x y z A B C D E F G H I J K L                             ",
"M C N O P Q R S S S S T U V W X Y Z                             ",
"`  ...+.@.#.$.%.&.&.&.*.=.=.-.;.>.,.                            ",
"'. ...).#.!.~.%.%.&.{.].^.&.&./.(.,.                            ",
"_.:.<.<.[.}.}.}.|.}.1.2.3.4.4.5.6.,.                            ",
"7. .).8.9.%.%.%.&.*.0.a.a.1 1 b.c.,.                            ",
"r  .d.!.&.&.&.&.=.^.e.e.f.e.e.g.c.,.                            ",
"h.i.9.&.&.&.&.&.^.j.e.e.k.e.a.l.c.,.                            ",
"m.n.o.}.}.o.o.p.3.q.r.r.r.r.s.t.6.u.                  v.w.x.v.y.",
"z.A.&.%.%.&.&.B.C.a.e.e.e.e.e.D.c.E.F.F.F.          G.H.I.J.K.L.",
"M.N.*.&.*.%.&.O.a.e.e.e.e.e.e.P.Q.R.F.F.F.        S.T.U.V.W.X.  ",
"Y.@.*.%.&.*.B.Z.`.`.`.`.`.`.e. +.+++F.F.F.      @+#+U.$+%+&+    ",
"*+=+-+;+>+,+'+;.g.g.;.)+!+g.~+{+]+^+F.          /+(+_+:+<+      ",
"    [+}+|+1+2+3+3+3+3+3+3+4+5+6+F.          7+8+9+0+a+b+        ",
"                                          c+d+e+f+g+            ",
"                                          h+i+j+                ",
"                                      k+d+l+m+n+o+              ",
"                                    7+p+q+r+s+t+u+              ",
"                                  7+v+w+x+y+z+A+                ",
"                                B+C+D+E+F+G+H+I+                ",
"                              y.J+d+K+x+W.L+M+                  ",
"                              N+O+L+I+                          ",
"                                                                ",
"                                                                "};
