/* XPM */
static char * icon_force_feedback_20x20_xpm[] = {
"20 20 90 1",
" 	c None",
".	c #494949",
"+	c #333333",
"@	c #000000",
"#	c #FFFFFF",
"$	c #3A3A3A",
"%	c #C3C3C3",
"&	c #262626",
"*	c #282828",
"=	c #5C5C5C",
"-	c #404040",
";	c #E0E0E0",
">	c #313131",
",	c #1B1B1B",
"'	c #2A1D0D",
")	c #C3C300",
"!	c #1A1212",
"~	c #161616",
"{	c #2E2E2E",
"]	c #3B3B3B",
"^	c #424242",
"/	c #3F3B00",
"(	c #959500",
"_	c #FFFF00",
":	c #474747",
"<	c #929292",
"[	c #CFCFCF",
"}	c #121212",
"|	c #AEA700",
"1	c #D9D900",
"2	c #FBF200",
"3	c #777777",
"4	c #252525",
"5	c #4B4B00",
"6	c #444400",
"7	c #1C0606",
"8	c #180101",
"9	c #565600",
"0	c #929200",
"a	c #989703",
"b	c #CCCCCC",
"c	c #3C3C3C",
"d	c #3C3C00",
"e	c #FCF500",
"f	c #C1BC00",
"g	c #250000",
"h	c #FEFC00",
"i	c #E3E20A",
"j	c #66662A",
"k	c #3D3D3D",
"l	c #543D3D",
"m	c #63470B",
"n	c #DBDB00",
"o	c #AA9B00",
"p	c #272727",
"q	c #1A1A1A",
"r	c #9F9F9F",
"s	c #341D01",
"t	c #7B7B7B",
"u	c #A9A9A9",
"v	c #9C9C9C",
"w	c #363636",
"x	c #959595",
"y	c #463D04",
"z	c #ADAD00",
"A	c #525014",
"B	c #B0B0B0",
"C	c #010101",
"D	c #181818",
"E	c #5B5B5B",
"F	c #796C0E",
"G	c #867F02",
"H	c #1D1D1D",
"I	c #D9D9D9",
"J	c #E7E7E7",
"K	c #DBDBDB",
"L	c #E8E8E8",
"M	c #6D6D6D",
"N	c #EFEFEF",
"O	c #C2C2C2",
"P	c #3F3F3F",
"Q	c #BABABA",
"R	c #E9E9E9",
"S	c #343434",
"T	c #EEEEEE",
"U	c #414141",
"V	c #020202",
"W	c #FAFAFA",
"X	c #7D7D7D",
"Y	c #383838",
"                    ",
"       .    +       ",
"      @#@  $#@      ",
"      @%& @##@      ",
"   +*@ =#@#-;@      ",
"   @##>,#>')! @~{   ",
"    ]##^/(__:<#[@   ",
"    @}|1___23#456@  ",
"7890____a__bcde___f ",
"ghhhijkl__m)___no@  ",
" @@pq#r)_____0stuvw ",
"    x#y___zA]B}C    ",
"   D##EFGHrIJKL@    ",
"  w#M@###N#O@PQR*   ",
"  @@ @%##S#T@  @@   ",
"      U#V cW@       ",
"      UN@ @%X       ",
"      S@   Y        ",
"      {             ",
"                    "};
