/* XPM */
static char * icon_file_32x32_xpm[] = {
"32 32 287 2",
"  	c None",
". 	c #636363",
"+ 	c #605F5F",
"@ 	c #616060",
"# 	c #636261",
"$ 	c #575756",
"% 	c #5C5C5C",
"& 	c #565656",
"* 	c #646362",
"= 	c #545454",
"- 	c #5D5C5C",
"; 	c #626161",
"> 	c #6D6C6B",
", 	c #CAC8C6",
"' 	c #D1CFCD",
") 	c #D2D0CE",
"! 	c #D7D4D2",
"~ 	c #DBD9D8",
"{ 	c #DAD8D5",
"] 	c #D8D7D4",
"^ 	c #CECCCB",
"/ 	c #D3D1D0",
"( 	c #D4D2D2",
"_ 	c #858380",
": 	c #D0D0D0",
"< 	c #747474",
"[ 	c #737271",
"} 	c #626160",
"| 	c #D7D6D4",
"1 	c #D9D7D6",
"2 	c #DEDDDB",
"3 	c #E1E0DF",
"4 	c #E4E2E1",
"5 	c #E1DFDF",
"6 	c #DAD9D8",
"7 	c #D9D8D8",
"8 	c #DCDBDA",
"9 	c #D1CECD",
"0 	c #878582",
"a 	c #F7F6F5",
"b 	c #D6D5D5",
"c 	c #787776",
"d 	c #6A6967",
"e 	c #D8D6D4",
"f 	c #E3E2E0",
"g 	c #E3E2E1",
"h 	c #E4E2E0",
"i 	c #E5E4E3",
"j 	c #E5E4E4",
"k 	c #E5E4E2",
"l 	c #DEDDDC",
"m 	c #DCDADA",
"n 	c #D6D3D1",
"o 	c #999692",
"p 	c #FCFCFC",
"q 	c #EFEFEF",
"r 	c #C8C6C4",
"s 	c #B9B6B6",
"t 	c #686866",
"u 	c #696867",
"v 	c #D7D5D5",
"w 	c #E4E3E2",
"x 	c #E2E0E0",
"y 	c #DEDCDB",
"z 	c #DDDCDC",
"A 	c #DEDBDA",
"B 	c #D4D3D0",
"C 	c #918E8C",
"D 	c #F5F4F3",
"E 	c #C9C6C5",
"F 	c #C2C2C0",
"G 	c #6B6A69",
"H 	c #DCDAD9",
"I 	c #E0DFDE",
"J 	c #E5E3E3",
"K 	c #E1E0DE",
"L 	c #E1DEDE",
"M 	c #DFDDDB",
"N 	c #DBDAD8",
"O 	c #D4D2D0",
"P 	c #999795",
"Q 	c #CAC7C5",
"R 	c #E1DFDE",
"S 	c #D0CFCD",
"T 	c #C1BFBF",
"U 	c #6A6A6A",
"V 	c #646262",
"W 	c #DFDDDC",
"X 	c #E4E2E2",
"Y 	c #E0DEDD",
"Z 	c #DCDBD9",
"` 	c #E1DFDD",
" .	c #DDDBDA",
"..	c #D2D1CE",
"+.	c #858483",
"@.	c #6B6A6A",
"#.	c #6E6E6E",
"$.	c #666666",
"%.	c #616160",
"&.	c #575757",
"*.	c #494949",
"=.	c #595958",
"-.	c #DFDDDD",
";.	c #E5E3E2",
">.	c #D5D3D3",
",.	c #CDCBCA",
"'.	c #B1AEAD",
").	c #9E9C9A",
"!.	c #999896",
"~.	c #989795",
"{.	c #989695",
"].	c #ABA9A8",
"^.	c #484848",
"/.	c #5F5E5E",
"(.	c #E3E1E0",
"_.	c #E2DFDF",
":.	c #DEDCDC",
"<.	c #DAD8D7",
"[.	c #D7D6D5",
"}.	c #D3D1CF",
"|.	c #C8C6C5",
"1.	c #C1BEBB",
"2.	c #C4C1BE",
"3.	c #C9C7C4",
"4.	c #C7C5C4",
"5.	c #525252",
"6.	c #E0DFDF",
"7.	c #DFDEDD",
"8.	c #E2E0DF",
"9.	c #DFDCDB",
"0.	c #D9D7D7",
"a.	c #D9D7D5",
"b.	c #D7D4D3",
"c.	c #D0CECD",
"d.	c #D6D3D2",
"e.	c #D5D2D1",
"f.	c #D0CECC",
"g.	c #686767",
"h.	c #E0DEDE",
"i.	c #E4E1E1",
"j.	c #E6E4E2",
"k.	c #E5E2E2",
"l.	c #E2DFDE",
"m.	c #E0DEDC",
"n.	c #DEDCDA",
"o.	c #DFDDDA",
"p.	c #DAD8D8",
"q.	c #DAD9D7",
"r.	c #D6D4D3",
"s.	c #D2D1CF",
"t.	c #5C5B5B",
"u.	c #6C6B6B",
"v.	c #E2E1E0",
"w.	c #E7E5E4",
"x.	c #E7E6E4",
"y.	c #E5E2E1",
"z.	c #E6E4E3",
"A.	c #E2E1DF",
"B.	c #E3E0E0",
"C.	c #656464",
"D.	c #E4E2DF",
"E.	c #E6E5E4",
"F.	c #E7E6E5",
"G.	c #E9E7E7",
"H.	c #E8E7E7",
"I.	c #EAE8E6",
"J.	c #E9E8E8",
"K.	c #E8E6E5",
"L.	c #E6E5E2",
"M.	c #E8E6E6",
"N.	c #E7E5E5",
"O.	c #E6E4E4",
"P.	c #717070",
"Q.	c #5E5E5E",
"R.	c #DBD8D8",
"S.	c #E6E5E5",
"T.	c #EBEAE9",
"U.	c #EDECEA",
"V.	c #E9E7E6",
"W.	c #ECEAE9",
"X.	c #ECEBEA",
"Y.	c #EBEAEA",
"Z.	c #EEEEEE",
"`.	c #EBE9E9",
" +	c #838382",
".+	c #6F6E6D",
"++	c #D0CFCF",
"@+	c #E4E3E3",
"#+	c #E7E6E6",
"$+	c #EAE8E8",
"%+	c #ECEBEB",
"&+	c #EAE7E6",
"*+	c #EDEAEA",
"=+	c #EDEBEA",
"-+	c #ECEAEA",
";+	c #EEEDEC",
">+	c #ECEAE8",
",+	c #E9E9E8",
"'+	c #C4C3C2",
")+	c #686666",
"!+	c #737171",
"~+	c #9D9B9B",
"{+	c #E3E1DF",
"]+	c #EAE8E7",
"^+	c #E9E8E7",
"/+	c #EDECEC",
"(+	c #EEEDED",
"_+	c #EDEDED",
":+	c #ECECEC",
"<+	c #EAEAE8",
"[+	c #767474",
"}+	c #E2E0DE",
"|+	c #EEECEB",
"1+	c #EFEEED",
"2+	c #EFEEEE",
"3+	c #F1F1F0",
"4+	c #F0EEEE",
"5+	c #EFEDED",
"6+	c #EDEBEB",
"7+	c #7A7A79",
"8+	c #E3E3E1",
"9+	c #EBE9E8",
"0+	c #F0EEED",
"a+	c #F0EFEE",
"b+	c #F0F0F0",
"c+	c #F5F3F2",
"d+	c #F5F3F3",
"e+	c #F2F1F0",
"f+	c #EFEFEE",
"g+	c #838282",
"h+	c #7F7F7F",
"i+	c #686766",
"j+	c #E9E8E6",
"k+	c #EDECEB",
"l+	c #F0EFEF",
"m+	c #F1F0EF",
"n+	c #F4F4F3",
"o+	c #F6F6F5",
"p+	c #F6F5F4",
"q+	c #F3F2F2",
"r+	c #F1F0F0",
"s+	c #F6F6F6",
"t+	c #F2F1F1",
"u+	c #F3F2F1",
"v+	c #D2D1D0",
"w+	c #646363",
"x+	c #F2F0F0",
"y+	c #F3F0F0",
"z+	c #F4F2F0",
"A+	c #F6F4F3",
"B+	c #F9F9F8",
"C+	c #F9F8F8",
"D+	c #F5F4F4",
"E+	c #F3F3F3",
"F+	c #F5F5F5",
"G+	c #F6F5F5",
"H+	c #F4F3F3",
"I+	c #626262",
"J+	c #6D6C6C",
"K+	c #F4F3F2",
"L+	c #F8F7F6",
"M+	c #FAF9F9",
"N+	c #F9F9F9",
"O+	c #FAFAFA",
"P+	c #FBFAFA",
"Q+	c #FBFBFB",
"R+	c #F8F8F8",
"S+	c #7B7A7A",
"T+	c #7D7D7D",
"U+	c #636262",
"V+	c #FCFBFB",
"W+	c #FDFDFD",
"X+	c #9C9C9C",
"Y+	c #5B5B5B",
"Z+	c #FBFBFA",
"`+	c #EDEDEC",
" @	c #EAEAEA",
".@	c #E6E6E6",
"+@	c #949393",
"@@	c #727171",
"#@	c #6F6E6E",
"$@	c #666565",
"%@	c #646464",
"&@	c #5D5D5D",
"*@	c #706F6F",
"=@	c #727272",
"-@	c #6E6D6D",
"                                                                ",
"                                                                ",
"                                                                ",
"                                                                ",
"          . + @ # $ % & * = + @ - ; >                           ",
"          ; , ' ) ! ~ { ] ^ / ( , _ : < [                       ",
"          } / | 1 2 3 4 5 6 7 8 9 0 a b , c                     ",
"          d e f g h i j k l m 2 n o p q r s t                   ",
"          u v w i x 4 f 5 y z A B C 2 D 3 E F .                 ",
"          G H I J w K L M N z m O P Q R w S T U                 ",
"          V W 5 5 X i Y R Z `  ...P +.@.#.$.%.&.*.              ",
"          =.W -.5 x ;.X M Z x 8 >.,.'.).!.~.{.].^.              ",
"          /.Y -.x x (._.:.8 :.<.[.}.9 |.1.2.3.4.5.              ",
"          * 6.7.8.x W 9.Y y 0.<.<.a.b.c.d.e.f., =               ",
"          g.(.h.4 i.8.j.k.l.m.n.o.z N p.q.r.q.s.t.              ",
"          u.R v.;.w.w i i x.y.h z.A.B.K Y I I a.C.              ",
"          $.;.D.E.F.G.H.I.J.K.j.L.k F.M.N.O.w.R P.              ",
"          Q.R.i S.M.O.F.T.U.V.W.X.Y.Z.Z.X.`.E.(. +              ",
"          .+++(.@+S.#+$+%+&+H.*+=+-+;+Z.Z.>+V.,+'+)+            ",
"          !+~+{+]+^+J.T./+/+/+(+(+(+(+(+_+:+<+$+;+u.            ",
"            [+}+E.%+;+/+;+|+(+1+(+2+3+4+5+6+=+X.1+7+            ",
"            u.8+]+9+/+2+0+4+(+a+b+b+c+d+e+f+%+%+1+g+h+h+h+h+h+h+",
"            i+j+%+X.6+k+1+l+a+m+n+o+p+q+r+s+t+r+u+v+Q.h+h+h+h+  ",
"            w+X.a+4+x+m+y+z+A+s+B+C+s+D+s+E+q+F+G+H+I+h+h+h+    ",
"            J+2+n+H+K+c+G+L+M+M+N+N+O+P+O+O+Q+O+p R+S+T+h+      ",
"            U+o+O+N+N+N+P+O+Q+V+p V+p p p p Q+p W+W+X+T+        ",
"            Y+N+N+M+p p p p Z+Z+`+ @.@+@@@#@$@%@U++ &@          ",
"            &.@ g.*@P.=@@@-@-@-@$.@ +                           ",
"                                                                ",
"                                                                ",
"                                                                ",
"                                                                "};
