/* XPM */
static char * icon_cpu_32x32_xpm[] = {
"32 32 271 2",
"  	c None",
". 	c #294022",
"+ 	c #37592C",
"@ 	c #262B25",
"# 	c #406036",
"$ 	c #4E8B49",
"% 	c #508D49",
"& 	c #49713D",
"* 	c #45633D",
"= 	c #5A9653",
"- 	c #6B8F65",
"; 	c #727272",
"> 	c #4B4B4B",
", 	c #4B7145",
"' 	c #5B9752",
") 	c #5C8E4E",
"! 	c #425E3B",
"~ 	c #1B1B1B",
"{ 	c #5D9953",
"] 	c #5B9552",
"^ 	c #393E38",
"/ 	c #6D6D6D",
"( 	c #7E7E7E",
"_ 	c #5B5B5B",
": 	c #3C4639",
"< 	c #5B9753",
"[ 	c #639F56",
"} 	c #384B33",
"| 	c #6DA962",
"1 	c #6AA163",
"2 	c #555555",
"3 	c #858585",
"4 	c #676767",
"5 	c #3C3C3C",
"6 	c #363636",
"7 	c #353535",
"8 	c #343434",
"9 	c #3F3F3F",
"0 	c #599050",
"a 	c #609C54",
"b 	c #4D7143",
"c 	c #2C3329",
"d 	c #4F7545",
"e 	c #69A560",
"f 	c #687F66",
"g 	c #6F6F6F",
"h 	c #ACACAC",
"i 	c #9B9B9B",
"j 	c #575757",
"k 	c #4E4E4E",
"l 	c #707070",
"m 	c #3E3E3E",
"n 	c #373737",
"o 	c #393C39",
"p 	c #425C3F",
"q 	c #5C8E4F",
"r 	c #5B9251",
"s 	c #609754",
"t 	c #616161",
"u 	c #D2D2D2",
"v 	c #B1B1B1",
"w 	c #B2B2B2",
"x 	c #C7C7C7",
"y 	c #9F9F9F",
"z 	c #AEAEAE",
"A 	c #797979",
"B 	c #5D5D5D",
"C 	c #494949",
"D 	c #414141",
"E 	c #484848",
"F 	c #808080",
"G 	c #2F2F2F",
"H 	c #5C9451",
"I 	c #639D54",
"J 	c #394E33",
"K 	c #476641",
"L 	c #6DA964",
"M 	c #557B4F",
"N 	c #7D7D7D",
"O 	c #8C8C8C",
"P 	c #787878",
"Q 	c #959595",
"R 	c #B3B3B3",
"S 	c #F4F4F4",
"T 	c #CACACA",
"U 	c #CCCCCC",
"V 	c #CBCBCB",
"W 	c #818181",
"X 	c #6C6C6C",
"Y 	c #464646",
"Z 	c #323232",
"` 	c #4C7347",
" .	c #629E55",
"..	c #4C7642",
"+.	c #528E49",
"@.	c #5A974F",
"#.	c #526250",
"$.	c #A1A1A1",
"%.	c #F8F8F8",
"&.	c #6E6E6E",
"*.	c #4F4F4F",
"=.	c #8E8E8E",
"-.	c #BEBEBE",
";.	c #8B8B8B",
">.	c #939393",
",.	c #9C9C9C",
"'.	c #A8A8A8",
").	c #D4D4D4",
"!.	c #C8C8C8",
"~.	c #7F7F7F",
"{.	c #606060",
"].	c #474747",
"^.	c #3D3D3D",
"/.	c #5C5C5C",
"(.	c #868686",
"_.	c #2D2D2D",
":.	c #303E2E",
"<.	c #478441",
"[.	c #43803F",
"}.	c #131C14",
"|.	c #3F7C3C",
"1.	c #438044",
"2.	c #565856",
"3.	c #B4B4B4",
"4.	c #393939",
"5.	c #434343",
"6.	c #A2A2A2",
"7.	c #767676",
"8.	c #C6C6C6",
"9.	c #E0E0E0",
"0.	c #D3D3D3",
"a.	c #737373",
"b.	c #4A4A4A",
"c.	c #282A28",
"d.	c #262626",
"e.	c #37743B",
"f.	c #306D34",
"g.	c #141D15",
"h.	c #0F1810",
"i.	c #214A24",
"j.	c #28652C",
"k.	c #E7E9D2",
"l.	c #384C39",
"m.	c #313131",
"n.	c #3A3A3A",
"o.	c #404040",
"p.	c #444444",
"q.	c #8A8A8A",
"r.	c #777777",
"s.	c #626262",
"t.	c #7A7A7A",
"u.	c #7B7B7B",
"v.	c #747474",
"w.	c #717171",
"x.	c #8F8F8F",
"y.	c #344835",
"z.	c #B3BF9B",
"A.	c #347138",
"B.	c #29622C",
"C.	c #26602A",
"D.	c #111411",
"E.	c #000000",
"F.	c #1A2C1C",
"G.	c #1B361C",
"H.	c #2D6A31",
"I.	c #2A672E",
"J.	c #2F6C33",
"K.	c #DDE1C8",
"L.	c #303130",
"M.	c #434443",
"N.	c #9A9A9A",
"O.	c #595959",
"P.	c #333333",
"Q.	c #565656",
"R.	c #3B3B3B",
"S.	c #505050",
"T.	c #C5C5C5",
"U.	c #646564",
"V.	c #4A4B4A",
"W.	c #B0BE9B",
"X.	c #38753C",
"Y.	c #316E35",
"Z.	c #2C6930",
"`.	c #214F24",
" +	c #1D3D20",
".+	c #0D0D0D",
"++	c #204522",
"@+	c #265F29",
"#+	c #29662D",
"$+	c #2E6B32",
"%+	c #C2CBAC",
"&+	c #222522",
"*+	c #272E27",
"=+	c #666766",
"-+	c #666666",
";+	c #2A2A2A",
">+	c #272727",
",+	c #6F706F",
"'+	c #383F38",
")+	c #373A37",
"!+	c #B0BF9B",
"~+	c #3C7940",
"{+	c #39763D",
"]+	c #285C2B",
"^+	c #255B29",
"/+	c #1B381C",
"(+	c #071107",
"_+	c #0C1B0C",
":+	c #183D1B",
"<+	c #2A662E",
"[+	c #2B642F",
"}+	c #A7AB91",
"|+	c #252F25",
"1+	c #303431",
"2+	c #232323",
"3+	c #656565",
"4+	c #313532",
"5+	c #283228",
"6+	c #ABAF95",
"7+	c #3C743F",
"8+	c #3F783F",
"9+	c #245427",
"0+	c #214923",
"a+	c #123014",
"b+	c #1E4D21",
"c+	c #A7B092",
"d+	c #282E29",
"e+	c #606260",
"f+	c #AAAAAA",
"g+	c #1F211F",
"h+	c #212722",
"i+	c #AAB294",
"j+	c #357239",
"k+	c #337037",
"l+	c #225225",
"m+	c #183D1A",
"n+	c #040B05",
"o+	c #030903",
"p+	c #102A12",
"q+	c #245C27",
"r+	c #2B672F",
"s+	c #224625",
"t+	c #A6A48F",
"u+	c #323432",
"v+	c #202220",
"w+	c #A5A38F",
"x+	c #243D26",
"y+	c #346F36",
"z+	c #265F2A",
"A+	c #1C421F",
"B+	c #152215",
"C+	c #050D06",
"D+	c #153617",
"E+	c #245C28",
"F+	c #2B682F",
"G+	c #245727",
"H+	c #265929",
"I+	c #225625",
"J+	c #193F1C",
"K+	c #081508",
"L+	c #112C13",
"M+	c #1E4E21",
"N+	c #27642B",
"O+	c #215725",
"P+	c #122E14",
"Q+	c #020202",
"R+	c #010401",
"S+	c #0F2711",
"T+	c #205324",
"U+	c #183F1B",
"V+	c #0D200D",
"                                                                ",
"                                                                ",
"                                                                ",
"                                                                ",
"                                                                ",
"                                                                ",
"                                                                ",
"                              . +                               ",
"                          @ # $ % & @                           ",
"                      @ * = - ; > , ' ) !                       ",
"                    ~ { ] ^ / ( / _ : < [ }                     ",
"                } | 1 2 3 4 5 6 7 8 _ ; 9 0 a b                 ",
"            c d e f g h i j k l m n 6 4 ; o p a q c             ",
"        c r s m t u v w v x y u z A B C D E F D G H I J         ",
"    c K L M ^ N O P Q R R S T U V O W X 4 Y n ; g Z `  ...c     ",
"  +.@.#.$.%.&.n 5 *.v =.-.;.>.,.$.'.).S !.~.{.].^./.(._.:.<.[.  ",
"}.|.1.9 2.3./.7 4.5.*.6.3.g 7.(.8.).9.0.'.~.a.j b._ =.c.d.e.f.g.",
"h.i.j.f.k.l.m.l 7.6 6 4.n.o.p.q.r.s./ t.u.v.w.6.x.4.y.z.A.B.C.D.",
"E.F.G.H.I.J.K.L.M.N.O.8 P.7 6 Q.R.].S.B {.(.T.U.V.W.X.Y.Z.`. +E.",
"    E..+++@+#+$+%+&+*+=+-+_.;+>+d.>+_./ ,+'+)+!+~+{+]+^+/+(+    ",
"        E._+:+j.<+[+}+|+1+g 7.d.2+{.3+4+5+6+7+8+J.9+0+E.        ",
"            E.a+b+j.#+Z.c+d+e+f+3+g+h+i+j+k+H.l+m+n+            ",
"              E.o+p+q+#+r+s+t+u+v+w+x+y+Z.z+A+B+E.              ",
"                  E.C+D+E+j.F+G+H+Z.j.I+J+K+E.                  ",
"                      E.L+M+j.j.j.N+O+P+Q+                      ",
"                          R+S+T+U+V+R+                          ",
"                              E.E.                              ",
"                                                                ",
"                                                                ",
"                                                                ",
"                                                                ",
"                                                                "};
