/* XPM */
static char * icon_device_character_20x20_xpm[] = {
"20 20 87 1",
" 	c None",
".	c #4B4747",
"+	c #7E7E7E",
"@	c #615D5D",
"#	c #474040",
"$	c #444141",
"%	c #B7B6B6",
"&	c #E1E1E1",
"*	c #D0CFCF",
"=	c #767373",
"-	c #4D4747",
";	c #474444",
">	c #B5B4B4",
",	c #E0DFDF",
"'	c #D6D6D6",
")	c #D8D8D8",
"!	c #CCCBCB",
"~	c #797777",
"{	c #4C4646",
"]	c #464343",
"^	c #ACACAC",
"/	c #DEDEDE",
"(	c #D5D5D5",
"_	c #C4C3C3",
":	c #6A6666",
"<	c #4A4343",
"[	c #4C4949",
"}	c #C8C8C8",
"|	c #DDDDDD",
"1	c #D4D3D3",
"2	c #807D7D",
"3	c #484242",
"4	c #5A5757",
"5	c #BCBCBC",
"6	c #E0E0E0",
"7	c #D2D2D2",
"8	c #767272",
"9	c #5A5858",
"0	c #BEBDBD",
"a	c #DFDFDF",
"b	c #070707",
"c	c #888585",
"d	c #504949",
"e	c #C7C7C7",
"f	c #CFCFCF",
"g	c #373131",
"h	c #777676",
"i	c #DCDCDC",
"j	c #AAA9A9",
"k	c #423F3F",
"l	c #514D4D",
"m	c #B0B0B0",
"n	c #D3D3D3",
"o	c #C5C5C5",
"p	c #575656",
"q	c #3C3737",
"r	c #726F6F",
"s	c #AFAFAF",
"t	c #7F7F7F",
"u	c #4A4646",
"v	c #4F4B4B",
"w	c #B1B0B0",
"x	c #CACACA",
"y	c #727272",
"z	c #B2B1B1",
"A	c #848484",
"B	c #373636",
"C	c #828181",
"D	c #555252",
"E	c #A9A9A9",
"F	c #D4D4D4",
"G	c #C4C4C4",
"H	c #787777",
"I	c #3C3B3B",
"J	c #797979",
"K	c #ABAAAA",
"L	c #696868",
"M	c #A6A4A4",
"N	c #C9C8C8",
"O	c #7B7B7B",
"P	c #313030",
"Q	c #7A7A7A",
"R	c #7C7C7C",
"S	c #4B4949",
"T	c #696767",
"U	c #4A4949",
"V	c #353434",
"                    ",
"        .+@#        ",
"       $%&*=-       ",
"      ;>,')!~{      ",
"     ]^/'(('_:<     ",
"    [}|((((('123    ",
"   456'(((((''783   ",
"  90a(((bbb(''(!cd  ",
" [e|'((b(((b'''(f=g ",
" hi'(((b((((''''(jk ",
" lmn(((b(((('''(opq ",
"  rsn((b(((b''(etu  ",
"   vw(((bbb('(xyu   ",
"    @z7((((((}ABC   ",
"     DEF((((GHIJtt+ ",
"      [K7((GLIJttttt",
"       [M*NOPQt+R   ",
"        STUVR+      ",
"                    ",
"                    "};
