/* XPM */
static char * icon_uninstall_32x32_xpm[] = {
"32 32 302 2",
"  	c None",
". 	c #5B5B5B",
"+ 	c #5F5E5E",
"@ 	c #6B6B69",
"# 	c #838383",
"$ 	c #707070",
"% 	c #B5B2AE",
"& 	c #CDCAC6",
"* 	c #D3D0CC",
"= 	c #B1B0AF",
"- 	c #D0CFCC",
"; 	c #474747",
"> 	c #676766",
", 	c #CFCCC8",
"' 	c #CDCAC8",
") 	c #F5F5F4",
"! 	c #ADAAA8",
"~ 	c #6C6C6C",
"{ 	c #D4D1CE",
"] 	c #CFCCC9",
"^ 	c #8F8E8E",
"/ 	c #F0EFEE",
"( 	c #ABA9A8",
"_ 	c #3A3A3A",
": 	c #C8C5C1",
"< 	c #CECBC7",
"[ 	c #D1CFCE",
"} 	c #5D5C5C",
"| 	c #E2E1DF",
"1 	c #D9D6D3",
"2 	c #787777",
"3 	c #676767",
"4 	c #5A5A5A",
"5 	c #5D5C5B",
"6 	c #D5D3D1",
"7 	c #DDDAD9",
"8 	c #DBD8D7",
"9 	c #D7D4D1",
"0 	c #9D9B9A",
"a 	c #9F9E9D",
"b 	c #626160",
"c 	c #D4D1CD",
"d 	c #585656",
"e 	c #D5D5D5",
"f 	c #DEDCDA",
"g 	c #DBD9D7",
"h 	c #E3E1E1",
"i 	c #E4E2E2",
"j 	c #E8E5E5",
"k 	c #E9E8E6",
"l 	c #6D6D6D",
"m 	c #3F3F3F",
"n 	c #B3B3B2",
"o 	c #E7E6E4",
"p 	c #ECEAE8",
"q 	c #ECEBE9",
"r 	c #E7E6E3",
"s 	c #8B8A88",
"t 	c #DCD9D6",
"u 	c #DCDAD8",
"v 	c #DAD7D5",
"w 	c #C0BEBB",
"x 	c #E4E2E1",
"y 	c #969492",
"z 	c #E6E6E3",
"A 	c #E9E7E5",
"B 	c #E7E5E3",
"C 	c #EDEBE9",
"D 	c #DFDFDE",
"E 	c #747473",
"F 	c #EDEBEB",
"G 	c #ECEAE9",
"H 	c #EEEEEE",
"I 	c #6B6A6A",
"J 	c #E3E1DF",
"K 	c #E8E8E6",
"L 	c #E9E7E6",
"M 	c #EEEDEB",
"N 	c #EFEDEC",
"O 	c #F4F2F2",
"P 	c #F4F3F3",
"Q 	c #F7F6F6",
"R 	c #C4C1BD",
"S 	c #D1CECB",
"T 	c #D20707",
"U 	c #910707",
"V 	c #6F6D6B",
"W 	c #F2F0EF",
"X 	c #F5F5F5",
"Y 	c #F5F4F4",
"Z 	c #FBFAFA",
"` 	c #F7F6F4",
" .	c #6E6E6E",
"..	c #E5E3E2",
"+.	c #BF0707",
"@.	c #FEBDBD",
"#.	c #E63636",
"$.	c #880000",
"%.	c #E5E1E0",
"&.	c #EDECEC",
"*.	c #EFEEEC",
"=.	c #F4F3F2",
"-.	c #F2F2F0",
";.	c #F7F7F6",
">.	c #FBFBFB",
",.	c #FAF9F9",
"'.	c #F4F4F4",
").	c #757575",
"!.	c #D1CFCC",
"~.	c #D8D5D2",
"{.	c #BD0707",
"].	c #FE9F9F",
"^.	c #FE7373",
"/.	c #F50C0C",
"(.	c #C20000",
"_.	c #800000",
":.	c #605B59",
"<.	c #B5B3B2",
"[.	c #F9F8F7",
"}.	c #F8F8F7",
"|.	c #F2F2F2",
"1.	c #6A6A6A",
"2.	c #C40C0C",
"3.	c #FEAAAA",
"4.	c #FE7474",
"5.	c #FB1E1E",
"6.	c #F20505",
"7.	c #E10000",
"8.	c #BE0000",
"9.	c #840000",
"0.	c #726E6D",
"a.	c #F8F7F7",
"b.	c #F6F4F3",
"c.	c #F9F9F8",
"d.	c #F9F9F9",
"e.	c #C8C8C7",
"f.	c #5C5C5C",
"g.	c #4E4E4E",
"h.	c #D7D4D3",
"i.	c #DD1010",
"j.	c #FEA7A7",
"k.	c #F85858",
"l.	c #F70E0E",
"m.	c #EE0707",
"n.	c #D40505",
"o.	c #C10000",
"p.	c #B20000",
"q.	c #7F0000",
"r.	c #6C6A69",
"s.	c #727271",
"t.	c #6D6C6C",
"u.	c #656564",
"v.	c #D10000",
"w.	c #FE8A8A",
"x.	c #FE5353",
"y.	c #EF0E0E",
"z.	c #F10303",
"A.	c #EB0505",
"B.	c #CC0000",
"C.	c #B50000",
"D.	c #AD0000",
"E.	c #A70000",
"F.	c #950000",
"G.	c #6F0000",
"H.	c #F3F3F3",
"I.	c #919090",
"J.	c #830000",
"K.	c #AE2024",
"L.	c #B70000",
"M.	c #B90000",
"N.	c #BF0000",
"O.	c #EF0F0F",
"P.	c #D40000",
"Q.	c #8D0000",
"R.	c #7B0000",
"S.	c #7A0000",
"T.	c #720000",
"U.	c #650000",
"V.	c #525252",
"W.	c #575757",
"X.	c #585858",
"Y.	c #555555",
"Z.	c #EBEAE9",
"`.	c #565553",
" +	c #BD0000",
".+	c #EF1212",
"++	c #C80000",
"@+	c #4D4D4D",
"#+	c #484848",
"$+	c #4F4F4F",
"%+	c #3B3B3B",
"&+	c #363636",
"*+	c #444444",
"=+	c #F0F0F0",
"-+	c #E5E5E5",
";+	c #6B6A69",
">+	c #EFEEED",
",+	c #EEEDEC",
"'+	c #EF0C0C",
")+	c #780000",
"!+	c #F6F4F4",
"~+	c #B2B2B1",
"{+	c #DADADA",
"]+	c #D6D6D6",
"^+	c #C6C6C6",
"/+	c #B1B1B1",
"(+	c #373737",
"_+	c #2D2D2D",
":+	c #EAEAEA",
"<+	c #DDDDDD",
"[+	c #DEDEDE",
"}+	c #D7D7D7",
"|+	c #F3F1F1",
"1+	c #B10000",
"2+	c #DF0A0A",
"3+	c #C30000",
"4+	c #760000",
"5+	c #C7C7C7",
"6+	c #CACACA",
"7+	c #C3C3C3",
"8+	c #A8A8A8",
"9+	c #464646",
"0+	c #929292",
"a+	c #3C3C3C",
"b+	c #565656",
"c+	c #F8F8F8",
"d+	c #EFEFEF",
"e+	c #656362",
"f+	c #F5F4F3",
"g+	c #F5E8E8",
"h+	c #C70000",
"i+	c #AF0000",
"j+	c #F4F4F3",
"k+	c #F3F3F2",
"l+	c #E9E9E9",
"m+	c #EBEBEB",
"n+	c #8B8B8B",
"o+	c #939393",
"p+	c #323232",
"q+	c #535353",
"r+	c #F1F1F1",
"s+	c #CCCCCC",
"t+	c #C9C9C9",
"u+	c #C8C8C8",
"v+	c #62615F",
"w+	c #F6F5F4",
"x+	c #890000",
"y+	c #8A0000",
"z+	c #C4C4C4",
"A+	c #C2C2C2",
"B+	c #8E8E8E",
"C+	c #545454",
"D+	c #E6E6E6",
"E+	c #C5C5C5",
"F+	c #747372",
"G+	c #F3F2F0",
"H+	c #F6F6F6",
"I+	c #787878",
"J+	c #616161",
"K+	c #909090",
"L+	c #DBDBDB",
"M+	c #6E6E6D",
"N+	c #C4C9C4",
"O+	c #47EA47",
"P+	c #19F719",
"Q+	c #48EA48",
"R+	c #3E3E3E",
"S+	c #5F5F5F",
"T+	c #D8D8D8",
"U+	c #C1C1C1",
"V+	c #383838",
"W+	c #A4A4A4",
"X+	c #858585",
"Y+	c #868686",
"Z+	c #878787",
"`+	c #818181",
" @	c #454545",
".@	c #646464",
"+@	c #7F7F7F",
"@@	c #AFAFAF",
"#@	c #9C9C9C",
"$@	c #9D9D9D",
"%@	c #9B9B9B",
"&@	c #9E9E9E",
"*@	c #9F9F9F",
"=@	c #959595",
"-@	c #515151",
";@	c #616261",
">@	c #656665",
",@	c #303030",
"'@	c #969696",
")@	c #9A9A9A",
"!@	c #979797",
"~@	c #5E615E",
"{@	c #353635",
"]@	c #686868",
"^@	c #ADADAD",
"/@	c #989898",
"(@	c #333333",
"_@	c #4A4A4A",
":@	c #353535",
"<@	c #2E2E2E",
"                                  .   +   @   #   $             ",
"                                    %   &   *   =   - ;         ",
"                                  >   &   ,   '   )   !         ",
"                    .   +   @   # ~ &   {   ]   ^   /   ( _     ",
"                    . % : & < * [ } | 1 ; {   {   2   3   4     ",
"                    >   &   ,   ' 5 6   7   8   9   0   a b     ",
"                    ~ & c { { ] ] d e f g h _ i   j   k   l     ",
"                    }   1   {   { m n   o   k   p   q   r s     ",
"                    5 6 t 7 u 8 v 9 w x y z b A   B   C   D     ",
"              . . + d @ f # h $ i   E   q   F   G   G   H   I   ",
"              . % : m n J o K k L p p G C M s N   O   P   Q     ",
"              > R & S , x ' T U A ! V   W   O   X   Y   Z   `  .",
"              ~ & c { E ..+.@.#.$.%.G &.*.=.-.;.  >.  ,.  '.  ).",
"              } !.1 ~.{ {.].^./.(._.:.<.[.  ;.  }.  }.  )   |.1.",
"              5 6 t 7 2.3.4.5.6.7.8.9.0.a.b.c.d. .e.  1.  f.  g.",
"              d h.f i.j.k.l.m.n.o.(.p.q.r.s.t.3 u.f.            ",
"              m n v.w.x.y.z.A.B.C.D.E.F.G.) H.|.1.              ",
"                I.J.K.L.M.N.O.P.Q.R.S.T.U.  f.  g.              ",
"      V.V.W.X.Y.E ..q Z.`. +.+++_.u.f.-.I @+@+@+#+$+V.g.%+&+*+  ",
"    $+H.H X =+-+;+G >+M ,+ +'+P.)+P !+Q ~+{+{+{+{+e ]+^+/+(+_+  ",
"  #+>.:+<+[+}+}+V o W |+O 1+2+3+4+a.Z c.`  .5+5+6+6+7+8+9+0+a+  ",
"b+d.c+|.H d+|.'.e+&.f+=.g+J.h+i+G.,.j+'.k+).'.'.'.l+m+#+n+o+p+  ",
"q+r+s+t+t+u+u+t+v+<.[.w+;.w+x+y+}.Y ) H.|.1.t+t+t+z+A+m B+o+a+  ",
"C+D+s+5+z+E+^+^+E+F+G+b.` d.H+e.I+1.J+f.f.g.7+E+5+A+^+m K+o+a+  ",
"C+L+A+7+z+7+7+7+7+`.M+s.t.3 u.f.7+E+E+E+E+N+O+P+Q+z+z+R+K+o+a+  ",
"C+{+u+z+7+7+E+E+E+E+A+A+7+7+7+7+7+7+7+7+E+^+^+z+^+E+6+a+K+S+%+  ",
"Y.T+u+^+u+t+t+t+t+t+t+t+t+t+t+t+t+t+t+t+t+t+t+t+t+t+U+%+f.~ V+  ",
"q+W+X+Y+X+X+X+X+X+Y+X+X+Y+Z+Y+Y+Y+Y+Z+X+Y+Y+X+Y+Y+X+`+ @ ..@%++@",
"$+@@#@$@%@#@#@#@&@&@#@#@#@$@$@$@$@$@*@$@$@#@#@&@$@=@0+-@;@>@,@+@",
"b+W+'@%@#@$@&@#@#@#@%@%@%@)@%@%@%@#@#@#@#@#@%@#@#@!@0+; ~@{@]@  ",
"V.^@!@/@!@'@'@'@'@'@'@'@'@'@'@'@o+o+o+o+o+o+o+!@=@K+0+V+(@3     ",
"  _@:@V+V+V+V+V+V+V+a+V+V+V+V+V+V+V+V+V+V+V+V+V+V+V+:@<@]@      "};
