/* XPM */
static char * icon_drive_root_20x20_xpm[] = {
"20 20 48 1",
" 	c None",
".	c #5F5F5F",
"+	c #606060",
"@	c #FFFFFF",
"#	c #F4F4F4",
"$	c #E3E3E3",
"%	c #8F8F8F",
"&	c #393939",
"*	c #DCDCDC",
"=	c #D8D8D8",
"-	c #D9D9D9",
";	c #D4D4D4",
">	c #A1A1A1",
",	c #7F7F7F",
"'	c #3E3E3E",
")	c #DDDDDD",
"!	c #BCBCBC",
"~	c #7D7D7D",
"{	c #3F3F3F",
"]	c #6D6D6D",
"^	c #C1C1C1",
"/	c #EBEBEB",
"(	c #7B7B7B",
"_	c #797979",
":	c #7A7A7A",
"<	c #7C7C7C",
"[	c #6F6F6F",
"}	c #B8B8B8",
"|	c #D3D3D3",
"1	c #C8C8C8",
"2	c #8E8E8E",
"3	c #BEBEBE",
"4	c #CACACA",
"5	c #335D38",
"6	c #36763E",
"7	c #4B5D41",
"8	c #59623C",
"9	c #C1AA90",
"0	c #E9AB69",
"a	c #D84747",
"b	c #D0B7B7",
"c	c #818181",
"d	c #3B3B3B",
"e	c #616161",
"f	c #878787",
"g	c #898989",
"h	c #8B8B8B",
"i	c #626262",
"     .++++++++++    ",
"    +@########$%&   ",
"   +@*======-;>,'   ",
"   +#@######)!~%{   ",
"   +#]^^^^^^/^(%{   ",
"   +#_((((((/^(%{   ",
"   +#:^^^^^^/^(%{   ",
"   +#<((((((/^(%{   ",
"   +#:^^^^^^/^(%{   ",
"   +#[((((((/^(%{   ",
"   +#}######/^(%{   ",
"   +#|----1223(%{   ",
"   +#)4444256/(%{   ",
"   +#=^^^^278/(%{,  ",
"   +#=^^^^290/(%{,, ",
"   +#=^^^^2^^/(%{,,,",
"   +#=^^^^2ab#(cd,,,",
"   +#=^^^^2/#4(e{,, ",
"   +^2ffff(ghfi{,,  ",
"   {{{{{{{{{{{{,    "};
