/* XPM */
static char * icon_planet_32x32_xpm[] = {
"32 32 698 2",
"  	c None",
". 	c #9DA69F",
"+ 	c #A4ADA7",
"@ 	c #A7B5B2",
"# 	c #A3B1AB",
"$ 	c #98A59F",
"% 	c #909F97",
"& 	c #8C948E",
"* 	c #767D76",
"= 	c #9DA297",
"- 	c #92998C",
"; 	c #ACB6AB",
"> 	c #A8B6AB",
", 	c #9EAD9F",
"' 	c #778678",
") 	c #4C5F5E",
"! 	c #6C7E7A",
"~ 	c #4A5C58",
"{ 	c #6B786F",
"] 	c #CAD3CA",
"^ 	c #DBE1DB",
"/ 	c #BCC8BC",
"( 	c #787C6F",
"_ 	c #788477",
": 	c #7B8B80",
"< 	c #85978B",
"[ 	c #4E6054",
"} 	c #506359",
"| 	c #4D5C54",
"1 	c #556B63",
"2 	c #A1AFA7",
"3 	c #96A49C",
"4 	c #8C998D",
"5 	c #CBD4CB",
"6 	c #E4EAE4",
"7 	c #E3EBE3",
"8 	c #DDE0D9",
"9 	c #A9AB9F",
"0 	c #87918C",
"a 	c #4C5D50",
"b 	c #354844",
"c 	c #2F4442",
"d 	c #324946",
"e 	c #39504E",
"f 	c #253E3F",
"g 	c #253A3F",
"h 	c #71837D",
"i 	c #ADBDB2",
"j 	c #B2C0BA",
"k 	c #D9E0D8",
"l 	c #CAD2C8",
"m 	c #D0D8D0",
"n 	c #C0C9C0",
"o 	c #C2CCC2",
"p 	c #DDE5DC",
"q 	c #D5DBD1",
"r 	c #B6BDAF",
"s 	c #7C7F72",
"t 	c #475752",
"u 	c #334842",
"v 	c #243C3C",
"w 	c #2D4443",
"x 	c #253D3B",
"y 	c #273F37",
"z 	c #3A524B",
"A 	c #2D4341",
"B 	c #6E7E76",
"C 	c #4E6052",
"D 	c #506258",
"E 	c #9CA79B",
"F 	c #CCD4CA",
"G 	c #E3E9E3",
"H 	c #D5DCD5",
"I 	c #E0E5E0",
"J 	c #E5EBE5",
"K 	c #EDF2ED",
"L 	c #E8ECE5",
"M 	c #CDCDC0",
"N 	c #1C2E26",
"O 	c #253A34",
"P 	c #243C37",
"Q 	c #263E3B",
"R 	c #284040",
"S 	c #28403F",
"T 	c #294139",
"U 	c #3F5348",
"V 	c #3E5349",
"W 	c #3B4F45",
"X 	c #3E5047",
"Y 	c #32443A",
"Z 	c #485742",
"` 	c #737966",
" .	c #E0E2DB",
"..	c #F3F6F3",
"+.	c #F5F8F5",
"@.	c #E4E9E6",
"#.	c #EAECE9",
"$.	c #F6F6F5",
"%.	c #ECEDEA",
"&.	c #D5DAD2",
"*.	c #B8B7A9",
"=.	c #6D6F62",
"-.	c #1E2F26",
";.	c #1E332C",
">.	c #213A36",
",.	c #223A39",
"'.	c #283E3D",
").	c #263C3E",
"!.	c #293F3D",
"~.	c #374C42",
"{.	c #4D604F",
"].	c #536554",
"^.	c #566451",
"/.	c #5D6857",
"(.	c #5D6C57",
"_.	c #646B56",
":.	c #C2C7BA",
"<.	c #E0E5DC",
"[.	c #CBD1C7",
"}.	c #949C8D",
"|.	c #919787",
"1.	c #B1B1A2",
"2.	c #BAB7A9",
"3.	c #B2AE9D",
"4.	c #A4A291",
"5.	c #B4B19D",
"6.	c #202B27",
"7.	c #1F302D",
"8.	c #203633",
"9.	c #213834",
"0.	c #223636",
"a.	c #213938",
"b.	c #20383A",
"c.	c #20393A",
"d.	c #33483E",
"e.	c #41503F",
"f.	c #566552",
"g.	c #67735F",
"h.	c #596451",
"i.	c #6C7865",
"j.	c #727E6B",
"k.	c #6A7364",
"l.	c #646F60",
"m.	c #556354",
"n.	c #606D5A",
"o.	c #6B7460",
"p.	c #9B9B86",
"q.	c #C5BDAA",
"r.	c #ACA38B",
"s.	c #B0AD9E",
"t.	c #D0C9B2",
"u.	c #ABA38F",
"v.	c #202C2B",
"w.	c #1D302E",
"x.	c #1F3430",
"y.	c #203431",
"z.	c #20332F",
"A.	c #1F3836",
"B.	c #243B35",
"C.	c #33493E",
"D.	c #3D5147",
"E.	c #37493F",
"F.	c #44564C",
"G.	c #46584B",
"H.	c #4B5D51",
"I.	c #606E5C",
"J.	c #536352",
"K.	c #334841",
"L.	c #314741",
"M.	c #364B43",
"N.	c #76857A",
"O.	c #6E796E",
"P.	c #646F62",
"Q.	c #BBB79E",
"R.	c #BFB59C",
"S.	c #AEAB9D",
"T.	c #D2D1C3",
"U.	c #C6BDAA",
"V.	c #202827",
"W.	c #202C2E",
"X.	c #1D2E2C",
"Y.	c #1C3131",
"Z.	c #203332",
"`.	c #1F3331",
" +	c #203834",
".+	c #324636",
"++	c #475645",
"@+	c #35473E",
"#+	c #1F3635",
"$+	c #243939",
"%+	c #2C423E",
"&+	c #2B4340",
"*+	c #506259",
"=+	c #3E4F45",
"-+	c #4C5848",
";+	c #818A7A",
">+	c #ADB7AD",
",+	c #C9CCC8",
"'+	c #ABB0A0",
")+	c #546150",
"!+	c #8E8F7A",
"~+	c #A39A80",
"{+	c #A4A18F",
"]+	c #ABB0A2",
"^+	c #AEAF9F",
"/+	c #93967F",
"(+	c #202928",
"_+	c #20282E",
":+	c #1F2E31",
"<+	c #1F3337",
"[+	c #1F3437",
"}+	c #1D3436",
"|+	c #203632",
"1+	c #2A4239",
"2+	c #374B40",
"3+	c #364940",
"4+	c #31463F",
"5+	c #304441",
"6+	c #293E41",
"7+	c #253D40",
"8+	c #2C4142",
"9+	c #273E3D",
"0+	c #48594E",
"a+	c #748375",
"b+	c #8A9587",
"c+	c #B2AE9C",
"d+	c #AEAD96",
"e+	c #878671",
"f+	c #A39F89",
"g+	c #ACA68D",
"h+	c #AEA791",
"i+	c #9F9B86",
"j+	c #757865",
"k+	c #6F7866",
"l+	c #212A21",
"m+	c #1E2C28",
"n+	c #1E2A2E",
"o+	c #1F2F30",
"p+	c #1F3237",
"q+	c #1F3138",
"r+	c #1E3238",
"s+	c #31443D",
"t+	c #566054",
"u+	c #8A8A72",
"v+	c #9D987C",
"w+	c #B5AD95",
"x+	c #908E78",
"y+	c #2A3F3D",
"z+	c #1F363C",
"A+	c #263C41",
"B+	c #273F40",
"C+	c #1D383E",
"D+	c #1F3C3C",
"E+	c #5C6A5E",
"F+	c #CDC6A9",
"G+	c #CAC1AA",
"H+	c #A79F88",
"I+	c #A49D85",
"J+	c #A79C85",
"K+	c #B8AE92",
"L+	c #B7B196",
"M+	c #A4A189",
"N+	c #6D745D",
"O+	c #374739",
"P+	c #202A20",
"Q+	c #173029",
"R+	c #173030",
"S+	c #1E3030",
"T+	c #1E3336",
"U+	c #213436",
"V+	c #324342",
"W+	c #6A725C",
"X+	c #8F8C75",
"Y+	c #B1A890",
"Z+	c #BDB296",
"`+	c #CFC2A5",
" @	c #C1B69B",
".@	c #91907C",
"+@	c #5D635A",
"@@	c #7F8575",
"#@	c #9BA293",
"$@	c #788179",
"%@	c #6A7565",
"&@	c #A2A290",
"*@	c #C8BCA4",
"=@	c #DFD1B6",
"-@	c #D7CFB5",
";@	c #82826D",
">@	c #8C8E7B",
",@	c #9E9E89",
"'@	c #969A83",
")@	c #8C917D",
"!@	c #666B59",
"~@	c #314538",
"{@	c #202A21",
"]@	c #163129",
"^@	c #173130",
"/@	c #1F3032",
"(@	c #203537",
"_@	c #4E5D4A",
":@	c #95937D",
"<@	c #ACA18C",
"[@	c #B1A488",
"}@	c #B8AB94",
"|@	c #AEA188",
"1@	c #BCB095",
"2@	c #B8AA8E",
"3@	c #C6B59A",
"4@	c #C3BC9E",
"5@	c #E7DEC6",
"6@	c #EBE2C8",
"7@	c #E8E2C9",
"8@	c #D5CFB7",
"9@	c #8F8A77",
"0@	c #A29D89",
"a@	c #C3B99E",
"b@	c #D7CFB0",
"c@	c #C5C6B0",
"d@	c #7A8471",
"e@	c #687563",
"f@	c #2C413C",
"g@	c #2C453D",
"h@	c #4E5E4F",
"i@	c #2D4235",
"j@	c #1C3129",
"k@	c #1D332E",
"l@	c #1E3331",
"m@	c #213839",
"n@	c #888B76",
"o@	c #ABA38A",
"p@	c #A99E87",
"q@	c #B2A68C",
"r@	c #B9AE95",
"s@	c #A99E86",
"t@	c #A69C84",
"u@	c #A99D83",
"v@	c #CCBCA3",
"w@	c #C5BBA1",
"x@	c #E8DCC7",
"y@	c #D6CCB1",
"z@	c #DED8BA",
"A@	c #DFDAC0",
"B@	c #95917D",
"C@	c #676E5B",
"D@	c #ACA789",
"E@	c #D5CCAC",
"F@	c #DFD9C2",
"G@	c #B9B7A3",
"H@	c #394D4C",
"I@	c #1F373C",
"J@	c #374C44",
"K@	c #324339",
"L@	c #212B24",
"M@	c #1F332D",
"N@	c #1F3431",
"O@	c #273934",
"P@	c #969177",
"Q@	c #ABA185",
"R@	c #ADA588",
"S@	c #B1A98C",
"T@	c #BBB395",
"U@	c #BBB192",
"V@	c #BAAE8F",
"W@	c #C6B89A",
"X@	c #C9BA9B",
"Y@	c #C3B89A",
"Z@	c #BEAE92",
"`@	c #D0C1A3",
" #	c #D9CDAC",
".#	c #DDD2B5",
"+#	c #BBB095",
"@#	c #6A705A",
"##	c #828472",
"$#	c #C7BEA3",
"%#	c #E6DEC1",
"&#	c #E1D8BE",
"*#	c #909688",
"=#	c #253B3E",
"-#	c #1F363F",
";#	c #233B41",
">#	c #2C3F3E",
",#	c #1F2D24",
"'#	c #21352F",
")#	c #1C3330",
"!#	c #1F3632",
"~#	c #38453B",
"{#	c #8E846B",
"]#	c #9F9479",
"^#	c #B7AA8E",
"/#	c #B4A689",
"(#	c #C2B498",
"_#	c #BAAF8F",
":#	c #CAC1A4",
"<#	c #CDC3A9",
"[#	c #AFA88A",
"}#	c #BEAD90",
"|#	c #CCBC9D",
"1#	c #DBCEAF",
"2#	c #D8CDAE",
"3#	c #CCBE9F",
"4#	c #98947B",
"5#	c #4D584D",
"6#	c #96947E",
"7#	c #D9CAAC",
"8#	c #B0A68C",
"9#	c #30403F",
"0#	c #1D343C",
"a#	c #1F363D",
"b#	c #213943",
"c#	c #253C3E",
"d#	c #1E2E29",
"e#	c #203730",
"f#	c #1C3432",
"g#	c #243A39",
"h#	c #31453F",
"i#	c #565F46",
"j#	c #6D6E55",
"k#	c #898268",
"l#	c #9B8C70",
"m#	c #AC9A7E",
"n#	c #B3A487",
"o#	c #B7AB8D",
"p#	c #D0CBAE",
"q#	c #D8D7C4",
"r#	c #D5D4C2",
"s#	c #CABB9E",
"t#	c #C7B89A",
"u#	c #CFBFA2",
"v#	c #C8B89B",
"w#	c #AC9C7D",
"x#	c #9B8F71",
"y#	c #6E6953",
"z#	c #646750",
"A#	c #737768",
"B#	c #3A4A45",
"C#	c #1D383B",
"D#	c #1E383F",
"E#	c #1F3339",
"F#	c #1D373F",
"G#	c #1E3536",
"H#	c #202D25",
"I#	c #1F332E",
"J#	c #1F3533",
"K#	c #243B3B",
"L#	c #273E3A",
"M#	c #394F3D",
"N#	c #4E5C47",
"O#	c #686C53",
"P#	c #877E64",
"Q#	c #9C8F75",
"R#	c #A5987F",
"S#	c #BDB195",
"T#	c #C2B79B",
"U#	c #BCB097",
"V#	c #BFB39B",
"W#	c #B4A489",
"X#	c #AB9A7F",
"Y#	c #B29F83",
"Z#	c #AC9C81",
"`#	c #898266",
" $	c #6C6A50",
".$	c #6C6B54",
"+$	c #686B54",
"@$	c #656758",
"#$	c #666C5B",
"$$	c #1E373A",
"%$	c #1E363C",
"&$	c #1D333A",
"*$	c #18343F",
"=$	c #1B3035",
"-$	c #22322D",
";$	c #1F3432",
">$	c #213A38",
",$	c #253C3C",
"'$	c #324841",
")$	c #3B5141",
"!$	c #55634C",
"~$	c #6D735A",
"{$	c #707058",
"]$	c #7C7C62",
"^$	c #908C72",
"/$	c #948B71",
"($	c #847D63",
"_$	c #757054",
":$	c #69684E",
"<$	c #76745B",
"[$	c #847C61",
"}$	c #746E55",
"|$	c #62664F",
"1$	c #565D46",
"2$	c #616A51",
"3$	c #6D7257",
"4$	c #887E68",
"5$	c #535747",
"6$	c #1A373A",
"7$	c #1C3338",
"8$	c #193239",
"9$	c #19323A",
"0$	c #21302D",
"a$	c #1D322E",
"b$	c #1D3735",
"c$	c #20383C",
"d$	c #29423F",
"e$	c #324942",
"f$	c #465A4A",
"g$	c #5D6D5B",
"h$	c #667560",
"i$	c #63715C",
"j$	c #6F765E",
"k$	c #686B53",
"l$	c #5B624A",
"m$	c #58614A",
"n$	c #4D5A42",
"o$	c #4A5A42",
"p$	c #596048",
"q$	c #5C614A",
"r$	c #56614B",
"s$	c #55644B",
"t$	c #5B634B",
"u$	c #707358",
"v$	c #6D6E59",
"w$	c #2E413C",
"x$	c #1C3339",
"y$	c #1B3137",
"z$	c #183237",
"A$	c #1F2E2B",
"B$	c #1D312D",
"C$	c #26403E",
"D$	c #28403E",
"E$	c #354C48",
"F$	c #42584F",
"G$	c #4C6454",
"H$	c #576C58",
"I$	c #4D5F48",
"J$	c #445840",
"K$	c #455A41",
"L$	c #44583D",
"M$	c #375237",
"N$	c #3B5237",
"O$	c #47563E",
"P$	c #5B644D",
"Q$	c #696F59",
"R$	c #6C6D58",
"S$	c #575F4C",
"T$	c #29403B",
"U$	c #1A3339",
"V$	c #1D313A",
"W$	c #1E2F36",
"X$	c #1B2E2F",
"Y$	c #202825",
"Z$	c #1C2B2A",
"`$	c #1F2D2E",
" %	c #213431",
".%	c #243B39",
"+%	c #2A4140",
"@%	c #2C4545",
"#%	c #2E4843",
"$%	c #314F44",
"%%	c #3D5748",
"&%	c #576E5A",
"*%	c #3B553C",
"=%	c #355139",
"-%	c #314D31",
";%	c #2E4F32",
">%	c #2F4D31",
",%	c #455B41",
"'%	c #485C43",
")%	c #4B5D45",
"!%	c #586451",
"~%	c #32473C",
"{%	c #1C3B3D",
"]%	c #18313A",
"^%	c #1B2E35",
"/%	c #1C2F33",
"(%	c #202B23",
"_%	c #202E2C",
":%	c #1F312D",
"<%	c #1E3834",
"[%	c #1F3939",
"}%	c #263C40",
"|%	c #264040",
"1%	c #364F44",
"2%	c #4A5F4F",
"3%	c #3E5543",
"4%	c #304F33",
"5%	c #2B4A2D",
"6%	c #2E4C30",
"7%	c #365237",
"8%	c #516B53",
"9%	c #4D6149",
"0%	c #4F5E48",
"a%	c #37493D",
"b%	c #1E363B",
"c%	c #1C343A",
"d%	c #1E333A",
"e%	c #1E3138",
"f%	c #1C3038",
"g%	c #212623",
"h%	c #1C2B23",
"i%	c #202B25",
"j%	c #202C2C",
"k%	c #18312F",
"l%	c #1A3336",
"m%	c #1E3538",
"n%	c #203A3E",
"o%	c #263F3D",
"p%	c #2E4238",
"q%	c #3C5443",
"r%	c #355338",
"s%	c #2E4C31",
"t%	c #314F34",
"u%	c #385338",
"v%	c #3E583E",
"w%	c #435E44",
"x%	c #3F5A43",
"y%	c #284332",
"z%	c #243D3C",
"A%	c #243C3D",
"B%	c #22353B",
"C%	c #1F2E34",
"D%	c #202A22",
"E%	c #20292B",
"F%	c #1F292C",
"G%	c #1D3332",
"H%	c #1E3532",
"I%	c #1E342D",
"J%	c #344C3E",
"K%	c #334E3B",
"L%	c #314F35",
"M%	c #3E563E",
"N%	c #3E5A42",
"O%	c #3D5B42",
"P%	c #3F5A44",
"Q%	c #274132",
"R%	c #273F34",
"S%	c #324A46",
"T%	c #545D5D",
"U%	c #7F7F7F",
"V%	c #1D2823",
"W%	c #202923",
"X%	c #202A24",
"Y%	c #1D2D2B",
"Z%	c #1D312F",
"`%	c #1D3330",
" &	c #243935",
".&	c #2D413C",
"+&	c #3B4F3D",
"@&	c #354933",
"#&	c #405741",
"$&	c #445B44",
"%&	c #566952",
"&&	c #586E55",
"*&	c #415743",
"=&	c #33483B",
"-&	c #21362F",
";&	c #293E37",
">&	c #213631",
",&	c #475251",
"'&	c #222623",
")&	c #1C2C29",
"!&	c #1A312C",
"~&	c #1A312B",
"{&	c #293C39",
"]&	c #425648",
"^&	c #485B42",
"/&	c #4B5A41",
"(&	c #4A5A40",
"_&	c #4D5E45",
":&	c #566851",
"<&	c #324638",
"[&	c #1E312D",
"}&	c #1E312E",
"|&	c #36443F",
"1&	c #535C59",
"2&	c #1C2927",
"3&	c #1C2D26",
"4&	c #1C2E29",
"5&	c #1B302B",
"6&	c #263B34",
"7&	c #415445",
"8&	c #4D5944",
"9&	c #475440",
"0&	c #394B39",
"a&	c #314435",
"b&	c #21322B",
"c&	c #202E2B",
"d&	c #333F3B",
"e&	c #747675",
"f&	c #22302B",
"g&	c #22322C",
"h&	c #1E3129",
"i&	c #1F3230",
"j&	c #29392C",
"k&	c #263529",
"l&	c #36433C",
"m&	c #1E2C29",
"n&	c #333D3C",
"o&	c #606160",
"                                                                ",
"                        . + @ # $ % & *                         ",
"                  = - ; > , ' ) ! ~ { ] ^ /                     ",
"                ( _ : < [ } | 1 2 3 4 5 6 7 8 9                 ",
"            0 a b c d e f g h i j k l m n o p q r s             ",
"            t u v w x y z A B C D E F G H I J K L M             ",
"        N O P Q R S T U V W X Y Z `  ...+.@.#.$.%.&.*.=.        ",
"        -.;.>.,.'.).!.~.{.].^./.(._.:.<.[.}.|.1.2.3.4.5.        ",
"      6.7.8.9.0.a.b.c.d.e.f.g.h.i.j.k.l.m.n.o.p.q.r.s.t.u.      ",
"      v.w.x.y.z.A.B.C.D.E.F.G.H.I.J.K.L.M.N.O.P.Q.R.S.T.U.      ",
"    V.W.X.Y.Z.`. +.+++@+#+$+%+&+*+=+-+;+>+,+'+)+!+~+{+]+^+/+    ",
"    (+_+:+<+[+}+|+1+2+3+4+5+6+7+8+9+0+a+b+c+d+e+f+g+h+i+j+k+    ",
"  l+m+n+o+p+q+r+s+t+u+v+w+x+y+z+A+B+C+D+E+F+G+H+I+J+K+L+M+N+O+  ",
"  P+Q+R+S+T+U+V+W+X+Y+Z+`+ @.@+@@@#@$@%@&@*@=@-@;@>@,@'@)@!@~@  ",
"  {@]@^@/@(@_@:@<@[@}@|@1@2@3@4@5@6@7@8@9@0@a@b@c@d@e@f@g@h@i@  ",
"  l+j@k@l@m@n@o@p@q@r@s@t@u@v@w@x@y@z@A@B@C@D@E@7@F@G@H@I@J@K@  ",
"  L@M@k@N@O@P@Q@R@S@T@U@V@W@X@Y@Z@`@ #.#+#@###$#%#&#*#=#-#;#>#  ",
"  ,#'#)#!#~#{#]#^#2@/#(#_#:#<#[#}#|#1#2#3#4#5#6#7#8#9#0#a#b#c#  ",
"  d#e#f#g#h#i#j#k#l#m#n#o#p#q#r#s#t#u#v#w#x#y#z#A#B#C#D#E#F#G#  ",
"  H#I#J#K#L#M#N#O#P#Q#R#S#T#U#V#W#X#Y#Z#`# $.$+$@$#$$$%$&$*$=$  ",
"    -$;$>$,$'$)$!$~${$]$^$/$($_$:$<$[$}$|$1$2$3$4$5$6$7$8$9$    ",
"    0$a$b$c$d$e$f$g$h$i$j$k$l$m$n$o$p$q$r$s$t$u$v$w$x$y$z$=$    ",
"      A$B$`.C$D$c E$F$G$H$I$J$K$L$M$N$O$P$Q$R$S$T$U$V$W$X$      ",
"      Y$Z$`$ %.%+%@%#%$%%%&%*%=%-%;%>%,%'%)%!%~%{%&$]%^%/%      ",
"        P+(%_%:%<%[%}%|%1%2%3%4%5%6%7%8%9%0%a%b%c%d%e%f%        ",
"        g%h%i%j%k%l%m%n%o%p%q%r%s%t%u%v%w%x%y%z%A%B%q+C%        ",
"            D%E%F%X$Y.G%H%I%J%K%t%L%M%N%O%P%Q%R%S%[+T%U%        ",
"            V%W%X%Y%Z%`% &.&+&@&#&$&%&&&*&=&-&;&>&,&U%U%U%U%    ",
"                '&)&!&~& %{&]&^&/&(&_&:&<&[&}&|&1&U%U%U%U%U%    ",
"                  2&3&4&5&B$6&7&8&9&0&a&b&c&d&e&U%U%U%U%        ",
"                        f&g&h&i&j&k&l&m&n&o&U%U%                ",
"                                                                "};
