/* XPM */
static char * icon_calibrate_20x20_xpm[] = {
"20 20 6 1",
" 	c None",
".	c #F2F2F2",
"+	c #000000",
"@	c #262626",
"#	c #7F7F7F",
"$	c #FFFFFF",
"                    ",
"                    ",
"       ..+..        ",
"     .@  +  +.      ",
"    . +     + .     ",
"   .       +   .    ",
"   ++      +  +++   ",
"  .       +     #   ",
"  .     #+#     #+  ",
"  ++    + $    +++  ",
"  .     #$$     #+  ",
"  #             #+  ",
"  +++         +++   ",
"   #           #+   ",
"   +# +     + #+    ",
"    +#+  +  +#+     ",
"     ++##+##++      ",
"       +++++        ",
"                    ",
"                    "};
