/* XPM */
static char * icon_bulb_32x32_xpm[] = {
"32 32 347 2",
"  	c None",
". 	c #838280",
"+ 	c #9E9D9A",
"@ 	c #A6A6A2",
"# 	c #A7A6A2",
"$ 	c #A6A5A1",
"% 	c #A7A6A1",
"& 	c #9E9D98",
"* 	c #858582",
"= 	c #999997",
"- 	c #A6A5A2",
"; 	c #BAB9B6",
"> 	c #C3C1BE",
", 	c #C5C4C1",
"' 	c #C1BEBB",
") 	c #BAB9B4",
"! 	c #B7B6B2",
"~ 	c #B7B7B2",
"{ 	c #B8B6B1",
"] 	c #B3B1AC",
"^ 	c #9B9A96",
"/ 	c #878682",
"( 	c #9A9997",
"_ 	c #C3C2BF",
": 	c #CECDC9",
"< 	c #D4D4D0",
"[ 	c #DBD9D5",
"} 	c #DBDAD7",
"| 	c #D1D0CC",
"1 	c #C4C3BF",
"2 	c #BCBBB8",
"3 	c #BBBAB6",
"4 	c #BCBAB5",
"5 	c #B7B5B1",
"6 	c #AFADA7",
"7 	c #A4A39D",
"8 	c #868581",
"9 	c #9A9996",
"0 	c #C4C2BE",
"a 	c #DEDDDC",
"b 	c #E8E7E5",
"c 	c #E6E4E4",
"d 	c #E3E0DF",
"e 	c #E0DEDB",
"f 	c #D5D2D0",
"g 	c #C9C7C4",
"h 	c #BEBDBA",
"i 	c #BAB9B5",
"j 	c #B3B1AD",
"k 	c #AEACA8",
"l 	c #A8A7A2",
"m 	c #8A8986",
"n 	c #7F7E7C",
"o 	c #B5B4B1",
"p 	c #D2D2CF",
"q 	c #ECECEB",
"r 	c #F1F0F0",
"s 	c #E1DFDE",
"t 	c #D9D8D6",
"u 	c #D6D3D0",
"v 	c #D0CFCC",
"w 	c #CAC7C4",
"x 	c #BEBDB9",
"y 	c #B8B7B2",
"z 	c #B5B3AE",
"A 	c #B1B0AB",
"B 	c #ACABA6",
"C 	c #999894",
"D 	c #7A7A7A",
"E 	c #949390",
"F 	c #BBBBB8",
"G 	c #D7D7D4",
"H 	c #EEEDED",
"I 	c #E9E6E5",
"J 	c #E0DDDB",
"K 	c #DDDBD9",
"L 	c #DBD9D6",
"M 	c #DAD7D4",
"N 	c #D2D0CD",
"O 	c #CCCAC6",
"P 	c #C1C1BD",
"Q 	c #BAB7B3",
"R 	c #B6B4B0",
"S 	c #B2B1AC",
"T 	c #AEADA8",
"U 	c #ABA9A5",
"V 	c #8C8B88",
"W 	c #A7A6A3",
"X 	c #C4C3C1",
"Y 	c #DDDCDA",
"Z 	c #ECEBEB",
"` 	c #EAE7E4",
" .	c #E0DFDC",
"..	c #E3E0DC",
"+.	c #E5E1DE",
"@.	c #E2DFDB",
"#.	c #DBD8D5",
"$.	c #D2D0CC",
"%.	c #C7C4C1",
"&.	c #BDBCB8",
"*.	c #B4B2AE",
"=.	c #AFAEA9",
"-.	c #ADACA6",
";.	c #979692",
">.	c #666665",
",.	c #777777",
"'.	c #AAA9A4",
").	c #C4C4C1",
"!.	c #DDDCDB",
"~.	c #E5E3E2",
"{.	c #DAD9D7",
"].	c #EBE7DF",
"^.	c #FCFCF9",
"/.	c #FDFDF7",
"(.	c #FEFEFE",
"_.	c #FDFDFA",
":.	c #FBFBF5",
"<.	c #FBFBF7",
"[.	c #D6D3CB",
"}.	c #B8B6B2",
"|.	c #B0AFAA",
"1.	c #ADACA7",
"2.	c #696968",
"3.	c #A6A5A0",
"4.	c #BABAB6",
"5.	c #D4D4D1",
"6.	c #DBDAD8",
"7.	c #D1CFCC",
"8.	c #E2E2D6",
"9.	c #FDFDFC",
"0.	c #FDFDFD",
"a.	c #FBFBF8",
"b.	c #D6D5CC",
"c.	c #B9B6B1",
"d.	c #B4B3AF",
"e.	c #9D9C98",
"f.	c #A19F9A",
"g.	c #BEBEBA",
"h.	c #CCCAC7",
"i.	c #C8C6C2",
"j.	c #C0BDB4",
"k.	c #F6F5EE",
"l.	c #FCFCFB",
"m.	c #D4D1C1",
"n.	c #B1AFA5",
"o.	c #B3B2AD",
"p.	c #9F9D99",
"q.	c #A3A29C",
"r.	c #ACABA7",
"s.	c #B6B5B1",
"t.	c #A29E98",
"u.	c #CAC9BB",
"v.	c #FCFCF6",
"w.	c #FAF9F3",
"x.	c #EBE8DE",
"y.	c #FBFAF2",
"z.	c #EBEADA",
"A.	c #BCB9A9",
"B.	c #928F88",
"C.	c #B1AFAA",
"D.	c #959490",
"E.	c #656564",
"F.	c #A2A09C",
"G.	c #A4A29D",
"H.	c #A9A7A2",
"I.	c #8D8A82",
"J.	c #C3BFB9",
"K.	c #CEC9C5",
"L.	c #CFCCC7",
"M.	c #D0CCC8",
"N.	c #B6B2A8",
"O.	c #949083",
"P.	c #ABA9A2",
"Q.	c #B3AFAA",
"R.	c #ADABA7",
"S.	c #AAA8A4",
"T.	c #908E8B",
"U.	c #5B5B5A",
"V.	c #787876",
"W.	c #A1A09A",
"X.	c #A2A19B",
"Y.	c #A2A19C",
"Z.	c #A3A29D",
"`.	c #A9A6A1",
" +	c #A19E96",
".+	c #A19E93",
"++	c #BCB9B4",
"@+	c #C1BEB8",
"#+	c #C1BFBA",
"$+	c #ADAB9E",
"%+	c #A9A69F",
"&+	c #B4B1AC",
"*+	c #A8A6A2",
"=+	c #9C9B96",
"-+	c #6E6E6C",
";+	c #93938E",
">+	c #A3A39C",
",+	c #A1A09B",
"'+	c #A09F9A",
")+	c #A09E99",
"!+	c #A4A39E",
"~+	c #807E75",
"{+	c #ABA7A1",
"]+	c #B4B2AC",
"^+	c #B0ADA6",
"/+	c #838178",
"(+	c #ADABA5",
"_+	c #A7A6A0",
":+	c #8A8985",
"<+	c #979791",
"[+	c #A2A09B",
"}+	c #9C9A94",
"|+	c #999791",
"1+	c #858277",
"2+	c #9C9891",
"3+	c #A09C95",
"4+	c #7E7A70",
"5+	c #ABA8A2",
"6+	c #A6A59F",
"7+	c #A5A49E",
"8+	c #84837F",
"9+	c #9D9C95",
"0+	c #9F9E99",
"a+	c #9C9A95",
"b+	c #95928D",
"c+	c #6C6A61",
"d+	c #84807A",
"e+	c #88847F",
"f+	c #817F78",
"g+	c #726F66",
"h+	c #A19E99",
"i+	c #A4A29C",
"j+	c #94938F",
"k+	c #7B7B7B",
"l+	c #9A9792",
"m+	c #9B9893",
"n+	c #94918C",
"o+	c #7B786E",
"p+	c #91837B",
"q+	c #7F6A63",
"r+	c #93867F",
"s+	c #6A665C",
"t+	c #9B9993",
"u+	c #A09E98",
"v+	c #979591",
"w+	c #787878",
"x+	c #91908C",
"y+	c #969590",
"z+	c #96948C",
"A+	c #938F7F",
"B+	c #5F504A",
"C+	c #5B4943",
"D+	c #908A7C",
"E+	c #96948F",
"F+	c #9B9A94",
"G+	c #94938E",
"H+	c #8F8E8A",
"I+	c #94948F",
"J+	c #908D84",
"K+	c #9B9386",
"L+	c #7E6F6B",
"M+	c #5F4D47",
"N+	c #857974",
"O+	c #9C9183",
"P+	c #908B85",
"Q+	c #979690",
"R+	c #92918C",
"S+	c #646463",
"T+	c #8E8D89",
"U+	c #88827A",
"V+	c #908174",
"W+	c #7D6C64",
"X+	c #644C42",
"Y+	c #6D554B",
"Z+	c #8D7B6B",
"`+	c #867B73",
" @	c #95938D",
".@	c #908E8A",
"+@	c #646363",
"@@	c #8F8D8A",
"#@	c #94928E",
"$@	c #8B857D",
"%@	c #A69C90",
"&@	c #9E928D",
"*@	c #5F473D",
"=@	c #A89E9A",
"-@	c #958777",
";@	c #857B74",
">@	c #93918B",
",@	c #8D8C88",
"'@	c #636362",
")@	c #83827F",
"!@	c #8F8E87",
"~@	c #8B887F",
"{@	c #9E9A8D",
"]@	c #7D7574",
"^@	c #635349",
"/@	c #7F7574",
"(@	c #968F83",
"_@	c #817E75",
":@	c #87867E",
"<@	c #7B7B77",
"[@	c #77756F",
"}@	c #79786E",
"|@	c #7A796E",
"1@	c #65625E",
"2@	c #6A655A",
"3@	c #5F5A56",
"4@	c #78776C",
"5@	c #6E6D62",
"6@	c #6A6A63",
"7@	c #5B583D",
"8@	c #908D67",
"9@	c #5D5B47",
"0@	c #656242",
"a@	c #5D593D",
"b@	c #5C593D",
"c@	c #5B593B",
"d@	c #504E39",
"e@	c #3B3A32",
"f@	c #4E4B28",
"g@	c #6A673C",
"h@	c #747151",
"i@	c #8C885D",
"j@	c #928E61",
"k@	c #979365",
"l@	c #5A5739",
"m@	c #2D2C23",
"n@	c #47441F",
"o@	c #8D8950",
"p@	c #99966A",
"q@	c #716D46",
"r@	c #605D3D",
"s@	c #615E3D",
"t@	c #686543",
"u@	c #47443E",
"v@	c #1D1C16",
"w@	c #464320",
"x@	c #454338",
"y@	c #9C9A7D",
"z@	c #4F4D33",
"A@	c #4B4939",
"B@	c #3E3D31",
"C@	c #25241F",
"D@	c #2E2D29",
"E@	c #0E0E03",
"F@	c #0B0A06",
"                                                                ",
"                                                                ",
"                        . + @ # $ % $ & *                       ",
"                    = - ; > , ' ) ! ~ { ] ^ /                   ",
"                  ( _ : < [ } | 1 2 3 4 5 6 7 8                 ",
"                9 0 a b c d e f g ' h i ! j k l m               ",
"              n o p q r q s t u v w 0 x y z A B C D             ",
"              E F G H r I J K L M N O P Q R S T U V D           ",
"              W X Y Z `  .e ..+.@.#.$.%.&.5 *.=.-.;.>.,.        ",
"              '.).!.~.{.].^.^./.(._.:.<.[.}.*.|.1.+ 2.,.        ",
"              3.4.5.6.7.8.9.(.(.(.(.0.a.b.c.d.A 1.e.2.,.        ",
"              f.B g.h.i.j.k.(.(.l.(.(.m.n.{ o.|.B ;.>.,.        ",
"              p.q.r.s.5 t.u.v.w.x.y.z.A.B.R C.=.B D.E.,.        ",
"              D.F.G.3.H.'.I.J.K.L.M.N.O.P.Q.r.R.S.T.U.,.        ",
"              V.W.X.Y.Z.`. +.+++@+#+$+%+&+R.% *+=+-+D ,.        ",
"                ;+>+,+'+)+!+~+{+]+^+/+|.(+_+G.X.:+D ,.          ",
"                  <+[+)+}+|+1+2+_+3+4+5+6+7+Y.8+D ,.            ",
"                    9+0+a+b+c+d+e+f+g+h+i+W.j+k+,.              ",
"                      l+m+n+o+p+q+r+s+t+u+v+E.w+                ",
"                      x+y+z+A+B+C+C+D+E+F+G+E.,.                ",
"                      H+I+J+K+L+M+N+O+P+Q+R+S+,.                ",
"                      T+G+U+V+W+X+Y+Z+`+ @.@+@,.                ",
"                      @@#@$@%@&@*@=@-@;@>@,@'@,.                ",
"                      )@!@~@{@]@^@/@(@_@:@<@D ,.                ",
"                        [@}@|@1@2@3@4@5@6@D ,.                  ",
"                        7@8@9@0@a@b@c@d@e@,.                    ",
"                        f@g@h@i@j@k@i@l@m@,.                    ",
"                        n@o@p@q@r@s@t@u@v@,.                    ",
"                          w@x@y@z@A@B@C@,.D                     ",
"                              D@E@F@,.,.D                       ",
"                              ,.,.,.D                           ",
"                                                                "};
