/* XPM */
static char * icon_search_32x32_xpm[] = {
"32 32 267 2",
"  	c None",
". 	c #3E484C",
"+ 	c #566266",
"@ 	c #5D676C",
"# 	c #565F66",
"$ 	c #3F484D",
"% 	c #434F56",
"& 	c #57666B",
"* 	c #A0AFB7",
"= 	c #ADBCC4",
"- 	c #B2C2C9",
"; 	c #A7B7BF",
"> 	c #92A0A7",
", 	c #5B676E",
"' 	c #3B474B",
") 	c #3C484C",
"! 	c #8E9BA2",
"~ 	c #ABBBC2",
"{ 	c #B9C6CE",
"] 	c #C1CED3",
"^ 	c #C2CFD4",
"/ 	c #B9C6CD",
"( 	c #AAB9C0",
"_ 	c #A1AEB6",
": 	c #8B99A0",
"< 	c #455156",
"[ 	c #8E9CA3",
"} 	c #B3C2CA",
"| 	c #CBD6DD",
"1 	c #D0DBE0",
"2 	c #DDE4E8",
"3 	c #E6EBEE",
"4 	c #E2E8EA",
"5 	c #D1DCE1",
"6 	c #C8D4DA",
"7 	c #B7C6CD",
"8 	c #97A6AD",
"9 	c #839198",
"0 	c #434F53",
"a 	c #5D6C71",
"b 	c #A3B1BA",
"c 	c #CAD6DC",
"d 	c #D8E1E6",
"e 	c #E0E7EA",
"f 	c #E6ECEE",
"g 	c #ECF0F3",
"h 	c #E5EAEE",
"i 	c #D2DCE2",
"j 	c #CDD8DD",
"k 	c #BCCAD2",
"l 	c #AABAC3",
"m 	c #8F9DA4",
"n 	c #5B676D",
"o 	c #3C4245",
"p 	c #97A4AD",
"q 	c #A6B5BD",
"r 	c #D0DAE0",
"s 	c #DFE7EA",
"t 	c #E9EEF1",
"u 	c #F2F5F7",
"v 	c #EDF1F4",
"w 	c #CFDAE0",
"x 	c #C4D1D7",
"y 	c #B8C8CF",
"z 	c #A6B6BF",
"A 	c #8D9BA2",
"B 	c #8C9AA1",
"C 	c #384246",
"D 	c #4F565A",
"E 	c #A6B6BE",
"F 	c #D1DBE1",
"G 	c #DAE5E9",
"H 	c #E2ECEF",
"I 	c #D3DFE5",
"J 	c #CBDAE1",
"K 	c #C7D7DF",
"L 	c #C0D0D8",
"M 	c #BBCBD3",
"N 	c #ADBDC5",
"O 	c #97A7AF",
"P 	c #475054",
"Q 	c #51595D",
"R 	c #A6B6BD",
"S 	c #ACBCC3",
"T 	c #CDD9DF",
"U 	c #BFCFD6",
"V 	c #BACAD2",
"W 	c #ADBDC6",
"X 	c #9CACB5",
"Y 	c #515C60",
"Z 	c #515A5D",
"` 	c #A3B3BA",
" .	c #ABBBC3",
"..	c #B6C6CE",
"+.	c #BCCCD4",
"@.	c #BDCDD5",
"#.	c #ABBBC4",
"$.	c #A2B2BA",
"%.	c #586367",
"&.	c #4F575C",
"*.	c #A1AFB8",
"=.	c #A9B8C1",
"-.	c #B3C3CB",
";.	c #B5C5CD",
">.	c #B8C8D0",
",.	c #B7C7CF",
"'.	c #B0C0C8",
").	c #AEBEC6",
"!.	c #A7B7C0",
"~.	c #A0B0B8",
"{.	c #545D63",
"].	c #393F43",
"^.	c #98A7AF",
"/.	c #A4B3BB",
"(.	c #B0BFC8",
"_.	c #AEBDC6",
":.	c #B1C1C9",
"<.	c #A9B9C1",
"[.	c #A1B1B9",
"}.	c #96A4AC",
"|.	c #3D4549",
"1.	c #68747B",
"2.	c #9DADB5",
"3.	c #A8B7C0",
"4.	c #AEBEC7",
"5.	c #A4B4BC",
"6.	c #A4B4BD",
"7.	c #A4B3BC",
"8.	c #526065",
"9.	c #444F53",
"0.	c #A2B2BB",
"a.	c #9EAEB6",
"b.	c #9DADB4",
"c.	c #9AAAB2",
"d.	c #7E8B92",
"e.	c #414C51",
"f.	c #2A2D2C",
"g.	c #3A474B",
"h.	c #8D9AA1",
"i.	c #93A1A9",
"j.	c #95A2AA",
"k.	c #9EADB5",
"l.	c #92A0A8",
"m.	c #839096",
"n.	c #484F50",
"o.	c #4D4D48",
"p.	c #CAC4AF",
"q.	c #928C7E",
"r.	c #7E7D72",
"s.	c #434E53",
"t.	c #4C5960",
"u.	c #9DABB3",
"v.	c #9FAFB7",
"w.	c #9DACB4",
"x.	c #92A1A8",
"y.	c #505D63",
"z.	c #414C50",
"A.	c #343430",
"B.	c #858374",
"C.	c #E1DDC8",
"D.	c #C3BFA8",
"E.	c #7A786D",
"F.	c #424C50",
"G.	c #4B5358",
"H.	c #565F64",
"I.	c #4E565A",
"J.	c #40494C",
"K.	c #333C40",
"L.	c #292E30",
"M.	c #847F6E",
"N.	c #B2AE9A",
"O.	c #E3E0CB",
"P.	c #C4BFAA",
"Q.	c #68665E",
"R.	c #54534C",
"S.	c #544F3D",
"T.	c #4F4B33",
"U.	c #8B8775",
"V.	c #B5B19C",
"W.	c #BFBBA8",
"X.	c #898884",
"Y.	c #95938A",
"Z.	c #545453",
"`.	c #3F3B25",
" +	c #474432",
".+	c #625E52",
"++	c #858377",
"@+	c #878584",
"#+	c #DBDAD9",
"$+	c #767675",
"%+	c #555451",
"&+	c #413F39",
"*+	c #585651",
"=+	c #706E6C",
"-+	c #AEAEAD",
";+	c #D5D4D3",
">+	c #CAC8C5",
",+	c #797977",
"'+	c #555551",
")+	c #3B3830",
"!+	c #2E2B21",
"~+	c #5B5752",
"{+	c #858584",
"]+	c #A8A7A6",
"^+	c #D0CECC",
"/+	c #A5A5A4",
"(+	c #71716F",
"_+	c #53524E",
":+	c #7F7F7F",
"<+	c #3D3B32",
"[+	c #312F24",
"}+	c #686865",
"|+	c #787775",
"1+	c #A09F9E",
"2+	c #C7C7C4",
"3+	c #BDBCB9",
"4+	c #706F6D",
"5+	c #484744",
"6+	c #7E7E7E",
"7+	c #313126",
"8+	c #3D392F",
"9+	c #62605B",
"0+	c #757372",
"a+	c #878787",
"b+	c #ABABAA",
"c+	c #B5B5B2",
"d+	c #7B7A78",
"e+	c #4B4A46",
"f+	c #322F23",
"g+	c #413D34",
"h+	c #676663",
"i+	c #7A7A79",
"j+	c #BDBDBA",
"k+	c #9B9A98",
"l+	c #656462",
"m+	c #4C4C4C",
"n+	c #7C7C7C",
"o+	c #717170",
"p+	c #32302A",
"q+	c #424139",
"r+	c #63625F",
"s+	c #70706E",
"t+	c #7B7A77",
"u+	c #AEAEAC",
"v+	c #9A9A98",
"w+	c #555553",
"x+	c #7D7D7D",
"y+	c #727271",
"z+	c #2B2A24",
"A+	c #3A3830",
"B+	c #565550",
"C+	c #696866",
"D+	c #939390",
"E+	c #8D8D8A",
"F+	c #464645",
"G+	c #6E6E6E",
"H+	c #2F2D22",
"I+	c #3E3C36",
"J+	c #484740",
"K+	c #706F69",
"L+	c #7C7C77",
"M+	c #3B3B39",
"N+	c #7B7B7B",
"O+	c #0C0C09",
"P+	c #312F25",
"Q+	c #323130",
"R+	c #252423",
"                                                                ",
"                                                                ",
"                                                                ",
"                . + @ @ # $                                     ",
"            % & * = - - ; > , '                                 ",
"          ) ! ~ = { ] ^ / ( _ : '                               ",
"        < [ } | 1 2 3 4 5 6 7 8 9 0                             ",
"        a b c d e f g h i j k l m n                             ",
"      o p q r s t g u v w x y z A B C                           ",
"      D E = F G H I J K L M M N O O P                           ",
"      Q R S 6 5 T U V V M V V W X X Y                           ",
"      Z `  ...+.+.@.V V M V V #.$.$.%.                          ",
"      &.*.=.-.;.;.>.,.,.,.'.).!.~.~.{.                          ",
"      ].^./.N (._.-.:.:.<.[.$./.p }.|.                          ",
"        1.2.3._.4.:.). .5.6.<.7.p 8.                            ",
"        9.B > 0.0.z E E 6.a.b.c.d.e.f.                          ",
"          g.h.i.j.k.~.~.k.> l.m.n.o.p.q.r.                      ",
"            s.t.> u.v.v.w.x.y.z.A.B.C.D.E.                      ",
"                F.G.H.I.J.K.  L.M.M.N.O.P.Q.R.                  ",
"                                S.T.U.V.W.X.Y.Z.                ",
"                                `. +.+++@+#+#+$+%+              ",
"                                    &+*+=+-+;+>+,+'+            ",
"                                    )+!+~+{+]+^+/+(+_+          ",
"            :+:+:+:+:+:+:+:+:+:+      <+[+}+|+1+2+3+4+5+        ",
"            :+:+:+:+:+:+:+:+:+:+:+6+    7+8+9+0+a+b+c+d+e+      ",
"              :+:+:+:+:+:+:+:+:+:+:+:+    f+g+h+i+a+j+k+l+m+    ",
"                                :+:+:+:+n+o+p+q+r+s+t+u+v+w+    ",
"                                      :+x+n+y+z+A+B+C+D+E+F+    ",
"                                          :+n+G+H+I+J+K+L+M+    ",
"                                                N+O+P+Q+R+:+    ",
"                                                                ",
"                                                                "};
