/* XPM */
static char * icon_game_controller_32x32_xpm[] = {
"32 32 263 2",
"  	c None",
". 	c #F6F6F6",
"+ 	c #F4F4F4",
"@ 	c #E0E0E0",
"# 	c #D9D9D9",
"$ 	c #9E9E9E",
"% 	c #F5F5F5",
"& 	c #EEEEEE",
"* 	c #E2E2E2",
"= 	c #C6C6C6",
"- 	c #C1C0C0",
"; 	c #BBA0A0",
"> 	c #CCCCCC",
", 	c #CECECE",
"' 	c #F3F3F3",
") 	c #EBEBEB",
"! 	c #C7CBCB",
"~ 	c #B1B7B7",
"{ 	c #FBC3C3",
"] 	c #E23535",
"^ 	c #B6B6B6",
"/ 	c #B6B9B9",
"( 	c #DDDDDD",
"_ 	c #DBDBDB",
": 	c #EDEDED",
"< 	c #726E6E",
"[ 	c #BCA2A2",
"} 	c #898282",
"| 	c #F8A2A2",
"1 	c #D53636",
"2 	c #A7A7A7",
"3 	c #CACACA",
"4 	c #D1D1D1",
"5 	c #F0F0F0",
"6 	c #D5D5D5",
"7 	c #C3C3C3",
"8 	c #B7B7B7",
"9 	c #AAAAAA",
"0 	c #838383",
"a 	c #F9A2A2",
"b 	c #E33D3D",
"c 	c #AE8B8B",
"d 	c #A43D3D",
"e 	c #8B2B2B",
"f 	c #BCBCBC",
"g 	c #C4C4C4",
"h 	c #E5E5E5",
"i 	c #D7D7D7",
"j 	c #B5B5B5",
"k 	c #B1B1B1",
"l 	c #A8A8A8",
"m 	c #5F5F5F",
"n 	c #474747",
"o 	c #808080",
"p 	c #5A5A5A",
"q 	c #494949",
"r 	c #3F3F3F",
"s 	c #575757",
"t 	c #757575",
"u 	c #9B9B9B",
"v 	c #4D4D4D",
"w 	c #DCDCDC",
"x 	c #BEBEBE",
"y 	c #AEAEAE",
"z 	c #848484",
"A 	c #6C6C6C",
"B 	c #545454",
"C 	c #2D2D2D",
"D 	c #222222",
"E 	c #1B1B1B",
"F 	c #232323",
"G 	c #2F2F2F",
"H 	c #686868",
"I 	c #454545",
"J 	c #272727",
"K 	c #676767",
"L 	c #9F9F9F",
"M 	c #373737",
"N 	c #9A9A9A",
"O 	c #797979",
"P 	c #242424",
"Q 	c #9C9999",
"R 	c #CDCCCC",
"S 	c #F2F2F2",
"T 	c #9BA0A0",
"U 	c #C1C1C1",
"V 	c #818181",
"W 	c #3D3D3D",
"X 	c #353535",
"Y 	c #7D7D7D",
"Z 	c #A0A0A0",
"` 	c #787878",
" .	c #D3D3D3",
"..	c #ECECEC",
"+.	c #D99B9B",
"@.	c #BE4848",
"#.	c #928282",
"$.	c #B8B8B8",
"%.	c #898989",
"&.	c #313131",
"*.	c #444444",
"=.	c #535353",
"-.	c #878787",
";.	c #585858",
">.	c #333333",
",.	c #A19F9F",
"'.	c #F2F8F8",
").	c #C74B4B",
"!.	c #C73232",
"~.	c #912626",
"{.	c #8A8C8C",
"].	c #121212",
"^.	c #A1A1A1",
"/.	c #4B4B4B",
"(.	c #666666",
"_.	c #929292",
":.	c #C0BEBE",
"<.	c #AEADAD",
"[.	c #888888",
"}.	c #976666",
"|.	c #733434",
"1.	c #5E3535",
"2.	c #878E8E",
"3.	c #090909",
"4.	c #A6A6A6",
"5.	c #979797",
"6.	c #515151",
"7.	c #AFADAD",
"8.	c #6C6B6B",
"9.	c #838282",
"0.	c #746D6D",
"a.	c #665F5F",
"b.	c #5C5C5C",
"c.	c #565656",
"d.	c #8A8A8A",
"e.	c #2D1C1C",
"f.	c #424141",
"g.	c #555555",
"h.	c #4A4A4A",
"i.	c #3E3E3E",
"j.	c #464646",
"k.	c #202020",
"l.	c #2A2A2A",
"m.	c #828282",
"n.	c #731111",
"o.	c #AB6262",
"p.	c #5B5A5A",
"q.	c #3F3E3E",
"r.	c #2B2B2B",
"s.	c #6F6F6F",
"t.	c #181818",
"u.	c #A5A5A5",
"v.	c #505050",
"w.	c #961414",
"x.	c #AAA2A2",
"y.	c #929191",
"z.	c #343434",
"A.	c #212121",
"B.	c #303030",
"C.	c #4E4E4E",
"D.	c #B0B0B0",
"E.	c #A79B9B",
"F.	c #919090",
"G.	c #636363",
"H.	c #747474",
"I.	c #727272",
"J.	c #373636",
"K.	c #4C4B4B",
"L.	c #383838",
"M.	c #919191",
"N.	c #949494",
"O.	c #E7E7E7",
"P.	c #A9A8A8",
"Q.	c #8F8F8F",
"R.	c #5D5C5C",
"S.	c #525252",
"T.	c #525151",
"U.	c #444343",
"V.	c #1F1F1F",
"W.	c #DEDEDE",
"X.	c #E9E9E9",
"Y.	c #ACACAC",
"Z.	c #D6D6D6",
"`.	c #7E7E7E",
" +	c #565555",
".+	c #434242",
"++	c #D8D8D8",
"@+	c #E4E4E4",
"#+	c #C9C9C9",
"$+	c #ADADAD",
"%+	c #797878",
"&+	c #605F5F",
"*+	c #595858",
"=+	c #3A3939",
"-+	c #6B6B6B",
";+	c #BABABA",
">+	c #696868",
",+	c #5D5D5D",
"'+	c #606060",
")+	c #CBCBCB",
"!+	c #BDBDBD",
"~+	c #A9A9A9",
"{+	c #8F8D8D",
"]+	c #605E5E",
"^+	c #515050",
"/+	c #535252",
"(+	c #ABABAB",
"_+	c #C7C7C7",
":+	c #E8E8E8",
"<+	c #C2A7A7",
"[+	c #B79E9E",
"}+	c #AEAAAA",
"|+	c #7A7979",
"1+	c #545353",
"2+	c #525050",
"3+	c #414040",
"4+	c #A3A3A3",
"5+	c #DADADA",
"6+	c #D1D0D0",
"7+	c #CFA1A1",
"8+	c #CF3232",
"9+	c #D82A2A",
"0+	c #922727",
"a+	c #2C2C2C",
"b+	c #565454",
"c+	c #4B4A4A",
"d+	c #424242",
"e+	c #A4A4A4",
"f+	c #9D9D9D",
"g+	c #D0D0D0",
"h+	c #B2B2B2",
"i+	c #B08484",
"j+	c #CE4D4D",
"k+	c #D54242",
"l+	c #812F2F",
"m+	c #282828",
"n+	c #292929",
"o+	c #404040",
"p+	c #B4B4B4",
"q+	c #7A7A7A",
"r+	c #8B8B8B",
"s+	c #909090",
"t+	c #484848",
"u+	c #7B7A7A",
"v+	c #A2A2A2",
"w+	c #323232",
"x+	c #6D6D6D",
"y+	c #989898",
"z+	c #626262",
"A+	c #8E8E8E",
"B+	c #737373",
"C+	c #767676",
"D+	c #9C9C9C",
"E+	c #262626",
"F+	c #858585",
"G+	c #969696",
"H+	c #4C4C4C",
"I+	c #5E5E5E",
"J+	c #7B7B7B",
"K+	c #2E2E2E",
"L+	c #1E1E1E",
"M+	c #363636",
"N+	c #191919",
"                    . + @ # $                                   ",
"                % & * = - ; > ,                                 ",
"              ' ) @ ! ~ { ] ^ / ( _                             ",
"            : * ^ { ] < [ } | 1 2 2 2 3 4                       ",
"          5 6 7 8 9 0 a b c d e 2 2 2 9 f g                     ",
"        h i j 8 8 k l m n o p q r s t u 0 v                     ",
"      w _ x 8 8 y l 2 z A B C D E F G H I J                     ",
"      3 I K L M 2 N O P               Q R S T t                 ",
"      U V W X Y Z ` v                  ...+.@.#.                ",
"      $.%.&.*.=.-.;.>.              ,.@ '.).!.~.{.              ",
"    ].^./.(._.r =.                  :.<.[.}.|.1.2.              ",
"    3.4.2 2 l 5.6.                  7.8.9.t 0.a.A b.            ",
"      c.Z 2 l Z d.                    e.f.g.h.i.j.k.H           ",
"      l.m.2 l 2 4.6.                n.o.p.q.r.M D C s.          ",
"      t.X L l l u.v.                w.x.y.N z.D A.B.            ",
"        A.6.2 l c.C.        = 4 D.  E.F.G.H.I.p J.K.            ",
"          L.M.N.L.G         O.& i > P.Q.R.S.T.U.r.              ",
"            V.F         W.X.@ > Y.9 Z.`.R. +.+G J               ",
"                      ++X.@+#+k 2 $+= %+&+*+=+l.-+              ",
"                      @+) ++k $+l $.;+>+,+T.l.'+7               ",
"                  3 )+ .!+^ ~+~+$+7 {+]+^+/+*.4.~+(+_+          ",
"                _+h :+<+[+}+l (+Y Y.|+1+2+3+A u 2 4.$.7 4+      ",
"                5+6+7+8+9+0+4.l a+g.b+c+r a+d+K %.^.e+f+g+h+    ",
"              (+7 - i+j+k+l+4.u.m+z.n+o+&.k./.s.0 Z Z 4+p+p+    ",
"              q+r+s+5.g.t+u+v+4+Z =.w+C >.r A x+x+f+y+e+^.z+    ",
"              l.,+H A %.y+L v+^.y+v+A+I.B+C+A x+H.5.D+v+u z+    ",
"                E+&.v.'+x+o $ v+f+f+^.y+%.0 q+t F+$ L G+0 H+    ",
"                    E+D &./.I+K m.s+N $ ^.e+u.e+^.Z f+c.n+      ",
"                        D E+v.S.G.s.J+s+5.Z v+Z L 5.O J n+      ",
"                              E D K+z.c.,+p m S.I n+A.          ",
"                                  D L+M+M M+M+k.k.3.            ",
"                                      l.m+n+N+3.                "};
