/* XPM */
static char * icon_move_file_32x32_xpm[] = {
"32 32 357 2",
"  	c None",
". 	c #636363",
"+ 	c #636262",
"@ 	c #6B6A6A",
"# 	c #666666",
"$ 	c #696969",
"% 	c #6E6D6D",
"& 	c #656565",
"* 	c #6C6B6B",
"= 	c #6C6C6C",
"- 	c #6A6969",
"; 	c #6D6C6C",
"> 	c #737272",
", 	c #656464",
"' 	c #ACABAA",
") 	c #AFADAC",
"! 	c #B1B0AF",
"~ 	c #B1AFAE",
"{ 	c #AFAFAD",
"] 	c #AAA9A8",
"^ 	c #ADACAB",
"/ 	c #ADACAC",
"( 	c #A8A6A5",
"_ 	c #817F7E",
": 	c #ABABAB",
"< 	c #777777",
"[ 	c #767675",
"} 	c #6B6B6A",
"| 	c #B0AFAE",
"1 	c #B3B2B1",
"2 	c #B5B4B3",
"3 	c #B6B5B5",
"4 	c #B5B3B3",
"5 	c #B0AFAF",
"6 	c #B2B1B1",
"7 	c #ACAAA9",
"8 	c #82817F",
"9 	c #C1C0C0",
"0 	c #AEAEAE",
"a 	c #797978",
"b 	c #717070",
"c 	c #AFAEAE",
"d 	c #B7B6B6",
"e 	c #B5B4B4",
"f 	c #B6B5B4",
"g 	c #B2B2B2",
"h 	c #B3B1B1",
"i 	c #ADADAB",
"j 	c #878685",
"k 	c #C0BFBF",
"l 	c #A7A5A5",
"m 	c #A3A3A2",
"n 	c #727171",
"o 	c #B2B1B0",
"p 	c #B6B6B5",
"q 	c #B1B1AF",
"r 	c #8C8B8A",
"s 	c #ABAAA9",
"t 	c #A2A1A1",
"u 	c #B3B2B2",
"v 	c #B4B3B2",
"w 	c #B5B3B2",
"x 	c #ACACAA",
"y 	c #81807F",
"z 	c #747474",
"A 	c #6F6F6F",
"B 	c #5F5F5F",
"C 	c #686867",
"D 	c #B7B6B5",
"E 	c #AEADAD",
"F 	c #A9A8A8",
"G 	c #999897",
"H 	c #8F8E8C",
"I 	c #8B8B8A",
"J 	c #8B8A8A",
"K 	c #5E5E5E",
"L 	c #6B6B6B",
"M 	c #B1AFAF",
"N 	c #ABA9A9",
"O 	c #A6A5A4",
"P 	c #A2A19F",
"Q 	c #A4A2A1",
"R 	c #A7A6A4",
"S 	c #646464",
"T 	c #B4B3B3",
"U 	c #B0AFAD",
"V 	c #AEACAC",
"W 	c #ABA9A8",
"X 	c #707070",
"Y 	c #B6B4B4",
"Z 	c #B4B2B2",
"` 	c #B0B0B0",
" .	c #AFAEAD",
"..	c #AFADAD",
"+.	c #AEADAC",
"@.	c #ACABA9",
"#.	c #727272",
"$.	c #605F5F",
"%.	c #636261",
"&.	c #575756",
"*.	c #5C5C5C",
"=.	c #565656",
"-.	c #646362",
";.	c #545454",
">.	c #616060",
",.	c #5D5C5C",
"'.	c #626161",
").	c #6D6C6B",
"!.	c #B0AEAD",
"~.	c #CAC8C6",
"{.	c #D2D0CE",
"].	c #D7D4D2",
"^.	c #DBD9D8",
"/.	c #DAD8D5",
"(.	c #D8D7D4",
"_.	c #CECCCB",
":.	c #D3D1D0",
"<.	c #D4D2D2",
"[.	c #858380",
"}.	c #D0D0D0",
"|.	c #737271",
"1.	c #6A6A6A",
"2.	c #ADABAA",
"3.	c #B3B3B2",
"4.	c #B5B5B4",
"5.	c #626160",
"6.	c #D9D7D6",
"7.	c #DEDDDB",
"8.	c #E1E0DF",
"9.	c #E4E2E1",
"0.	c #E1DFDF",
"a.	c #DAD9D8",
"b.	c #D9D8D8",
"c.	c #DCDBDA",
"d.	c #D1CECD",
"e.	c #878582",
"f.	c #F7F6F5",
"g.	c #D6D5D5",
"h.	c #787776",
"i.	c #747473",
"j.	c #A9A9A8",
"k.	c #B6B6B6",
"l.	c #696867",
"m.	c #D7D5D5",
"n.	c #E5E4E3",
"o.	c #E2E0E0",
"p.	c #E3E2E0",
"q.	c #DEDCDB",
"r.	c #DDDCDC",
"s.	c #DEDBDA",
"t.	c #D4D3D0",
"u.	c #918E8C",
"v.	c #F5F4F3",
"w.	c #C9C6C5",
"x.	c #C2C2C0",
"y.	c #767575",
"z.	c #8C8B8B",
"A.	c #6B6A69",
"B.	c #DCDAD9",
"C.	c #E5E3E3",
"D.	c #E4E3E2",
"E.	c #E1E0DE",
"F.	c #E1DEDE",
"G.	c #DFDDDB",
"H.	c #DBDAD8",
"I.	c #DCDADA",
"J.	c #D4D2D0",
"K.	c #999795",
"L.	c #CAC7C5",
"M.	c #E1DFDE",
"N.	c #D0CFCD",
"O.	c #C1BFBF",
"P.	c #777676",
"Q.	c #B9B8B8",
"R.	c #B7B7B7",
"S.	c #646262",
"T.	c #DFDDDC",
"U.	c #E4E2E2",
"V.	c #E0DEDD",
"W.	c #DCDBD9",
"X.	c #E1DFDD",
"Y.	c #DDDBDA",
"Z.	c #D2D1CE",
"`.	c #858483",
" +	c #6E6E6E",
".+	c #616160",
"++	c #494949",
"@+	c #B8B7B6",
"#+	c #BABAB9",
"$+	c #BBBBBB",
"%+	c #BCBBBA",
"&+	c #BBBABA",
"*+	c #595958",
"=+	c #E5E3E2",
"-+	c #D5D3D3",
";+	c #CDCBCA",
">+	c #B1AEAD",
",+	c #9E9C9A",
"'+	c #999896",
")+	c #989795",
"!+	c #989695",
"~+	c #484848",
"{+	c #70706F",
"]+	c #BBBBBA",
"^+	c #BCBCBB",
"/+	c #BDBCBC",
"(+	c #5F5E5E",
"_+	c #E3E1E0",
":+	c #E2DFDF",
"<+	c #DEDCDC",
"[+	c #DAD8D7",
"}+	c #D7D6D5",
"|+	c #D3D1CF",
"1+	c #C8C6C5",
"2+	c #C1BEBB",
"3+	c #C4C1BE",
"4+	c #C9C7C4",
"5+	c #525252",
"6+	c #BFBFBF",
"7+	c #BFBFBE",
"8+	c #C0BFBE",
"9+	c #C0C0C0",
"0+	c #E0DFDF",
"a+	c #E2E0DF",
"b+	c #DFDCDB",
"c+	c #D9D7D7",
"d+	c #D9D7D5",
"e+	c #D7D4D3",
"f+	c #D0CECD",
"g+	c #D6D3D2",
"h+	c #D5D2D1",
"i+	c #D0CECC",
"j+	c #6D6D6D",
"k+	c #C3C3C3",
"l+	c #C2C2C2",
"m+	c #686767",
"n+	c #E4E2E0",
"o+	c #E3E0E0",
"p+	c #E0DDDC",
"q+	c #DDDBD9",
"r+	c #DBD9D7",
"s+	c #DCDAD7",
"t+	c #DAD9D9",
"u+	c #D7D6D4",
"v+	c #D7D5D4",
"w+	c #D6D5D3",
"x+	c #5C5B5B",
"y+	c #C3C2C2",
"z+	c #C4C4C4",
"A+	c #E0DFDE",
"B+	c #E1DFDC",
"C+	c #E0DFDC",
"D+	c #E1DEDD",
"E+	c #E0DEDC",
"F+	c #DDDADA",
"G+	c #D9D8D6",
"H+	c #DAD7D5",
"I+	c #676767",
"J+	c #757474",
"K+	c #757575",
"L+	c #767676",
"M+	c #747373",
"N+	c #D9D6D4",
"O+	c #E0DFDD",
"P+	c #DFDDDA",
"Q+	c #DCDAD8",
"R+	c #DFDEDC",
"S+	c #6F6E6E",
"T+	c #5D5D5D",
"U+	c #D3D0CF",
"V+	c #DFDEDD",
"W+	c #E7E5E4",
"X+	c #EAEAEA",
"Y+	c #E7E6E5",
"Z+	c #E8E6E6",
"`+	c #E4E3E1",
" @	c #818180",
".@	c #6F6E6D",
"+@	c #CDCCCB",
"@@	c #E4E4E3",
"#@	c #E3E0DF",
"$@	c #E7E4E4",
"%@	c #E6E4E4",
"&@	c #E9E8E7",
"*@	c #E9E7E5",
"=@	c #C4C3C2",
"-@	c #686666",
";@	c #737171",
">@	c #9A9898",
",@	c #E6E5E5",
"'@	c #E8E7E6",
")@	c #EAE9E9",
"!@	c #EBEAEA",
"~@	c #E9E9E7",
"{@	c #EEEDEC",
"]@	c #747272",
"^@	c #E5E4E4",
"/@	c #EAE8E7",
"(@	c #EBEAE9",
"_@	c #EDECEC",
":@	c #EEEDED",
"<@	c #F0F0EF",
"[@	c #EFEDED",
"}@	c #EEECEC",
"|@	c #ECEAEA",
"1@	c #EDEBEA",
"2@	c #EFEEED",
"3@	c #7A7A79",
"4@	c #E8E6E4",
"5@	c #EEECEB",
"6@	c #F0F0F0",
"7@	c #F5F3F2",
"8@	c #F5F3F3",
"9@	c #F2F1F0",
"0@	c #EFEFEE",
"a@	c #ECEBEB",
"b@	c #838282",
"c@	c #7F7F7F",
"d@	c #686766",
"e@	c #ECEBEA",
"f@	c #EDECEA",
"g@	c #F0EFEF",
"h@	c #F0EFEE",
"i@	c #F1F0EF",
"j@	c #F4F4F3",
"k@	c #F6F6F5",
"l@	c #F6F5F4",
"m@	c #F3F2F2",
"n@	c #F1F0F0",
"o@	c #F6F6F6",
"p@	c #F2F1F1",
"q@	c #F3F2F1",
"r@	c #D2D1D0",
"s@	c #F4F3F3",
"t@	c #F4F3F2",
"u@	c #F6F5F5",
"v@	c #F8F7F6",
"w@	c #FAF9F9",
"x@	c #F9F9F9",
"y@	c #FAFAFA",
"z@	c #FBFAFA",
"A@	c #FBFBFB",
"B@	c #FCFCFC",
"C@	c #F8F8F8",
"D@	c #7B7A7A",
"E@	c #7D7D7D",
"F@	c #FCFBFB",
"G@	c #FDFDFD",
"H@	c #9C9C9C",
"I@	c #5B5B5B",
"J@	c #FBFBFA",
"K@	c #EDEDEC",
"L@	c #E6E6E6",
"M@	c #949393",
"N@	c #666565",
"O@	c #575757",
"P@	c #706F6F",
". + @ # $ # % & * = - ; >                                       ",
", ' ' ) ! ~ { ] ^ / ( _ : < [                                   ",
"} ^ | 1 2 3 4 ! 5 6 7 8 9 0 ( a                                 ",
"b c d e 3 f 4 1 g h i j 1 k 2 l m                               ",
"n o d p 2 4 1 q g 6 ^ r ( 4 p s t                               ",
"% u 4 3 d v 4 o w 6 x r y n z A = B                             ",
"C u 4 e D 3 1 o e 6 E F G H r I J K                             ",
"L v e e f 4 u 6 u M c ' N O P Q R S                             ",
"% T 2 e u 1 v 1 5 M 5 U ) N V ^ W &                             ",
"X f 2 4 v f Y Z o ! ! `  ...+.@. .-                             ",
"#.4 2 3 T T w v . $.%.&.*.=.-.;.$.>.,.'.).                      ",
"A !.w 2 4 v 1 ! '.~.{.].^./.(._.:.<.~.[.}.z |.                  ",
"1.2.T 4 u 3.p 4.5.:.6.7.8.9.0.a.b.c.d.e.f.g.~.h.                ",
"i.j.o u 1 4 k.2 l.m.n.o.9.p.0.q.r.s.t.u.7.v.8.w.x.              ",
"y.z.f 2 T 2 d d A.B.C.D.E.F.G.H.r.I.J.K.L.M.D.N.O.              ",
"  P.3.d Q.R.Q.Q.S.T.0.U.n.V.M.W.X.Y.Z.K.`.@  +# .+++            ",
"  #.@+@+#+$+%+&+*+T.0.o.=+U.G.W.o.c.-+;+>+,+'+)+!+~+            ",
"  {+&+&+&+]+^+/+(+V.o.o._+:+<+c.<+[+}+|+d.1+2+3+4+5+            ",
"  > 6+6+7+8+9+9 -.0+a+o.T.b+V.q.c+[+[+d+e+f+g+h+i+;.            ",
"  j+k+l+l+l+k+l+m+_+a+:+V.n+o+p+q+r+s+t+u+v+w+{.u+x+            ",
"  $ l+y+z+z+z+z+* M.a+9.A+A+B+C+D+G.E+r+F+G+H+H.[+,             ",
"  I+X J+K+L+y.M+# N+X.a+:+O+P+Q+D+E+B+R+a+o.0.0.a+S+            ",
"                T+U+A+0.T.V+D.p.a+W+W+n.X+X+Y+Z+`+ @            ",
"                .@+@W.T.q.0.@@#@0.$@W+%@&@X+X+*@W+=@-@          ",
"                ;@>@_+8.0+8.n.,@'@)@!@X+!@!@X+X+~@{@*           ",
"                  ]@V+^@&@,@&@/@(@(@_@:@<@[@}@|@1@2@3@          ",
"                  * W+4@(@_@5@}@_@2@6@6@7@8@9@0@a@2@b@c@c@c@c@c@",
"                  d@a@e@1@f@2@g@h@i@j@k@l@m@n@o@p@q@r@K c@c@c@  ",
"                  ; j@s@t@7@u@v@w@w@x@x@y@z@y@y@A@B@C@D@E@c@    ",
"                  + y@x@x@x@z@y@A@F@B@F@B@B@B@B@A@G@G@H@E@      ",
"                  I@x@w@B@B@B@B@J@J@K@X+L@M@n S+N@+ $.T+        ",
"                  O@m+P@b #.n % % % # >.$.                      "};
