/* XPM */
static char * icon_tools_32x32_xpm[] = {
"32 32 134 2",
"  	c None",
". 	c #3B3B3B",
"+ 	c #777777",
"@ 	c #5F5F5F",
"# 	c #4B4B4B",
"$ 	c #6E6E6E",
"% 	c #C4C4C4",
"& 	c #B2B2B2",
"* 	c #939393",
"= 	c #BFBFBF",
"- 	c #949494",
"; 	c #3C3C3C",
"> 	c #8D8D8D",
", 	c #4F4F4F",
"' 	c #888888",
") 	c #2B2B2B",
"! 	c #5D5D5D",
"~ 	c #3D3D3D",
"{ 	c #636363",
"] 	c #DCDCDC",
"^ 	c #BABABA",
"/ 	c #AEAEAE",
"( 	c #AAAAAA",
"_ 	c #696969",
": 	c #DADADA",
"< 	c #727272",
"[ 	c #6F6F6F",
"} 	c #646464",
"| 	c #ABABAB",
"1 	c #707070",
"2 	c #C5C5C5",
"3 	c #6C6C6C",
"4 	c #565656",
"5 	c #606060",
"6 	c #6B6B6B",
"7 	c #D9D9D9",
"8 	c #A7A7A7",
"9 	c #A1A1A1",
"0 	c #666666",
"a 	c #8B8B8B",
"b 	c #373737",
"c 	c #6D6D6D",
"d 	c #C9C9C9",
"e 	c #A4A4A4",
"f 	c #424242",
"g 	c #3A3A3A",
"h 	c #C8C8C8",
"i 	c #797979",
"j 	c #CACACA",
"k 	c #9E9E9E",
"l 	c #434343",
"m 	c #793434",
"n 	c #A74F4F",
"o 	c #973737",
"p 	c #8A2E2E",
"q 	c #3D1E1E",
"r 	c #3D3D4D",
"s 	c #5356AE",
"t 	c #222478",
"u 	c #A6A6A9",
"v 	c #9B9B9B",
"w 	c #686868",
"x 	c #7F4242",
"y 	c #A73737",
"z 	c #CE5F5F",
"A 	c #BF3B3B",
"B 	c #A32C2C",
"C 	c #5F1919",
"D 	c #321F1F",
"E 	c #9194EB",
"F 	c #7175DA",
"G 	c #1E23A8",
"H 	c #232572",
"I 	c #757575",
"J 	c #494949",
"K 	c #874848",
"L 	c #A13737",
"M 	c #9C2B2B",
"N 	c #861B1B",
"O 	c #3C1E1E",
"P 	c #474CC8",
"Q 	c #2126B0",
"R 	c #1D22A4",
"S 	c #1E23A6",
"T 	c #854848",
"U 	c #A23737",
"V 	c #D97979",
"W 	c #9B2929",
"X 	c #831919",
"Y 	c #381F1F",
"Z 	c #1C219F",
"` 	c #181D9B",
" .	c #1E2394",
"..	c #DA7B7B",
"+.	c #A12D2D",
"@.	c #371E20",
"#.	c #1E22A5",
"$.	c #2025AE",
"%.	c #181D97",
"&.	c #AA3838",
"*.	c #151A8C",
"=.	c #171C92",
"-.	c #292A4D",
";.	c #D77474",
">.	c #371E25",
",.	c #181D94",
"'.	c #292933",
").	c #7F7F7F",
"!.	c #2429B7",
"~.	c #D16767",
"{.	c #2D2F6B",
"].	c #3B40C2",
"^.	c #A02D2D",
"/.	c #8E1F1F",
"(.	c #272967",
"_.	c #8386DD",
":.	c #292DA0",
"<.	c #7F3E3E",
"[.	c #B24646",
"}.	c #C95353",
"|.	c #9F2C2C",
"1.	c #35354D",
"2.	c #3C41C0",
"3.	c #7E3B3B",
"4.	c #7F3C3C",
"5.	c #592727",
"6.	c #AF4545",
"7.	c #9F2D2D",
"8.	c #992626",
"9.	c #441E1E",
"0.	c #5B2A2A",
"a.	c #A63636",
"b.	c #9C2E2E",
"c.	c #5E2626",
"                                                                ",
"          . + @ # .                                             ",
"          $ % & * $                                             ",
"          + = & - +                                             ",
"          ; = * > ;                                             ",
"            , ' )                                               ",
"            , ' )                         ! + $ ~               ",
"            , ' )                       { ] ^ / ( _             ",
"            , ' )                       : ( < ~ ~ ~             ",
"            , ' )                     [ & <                     ",
"            , ' )                   } ] | 1                     ",
"            , ' )                 ! 2 ( ( ( 3 4 5 ,             ",
"            , ' )               6 7 ( ( ( ( ( 8 9 0             ",
"            , a b             c d | ( e f 3 ~ ~ ~               ",
"            , a g           0 h ( ( ( i                         ",
"            , a g         5 j ( ( k l                           ",
"          m n o p q   r s t u ( v w                             ",
"        x y z A B C D E F G H I J                               ",
"        K L z A M N O P Q R S ~                                 ",
"        T U V A W X Y Z G `  .)                                 ",
"        T y ..A +.X @.#.$.%.)                                   ",
"        T &...A +.X Y *.=.)                                     ",
"      -.T &.;.A +.X >.,.'.    ).                                ",
"    -.!.T &.~.A +.X Y )   ).).                                  ",
"    {.].T &.z A ^./.Y   ).).).                        ).).).    ",
"  (._.:.<.[.}.A |./.Y ).).).                ).).).).).).).).).  ",
"  1.2.!.3.[.}.A |.X Y ).).          ).).).).).).).              ",
"  -.) !.4.[.}.A |.X Y ).).).).).).                              ",
"    ) ) 5.6.}.A 7.8.9.).).).                                    ",
"          0.a.A b.9.).                                          ",
"            c.c.c.                                              ",
"                                                                "};
