/* XPM */
static char * icon_tuning_32x32_xpm[] = {
"32 32 225 2",
"  	c None",
". 	c #66625C",
"+ 	c #F5F3DF",
"@ 	c #E2E0CC",
"# 	c #B8B6A2",
"$ 	c #B4B29E",
"% 	c #B5B39F",
"& 	c #ADAB97",
"* 	c #AAA894",
"= 	c #C8C6B2",
"- 	c #B0AE9A",
"; 	c #ABA995",
"> 	c #A9A793",
", 	c #8C8A76",
"' 	c #4E4C38",
") 	c #868470",
"! 	c #A09E8A",
"~ 	c #ACAA96",
"{ 	c #A6A490",
"] 	c #9D9B87",
"^ 	c #8A8874",
"/ 	c #2C2A1B",
"( 	c #777561",
"_ 	c #767460",
": 	c #898773",
"< 	c #918F7B",
"[ 	c #7B7965",
"} 	c #6C6A56",
"| 	c #63614D",
"1 	c #302E1F",
"2 	c #2B291B",
"3 	c #4F4D39",
"4 	c #787662",
"5 	c #75735F",
"6 	c #666450",
"7 	c #5E5C48",
"8 	c #282618",
"9 	c #706E5A",
"0 	c #5B5945",
"a 	c #5C5A46",
"b 	c #575541",
"c 	c #494733",
"d 	c #474531",
"e 	c #3F3D29",
"f 	c #100F06",
"g 	c #262416",
"h 	c #716F5B",
"i 	c #6A6854",
"j 	c #62604C",
"k 	c #595743",
"l 	c #0D0C05",
"m 	c #585642",
"n 	c #696753",
"o 	c #615F4B",
"p 	c #565440",
"q 	c #242314",
"r 	c #222012",
"s 	c #828282",
"t 	c #868686",
"u 	c #BDBDBD",
"v 	c #9D9C99",
"w 	c #7A7864",
"x 	c #55533F",
"y 	c #858585",
"z 	c #848484",
"A 	c #BEBEBE",
"B 	c #5F5D49",
"C 	c #54523E",
"D 	c #0F0E06",
"E 	c #BBBBBB",
"F 	c #7D7D7D",
"G 	c #B6B6B6",
"H 	c #9C9A98",
"I 	c #464430",
"J 	c #403E2A",
"K 	c #34321F",
"L 	c #232112",
"M 	c #AEAEAE",
"N 	c #B1B1B1",
"O 	c #B8B8B8",
"P 	c #BCBCBC",
"Q 	c #646464",
"R 	c #545454",
"S 	c #636363",
"T 	c #616161",
"U 	c #73715D",
"V 	c #72705C",
"W 	c #686652",
"X 	c #605E4A",
"Y 	c #53513D",
"Z 	c #232213",
"` 	c #262417",
" .	c #9C9C9C",
"..	c #A3A3A3",
"+.	c #5E5E5E",
"@.	c #626262",
"#.	c #5D5D5D",
"$.	c #535353",
"%.	c #525252",
"&.	c #656565",
"*.	c #B9B9B9",
"=.	c #2A281C",
"-.	c #5B5A55",
";.	c #8A8A8A",
">.	c #909090",
",.	c #9E9E9E",
"'.	c #A6A6A6",
").	c #585858",
"!.	c #757575",
"~.	c #4B4B4B",
"{.	c #505050",
"].	c #B0B0B0",
"^.	c #B7B7B7",
"/.	c #6B6B6B",
"(.	c #363420",
"_.	c #282616",
":.	c #252315",
"<.	c #5B5B58",
"[.	c #888888",
"}.	c #8D8D8D",
"|.	c #989898",
"1.	c #9F9F9F",
"2.	c #ACACAC",
"3.	c #AFAFAF",
"4.	c #4C4C4C",
"5.	c #727272",
"6.	c #767676",
"7.	c #5F5F5F",
"8.	c #ADADAD",
"9.	c #A4A4A4",
"0.	c #7E7E7E",
"a.	c #737373",
"b.	c #444444",
"c.	c #3E3E3E",
"d.	c #4D4D4D",
"e.	c #424242",
"f.	c #AAAAAA",
"g.	c #838383",
"h.	c #8F8F8F",
"i.	c #696969",
"j.	c #484848",
"k.	c #494949",
"l.	c #787878",
"m.	c #6F6F6F",
"n.	c #6A6A6A",
"o.	c #717171",
"p.	c #ABABAB",
"q.	c #A5A5A5",
"r.	c #7B7B7B",
"s.	c #7C7C7C",
"t.	c #414141",
"u.	c #575757",
"v.	c #5B5B5B",
"w.	c #808080",
"x.	c #818181",
"y.	c #8E8E8E",
"z.	c #8C8C8C",
"A.	c #6D6D6D",
"B.	c #686868",
"C.	c #676767",
"D.	c #666666",
"E.	c #6C6C6C",
"F.	c #A1A1A1",
"G.	c #A2A2A2",
"H.	c #9A9A9A",
"I.	c #4A4A4A",
"J.	c #4E4E4E",
"K.	c #555555",
"L.	c #777777",
"M.	c #565656",
"N.	c #898989",
"O.	c #6E6E6E",
"P.	c #595959",
"Q.	c #454545",
"R.	c #373737",
"S.	c #515151",
"T.	c #747474",
"U.	c #404040",
"V.	c #4F4F4F",
"W.	c #7F7F7F",
"X.	c #7A7A7A",
"Y.	c #393939",
"Z.	c #2F2F2F",
"`.	c #202020",
" +	c #323232",
".+	c #353535",
"++	c #474747",
"@+	c #797979",
"#+	c #5C5C5C",
"$+	c #707070",
"%+	c #212121",
"&+	c #333333",
"*+	c #BABABA",
"=+	c #B5B5B5",
"-+	c #232323",
";+	c #181818",
">+	c #5A5A5A",
",+	c #171717",
"'+	c #1F1F1F",
")+	c #A9A9A9",
"!+	c #151515",
"~+	c #161616",
"{+	c #2B2B2B",
"]+	c #242424",
"^+	c #606060",
"/+	c #1A1A1A",
"(+	c #1B1B1B",
"_+	c #1C1C1C",
":+	c #272727",
"<+	c #8B8B8B",
"[+	c #434343",
"}+	c #383838",
"|+	c #292929",
"1+	c #191919",
"2+	c #141414",
"3+	c #121212",
"4+	c #3F3F3F",
"5+	c #514F3B",
"6+	c #2C2A19",
"7+	c #65634F",
"8+	c #363421",
"9+	c #1E1C0F",
"0+	c #0D0D05",
"a+	c #797763",
"b+	c #6D6B57",
"                          . . . .                               ",
"                      + @ # $ % & * .                           ",
"                    . = % - ; * ; > , '                         ",
"                    . ) ! ~ > { ] ^ ' /                         ",
"                    . ( _ : < [ } | 1 2                         ",
"                    . 3 | 4 5 } 6 7 2 8                         ",
"                    . 9 0 a b c d e f g                         ",
"                    . h ( 4 ( i j k g l                         ",
"                    . m | 4 ( n o p q r                         ",
"            s t t u v w w 4 ( i o x r r u t y s                 ",
"        z z u u A u v _ _ 4 ( n B C r D E u u u z s             ",
"  F E G u A u A A u H 9 0 a b I J K D L M N O E P P E Q F       ",
"  R S S T u A u P P H 4 ( U V W X Y Z `  ...N G +.T @.#.$.      ",
"  %.t y &.&.P E E *.*.m | 4 _ W B Y =.-.;.>.,.'.).).F !.~.      ",
"{.+.Q &.P P E ].].^.G /.@.x c (._.:.<.t [.}.|.1.2.3.).R ).      ",
"4.>.*.*.G @.Q 5.6.{.7.8.9.;.0.0.F 0.a.b.c.d.e.b.1.9.f.+.g.      ",
"4.h.i./.j.k.l.m.5.n.o.p.q.;.0.r.s.F t.t.b.d.u.v.T &.u.w.x.      ",
"~.y.y.z.A.B.C.D.D.C.E.F.G.H.h.g.0.r.b.k.I.~.d.J.K.t.6.L.s.      ",
"~.M.z.N./.B.i.O./.n.&.S @.P.{.Q.e.e.R.k.$.%.K.S.$.b.T.T.U.      ",
"  {.d.&.&.V.V.P P {.{.w.W.X.5.C.C.B.%.Y.Z.O.`. +V.c..+C.d.      ",
"  %.t ++k.&.P E E *.*.0.0.@+a.C.D.i.e.$.#+@.$+l.%+&+F !.~.      ",
"4.T.E *+E *+^.$.$.=+=+%.e.Y.~.4.d.d.-+u.%.;+>+B.@+s.W.x.d.      ",
"4.>.*.*.G @.Q 5.6.{.7.8.W.#+$.R $.$.Q.,+,+'+,+,+$+!.r.Z.R       ",
"4.y.h.>.C.C.E.A.A.i./.)+w.S M.d.4.4.!+~+;+'+{+]+`.,+I.d.S.      ",
"~.y.y.z.A.B.C.D.D.C.E.F.y /.^+R V.4.,+/+(+_+'+'+:+_+++j.{.W.W.  ",
"    <+t /.n./.I.~.i.E.g.l.~.[+Y.Y.}+'+{+{+/+|+]+]+;+b.!+W.W.W.  ",
"    d.&.&.V.V.    {.{.w.F ~.[+}+}+Y.-+;+1+W./.2+`.!+3+W.W.W.    ",
"                      F F 7.~.++U.4+1+W.W.W.W.W.W.W.W.W.W.W.    ",
"                      %.%.S.{.4.d.e..+W.W.W.W.W.W.W.W.W.W.W.    ",
"                      m | 4 _ n B 5+6+W.          W.W.W.W.      ",
"                      7+p x c 8+6+9+0+W.                        ",
"                          a+( b+o                               "};
