/* XPM */
static char * icon_force_feedback_48x48_xpm[] = {
"48 48 335 2",
"  	c None",
". 	c #626262",
"+ 	c #252525",
"@ 	c #535353",
"# 	c #8A8A8A",
"$ 	c #1D1D1D",
"% 	c #000000",
"& 	c #242424",
"* 	c #7E7E7E",
"= 	c #4F4F4F",
"- 	c #333333",
"; 	c #464646",
"> 	c #454545",
", 	c #2C2C2C",
"' 	c #606060",
") 	c #CECECE",
"! 	c #4E4E4E",
"~ 	c #191919",
"{ 	c #DBDBDB",
"] 	c #505050",
"^ 	c #B7B7B7",
"/ 	c #FFFFFF",
"( 	c #7A7A7A",
"_ 	c #161616",
": 	c #303030",
"< 	c #BCBCBC",
"[ 	c #3A3A3A",
"} 	c #1F1F1F",
"| 	c #646464",
"1 	c #8D8D8D",
"2 	c #0E0E0E",
"3 	c #343434",
"4 	c #F2F2F2",
"5 	c #2F2F2F",
"6 	c #EFEFEF",
"7 	c #909090",
"8 	c #1C1C1C",
"9 	c #5A5A5A",
"0 	c #C3C3C3",
"a 	c #DADADA",
"b 	c #262626",
"c 	c #181818",
"d 	c #2E2E2E",
"e 	c #5D5D5D",
"f 	c #B6B6B6",
"g 	c #CCCCCC",
"h 	c #202020",
"i 	c #020202",
"j 	c #BABABA",
"k 	c #8F8F8F",
"l 	c #151515",
"m 	c #3B3B3B",
"n 	c #2A2A2A",
"o 	c #2D2D2D",
"p 	c #828282",
"q 	c #060606",
"r 	c #737373",
"s 	c #282828",
"t 	c #E3E3E3",
"u 	c #5C5C5C",
"v 	c #888888",
"w 	c #0D0D0D",
"x 	c #C0C0C0",
"y 	c #404040",
"z 	c #A0A0A0",
"A 	c #E0E0E0",
"B 	c #565656",
"C 	c #CFCFCF",
"D 	c #595959",
"E 	c #232323",
"F 	c #D0D0D0",
"G 	c #7A6549",
"H 	c #80710E",
"I 	c #F0E218",
"J 	c #5A5539",
"K 	c #292929",
"L 	c #121212",
"M 	c #878787",
"N 	c #1E1E1E",
"O 	c #BFBFBF",
"P 	c #313131",
"Q 	c #1B1B1B",
"R 	c #939393",
"S 	c #797070",
"T 	c #5F421F",
"U 	c #EED401",
"V 	c #FFFF00",
"W 	c #EFD803",
"X 	c #694A4A",
"Y 	c #070707",
"Z 	c #797979",
"` 	c #DFDFDF",
" .	c #A8A8A8",
"..	c #795C5C",
"+.	c #38170E",
"@.	c #FAF400",
"#.	c #FCEE00",
"$.	c #F9EE00",
"%.	c #5C2E2E",
"&.	c #A7A7A7",
"*.	c #111111",
"=.	c #6D6D6D",
"-.	c #B4B4B4",
";.	c #9D9D9D",
">.	c #5E5E5E",
",.	c #484848",
"'.	c #494949",
").	c #3D3636",
"!.	c #533A18",
"~.	c #F2E100",
"{.	c #FBF600",
"].	c #5C4141",
"^.	c #BDBDBD",
"/.	c #979797",
"(.	c #393030",
"_.	c #613220",
":.	c #F5E800",
"<.	c #FBF700",
"[.	c #474747",
"}.	c #EDEDED",
"|.	c #323232",
"1.	c #C0B9B9",
"2.	c #795D5D",
"3.	c #472121",
"4.	c #DCBE04",
"5.	c #FBEF00",
"6.	c #DAC400",
"7.	c #424242",
"8.	c #F9F9F9",
"9.	c #DCDCDC",
"0.	c #171717",
"a.	c #685858",
"b.	c #611E1E",
"c.	c #E4B500",
"d.	c #FDF700",
"e.	c #FAE501",
"f.	c #3F2711",
"g.	c #777777",
"h.	c #CACACA",
"i.	c #F6F6F6",
"j.	c #040404",
"k.	c #0A0A0A",
"l.	c #090909",
"m.	c #2F2626",
"n.	c #C6A713",
"o.	c #FAF200",
"p.	c #6C5B26",
"q.	c #67675E",
"r.	c #CDCDCD",
"s.	c #D2D2D2",
"t.	c #FCFCFC",
"u.	c #868686",
"v.	c #0B0000",
"w.	c #220000",
"x.	c #410000",
"y.	c #6D0000",
"z.	c #340000",
"A.	c #0E0808",
"B.	c #2C1515",
"C.	c #5F2626",
"D.	c #E3B70F",
"E.	c #FDF500",
"F.	c #FDF403",
"G.	c #D6AB17",
"H.	c #B6A108",
"I.	c #353535",
"J.	c #C1C1C1",
"K.	c #D5D5D5",
"L.	c #F3F3F3",
"M.	c #352A2A",
"N.	c #300000",
"O.	c #610000",
"P.	c #B56200",
"Q.	c #FBF400",
"R.	c #FEFA00",
"S.	c #FDF400",
"T.	c #C3A900",
"U.	c #1C0606",
"V.	c #380303",
"W.	c #620A0A",
"X.	c #DFAD08",
"Y.	c #F9EF0B",
"Z.	c #EEEA11",
"`.	c #B5B210",
" +	c #502E0F",
".+	c #F0D900",
"++	c #C1AD0A",
"@+	c #524B2C",
"#+	c #B1B1B1",
"$+	c #EAEAEA",
"%+	c #807B7B",
"&+	c #876F0D",
"*+	c #FCF500",
"=+	c #0A0000",
"-+	c #F8EC00",
";+	c #FCF800",
">+	c #E4CD0E",
",+	c #B4AF29",
"'+	c #636328",
")+	c #747445",
"!+	c #2D1D0E",
"~+	c #ECD500",
"{+	c #F8F201",
"]+	c #2B2B0C",
"^+	c #D6D6D6",
"/+	c #403232",
"(+	c #4A3112",
"_+	c #E9D701",
":+	c #FDFB00",
"<+	c #EBD900",
"[+	c #200000",
"}+	c #B88E00",
"|+	c #FDFC00",
"1+	c #F3E201",
"2+	c #794141",
"3+	c #403737",
"4+	c #212121",
"5+	c #A99A9A",
"6+	c #552828",
"7+	c #F8E500",
"8+	c #FCF400",
"9+	c #352929",
"0+	c #705F5F",
"a+	c #0F0F00",
"b+	c #874D12",
"c+	c #F9F100",
"d+	c #FEFD00",
"e+	c #CFA900",
"f+	c #280000",
"g+	c #040000",
"h+	c #250000",
"i+	c #DCC500",
"j+	c #FEFC00",
"k+	c #FDFA00",
"l+	c #AC8826",
"m+	c #514141",
"n+	c #514E4E",
"o+	c #A9A9A9",
"p+	c #B0B0B0",
"q+	c #B5B5B5",
"r+	c #BF8A8A",
"s+	c #4E2809",
"t+	c #F1DC00",
"u+	c #340F0F",
"v+	c #F6E700",
"w+	c #985007",
"x+	c #0F0F0F",
"y+	c #919191",
"z+	c #D0B1B1",
"A+	c #5D2A0B",
"B+	c #FCF900",
"C+	c #C28600",
"D+	c #6F4506",
"E+	c #271414",
"F+	c #756F6F",
"G+	c #0C0C0C",
"H+	c #585858",
"I+	c #7F7F7F",
"J+	c #A3A300",
"K+	c #995806",
"L+	c #2F1010",
"M+	c #4A3535",
"N+	c #7B7B7B",
"O+	c #B2B2B2",
"P+	c #BEBEBE",
"Q+	c #C9C9C9",
"R+	c #9C9C9C",
"S+	c #3C3C3C",
"T+	c #363636",
"U+	c #C2C2C2",
"V+	c #B7B334",
"W+	c #FDFB01",
"X+	c #FDF600",
"Y+	c #E8CA07",
"Z+	c #564A1B",
"`+	c #525252",
" @	c #656565",
".@	c #9A9A9A",
"+@	c #BBBBBB",
"@@	c #C7C7C7",
"#@	c #D1D1D1",
"$@	c #6B6B6B",
"%@	c #9F7536",
"&@	c #FBF800",
"*@	c #A5852E",
"=@	c #5F5757",
"-@	c #686868",
";@	c #818181",
">@	c #B3B3B3",
",@	c #080808",
"'@	c #999999",
")@	c #9F8C0D",
"!@	c #B6A027",
"~@	c #323030",
"{@	c #434343",
"]@	c #010101",
"^@	c #201515",
"/@	c #FDF800",
"(@	c #F7E702",
"_@	c #311A1A",
":@	c #322E2E",
"<@	c #727272",
"[@	c #D4D4D4",
"}@	c #B8902E",
"|@	c #FAE904",
"1@	c #FFFC00",
"2@	c #DEC709",
"3@	c #3D1818",
"4@	c #969696",
"5@	c #D9D9D9",
"6@	c #E4E4E4",
"7@	c #E7E7E7",
"8@	c #515151",
"9@	c #808080",
"0@	c #E1E1E1",
"a@	c #DEDEDE",
"b@	c #8B8B8B",
"c@	c #C6C6C6",
"d@	c #101010",
"e@	c #222222",
"f@	c #3F3F3F",
"g@	c #707070",
"h@	c #A6A6A6",
"i@	c #C4C4C4",
"j@	c #DDDDDD",
"k@	c #858585",
"l@	c #4A4A4A",
"m@	c #2B2B2B",
"n@	c #6E6E6E",
"o@	c #272727",
"p@	c #616161",
"q@	c #575757",
"r@	c #6F6F6F",
"s@	c #4B4B4B",
"t@	c #383838",
"                                                                                                ",
"                                                                .                               ",
"                                + @                           # $ %                             ",
"                                  & *                       = - ; %                             ",
"                                  > , '                     = ) ! ~                             ",
"                                  ! { >                   ] ^ / ( _                             ",
"                                  : / < [               } | / / 1 2                             ",
"                                  3 4 / [               5 6 / / 7 8                             ",
"                                  9 0 / a b           c / / / / 7 8                             ",
"                d                 e f / / g h       i j / / / / k 8                             ",
"              l m n o               p / / / < q   % r / / / / / 7 s                             ",
"                - < t u ,           u / / / / v % w / / x y z A 7 n                             ",
"                  B / / C D $ c     @ / / / / 6 E / F G H I J f k K             L % M           ",
"                  N O / / / / z P 5 Q / / / / / R S T U V V W X R +       Y 5 Z ^ d             ",
"                    % ` / / / / / O ( / / /  ...+.@.#.V V V $.%.&.*.% ~ =.-.6 / ;.>.            ",
"                    ,.'./ / / / / / / / F ).!.~.V V V V V V {.].g n ` / / / / / %               ",
"                      m ^./ / / / F /.(._.:.V V V V V V V V <.[.j }./ / / / / ! |.              ",
"                        + / / 1.2.3.4.5.V V V V V V V V V V 6.7.C 8./ / / / 9.c                 ",
"                        0.c a.b.c.d.V V V V V V V V V V V e.f.g.h.i./ / / / 3                   ",
"                j.k.l.m.n.o.V V V V V V V V V V V V V V d.p.q.r.s.t./ / / u.%     % v.w.x.y.z.  ",
"        l.Y A.B.C.D.E.V V V V V V V V V V V F.G.V V V V H.I.J.K.L./ / ;.9 M.N.O.P.Q.R.V V S.T.  ",
"  U.V.W.X.d.V V V V V V V V V V V V V Y.Z.`. +.+V V V ++@+g #+$+x %+% &+*+V V V V V V V V V d.% ",
"=+-+V V V V V V V V V V V V V ;+>+,+'+)+. !+~+V V V {+]+^+^ z /+(+_+V V V V V V V V V V :+<+w.% ",
"[+}+V V V V V V V V V |+1+2+3+4+>.g.R 5+6+7+V V V 8+9+0+a+b+c+V V V V V V V V V V V d+e+f+g+    ",
"  h+i+j+k+j+j+:+j+l+m+n+Z o+^ p+q+g r+s+t+V V V V % u+<.V V V V V V V V V V V V v+w+% +         ",
"    % % % % % x+y y+A / / / / / / z+A+B+V V V V V V V V V V V V V V V V V V C+D+E+F+;.K G+      ",
"                3 H+I+6 / / / / F J+V V V V V V V V V V V V V V V V V 5.K+L+M+N+O+o+P+Q+R+S+T+  ",
"                    m U+/ / / / V+W+V V V V V V V V V V V V V V X+Y+Z+`+ @.@o++@@@#@z $@I.q |.  ",
"                    '.C / / / / %@V V V V V V V V V V V V V &@*@=@-@;@z 0 0 >@u o Y ,@j.        ",
"                  % '@/ / / / / )@V V V V V V V V V V ;+!@~@{@u.O+#@@@< L Y j.]@                ",
"                  3 / / / / / / ^@/@V V V V V V (@_@:@] <@C C C #@[@^+K.O+%                     ",
"                c 9./ / / / / / ;.[.}@|@1@2@3@% $ 4@#@C s.5@6@7@7@{ { { C ^ 8                   ",
"              |.! / / / / / / / / A 1 8@9@9@^ 0@9.^+a@7@7@7@7@7@7@L.L.L./ / ) %                 ",
"              % / / / / / ` n ^./ / / / / / / / / / / / / 6 -.b@` / / / / / / c@:               ",
"            >.;./ 6 -.=.~ % *.1 / / / / / / / F 6 / / / / U+% % d@e@f@g@h@i@j@/ k@s             ",
"            d ^ Z 5 Y       + <@/ / / / / / / l@h@/ / / / U+%           % L e@K 8@> m@          ",
"          M % L             K =./ / / / / / / % 3 A / / / U+d@                                  ",
"                            n n@/ / / / / / w   o@p@/ / / U+Q                                   ",
"                            s n@/ / / / / r %     = C / / 0 Q                                   ",
"                            8 =./ / / / j i       q@S+/ / 0 Q                                   ",
"                            8 r@/ / / / c           d R+/ 0 5                                   ",
"                            8 r@/ / 6 5               9 6 0 ;                                   ",
"                            2 $@/ / | }               D p 0 s@                                  ",
"                            _ `+/ ^ ]                   . h@y                                   ",
"                            ~ ! ) =                     7.t@[                                   ",
"                            % ; - =                       e@f@                                  ",
"                            % $ #                                                               ",
"                              .                                                                 "};
