/* XPM */
static char * icon_print_32x32_xpm[] = {
"32 32 343 2",
"  	c None",
". 	c #7E7E7E",
"+ 	c #8D8D8D",
"@ 	c #909090",
"# 	c #929292",
"$ 	c #949494",
"% 	c #8F8F8F",
"& 	c #6F6F6F",
"* 	c #F8F8F8",
"= 	c #F9F9F9",
"- 	c #FAFAFA",
"; 	c #F5F5F5",
"> 	c #BABAB9",
", 	c #A4A4A4",
"' 	c #9D9D9D",
") 	c #9E9E9E",
"! 	c #535353",
"~ 	c #AFAFAF",
"{ 	c #D2D2D2",
"] 	c #D3D2D2",
"^ 	c #D9D9D9",
"/ 	c #D5D5D5",
"( 	c #CCCCCB",
"_ 	c #DCDCDC",
": 	c #EEEEEE",
"< 	c #F6F6F6",
"[ 	c #F7F7F7",
"} 	c #DDDDDD",
"| 	c #AFAEAE",
"1 	c #4B4945",
"2 	c #515151",
"3 	c #FDFDFD",
"4 	c #B6B5B5",
"5 	c #A5A5A4",
"6 	c #BEBEBE",
"7 	c #B3B3B2",
"8 	c #9C9C9B",
"9 	c #B1B1B1",
"0 	c #A6A6A5",
"a 	c #B8B8B7",
"b 	c #B3B3B3",
"c 	c #A2A2A2",
"d 	c #DBDBDB",
"e 	c #BDBDBD",
"f 	c #858484",
"g 	c #504E4B",
"h 	c #6D6D6D",
"i 	c #F3F3F3",
"j 	c #EDEDED",
"k 	c #F1F1F1",
"l 	c #F0F0F0",
"m 	c #EBEBEB",
"n 	c #ECECEC",
"o 	c #AFAFAD",
"p 	c #43423F",
"q 	c #707070",
"r 	c #E4E4E4",
"s 	c #C4C4C4",
"t 	c #E0E0E0",
"u 	c #DADADA",
"v 	c #CFCFCF",
"w 	c #E1E1E1",
"x 	c #C7C7C7",
"y 	c #BCBCBC",
"z 	c #E3E3E3",
"A 	c #D0D0CE",
"B 	c #646360",
"C 	c #7A7A7A",
"D 	c #AAAAA9",
"E 	c #9F9E9B",
"F 	c #8E8E8D",
"G 	c #C2C1C0",
"H 	c #C2C1C1",
"I 	c #999997",
"J 	c #B0AFAF",
"K 	c #BCBBBA",
"L 	c #CECECD",
"M 	c #9F9E9D",
"N 	c #AEAEAD",
"O 	c #BBBBBA",
"P 	c #4F4D49",
"Q 	c #565656",
"R 	c #636363",
"S 	c #CDCDCD",
"T 	c #E9E9E9",
"U 	c #EAEAEA",
"V 	c #C3C2C1",
"W 	c #4A4844",
"X 	c #CCCCCC",
"Y 	c #676665",
"Z 	c #E0E0DF",
"` 	c #C0C0BF",
" .	c #969695",
"..	c #9A9A99",
"+.	c #949493",
"@.	c #A1A1A0",
"#.	c #9D9D9B",
"$.	c #A5A4A4",
"%.	c #A5A5A5",
"&.	c #858584",
"*.	c #B2B2B2",
"=.	c #DCDCDB",
"-.	c #949291",
";.	c #444340",
">.	c #D0CFCE",
",.	c #4D4B49",
"'.	c #565450",
").	c #7A7770",
"!.	c #625F5B",
"~.	c #4E4D49",
"{.	c #706F6E",
"].	c #DEDEDE",
"^.	c #D7D7D7",
"/.	c #D8D8D8",
"(.	c #D3D3D3",
"_.	c #BDBDBC",
":.	c #4A4845",
"<.	c #A2A09D",
"[.	c #54534F",
"}.	c #615E57",
"|.	c #817E77",
"1.	c #97948D",
"2.	c #7A7871",
"3.	c #262523",
"4.	c #595856",
"5.	c #5D6365",
"6.	c #7D8487",
"7.	c #A2A6A9",
"8.	c #A2A6A8",
"9.	c #93989A",
"0.	c #8F9496",
"a.	c #909497",
"b.	c #8F9495",
"c.	c #82878A",
"d.	c #80868A",
"e.	c #717679",
"f.	c #535250",
"g.	c #484643",
"h.	c #6A6863",
"i.	c #7E7B75",
"j.	c #74716A",
"k.	c #94918A",
"l.	c #7E7B74",
"m.	c #737069",
"n.	c #42413D",
"o.	c #71706E",
"p.	c #DAD8D3",
"q.	c #585959",
"r.	c #CCCED0",
"s.	c #EEF2F3",
"t.	c #EAEEF0",
"u.	c #D6D8D9",
"v.	c #D0D1D2",
"w.	c #CBCECF",
"x.	c #BEC0C2",
"y.	c #A0A3A5",
"z.	c #6B6C6D",
"A.	c #4A4D4D",
"B.	c #3F3E3A",
"C.	c #838079",
"D.	c #716E67",
"E.	c #908D86",
"F.	c #7F7C75",
"G.	c #75726B",
"H.	c #403E3B",
"I.	c #8B8985",
"J.	c #DCDAD5",
"K.	c #777A7B",
"L.	c #7D7B77",
"M.	c #787674",
"N.	c #787774",
"O.	c #797978",
"P.	c #878785",
"Q.	c #8B8A88",
"R.	c #8B8C8A",
"S.	c #929391",
"T.	c #999A98",
"U.	c #9B9D9B",
"V.	c #9B9B9B",
"W.	c #828281",
"X.	c #454541",
"Y.	c #5D5B56",
"Z.	c #7C7A74",
"`.	c #9E9B94",
" +	c #A5A29B",
".+	c #ADAAA3",
"++	c #88857F",
"@+	c #57544D",
"#+	c #474541",
"$+	c #777673",
"%+	c #F2F1EE",
"&+	c #EDEAE6",
"*+	c #EBEAE6",
"=+	c #D5D3CD",
"-+	c #D3D1CC",
";+	c #D1D0CB",
">+	c #CFCDC8",
",+	c #CDCAC4",
"'+	c #C9C6BF",
")+	c #C6C3BC",
"!+	c #C2BFB9",
"~+	c #BBB9B2",
"{+	c #BAB7B0",
"]+	c #BDBAB3",
"^+	c #BDBAB4",
"/+	c #B3B0A9",
"(+	c #9D9A93",
"_+	c #A8A59E",
":+	c #AEABA4",
"<+	c #827F78",
"[+	c #CBC8C3",
"}+	c #898680",
"|+	c #625F58",
"1+	c #6F6C65",
"2+	c #797875",
"3+	c #ECEAE7",
"4+	c #E0DED9",
"5+	c #E2E0DB",
"6+	c #E7E5E1",
"7+	c #EAE7E3",
"8+	c #EAE8E3",
"9+	c #EBEAE5",
"0+	c #EEECE7",
"a+	c #EEECE8",
"b+	c #EDECE8",
"c+	c #EDECE6",
"d+	c #E9E8E4",
"e+	c #E3E2DC",
"f+	c #DFDED9",
"g+	c #D5D2CC",
"h+	c #C3C0B9",
"i+	c #928F88",
"j+	c #7B7871",
"k+	c #ABA8A2",
"l+	c #7D7A73",
"m+	c #5F5C55",
"n+	c #6E6B64",
"o+	c #BBB8B1",
"p+	c #BAB8B1",
"q+	c #BEBBB4",
"r+	c #BCB9B2",
"s+	c #C0BDB6",
"t+	c #C4C1BA",
"u+	c #C2BFB8",
"v+	c #C1BEB7",
"w+	c #C0BEB7",
"x+	c #BFBCB6",
"y+	c #C5C2BC",
"z+	c #C7C5BF",
"A+	c #C9C6C0",
"B+	c #CBC9C3",
"C+	c #BCB9B3",
"D+	c #77746D",
"E+	c #8F8C86",
"F+	c #79766F",
"G+	c #636059",
"H+	c #6B6861",
"I+	c #4E4D48",
"J+	c #777672",
"K+	c #D1CEC9",
"L+	c #B7B4AE",
"M+	c #B4B1AB",
"N+	c #AEABA5",
"O+	c #AFACA5",
"P+	c #B1AEA7",
"Q+	c #B2AFA8",
"R+	c #ABA8A1",
"S+	c #ACA9A2",
"T+	c #AAA7A1",
"U+	c #7D7C76",
"V+	c #85837E",
"W+	c #98958E",
"X+	c #93908A",
"Y+	c #A3A099",
"Z+	c #A29F98",
"`+	c #8D8A83",
" @	c #45423C",
".@	c #585754",
"+@	c #474543",
"@@	c #7F7F7F",
"#@	c #7C7B77",
"$@	c #C8C5C1",
"%@	c #ADAAA4",
"&@	c #A9A6A0",
"*@	c #A7A49D",
"=@	c #A6A39C",
"-@	c #A19E97",
";@	c #99968F",
">@	c #3F3E3B",
",@	c #696762",
"'@	c #6A6963",
")@	c #6C6A65",
"!@	c #69B45D",
"~@	c #91F086",
"{@	c #9B9891",
"]@	c #8C8982",
"^@	c #726F68",
"/@	c #4E4B44",
"(@	c #524F4A",
"_@	c #53524E",
":@	c #353533",
"<@	c #7C7C7C",
"[@	c #747370",
"}@	c #BAB7B1",
"|@	c #AAA7A0",
"1@	c #98958F",
"2@	c #5A5955",
"3@	c #AFADA7",
"4@	c #B5B3AE",
"5@	c #A6C29D",
"6@	c #68DD5A",
"7@	c #9C9992",
"8@	c #76736C",
"9@	c #706D66",
"0@	c #5C5A56",
"a@	c #2D2C2A",
"b@	c #666461",
"c@	c #9C9993",
"d@	c #9F9C95",
"e@	c #8B8881",
"f@	c #68655F",
"g@	c #4D4C4C",
"h@	c #686763",
"i@	c #706F6A",
"j@	c #71706B",
"k@	c #72706C",
"l@	c #74726D",
"m@	c #918E88",
"n@	c #6B6963",
"o@	c #41403E",
"p@	c #5A5A58",
"q@	c #5D5C59",
"r@	c #575755",
"s@	c #5A5957",
"t@	c #656460",
"u@	c #5F5D5B",
"v@	c #71706A",
"w@	c #6F6D69",
"x@	c #6E6C66",
"y@	c #65645F",
"z@	c #676662",
"A@	c #53534F",
"B@	c #403F3C",
"                                                                ",
"                                                                ",
"                                                                ",
"                                                                ",
"                  . + @ @ # $ %                                 ",
"                & * = * * - - ; > , ' ' ) $ @ !                 ",
"                ~ = { ] ^ / ( _ : < < * [ < } | 1               ",
"              2 3 ; 4 5 6 7 8 9 0 a b c 4 d e f g               ",
"              h i j : : k k k l : : j m j n ^ o p               ",
"              q m r s t u v w w } x ^ / y z A B                 ",
"              C j D E F D G H I J K L M N _ O P + Q             ",
"            R S n m T T T T T T T T T T U T V W t X &           ",
"            Y Z `  ...+.@.0 #.$.8 %.0 &.*.=.-.;.>.,.'.).!.~.    ",
"            {.].^.} ^ /.} } ^ (./ ^.^ ^ d w _.:.<.[.}.|.1.2.3.  ",
"          4.5.6.7.8.9.0.a.0.0.0.b.b.c.c.d.e.f.g.h.i.j.k.l.m.n.  ",
"        o.p.q.r.s.t.u.u.u.u.u.u.v.v.w.x.y.z.A.B.C.D.E.F.D.G.H.  ",
"      I.J.K.L.M.N.N.N.O.P.Q.R.R.S.T.U.V.W.X.Y.Z.`. +.+++@+m.#+  ",
"    $+%+&+*+=+-+=+;+>+,+'+)+!+~+{+{+]+]+^+/+(+_+:+<+[+}+|+1+#+  ",
"    2+3+4+5+6+6+7+8+9+0+a+a+a+b+c+d+6+e+f+g+,+h+i+j+k+l+m+n+#+  ",
"    N.>+o+p+q+r+r+s+)+t+u+v+w+s+x+y+h+z+A+B+C+_+D+j+E+F+G+H+I+  ",
"    J+K+L+M+N+:+O+P+/+Q+R+S+T+U+V+W+X+Y+Z+Z+`.`+D.j.G.1+ @.@+@@@",
"    #@$@%@R+&@*@=@=@_+Y+-@`.;@>@,@'@)@!@~@;@{@]@^@G./@(@_@:@<@@@",
"    [@}@R+|@Y+Z+=@=@Z+(+(+(+1@2@3@3@4@5@6@{@7@]@^@8@9@0@a@@@@@@@",
"    b@c@(+d@(+(+(+(+(+(+(+(+(+(+(+(+(+(+(+(+{@e@^@G.f@g@@@@@@@  ",
"    h@i@j@k@l@l@l@l@m@(+(+(+(+(+(+(+(+(+(+(+7@`+^@n@o@@@@@@@    ",
"                  p@q@r@s@t@u@q@v@v@v@v@w@x@y@z@A@B@@@@@        ",
"                                  @@@@@@@@@@@@@@@@@@            ",
"                                                                ",
"                                                                ",
"                                                                ",
"                                                                ",
"                                                                "};
