/* XPM */
static char * icon_copy_file_32x32_xpm[] = {
"32 32 238 2",
"  	c None",
". 	c #636363",
"+ 	c #605F5F",
"@ 	c #636261",
"# 	c #575756",
"$ 	c #5C5C5C",
"% 	c #565656",
"& 	c #646362",
"* 	c #545454",
"= 	c #616060",
"- 	c #5D5C5C",
"; 	c #626161",
"> 	c #6D6C6B",
", 	c #CAC8C6",
"' 	c #D2D0CE",
") 	c #D7D4D2",
"! 	c #DBD9D8",
"~ 	c #DAD8D5",
"{ 	c #D8D7D4",
"] 	c #CECCCB",
"^ 	c #D3D1D0",
"/ 	c #D4D2D2",
"( 	c #858380",
"_ 	c #D0D0D0",
": 	c #747474",
"< 	c #737271",
"[ 	c #626160",
"} 	c #D9D7D6",
"| 	c #DEDDDB",
"1 	c #E1E0DF",
"2 	c #E4E2E1",
"3 	c #E1DFDF",
"4 	c #DAD9D8",
"5 	c #D9D8D8",
"6 	c #DCDBDA",
"7 	c #D1CECD",
"8 	c #878582",
"9 	c #F7F6F5",
"0 	c #D6D5D5",
"a 	c #787776",
"b 	c #696867",
"c 	c #D7D5D5",
"d 	c #E5E4E3",
"e 	c #E2E0E0",
"f 	c #E3E2E0",
"g 	c #DEDCDB",
"h 	c #DDDCDC",
"i 	c #DEDBDA",
"j 	c #D4D3D0",
"k 	c #918E8C",
"l 	c #F5F4F3",
"m 	c #C9C6C5",
"n 	c #C2C2C0",
"o 	c #6B6A69",
"p 	c #DCDAD9",
"q 	c #E5E3E3",
"r 	c #E4E3E2",
"s 	c #E1E0DE",
"t 	c #E1DEDE",
"u 	c #DFDDDB",
"v 	c #DBDAD8",
"w 	c #DCDADA",
"x 	c #D4D2D0",
"y 	c #999795",
"z 	c #CAC7C5",
"A 	c #E1DFDE",
"B 	c #D0CFCD",
"C 	c #C1BFBF",
"D 	c #646262",
"E 	c #DFDDDC",
"F 	c #E4E2E2",
"G 	c #E0DEDD",
"H 	c #DCDBD9",
"I 	c #E1DFDD",
"J 	c #DDDBDA",
"K 	c #D2D1CE",
"L 	c #858483",
"M 	c #6B6A6A",
"N 	c #6E6E6E",
"O 	c #666666",
"P 	c #616160",
"Q 	c #494949",
"R 	c #595958",
"S 	c #E5E3E2",
"T 	c #D5D3D3",
"U 	c #CDCBCA",
"V 	c #B1AEAD",
"W 	c #9E9C9A",
"X 	c #999896",
"Y 	c #989795",
"Z 	c #989695",
"` 	c #484848",
" .	c #5F5E5E",
"..	c #E3E1E0",
"+.	c #E2DFDF",
"@.	c #DEDCDC",
"#.	c #DAD8D7",
"$.	c #D7D6D5",
"%.	c #D3D1CF",
"&.	c #C8C6C5",
"*.	c #C1BEBB",
"=.	c #C4C1BE",
"-.	c #C9C7C4",
";.	c #525252",
">.	c #E0DFDF",
",.	c #E2E0DF",
"'.	c #DFDCDB",
").	c #D9D7D7",
"!.	c #D9D7D5",
"~.	c #D7D4D3",
"{.	c #D0CECD",
"].	c #D6D3D2",
"^.	c #D5D2D1",
"/.	c #D0CECC",
"(.	c #686767",
"_.	c #E4E2E0",
":.	c #E3E0E0",
"<.	c #E0DDDC",
"[.	c #DDDBD9",
"}.	c #DBD9D7",
"|.	c #DCDAD7",
"1.	c #DAD9D9",
"2.	c #D7D6D4",
"3.	c #D7D5D4",
"4.	c #D6D5D3",
"5.	c #5C5B5B",
"6.	c #6C6B6B",
"7.	c #E0DFDE",
"8.	c #E1DFDC",
"9.	c #E0DFDC",
"0.	c #D9D6D4",
"a.	c #E0DFDD",
"b.	c #DFDDDA",
"c.	c #DCDAD8",
"d.	c #5D5D5D",
"e.	c #D3D0CF",
"f.	c #DFDEDD",
"g.	c #6F6E6D",
"h.	c #CDCCCB",
"i.	c #E4E4E3",
"j.	c #E3E0DF",
"k.	c #737171",
"l.	c #9A9898",
"m.	c #E6E5E5",
"n.	c #747272",
"o.	c #E5E4E4",
"p.	c #E9E8E7",
"q.	c #EAE8E7",
"r.	c #E7E5E4",
"s.	c #E8E6E4",
"t.	c #EBEAE9",
"u.	c #EDECEC",
"v.	c #EEECEB",
"w.	c #EEECEC",
"x.	c #686766",
"y.	c #ECEBEB",
"z.	c #ECEBEA",
"A.	c #EDEBEA",
"B.	c #EDECEA",
"C.	c #EFEEED",
"D.	c #F0EFEF",
"E.	c #6D6C6C",
"F.	c #F4F4F3",
"G.	c #F4F3F3",
"H.	c #F4F3F2",
"I.	c #F5F3F2",
"J.	c #F6F5F5",
"K.	c #F8F7F6",
"L.	c #636262",
"M.	c #FAFAFA",
"N.	c #F9F9F9",
"O.	c #FBFAFA",
"P.	c #5B5B5B",
"Q.	c #FAF9F9",
"R.	c #FCFCFC",
"S.	c #E1DEDD",
"T.	c #E0DEDC",
"U.	c #DDDADA",
"V.	c #D9D8D6",
"W.	c #DAD7D5",
"X.	c #656464",
"Y.	c #575757",
"Z.	c #706F6F",
"`.	c #717070",
" +	c #727272",
".+	c #727171",
"++	c #6E6D6D",
"@+	c #DFDEDC",
"#+	c #6F6E6E",
"$+	c #EAEAEA",
"%+	c #E7E6E5",
"&+	c #E8E6E6",
"*+	c #E4E3E1",
"=+	c #818180",
"-+	c #E7E4E4",
";+	c #E6E4E4",
">+	c #E9E7E5",
",+	c #C4C3C2",
"'+	c #686666",
")+	c #E8E7E6",
"!+	c #EAE9E9",
"~+	c #EBEAEA",
"{+	c #E9E9E7",
"]+	c #EEEDEC",
"^+	c #EEEDED",
"/+	c #F0F0EF",
"(+	c #EFEDED",
"_+	c #ECEAEA",
":+	c #7A7A79",
"<+	c #F0F0F0",
"[+	c #F5F3F3",
"}+	c #F2F1F0",
"|+	c #EFEFEE",
"1+	c #838282",
"2+	c #7F7F7F",
"3+	c #F0EFEE",
"4+	c #F1F0EF",
"5+	c #F6F6F5",
"6+	c #F6F5F4",
"7+	c #F3F2F2",
"8+	c #F1F0F0",
"9+	c #F6F6F6",
"0+	c #F2F1F1",
"a+	c #F3F2F1",
"b+	c #D2D1D0",
"c+	c #5E5E5E",
"d+	c #FBFBFB",
"e+	c #F8F8F8",
"f+	c #7B7A7A",
"g+	c #7D7D7D",
"h+	c #FCFBFB",
"i+	c #FDFDFD",
"j+	c #9C9C9C",
"k+	c #FBFBFA",
"l+	c #EDEDEC",
"m+	c #E6E6E6",
"n+	c #949393",
"o+	c #666565",
". + @ # $ % & * + = - ; >                                       ",
"; , ' ) ! ~ { ] ^ / , ( _ : <                                   ",
"[ ^ } | 1 2 3 4 5 6 7 8 9 0 , a                                 ",
"b c d e 2 f 3 g h i j k | l 1 m n                               ",
"o p q r s t u v h w x y z A r B C                               ",
"D E 3 F d G A H I J K y L M N O P Q                             ",
"R E 3 e S F u H e 6 T U V W X Y Z `                             ",
" .G e e ..+.@.6 @.#.$.%.7 &.*.=.-.;.                            ",
"& >.,.e E '.G g ).#.#.!.~.{.].^./.*                             ",
"(...,.+.G _.:.<.[.}.|.1.2.3.4.' 2.5.                            ",
"6.A ,.2 7.7.8.9.. + @ # $ % & * + = - ; >                       ",
"O 0.I ,.+.a.b.c.; , ' ) ! ~ { ] ^ / , ( _ : <                   ",
"d.e.7.3 E f.r f [ ^ } | 1 2 3 4 5 6 7 8 9 0 , a                 ",
"g.h.H E g 3 i.j.b c d e 2 f 3 g h i j k | l 1 m n               ",
"k.l...1 >.1 d m.o p q r s t u v h w x y z A r B C               ",
"  n.f.o.p.m.p.q.D E 3 F d G A H I J K y L M N O P Q             ",
"  6.r.s.t.u.v.w.R E 3 e S F u H e 6 T U V W X Y Z `             ",
"  x.y.z.A.B.C.D. .G e e ..+.@.6 @.#.$.%.7 &.*.=.-.;.            ",
"  E.F.G.H.I.J.K.& >.,.e E '.G g ).#.#.!.~.{.].^./.*             ",
"  L.M.N.N.N.O.M.(...,.+.G _.:.<.[.}.|.1.2.3.4.' 2.5.            ",
"  P.N.Q.R.R.R.R.6.A ,.2 7.7.8.9.S.u T.}.U.V.W.v #.X.            ",
"  Y.(.Z.`. +.+++O 0.I ,.+.a.b.c.S.T.8.@+,.e 3 3 ,.#+            ",
"                d.e.7.3 E f.r f ,.r.r.d $+$+%+&+*+=+            ",
"                g.h.H E g 3 i.j.3 -+r.;+p.$+$+>+r.,+'+          ",
"                k.l...1 >.1 d m.)+!+~+$+~+~+$+$+{+]+6.          ",
"                  n.f.o.p.m.p.q.t.t.u.^+/+(+w._+A.C.:+          ",
"                  6.r.s.t.u.v.w.u.C.<+<+I.[+}+|+y.C.1+2+2+2+2+2+",
"                  x.y.z.A.B.C.D.3+4+F.5+6+7+8+9+0+a+b+c+2+2+2+  ",
"                  E.F.G.H.I.J.K.Q.Q.N.N.M.O.M.M.d+R.e+f+g+2+    ",
"                  L.M.N.N.N.O.M.d+h+R.h+R.R.R.R.d+i+i+j+g+      ",
"                  P.N.Q.R.R.R.R.k+k+l+$+m+n+.+#+o+L.+ d.        ",
"                  Y.(.Z.`. +.+++++++O = +                       "};
