/* XPM */
static char * icon_properties2_32x32_xpm[] = {
"32 32 249 2",
"  	c None",
". 	c #636363",
"+ 	c #605F5F",
"@ 	c #616060",
"# 	c #636261",
"$ 	c #575756",
"% 	c #5C5C5C",
"& 	c #565656",
"* 	c #646362",
"= 	c #545454",
"- 	c #5D5C5C",
"; 	c #626161",
"> 	c #6D6C6B",
", 	c #CAC8C6",
"' 	c #D1CFCD",
") 	c #D2D0CE",
"! 	c #D7D4D2",
"~ 	c #DBD9D8",
"{ 	c #DAD8D5",
"] 	c #D8D7D4",
"^ 	c #CECCCB",
"/ 	c #D3D1D0",
"( 	c #D4D2D2",
"_ 	c #858380",
": 	c #D0D0D0",
"< 	c #747474",
"[ 	c #737271",
"} 	c #626160",
"| 	c #D7D6D4",
"1 	c #D9D7D6",
"2 	c #DEDDDB",
"3 	c #E1E0DF",
"4 	c #E4E2E1",
"5 	c #E1DFDF",
"6 	c #DAD9D8",
"7 	c #D9D8D8",
"8 	c #DCDBDA",
"9 	c #D1CECD",
"0 	c #878582",
"a 	c #F7F6F5",
"b 	c #D6D5D5",
"c 	c #787776",
"d 	c #6A6967",
"e 	c #D8D6D4",
"f 	c #E3E2E0",
"g 	c #E3E2E1",
"h 	c #E4E2E0",
"i 	c #E5E4E3",
"j 	c #E5E4E4",
"k 	c #E5E4E2",
"l 	c #DEDDDC",
"m 	c #DCDADA",
"n 	c #D6D3D1",
"o 	c #999692",
"p 	c #FCFCFC",
"q 	c #EFEFEF",
"r 	c #C8C6C4",
"s 	c #B9B6B6",
"t 	c #686866",
"u 	c #696867",
"v 	c #D7D5D5",
"w 	c #E4E3E2",
"x 	c #E2E0E0",
"y 	c #DEDCDB",
"z 	c #DDDCDC",
"A 	c #DEDBDA",
"B 	c #D4D3D0",
"C 	c #918E8C",
"D 	c #F5F4F3",
"E 	c #C9C6C5",
"F 	c #C2C2C0",
"G 	c #4F4E4D",
"H 	c #777676",
"I 	c #767575",
"J 	c #767574",
"K 	c #585756",
"L 	c #7A7978",
"M 	c #FFFFFF",
"N 	c #FEFEFE",
"O 	c #FBFBFB",
"P 	c #FAFAFA",
"Q 	c #F9F9F9",
"R 	c #E5E5E5",
"S 	c #D2D2D2",
"T 	c #F0F0F0",
"U 	c #F1F1F1",
"V 	c #E9E9E9",
"W 	c #D8D8D8",
"X 	c #D4D4D4",
"Y 	c #DDDDDD",
"Z 	c #E3E3E3",
"` 	c #E1E1E1",
" .	c #E0E0E0",
"..	c #DBDBDB",
"+.	c #D9D9D9",
"@.	c #D6D6D6",
"#.	c #DADADA",
"$.	c #DCDCDC",
"%.	c #F6F6F6",
"&.	c #868686",
"*.	c #5B5B5B",
"=.	c #AAAAAA",
"-.	c #8E8E8E",
";.	c #616161",
">.	c #898989",
",.	c #717171",
"'.	c #666666",
").	c #626262",
"!.	c #6E6E6E",
"~.	c #7F7F7F",
"{.	c #797979",
"].	c #787878",
"^.	c #7E7E7E",
"/.	c #757575",
"(.	c #5E5E5E",
"_.	c #ABABAA",
":.	c #CDCDCD",
"<.	c #F1F1F0",
"[.	c #737272",
"}.	c #797877",
"|.	c #F4F4F4",
"1.	c #F2F2F2",
"2.	c #EEEEEE",
"3.	c #EDEDED",
"4.	c #ECECEC",
"5.	c #EBEBEB",
"6.	c #EAEAEA",
"7.	c #E8E8E8",
"8.	c #E6E6E6",
"9.	c #727171",
"0.	c #E2E2E2",
"a.	c #CECECE",
"b.	c #DEDEDE",
"c.	c #D1D1D1",
"d.	c #D3D3D3",
"e.	c #CFCFCF",
"f.	c #CBCBCB",
"g.	c #D5D4D4",
"h.	c #706F6F",
"i.	c #AFAFAF",
"j.	c #A3A3A3",
"k.	c #969696",
"l.	c #878787",
"m.	c #6B6B6B",
"n.	c #919191",
"o.	c #959595",
"p.	c #939393",
"q.	c #858585",
"r.	c #707070",
"s.	c #646464",
"t.	c #A6A6A6",
"u.	c #6F6E6E",
"v.	c #F8F8F8",
"w.	c #F7F7F7",
"x.	c #F3F3F3",
"y.	c #E6E6E5",
"z.	c #C6C6C6",
"A.	c #BCBCBC",
"B.	c #C5C5C5",
"C.	c #D5D5D5",
"D.	c #DFDFDE",
"E.	c #E7E7E6",
"F.	c #777675",
"G.	c #BABABA",
"H.	c #A5A5A5",
"I.	c #777777",
"J.	c #686868",
"K.	c #8D8D8D",
"L.	c #909090",
"M.	c #737373",
"N.	c #A7A7A6",
"O.	c #CECECD",
"P.	c #FDFDFD",
"Q.	c #F5F5F5",
"R.	c #F5F5F4",
"S.	c #F0F0EF",
"T.	c #EEEEED",
"U.	c #ECEBEB",
"V.	c #EBEBEA",
"W.	c #E9E9E8",
"X.	c #E8E8E7",
"Y.	c #E7E7E7",
"Z.	c #4E4D4C",
"`.	c #727271",
" +	c #6D6C6C",
".+	c #6B6A69",
"++	c #686767",
"@+	c #676666",
"#+	c #666665",
"$+	c #666564",
"%+	c #61605F",
"&+	c #5D5D5C",
"*+	c #5E5E5D",
"=+	c #626261",
"-+	c #686766",
";+	c #454444",
">+	c #616160",
",+	c #656564",
"'+	c #6B6B6A",
")+	c #81807F",
"!+	c #4B4A49",
"~+	c #565655",
"{+	c #AFAEAC",
"]+	c #B2B1B1",
"^+	c #B2B1B0",
"/+	c #B2B2B1",
"(+	c #B2B2B2",
"_+	c #B3B2B2",
":+	c #B6B6B6",
"<+	c #B4B4B3",
"[+	c #B5B4B3",
"}+	c #B5B5B5",
"|+	c #B4B3B3",
"1+	c #ADADAD",
"2+	c #B0AFAF",
"3+	c #B3B2B1",
"4+	c #E0DFDE",
"5+	c #E4E2E2",
"6+	c #E6E4E4",
"7+	c #E7E6E4",
"8+	c #E9E7E6",
"9+	c #ECECEB",
"0+	c #E8E7E7",
"a+	c #E9E8E8",
"b+	c #EDECEC",
"c+	c #EFEEEE",
"d+	c #F4F4F3",
"e+	c #F4F3F3",
"f+	c #F4F3F2",
"g+	c #F5F3F2",
"h+	c #F6F5F5",
"i+	c #F8F7F6",
"j+	c #FAF9F9",
"k+	c #FBFAFA",
"l+	c #7B7A7A",
"m+	c #7D7D7D",
"n+	c #636262",
"o+	c #F6F6F5",
"p+	c #FCFBFB",
"q+	c #9C9C9C",
"r+	c #FBFBFA",
"s+	c #EDEDEC",
"t+	c #949393",
"u+	c #666565",
"v+	c #5D5D5D",
"w+	c #575757",
"x+	c #717070",
"y+	c #727272",
"z+	c #6E6D6D",
"                                                                ",
"                                                                ",
"                                                                ",
"                                                                ",
"          . + @ # $ % & * = + @ - ; >                           ",
"          ; , ' ) ! ~ { ] ^ / ( , _ : < [                       ",
"          } / | 1 2 3 4 5 6 7 8 9 0 a b , c                     ",
"          d e f g h i j k l m 2 n o p q r s t                   ",
"          u v w i x 4 f 5 y z A B C 2 D 3 E F .                 ",
"      G H H H I I I I I I I I I I I I I I I J K I I I J K       ",
"      L M M N N p p p p O O P P P P P P P P P P Q Q Q Q >       ",
"      L N R S T U V W : X W Y Z `  .Y Y ..+.W @...#.$.%.>       ",
"      L %.&.*.=.U -.;.>.,.'.).!.~.{.).).].^./.(.;._.:.<.[.      ",
"      }.p %.|.1.1.1.q 2.2.3.4.4.5.6.7.7.7.8.8.8.8.R R <.9.      ",
"      }.O 0.a.|.|.b.c.X X d.S S c.c.: : : : e.a.f.g.z 3.h.      ",
"      c %.&.*.i.%.j.k.k.k.l.m.&.n.o.p.p.q.r.s.*.*.t.:.V u.      ",
"      c v.p p w.w.%.|.|.x.1.1.1.U U T T T T q 2.2.4.4.y.u.      ",
"      c %.+.z.p O 0.A.z.Y #.B.C.C.X X X X X X X X D.E.R u.      ",
"      F.V &.*.G.p H.I.{.^.I.J.~.l.K.L.L.M.M.M.,.'.N.O.` u.      ",
"      F.w.U 4.P.p O P P P P P P P P Q Q Q Q v.v.Q.R.%.` u.      ",
"      J 1.%.U S.T.q 4.U.V.6.V W.X.Y.Y.Y.Y.Y...R Y.8.R R u.      ",
"      Z.`. +.+u ++@+@+#+$+$+%+%+&+&+*+*+*+=+-+;+>+,+'+)+!+~.~.~.",
"            ~+{+]+^+]+/+(+_+_+(+:+<+[+(+]+}+|+1+2+3+% ~.~.~.~.  ",
"            + 4+w 5+6+i 6+7+8+V 9+U.V 0+V 8.8.7.a+b+).~.~.~.    ",
"             +c+d+e+f+g+h+i+j+j+Q Q P k+P P O P p v.l+m+~.      ",
"            n+o+P Q Q Q k+P O p+p p+p p p p O p P.P.q+m+        ",
"            *.Q Q j+p p p p r+r+s+6.8.t+9.u.u+s.n++ v+          ",
"            w+@ ++h.x+y+9.z+z+z+'.@ +                           ",
"                                                                ",
"                                                                ",
"                                                                ",
"                                                                "};
