/* XPM */
static char * icon_device_block_20x20_xpm[] = {
"20 20 88 1",
" 	c None",
".	c #4B4747",
"+	c #7E7E7E",
"@	c #615D5D",
"#	c #474040",
"$	c #444141",
"%	c #B7B6B6",
"&	c #E1E1E1",
"*	c #D0CFCF",
"=	c #767373",
"-	c #4D4747",
";	c #474444",
">	c #B5B4B4",
",	c #E0DFDF",
"'	c #D6D6D6",
")	c #D8D8D8",
"!	c #CCCBCB",
"~	c #797777",
"{	c #4C4646",
"]	c #464343",
"^	c #ACACAC",
"/	c #DEDEDE",
"(	c #D5D5D5",
"_	c #C4C3C3",
":	c #6A6666",
"<	c #4A4343",
"[	c #4C4949",
"}	c #C8C8C8",
"|	c #DDDDDD",
"1	c #D4D3D3",
"2	c #807D7D",
"3	c #484242",
"4	c #5A5757",
"5	c #BCBCBC",
"6	c #E0E0E0",
"7	c #000000",
"8	c #D2D2D2",
"9	c #767272",
"0	c #5A5858",
"a	c #BEBDBD",
"b	c #DFDFDF",
"c	c #070707",
"d	c #888585",
"e	c #504949",
"f	c #C7C7C7",
"g	c #CFCFCF",
"h	c #373131",
"i	c #777676",
"j	c #DCDCDC",
"k	c #AAA9A9",
"l	c #423F3F",
"m	c #514D4D",
"n	c #B0B0B0",
"o	c #D3D3D3",
"p	c #C5C5C5",
"q	c #575656",
"r	c #3C3737",
"s	c #726F6F",
"t	c #AFAFAF",
"u	c #7F7F7F",
"v	c #4A4646",
"w	c #4F4B4B",
"x	c #B1B0B0",
"y	c #CACACA",
"z	c #727272",
"A	c #B2B1B1",
"B	c #848484",
"C	c #373636",
"D	c #828181",
"E	c #555252",
"F	c #A9A9A9",
"G	c #D4D4D4",
"H	c #C4C4C4",
"I	c #787777",
"J	c #3C3B3B",
"K	c #797979",
"L	c #ABAAAA",
"M	c #696868",
"N	c #A6A4A4",
"O	c #C9C8C8",
"P	c #7B7B7B",
"Q	c #313030",
"R	c #7A7A7A",
"S	c #7C7C7C",
"T	c #4B4949",
"U	c #696767",
"V	c #4A4949",
"W	c #353434",
"                    ",
"        .+@#        ",
"       $%&*=-       ",
"      ;>,')!~{      ",
"     ]^/'(('_:<     ",
"    [}|((((('123    ",
"   456'(777(''893   ",
"  0ab(((c((7''(!de  ",
" [f|'(((c((c'''(g=h ",
" ij'((((ccc(''''(kl ",
" mno((((c((c'''(pqr ",
"  sto(((c((c''(fuv  ",
"   wx(((ccc('(yzv   ",
"    @A8((((((}BCD   ",
"     EFG((((HIJKuu+ ",
"      [L8((HMJKuuuuu",
"       [N*OPQRu+S   ",
"        TUVWS+      ",
"                    ",
"                    "};
