/* XPM */
static char * icon_edit_32x32_xpm[] = {
"32 32 164 2",
"  	c None",
". 	c #737373",
"+ 	c #707070",
"@ 	c #727272",
"# 	c #BBBBBB",
"$ 	c #E4E4E4",
"% 	c #636363",
"& 	c #787878",
"* 	c #888888",
"= 	c #9D9D9D",
"- 	c #F4F4F4",
"; 	c #EEEEEE",
"> 	c #D5D5D5",
", 	c #686868",
"' 	c #717171",
") 	c #767676",
"! 	c #959595",
"~ 	c #F0F0F0",
"{ 	c #F1F1F1",
"] 	c #EFEFEF",
"^ 	c #A3A3A3",
"/ 	c #666666",
"( 	c #6A6A6A",
"_ 	c #8A8A8A",
": 	c #8D8D8D",
"< 	c #929292",
"[ 	c #DDDDDD",
"} 	c #F3F3F3",
"| 	c #F2F2F2",
"1 	c #D9D9D9",
"2 	c #CFCFCF",
"3 	c #EBEBEB",
"4 	c #7C7C7C",
"5 	c #696969",
"6 	c #ECECEC",
"7 	c #EDEDED",
"8 	c #E1E1E1",
"9 	c #D4D4D4",
"0 	c #E9E9E9",
"a 	c #E5E5E5",
"b 	c #A9A9A9",
"c 	c #676766",
"d 	c #7D7D7C",
"e 	c #CFCFCE",
"f 	c #EAEAEA",
"g 	c #DEDEDE",
"h 	c #A4A4A4",
"i 	c #D2D2D2",
"j 	c #999999",
"k 	c #6F6F6F",
"l 	c #C3C3C3",
"m 	c #E07074",
"n 	c #F98C8C",
"o 	c #7D7D7D",
"p 	c #C1C1C1",
"q 	c #CCCCCC",
"r 	c #A6A6A6",
"s 	c #868685",
"t 	c #F0EFEB",
"u 	c #DCD5C3",
"v 	c #BFB5B4",
"w 	c #A77678",
"x 	c #99232D",
"y 	c #626262",
"z 	c #BFBFBF",
"A 	c #E8E8E8",
"B 	c #CBCBCB",
"C 	c #E0E0E0",
"D 	c #EFEEE6",
"E 	c #EBE0BE",
"F 	c #D2C99F",
"G 	c #8E8E8E",
"H 	c #5E4F4F",
"I 	c #5F4C4E",
"J 	c #656565",
"K 	c #E6E6E6",
"L 	c #E7E7E7",
"M 	c #CDCDCD",
"N 	c #C2C2C1",
"O 	c #70706F",
"P 	c #C2C2C2",
"Q 	c #EEEDE9",
"R 	c #E7DCAB",
"S 	c #C1B68A",
"T 	c #B3A776",
"U 	c #656255",
"V 	c #605E56",
"W 	c #807D72",
"X 	c #A0A0A0",
"Y 	c #E2E2E2",
"Z 	c #9C9C9C",
"` 	c #828281",
" .	c #EBE8E1",
"..	c #DFD3A4",
"+.	c #B4A776",
"@.	c #9C905F",
"#.	c #877B4D",
"$.	c #B9B29B",
"%.	c #6C6C6C",
"&.	c #C4C4C4",
"*.	c #828282",
"=.	c #868686",
"-.	c #CACACA",
";.	c #EBE7DC",
">.	c #D9CE9D",
",.	c #ADA170",
"'.	c #A39767",
").	c #8F8356",
"!.	c #D8D5CB",
"~.	c #6E6E6E",
"{.	c #989898",
"].	c #F5F5F5",
"^.	c #E8E3CD",
"/.	c #DACE9D",
"(.	c #ADA16E",
"_.	c #988C5B",
":.	c #A0966C",
"<.	c #E5E4DB",
"[.	c #E3E3E3",
"}.	c #D8D8D8",
"|.	c #EBEAE8",
"1.	c #E9E2C9",
"2.	c #DCD09F",
"3.	c #A09464",
"4.	c #94895E",
"5.	c #AFA78B",
"6.	c #ECECEB",
"7.	c #7B7B7B",
"8.	c #7A7A7A",
"9.	c #DFDFDF",
"0.	c #F4ECD9",
"a.	c #CABC88",
"b.	c #9F915D",
"c.	c #92865E",
"d.	c #DBD9D2",
"e.	c #949494",
"f.	c #A9A492",
"g.	c #A49C7D",
"h.	c #A79E80",
"i.	c #E4E3E0",
"j.	c #E0E0DF",
"k.	c #C9C9C9",
"l.	c #818181",
"m.	c #292929",
"n.	c #797975",
"o.	c #BAB7AE",
"p.	c #C8C8C7",
"q.	c #CBCAC9",
"r.	c #D0CFCF",
"s.	c #D1D1D0",
"t.	c #C6C6C5",
"u.	c #C7C6C5",
"v.	c #C9C9C8",
"w.	c #E7E7E6",
"x.	c #A8A8A8",
"y.	c #6B6B6B",
"z.	c #ABABAB",
"A.	c #6D6D6D",
"B.	c #DBDBDB",
"C.	c #646464",
"D.	c #7F7F7F",
"E.	c #747474",
"F.	c #A5A5A5",
"G.	c #5C5C5C",
"                                                                ",
"                                                                ",
"                                                                ",
"                              . +                               ",
"                            @ # $ %                             ",
"                      & * = - - ; > ,                           ",
"                ' ) ! ~ - - { { ] ~ ^ ,                         ",
"    / ( ) _ : < [ - - } | { { 1 2 ~ 3 4                         ",
"  5 6 6 6 ; ~ { { { { { 7 8 9 4 & - - ; '                       ",
"  % 0 3 3 7 3 ] { ; a b c d e f > - { 7 > '                     ",
"  % [ 0 g g h i j , k l $ - - - - { ] 6 ; 8 '   m n             ",
"    o 0 { = 4 p q 7 ~ | } - - } } ] r s ~ t u v w x             ",
"    y z ~ 7 3 A 3 3 7 ~ { | { { i B : C D E F G H I             ",
"      J K L L 0 0 f 3 7 ~ ~ M N O P ~ Q R S T U V W             ",
"        X $ $ $ Y K a Z ` X G f ] 7  ...+.@.#.$.} %.            ",
"        / a K &.*.= =.-.B f 7 ] ~ ;.>.,.'.).!.} } - ~.          ",
"          {.7 ].$ K C K L 0 7 7 ^./.(._.:.<.} } - 3 [.~.        ",
"          , }.A C C 8 $ a K |.1.2.3.4.5.6.} } } } 3 3 - 7.      ",
"            8.a Y 9.C C a a 0.a.b.c.d.; ~ { ~ ~ ] ~ } - A 5     ",
"            5 9 $ 9.9.[.$ e.f.g.h.i.7 3 6 7 7 ; 7 ; K 9.j.k.,   ",
"              % 9.9.9.: l.m.n.o.p.q.M r.i s.t.u.v.s.w.7 - x.y.  ",
"                5 K 9.z.8.C Y [.a a Y Y a a a a 3 ~ ~ ; K .     ",
"                  , 8 9.9.9.[.Y $ a a a a a K a L L ; 1 A.      ",
"                  % i C 9.9.Y $ $ a a a K A 0 0 A 8 e./         ",
"                    % B $ 9.B.[ C Y [.a L A 0 C Z ( C.D.D.      ",
"                      C.}.L 9.9.9.8 Y [.K L p J C.D.D.D.D.      ",
"                        5 9.[.9.9.9.C 8 E.C., D.D.D.D.D.D.      ",
"                          A.M C 9.i F.y.' D.D.D.D.D.            ",
"                            C.%.y.J G.D.D.                      ",
"                                                                ",
"                                                                ",
"                                                                "};
