/* XPM */
static char * icon_link2_32x32_xpm[] = {
"32 32 162 2",
"  	c None",
". 	c #303030",
"+ 	c #9D9D9D",
"@ 	c #BABABA",
"# 	c #E5E5E5",
"$ 	c #F2F2F2",
"% 	c #A3A3A3",
"& 	c #6A6A6A",
"* 	c #BBBBBB",
"= 	c #ECECEC",
"- 	c #F0F0F0",
"; 	c #949494",
"> 	c #5C5C5C",
", 	c #919191",
"' 	c #AFAFAF",
") 	c #E0E0E0",
"! 	c #EDEDED",
"~ 	c #8E8E8E",
"{ 	c #656565",
"] 	c #666666",
"^ 	c #9A9A9A",
"/ 	c #B1B1B1",
"( 	c #DADADA",
"_ 	c #E7E7E7",
": 	c #8B8B8B",
"< 	c #E3E3E3",
"[ 	c #717171",
"} 	c #B9B9B9",
"| 	c #D6D6D6",
"1 	c #939393",
"2 	c #F6F6F6",
"3 	c #E6E6E6",
"4 	c #767676",
"5 	c #898989",
"6 	c #B2B2B2",
"7 	c #D2D2D2",
"8 	c #EAEAEA",
"9 	c #959595",
"0 	c #CACACA",
"a 	c #E8E8E8",
"b 	c #909090",
"c 	c #B4B4B4",
"d 	c #9C9C9C",
"e 	c #7C7C7C",
"f 	c #A7A7A7",
"g 	c #D3D3D3",
"h 	c #E2E2E2",
"i 	c #7F7F7F",
"j 	c #3C3C3C",
"k 	c #4E4E4E",
"l 	c #8C8C8C",
"m 	c #D4D4D4",
"n 	c #747474",
"o 	c #DBDBDB",
"p 	c #D7D7D7",
"q 	c #333333",
"r 	c #505050",
"s 	c #A5A5A5",
"t 	c #AEAEAE",
"u 	c #A4A4A4",
"v 	c #EBEBEB",
"w 	c #8D8D8D",
"x 	c #7A7A7A",
"y 	c #A6A6A6",
"z 	c #CCCCCC",
"A 	c #3E3E3E",
"B 	c #C0C0C0",
"C 	c #AAAAAA",
"D 	c #929292",
"E 	c #CDCDCD",
"F 	c #F1F1F1",
"G 	c #787878",
"H 	c #999999",
"I 	c #838383",
"J 	c #DCDCDC",
"K 	c #D5D5D5",
"L 	c #D9D9D9",
"M 	c #474747",
"N 	c #8A8A8A",
"O 	c #686868",
"P 	c #3D3D3D",
"Q 	c #848484",
"R 	c #FBFBFB",
"S 	c #414141",
"T 	c #ACACAC",
"U 	c #F9F9F9",
"V 	c #353535",
"W 	c #888888",
"X 	c #5E5E5E",
"Y 	c #676767",
"Z 	c #989898",
"` 	c #555555",
" .	c #DFDFDF",
"..	c #F4F4F4",
"+.	c #616161",
"@.	c #464646",
"#.	c #FFFFFF",
"$.	c #4C4C4C",
"%.	c #818181",
"&.	c #B0B0B0",
"*.	c #484848",
"=.	c #B8B8B8",
"-.	c #444444",
";.	c #F5F5F5",
">.	c #4B4B4B",
",.	c #3F3F3F",
"'.	c #F7F7F7",
").	c #A9A9A9",
"!.	c #383838",
"~.	c #696969",
"{.	c #8F8F8F",
"].	c #C6C6C6",
"^.	c #F3F3F3",
"/.	c #4D4D4D",
"(.	c #6B6B6B",
"_.	c #B7B7B7",
":.	c #EEEEEE",
"<.	c #C3C3C3",
"[.	c #5A5A5A",
"}.	c #545454",
"|.	c #595959",
"1.	c #5B5B5B",
"2.	c #BDBDBD",
"3.	c #D8D8D8",
"4.	c #575757",
"5.	c #434343",
"6.	c #C9C9C9",
"7.	c #ADADAD",
"8.	c #979797",
"9.	c #F8F8F8",
"0.	c #424242",
"a.	c #565656",
"b.	c #ABABAB",
"c.	c #C7C7C7",
"d.	c #D0D0D0",
"e.	c #DEDEDE",
"f.	c #525252",
"g.	c #6F6F6F",
"h.	c #C1C1C1",
"i.	c #606060",
"j.	c #535353",
"k.	c #9B9B9B",
"l.	c #D1D1D1",
"m.	c #C5C5C5",
"n.	c #A8A8A8",
"o.	c #6D6D6D",
"p.	c #9E9E9E",
"q.	c #E4E4E4",
"r.	c #CFCFCF",
"s.	c #A0A0A0",
"t.	c #828282",
"u.	c #858585",
"v.	c #585858",
"w.	c #454545",
"x.	c #7D7D7D",
"y.	c #3A3A3A",
"z.	c #9F9F9F",
"A.	c #4F4F4F",
"B.	c #757575",
"C.	c #7B7B7B",
"D.	c #868686",
"E.	c #777777",
"  . . + @ # $ % &                                               ",
"      . + * = - ; >                                             ",
"        . , ' ) ! ~ {                                           ",
"]         . ^ / ( _ : >                                         ",
"< [         . ; } | - 1 {                                       ",
"2 3 4         . 5 6 7 8 9 >                                     ",
"0 a # [       . . b c | ! d >                                   ",
"e f g h i   j k c . l } m ! d >                                 ",
". n f o p q r s t u . 1 } ) v w >                               ",
"  . x y z A l B 7 B C . D E F g > >                             ",
"    . G H A I E # J ] . , z K L M N O                           ",
"      . x P Q z R 2 S . I z z T k U @ >                         ",
"        . V W B 2 R X Y Z t B : `  .../ +.                      ",
"          . @.d p #.a $.%.d &.*.M =.p U &.>                     ",
"            -.5 B ) ;.J >.%.,.M ` O @ | '.).>                   ",
"            !.~.{.].J ^._ *./.    . (._.( :.n >                 ",
"              q ] ; <.| - | [.      }.|.> ~ { > >               ",
"                ,.1.5 2.m :.3.4.    5.6.! ..U ;.7.&             ",
"                  !.> 1 <.p ..# -.M 8.J 8 8 _ 9.'.} [           ",
"                    0.a.W <.K ..K /.b.c.B f b.z z a d.]         ",
"i i                   S +.w c 7 $ e.f.f G . . g.y 0 v h.i.      ",
"i i i i                 !.i.5 t 7 ..= j.. > k.. G C 6.# h.a.    ",
"i i i i i i i             ,.a.~ u l.;...e.K m.n.. o.p.6._ 0 {   ",
"    i i i i i i i i         5.[.1 8.h.| 3 q.r.z 5 V n s.c.8 B [.",
"        i i i i i i i i       5.> t.9 C B z 2.u.v.w.. x.f ]._ 6.",
"          i i i i   i i i i     j v.(.N 5 : w 4.y.    . x.z.c.K ",
"            i i i       i i i       j 5.A.@.5.q         . x p.B ",
"              i i i   i i i i i       . Q 6 E E B.        . i + ",
"                i i i i i i i i i i     . {.h.7 r.[         . g.",
"                    i i i i i i i i i i   . C.' :.g n         . ",
"                        i i i i i i i i i i . D.' q.K [         ",
"                                    i i i i i . ^ ).# r.E.      "};
