/* XPM */
static char * icon_device_misc_32x32_xpm[] = {
"32 32 154 2",
"  	c None",
". 	c #504B4B",
"+ 	c #2E2C2C",
"@ 	c #474343",
"# 	c #4F4C4C",
"$ 	c #555555",
"% 	c #A2A2A2",
"& 	c #595858",
"* 	c #5C5858",
"= 	c #494646",
"- 	c #A8A7A7",
"; 	c #ECECEC",
"> 	c #E6E6E6",
", 	c #D4D4D4",
"' 	c #555151",
") 	c #2F2D2D",
"! 	c #949393",
"~ 	c #F6F6F6",
"{ 	c #E5E5E5",
"] 	c #D6D6D6",
"^ 	c #DDDDDD",
"/ 	c #DCDCDC",
"( 	c #939191",
"_ 	c #413D3D",
": 	c #4A4747",
"< 	c #B0AFAF",
"[ 	c #EBEBEB",
"} 	c #ACABAB",
"| 	c #5D5959",
"1 	c #403E3E",
"2 	c #8F8E8E",
"3 	c #D1D1D1",
"4 	c #949292",
"5 	c #514C4C",
"6 	c #333131",
"7 	c #EDEDED",
"8 	c #E0E0E0",
"9 	c #DADADA",
"0 	c #CACACA",
"a 	c #A2A1A1",
"b 	c #514E4E",
"c 	c #ABAAAA",
"d 	c #F1F1F1",
"e 	c #D8D8D8",
"f 	c #E1E1E1",
"g 	c #AAA6A6",
"h 	c #565252",
"i 	c #343232",
"j 	c #BABABA",
"k 	c #F7F7F7",
"l 	c #DBDBDB",
"m 	c #D5D5D5",
"n 	c #B5B3B3",
"o 	c #3A3636",
"p 	c #545151",
"q 	c #B8B8B8",
"r 	c #EEEEEE",
"s 	c #E2E2E2",
"t 	c #B2B0B0",
"u 	c #F3F3F3",
"v 	c #DEDEDE",
"w 	c #9F9C9C",
"x 	c #434141",
"y 	c #EAEAEA",
"z 	c #DFDFDF",
"A 	c #D7D7D7",
"B 	c #D0D0D0",
"C 	c #D4D3D3",
"D 	c #575252",
"E 	c #535050",
"F 	c #B2B1B1",
"G 	c #A9A7A7",
"H 	c #5F5B5B",
"I 	c #898888",
"J 	c #7D7B7B",
"K 	c #5B5555",
"L 	c #171616",
"M 	c #D2D2D2",
"N 	c #969696",
"O 	c #353131",
"P 	c #787575",
"Q 	c #D3D3D3",
"R 	c #BBBBBB",
"S 	c #545454",
"T 	c #514B4B",
"U 	c #989696",
"V 	c #AFAFAF",
"W 	c #8E8D8D",
"X 	c #5E5959",
"Y 	c #C6C4C4",
"Z 	c #B6B6B6",
"` 	c #B7B7B7",
" .	c #A3A2A2",
"..	c #4A4646",
"+.	c #918E8E",
"@.	c #C2C2C2",
"#.	c #CFCFCF",
"$.	c #C1C1C1",
"%.	c #828181",
"&.	c #363333",
"*.	c #A5A2A2",
"=.	c #BDBDBD",
"-.	c #BFBFBF",
";.	c #989797",
">.	c #373434",
",.	c #A8A5A5",
"'.	c #C2C1C1",
").	c #C3C3C3",
"!.	c #9F9E9E",
"~.	c #232121",
"{.	c #818181",
"].	c #464242",
"^.	c #9D9B9B",
"/.	c #C4C3C3",
"(.	c #BEBEBE",
"_.	c #939292",
":.	c #302F2F",
"<.	c #808080",
"[.	c #7F7F7F",
"}.	c #393535",
"|.	c #9A9797",
"1.	c #ADADAD",
"2.	c #8B8A8A",
"3.	c #242222",
"4.	c #3D3A3A",
"5.	c #8D8A8A",
"6.	c #B8B7B7",
"7.	c #CDCDCD",
"8.	c #CECECE",
"9.	c #7D7D7D",
"0.	c #403D3D",
"a.	c #A5A3A3",
"b.	c #B4B4B4",
"c.	c #9C9B9B",
"d.	c #3B3838",
"e.	c #828282",
"f.	c #282626",
"g.	c #8F8C8C",
"h.	c #BDBBBB",
"i.	c #C0C0C0",
"j.	c #807F7F",
"k.	c #272525",
"l.	c #2D2B2B",
"m.	c #A3A1A1",
"n.	c #B9B7B7",
"o.	c #C7C6C6",
"p.	c #AEAEAE",
"q.	c #504E4E",
"r.	c #878585",
"s.	c #474545",
"t.	c #464444",
"u.	c #3D3939",
"v.	c #343131",
"w.	c #343030",
"                                                                ",
"                            . + @                               ",
"                          # $ % & *                             ",
"                        = - ; > , - '                           ",
"                      ) ! ~ { ] ^ / ( _                         ",
"                    : < [ > ] ] ] / ] } |                       ",
"                  1 2 [ / ] ] ] ] ] ] 3 4 5                     ",
"                6 - 7 8 ] ] ] ] ] ] ] 9 0 a _                   ",
"              b c d ^ ] ] ] ] ] ] ] ] ] e f g h                 ",
"            i j k l ] ] ] ] ] ] ] ] ] ] ] m ^ n o               ",
"          p q r s ] ] ] ] ] ] ] ] ] ] ] ] ] e e t '             ",
"        1 a u v ] ] ] ] ] ] ] ] ] ] ] ] ] ] ] , 9 w 5           ",
"      x ] y z ] ] ] ] ] ] ] ] ] ] ] ] ] ] ] ] ] A B C D         ",
"    E F y 8 ] ] ] ] ] ] ] ] ] ] ] ] ] ] ] ] ] ] ] ] , G E       ",
"  H I > / ] ] ] ] ] ] ] ] ] ] ] ] ] ] ] ] ] ] ] ] ] A 3 J K     ",
"  L q v ] ] ] ] ] ] ] ] ] ] ] ] ] ] ] ] ] ] ] ] ] ] ] M N O     ",
"  o P j Q ] ] ] ] ] ] ] ] ] ] ] ] ] ] ] ] ] ] ] ] ] Q R S T     ",
"    ' U R 3 ] ] ] ] ] ] ] ] ] ] ] ] ] ] ] ] ] ] ] Q V W i       ",
"      X Y Z 3 ] ] ] ] ] ] ] ] ] ] ] ] ] ] ] ] ] Q `  .i         ",
"        ..+.@.B ] ] ] ] ] ] ] ] ] ] ] ] ] ] ] #.$.%.&.          ",
"          ..*.=.Q ] ] ] ] ] ] ] ] ] ] ] ] ] Q -.;.)             ",
"            >.,.'.#.] ] ] ] ] ] ] ] ] ] ] B ).!.~.{.            ",
"              ].^./.3 ] ] ] ] ] ] ] ] ] Q (._.:.<.[.[.[.        ",
"                }.|.} 3 ] ] ] ] ] ] ] B 1.2.3.<.[.[.[.[.[.[.    ",
"                  4.5.6.7.] ] ] ] ] 8.1.9.i {.[.[.[.[.[.[.[.[.[.",
"                    0.a.n B ] ] ] M b.c.d.e.[.[.[.[.[.[.[.[.[.  ",
"                      f.g.h.B ] Q i.j.k.[.[.[.[.[.[.[.[.        ",
"                        l.m.n.o.p._.k.<.[.[.[.[.                ",
"                          # q.r.s.t.<.[.[.                      ",
"                            u.v.w.                              ",
"                                                                ",
"                                                                "};
