/* XPM */
static char * icon_file_20x20_xpm[] = {
"20 20 166 2",
"  	c None",
". 	c #5B5B5B",
"+ 	c #5F5E5E",
"@ 	c #696968",
"# 	c #6B6B69",
"$ 	c #747474",
"% 	c #838383",
"& 	c #7E7E7E",
"* 	c #707070",
"= 	c #616161",
"- 	c #B5B2AE",
"; 	c #C8C5C1",
"> 	c #CDCAC6",
", 	c #CECBC7",
"' 	c #D3D0CC",
") 	c #D1CFCE",
"! 	c #B1B0AF",
"~ 	c #E2E1DF",
"{ 	c #D0CFCC",
"] 	c #474747",
"^ 	c #676766",
"/ 	c #C4C1BD",
"( 	c #D1CECB",
"_ 	c #CFCCC8",
": 	c #CDCAC7",
"< 	c #CDCAC8",
"[ 	c #868584",
"} 	c #F5F5F4",
"| 	c #EAE9E7",
"1 	c #ADAAA8",
"2 	c #434343",
"3 	c #6C6C6C",
"4 	c #D4D1CD",
"5 	c #D4D1CE",
"6 	c #CFCCC9",
"7 	c #8F8E8E",
"8 	c #D5D5D5",
"9 	c #F0EFEE",
"0 	c #DBD9D7",
"a 	c #ABA9A8",
"b 	c #3A3A3A",
"c 	c #5D5C5C",
"d 	c #D1CFCC",
"e 	c #D9D6D3",
"f 	c #D8D5D2",
"g 	c #D2D0CD",
"h 	c #AAA9A9",
"i 	c #787777",
"j 	c #6E6D6D",
"k 	c #676767",
"l 	c #5A5A5A",
"m 	c #5D5C5B",
"n 	c #D5D3D1",
"o 	c #DCD9D6",
"p 	c #DDDAD9",
"q 	c #DCDAD8",
"r 	c #DBD8D7",
"s 	c #DAD7D5",
"t 	c #D7D4D1",
"u 	c #C0BEBB",
"v 	c #9D9B9A",
"w 	c #969492",
"x 	c #9F9E9D",
"y 	c #626160",
"z 	c #585656",
"A 	c #D7D4D3",
"B 	c #DEDCDA",
"C 	c #E0DFDD",
"D 	c #E3E1E1",
"E 	c #E3E2E1",
"F 	c #E4E2E2",
"G 	c #E6E3E3",
"H 	c #E8E5E5",
"I 	c #E9E8E6",
"J 	c #E5E4E1",
"K 	c #6D6D6D",
"L 	c #3F3F3F",
"M 	c #B3B3B2",
"N 	c #E3E1DF",
"O 	c #E7E6E4",
"P 	c #E8E8E6",
"Q 	c #E9E7E6",
"R 	c #ECEAE8",
"S 	c #ECEBE9",
"T 	c #EDEBE9",
"U 	c #E7E6E3",
"V 	c #8B8A88",
"W 	c #919090",
"X 	c #E4E2E1",
"Y 	c #E5E4E2",
"Z 	c #E6E6E3",
"` 	c #E9E7E5",
" .	c #E7E5E3",
"..	c #EBEAE7",
"+.	c #ECECEA",
"@.	c #DFDFDE",
"#.	c #747473",
"$.	c #E5E3E2",
"%.	c #EBEAE9",
"&.	c #EDEBEB",
"*.	c #EDECEA",
"=.	c #ECEAE9",
"-.	c #EFEEEC",
";.	c #EEEEEE",
">.	c #F2F2F0",
",.	c #6B6A6A",
"'.	c #777777",
").	c #6B6A69",
"!.	c #EFEEED",
"~.	c #EEEDEB",
"{.	c #EEEDEC",
"].	c #EFEDEC",
"^.	c #F2F1F0",
"/.	c #F4F2F2",
"(.	c #F4F4F2",
"_.	c #F4F3F3",
":.	c #F6F4F4",
"<.	c #F7F6F6",
"[.	c #B2B2B1",
"}.	c #7F7F7F",
"|.	c #6F6D6B",
"1.	c #F2F0EF",
"2.	c #F3F1F1",
"3.	c #F5F4F3",
"4.	c #F5F5F5",
"5.	c #F8F8F7",
"6.	c #F5F4F4",
"7.	c #F8F7F7",
"8.	c #FBFAFA",
"9.	c #F9F9F8",
"0.	c #F7F6F4",
"a.	c #6E6E6E",
"b.	c #7D7D7D",
"c.	c #656362",
"d.	c #EDECEC",
"e.	c #F4F3F2",
"f.	c #F6F6F6",
"g.	c #F7F7F6",
"h.	c #FAFAF9",
"i.	c #FBFBFB",
"j.	c #FBFBFA",
"k.	c #FAF9F9",
"l.	c #F4F4F3",
"m.	c #F4F4F4",
"n.	c #F3F3F2",
"o.	c #757575",
"p.	c #62615F",
"q.	c #B5B3B2",
"r.	c #F9F8F7",
"s.	c #F6F5F4",
"t.	c #F3F3F3",
"u.	c #F2F2F2",
"v.	c #6A6A6A",
"w.	c #747372",
"x.	c #F3F2F0",
"y.	c #F6F4F3",
"z.	c #F9F9F9",
"A.	c #C8C8C7",
"B.	c #787878",
"C.	c #5C5C5C",
"D.	c #4E4E4E",
"E.	c #565553",
"F.	c #6E6E6D",
"G.	c #727271",
"H.	c #6D6C6C",
"I.	c #656564",
"                                        ",
"                                        ",
"    . . + @ # $ % & * =                 ",
"    . - ; > , ' ) ! ~ { ]               ",
"    ^ / > ( _ : < [ } | 1 2             ",
"    3 > 4 5 5 6 6 7 8 9 0 a b           ",
"    c d e f 5 g 5 h i j k $ l           ",
"    m n o p q r s t u v w x y           ",
"    z A B C D E F G H I I J K           ",
"    L M N O P I Q R R S T U V           ",
"      W X Y Z Q `  . ...T +.@..         ",
"      #.$.S %.&.*.=.=.=.-.;.>.,.'.      ",
"      ).=.!.~.{.].^./.(._.:.<.[.$ }.    ",
"      |.O 1.2./.3.4.5.6.7.8.9.0.a.b.}.  ",
"      c.d.3.e.f.g.h.i.j.k.l.m.n.o.b.}.  ",
"      p.q.r.s.g.s.5.5.5.6.} t.u.v.}.    ",
"        w.x.y.0.z.f.A.B.v.= C.C.D.      ",
"        E.F.G.H.k I.C.                  ",
"                                        ",
"                                        "};
