/* XPM */
static char * icon_ftp_32x32_xpm[] = {
"32 32 601 2",
"  	c None",
". 	c #9DA69F",
"+ 	c #A4ADA7",
"@ 	c #A7B5B2",
"# 	c #A3B1AB",
"$ 	c #98A59F",
"% 	c #909F97",
"& 	c #8C948E",
"* 	c #635F40",
"= 	c #706949",
"- 	c #6F6A48",
"; 	c #6D6848",
"> 	c #9DA297",
", 	c #92998C",
"' 	c #ACB6AB",
") 	c #A8B6AB",
"! 	c #9EAD9F",
"~ 	c #778678",
"{ 	c #4C5F5E",
"] 	c #6C7E7A",
"^ 	c #4A5C58",
"/ 	c #615C40",
"( 	c #C6C599",
"_ 	c #B7B086",
": 	c #C6C197",
"< 	c #ABA47A",
"[ 	c #504D35",
"} 	c #787C6F",
"| 	c #788477",
"1 	c #7B8B80",
"2 	c #85978B",
"3 	c #4E6054",
"4 	c #506359",
"5 	c #4D5C54",
"6 	c #556B63",
"7 	c #A1AFA7",
"8 	c #6E6949",
"9 	c #B6B083",
"0 	c #B1AA7C",
"a 	c #BFB890",
"b 	c #B3AC82",
"c 	c #C3BE95",
"d 	c #AFAB86",
"e 	c #514C36",
"f 	c #4F4A34",
"g 	c #2E2C1F",
"h 	c #87918C",
"i 	c #4C5D50",
"j 	c #354844",
"k 	c #2F4442",
"l 	c #324946",
"m 	c #39504E",
"n 	c #253E3F",
"o 	c #253A3F",
"p 	c #71837D",
"q 	c #ADBDB2",
"r 	c #B2C0BA",
"s 	c #706B49",
"t 	c #A8A88F",
"u 	c #ADAA7C",
"v 	c #ADA77C",
"w 	c #B4AC87",
"x 	c #AEA879",
"y 	c #ADA578",
"z 	c #A29A6B",
"A 	c #AEA777",
"B 	c #9C9661",
"C 	c #A59F6E",
"D 	c #B2AD7F",
"E 	c #AAA373",
"F 	c #625D40",
"G 	c #475752",
"H 	c #334842",
"I 	c #243C3C",
"J 	c #2D4443",
"K 	c #253D3B",
"L 	c #273F37",
"M 	c #3A524B",
"N 	c #2D4341",
"O 	c #6E7E76",
"P 	c #4E6052",
"Q 	c #506258",
"R 	c #C5BF94",
"S 	c #BCB68F",
"T 	c #B8B487",
"U 	c #B1AD82",
"V 	c #B4B07F",
"W 	c #B1AC7C",
"X 	c #AFA878",
"Y 	c #ACA879",
"Z 	c #AAA279",
"` 	c #9DA168",
" .	c #9C975F",
"..	c #9A925F",
"+.	c #5E5A3D",
"@.	c #1C2E26",
"#.	c #253A34",
"$.	c #243C37",
"%.	c #263E3B",
"&.	c #284040",
"*.	c #28403F",
"=.	c #294139",
"-.	c #3F5348",
";.	c #3E5349",
">.	c #3B4F45",
",.	c #3E5047",
"'.	c #32443A",
").	c #3C3927",
"!.	c #59543A",
"~.	c #636142",
"{.	c #76714D",
"].	c #635E42",
"^.	c #535036",
"/.	c #5D583E",
"(.	c #676444",
"_.	c #57543A",
":.	c #676244",
"<.	c #666343",
"[.	c #7C7953",
"}.	c #9A9A63",
"|.	c #948C59",
"1.	c #5E5C3D",
"2.	c #1E2F26",
"3.	c #1E332C",
"4.	c #213A36",
"5.	c #223A39",
"6.	c #283E3D",
"7.	c #263C3E",
"8.	c #293F3D",
"9.	c #374C42",
"0.	c #4D604F",
"a.	c #536554",
"b.	c #566451",
"c.	c #333122",
"d.	c #E3E1C3",
"e.	c #C3C098",
"f.	c #D2CEA5",
"g.	c #C4C295",
"h.	c #CFCFA4",
"i.	c #D5D0AE",
"j.	c #C5C498",
"k.	c #D0CBA9",
"l.	c #BCB98D",
"m.	c #CCC7A3",
"n.	c #C3BD92",
"o.	c #6C6747",
"p.	c #81794D",
"q.	c #968D5D",
"r.	c #575538",
"s.	c #202B27",
"t.	c #1F302D",
"u.	c #203633",
"v.	c #213834",
"w.	c #223636",
"x.	c #213938",
"y.	c #20383A",
"z.	c #20393A",
"A.	c #33483E",
"B.	c #41503F",
"C.	c #566552",
"D.	c #67735F",
"E.	c #A19F7C",
"F.	c #D7D4B0",
"G.	c #CBC99E",
"H.	c #CBC99C",
"I.	c #C3BF96",
"J.	c #C9C79A",
"K.	c #BDBA8E",
"L.	c #BEBE8F",
"M.	c #C2BD93",
"N.	c #BAB689",
"O.	c #BBB58C",
"P.	c #46422F",
"Q.	c #8E8A5B",
"R.	c #4E4B33",
"S.	c #202C2B",
"T.	c #1D302E",
"U.	c #1F3430",
"V.	c #203431",
"W.	c #20332F",
"X.	c #1F3836",
"Y.	c #243B35",
"Z.	c #33493E",
"`.	c #3D5147",
" +	c #37493F",
".+	c #44564C",
"++	c #46584B",
"@+	c #4B5D51",
"#+	c #4F4C37",
"$+	c #E2DEC1",
"%+	c #D4D1A9",
"&+	c #C6C297",
"*+	c #C5C396",
"=+	c #BBB78A",
"-+	c #BFBD92",
";+	c #BFBD8E",
">+	c #BDB88E",
",+	c #BAB48B",
"'+	c #BFBB8E",
")+	c #5F5F40",
"!+	c #807B51",
"~+	c #484530",
"{+	c #202827",
"]+	c #202C2E",
"^+	c #1D2E2C",
"/+	c #1C3131",
"(+	c #203332",
"_+	c #1F3331",
":+	c #203834",
"<+	c #324636",
"[+	c #475645",
"}+	c #35473E",
"|+	c #1F3635",
"1+	c #243939",
"2+	c #2C423E",
"3+	c #2B4340",
"4+	c #393623",
"5+	c #C4C399",
"6+	c #C1BD92",
"7+	c #C8C699",
"8+	c #BFBB90",
"9+	c #C9C89C",
"0+	c #B9B488",
"a+	c #C0BC91",
"b+	c #C0B991",
"c+	c #C3BE94",
"d+	c #BDB98E",
"e+	c #2B2A1B",
"f+	c #3D3A28",
"g+	c #202928",
"h+	c #20282E",
"i+	c #1F2E31",
"j+	c #1F3337",
"k+	c #1F3437",
"l+	c #1D3436",
"m+	c #203632",
"n+	c #2A4239",
"o+	c #374B40",
"p+	c #364940",
"q+	c #31463F",
"r+	c #304441",
"s+	c #293E41",
"t+	c #253D40",
"u+	c #2C4142",
"v+	c #272417",
"w+	c #9B9166",
"x+	c #AEA675",
"y+	c #ACA575",
"z+	c #A69F6D",
"A+	c #9E9666",
"B+	c #766F4D",
"C+	c #17160D",
"D+	c #212A21",
"E+	c #1E2C28",
"F+	c #1E2A2E",
"G+	c #1F2F30",
"H+	c #1F3237",
"I+	c #1F3138",
"J+	c #1E3238",
"K+	c #31443D",
"L+	c #566054",
"M+	c #8A8A72",
"N+	c #9D987C",
"O+	c #B5AD95",
"P+	c #908E78",
"Q+	c #2A3F3D",
"R+	c #1F363C",
"S+	c #263C41",
"T+	c #2C2919",
"U+	c #524E35",
"V+	c #514D34",
"W+	c #5B563C",
"X+	c #363221",
"Y+	c #0C0907",
"Z+	c #202A20",
"`+	c #173029",
" @	c #173030",
".@	c #1E3030",
"+@	c #1E3336",
"@@	c #213436",
"#@	c #324342",
"$@	c #6A725C",
"%@	c #8F8C75",
"&@	c #B1A890",
"*@	c #BDB296",
"=@	c #CFC2A5",
"-@	c #C1B69B",
";@	c #91907C",
">@	c #5D635A",
",@	c #7F8575",
"'@	c #9BA293",
")@	c #788179",
"!@	c #6A7565",
"~@	c #A2A290",
"{@	c #C8BCA4",
"]@	c #DFD1B6",
"^@	c #D7CFB5",
"/@	c #82826D",
"(@	c #8C8E7B",
"_@	c #9E9E89",
":@	c #969A83",
"<@	c #8C917D",
"[@	c #666B59",
"}@	c #314538",
"|@	c #202A21",
"1@	c #163129",
"2@	c #173130",
"3@	c #1F3032",
"4@	c #203537",
"5@	c #4E5D4A",
"6@	c #95937D",
"7@	c #ACA18C",
"8@	c #B1A488",
"9@	c #B8AB94",
"0@	c #AEA188",
"a@	c #BCB095",
"b@	c #B8AA8E",
"c@	c #C6B59A",
"d@	c #C3BC9E",
"e@	c #E7DEC6",
"f@	c #EBE2C8",
"g@	c #E8E2C9",
"h@	c #D5CFB7",
"i@	c #8F8A77",
"j@	c #A29D89",
"k@	c #C3B99E",
"l@	c #D7CFB0",
"m@	c #C5C6B0",
"n@	c #7A8471",
"o@	c #687563",
"p@	c #2C413C",
"q@	c #2C453D",
"r@	c #4E5E4F",
"s@	c #2D4235",
"t@	c #1C3129",
"u@	c #1D332E",
"v@	c #1E3331",
"w@	c #213839",
"x@	c #888B76",
"y@	c #ABA38A",
"z@	c #A99E87",
"A@	c #B2A68C",
"B@	c #B9AE95",
"C@	c #A99E86",
"D@	c #A69C84",
"E@	c #A99D83",
"F@	c #CCBCA3",
"G@	c #C5BBA1",
"H@	c #E8DCC7",
"I@	c #D6CCB1",
"J@	c #DED8BA",
"K@	c #DFDAC0",
"L@	c #95917D",
"M@	c #676E5B",
"N@	c #ACA789",
"O@	c #D5CCAC",
"P@	c #DFD9C2",
"Q@	c #B9B7A3",
"R@	c #394D4C",
"S@	c #1F373C",
"T@	c #374C44",
"U@	c #324339",
"V@	c #212B24",
"W@	c #1F332D",
"X@	c #1F3431",
"Y@	c #273934",
"Z@	c #969177",
"`@	c #ABA185",
" #	c #ADA588",
".#	c #B1A98C",
"+#	c #BBB395",
"@#	c #BBB192",
"##	c #BAAE8F",
"$#	c #C6B89A",
"%#	c #C9BA9B",
"&#	c #C3B89A",
"*#	c #BEAE92",
"=#	c #D0C1A3",
"-#	c #D9CDAC",
";#	c #DDD2B5",
">#	c #BBB095",
",#	c #6A705A",
"'#	c #828472",
")#	c #C7BEA3",
"!#	c #E6DEC1",
"~#	c #E1D8BE",
"{#	c #909688",
"]#	c #253B3E",
"^#	c #1F363F",
"/#	c #233B41",
"(#	c #2C3F3E",
"_#	c #1F2D24",
":#	c #21352F",
"<#	c #1C3330",
"[#	c #1F3632",
"}#	c #38453B",
"|#	c #8E846B",
"1#	c #9F9479",
"2#	c #B7AA8E",
"3#	c #B4A689",
"4#	c #C2B498",
"5#	c #BAAF8F",
"6#	c #CAC1A4",
"7#	c #CDC3A9",
"8#	c #AFA88A",
"9#	c #BEAD90",
"0#	c #CCBC9D",
"a#	c #DBCEAF",
"b#	c #D8CDAE",
"c#	c #CCBE9F",
"d#	c #98947B",
"e#	c #4D584D",
"f#	c #96947E",
"g#	c #D9CAAC",
"h#	c #B0A68C",
"i#	c #30403F",
"j#	c #1D343C",
"k#	c #1F363D",
"l#	c #213943",
"m#	c #253C3E",
"n#	c #1E2E29",
"o#	c #203730",
"p#	c #1C3432",
"q#	c #898268",
"r#	c #9B8C70",
"s#	c #AC9A7E",
"t#	c #B3A487",
"u#	c #B7AB8D",
"v#	c #D0CBAE",
"w#	c #D8D7C4",
"x#	c #D5D4C2",
"y#	c #CABB9E",
"z#	c #C7B89A",
"A#	c #CFBFA2",
"B#	c #C8B89B",
"C#	c #AC9C7D",
"D#	c #9B8F71",
"E#	c #6E6953",
"F#	c #646750",
"G#	c #737768",
"H#	c #3A4A45",
"I#	c #1D383B",
"J#	c #1E383F",
"K#	c #1F3339",
"L#	c #1D373F",
"M#	c #1E3536",
"N#	c #202D25",
"O#	c #1F332E",
"P#	c #877E64",
"Q#	c #9C8F75",
"R#	c #A5987F",
"S#	c #BDB195",
"T#	c #C2B79B",
"U#	c #BCB097",
"V#	c #BFB39B",
"W#	c #B4A489",
"X#	c #AB9A7F",
"Y#	c #B29F83",
"Z#	c #AC9C81",
"`#	c #898266",
" $	c #6C6A50",
".$	c #6C6B54",
"+$	c #686B54",
"@$	c #656758",
"#$	c #666C5B",
"$$	c #1E373A",
"%$	c #1E363C",
"&$	c #1D333A",
"*$	c #18343F",
"=$	c #1B3035",
"-$	c #A39F7B",
";$	c #69684E",
">$	c #76745B",
",$	c #847C61",
"'$	c #746E55",
")$	c #62664F",
"!$	c #565D46",
"~$	c #616A51",
"{$	c #6D7257",
"]$	c #887E68",
"^$	c #535747",
"/$	c #1A373A",
"($	c #1C3338",
"_$	c #193239",
":$	c #19323A",
"<$	c #AEAB7E",
"[$	c #AFAB81",
"}$	c #4D5A42",
"|$	c #4A5A42",
"1$	c #596048",
"2$	c #5C614A",
"3$	c #56614B",
"4$	c #55644B",
"5$	c #5B634B",
"6$	c #707358",
"7$	c #6D6E59",
"8$	c #2E413C",
"9$	c #1C3339",
"0$	c #1B3137",
"a$	c #183237",
"b$	c #44583D",
"c$	c #375237",
"d$	c #3B5237",
"e$	c #47563E",
"f$	c #5B644D",
"g$	c #696F59",
"h$	c #6C6D58",
"i$	c #575F4C",
"j$	c #29403B",
"k$	c #1A3339",
"l$	c #1D313A",
"m$	c #1E2F36",
"n$	c #1B2E2F",
"o$	c #314D31",
"p$	c #2E4F32",
"q$	c #2F4D31",
"r$	c #455B41",
"s$	c #485C43",
"t$	c #4B5D45",
"u$	c #586451",
"v$	c #32473C",
"w$	c #1C3B3D",
"x$	c #18313A",
"y$	c #1B2E35",
"z$	c #1C2F33",
"A$	c #E1DFC0",
"B$	c #2B4A2D",
"C$	c #2E4C30",
"D$	c #365237",
"E$	c #516B53",
"F$	c #4D6149",
"G$	c #4F5E48",
"H$	c #37493D",
"I$	c #1E363B",
"J$	c #1C343A",
"K$	c #1E333A",
"L$	c #1E3138",
"M$	c #1C3038",
"N$	c #929171",
"O$	c #D3D0AC",
"P$	c #2E4C31",
"Q$	c #314F34",
"R$	c #385338",
"S$	c #3E583E",
"T$	c #435E44",
"U$	c #3F5A43",
"V$	c #284332",
"W$	c #243D3C",
"X$	c #243C3D",
"Y$	c #22353B",
"Z$	c #1F2E34",
"`$	c #314F35",
" %	c #3E563E",
".%	c #3E5A42",
"+%	c #3D5B42",
"@%	c #3F5A44",
"#%	c #274132",
"$%	c #273F34",
"%%	c #324A46",
"&%	c #545D5D",
"*%	c #7F7F7F",
"=%	c #405741",
"-%	c #445B44",
";%	c #566952",
">%	c #586E55",
",%	c #415743",
"'%	c #33483B",
")%	c #21362F",
"!%	c #293E37",
"~%	c #213631",
"{%	c #475251",
"]%	c #747050",
"^%	c #4B5A41",
"/%	c #4A5A40",
"(%	c #4D5E45",
"_%	c #566851",
":%	c #324638",
"<%	c #1E312D",
"[%	c #1E312E",
"}%	c #36443F",
"|%	c #535C59",
"1%	c #6A6445",
"2%	c #46412C",
"3%	c #4D5944",
"4%	c #475440",
"5%	c #394B39",
"6%	c #314435",
"7%	c #21322B",
"8%	c #202E2B",
"9%	c #333F3B",
"0%	c #747675",
"a%	c #22302B",
"b%	c #22322C",
"c%	c #1E3129",
"d%	c #1F3230",
"e%	c #29392C",
"f%	c #263529",
"g%	c #36433C",
"h%	c #1E2C29",
"i%	c #333D3C",
"j%	c #606160",
"                                                                ",
"                        . + @ # $ % & * = - ;                   ",
"                  > , ' ) ! ~ { ] ^ / ( _ : < [                 ",
"                } | 1 2 3 4 5 6 7 8 9 0 a b c d e [ [ [ [ f g   ",
"            h i j k l m n o p q r s t u v w x y z A B C D E F   ",
"            G H I J K L M N O P Q ; R S T U V W X Y Z `  ...+.  ",
"        @.#.$.%.&.*.=.-.;.>.,.'.).!.~.{.].^./.(._.:.<.[.}.|.1.  ",
"        2.3.4.5.6.7.8.9.0.a.b.c.d.e.f.g.h.i.j.k.l.m.n.o.p.q.r.  ",
"      s.t.u.v.w.x.y.z.A.B.C.D.[ E.F.G.H.I.J.K.j.L.M.N.O.P.Q.R.  ",
"      S.T.U.V.W.X.Y.Z.`. +.+++@+#+$+%+&+*+=+-+;+>+,+'+,+)+!+~+  ",
"    {+]+^+/+(+_+:+<+[+}+|+1+2+3+4+5+6+7+8+9+0+N.a+b+c+d+E e+f+  ",
"    g+h+i+j+k+l+m+n+o+p+q+r+s+t+u+v+w+x+y+y+z+z+z+z+z+z+A+B+C+  ",
"  D+E+F+G+H+I+J+K+L+M+N+O+P+Q+R+S+T+U+V+V+V+!.!.!.!.!.!.W+X+Y+  ",
"  Z+`+ @.@+@@@#@$@%@&@*@=@-@;@>@,@'@)@!@~@{@]@^@/@(@_@:@<@[@}@  ",
"  |@1@2@3@4@5@6@7@8@9@0@a@b@c@d@e@f@g@h@i@j@k@l@m@n@o@p@q@r@s@  ",
"  D+t@u@v@w@x@y@z@A@B@C@D@E@F@G@H@I@J@K@L@M@N@O@g@P@Q@R@S@T@U@  ",
"  V@W@u@X@Y@Z@`@ #.#+#@###$#%#&#*#=#-#;#>#,#'#)#!#~#{#]#^#/#(#  ",
"  _#:#<#[#}#|#1#2#b@3#4#5#6#7#8#9#0#a#b#c#d#e#f#g#h#i#j#k#l#m#  ",
"  n#o#p#* = - ; q#r#s#t#u#v#w#x#y#z#A#B#C#D#E#F#G#H#I#J#K#L#M#  ",
"  N#O#/ ( _ : < [ P#Q#R#S#T#U#V#W#X#Y#Z#`# $.$+$@$#$$$%$&$*$=$  ",
"    8 9 0 a b c -$e [ [ [ [ f g ;$>$,$'$)$!$~${$]$^$/$($_$:$    ",
"    s t u v w <$[$z A B C D E F }$|$1$2$3$4$5$6$7$8$9$0$a$=$    ",
"    ; R S T U V W X Y Z `  ...+.b$c$d$e$f$g$h$i$j$k$l$m$n$      ",
"  ).!.~.{.].^./.(._.:.<.[.}.|.1.o$p$q$r$s$t$u$v$w$&$x$y$z$      ",
"c.A$e.f.g.h.i.j.k.l.m.n.o.p.q.r.B$C$D$E$F$G$H$I$J$K$L$M$        ",
"[ N$O$G.H.I.J.K.j.L.M.N.O.P.Q.R.P$Q$R$S$T$U$V$W$X$Y$I+Z$        ",
"  #+$+%+&+*+=+-+;+>+,+'+,+)+!+~+Q$`$ %.%+%@%#%$%%%k+&%*%        ",
"  4+5+6+7+8+9+0+N.a+b+c+d+E e+f+=%-%;%>%,%'%)%!%~%{%*%*%*%*%    ",
"    v+w+x+y+y+z+z+z+z+z+z+w+]%C+^%/%(%_%:%<%[%}%|%*%*%*%*%*%    ",
"    T+U+V+V+V+!.!.!.!.!.!.1%2%Y+3%4%5%6%7%8%9%0%*%*%*%*%        ",
"                        a%b%c%d%e%f%g%h%i%j%*%*%                ",
"                                                                "};
