/* XPM */
static char * icon_close_20x20_xpm[] = {
"20 20 68 1",
" 	c None",
".	c #939393",
"+	c #404040",
"@	c #DCDCDC",
"#	c #959595",
"$	c #4C4C4C",
"%	c #CECECE",
"&	c #B7B7B7",
"*	c #919191",
"=	c #454545",
"-	c #373737",
";	c #5B5B5B",
">	c #8D8D8D",
",	c #AEAEAE",
"'	c #787878",
")	c #2D2D2D",
"!	c #151515",
"~	c #2F2F2F",
"{	c #717171",
"]	c #9C9C9C",
"^	c #808080",
"/	c #3B3B3B",
"(	c #202020",
"_	c #757575",
":	c #B9B9B9",
"<	c #555555",
"[	c #292929",
"}	c #0E0E0E",
"|	c #4D4D4D",
"1	c #A6A6A6",
"2	c #3E3E3E",
"3	c #494949",
"4	c #8E8E8E",
"5	c #646464",
"6	c #5F5F5F",
"7	c #353535",
"8	c #282828",
"9	c #575757",
"0	c #6A6A6A",
"a	c #595959",
"b	c #767676",
"c	c #0F0F0F",
"d	c #131313",
"e	c #565656",
"f	c #7D7D7D",
"g	c #7F7F7F",
"h	c #979797",
"i	c #6B6B6B",
"j	c #0A0A0A",
"k	c #191919",
"l	c #7A7A7A",
"m	c #464646",
"n	c #B3B3B3",
"o	c #848484",
"p	c #393939",
"q	c #858585",
"r	c #BABABA",
"s	c #838383",
"t	c #424242",
"u	c #515151",
"v	c #898989",
"w	c #707070",
"x	c #3C3C3C",
"y	c #696969",
"z	c #232323",
"A	c #101010",
"B	c #111111",
"C	c #363636",
"                    ",
"                    ",
"              .+    ",
"             @#$    ",
"    %&      #*=     ",
"    -;>,    ')!     ",
"      ~{]] ^/(      ",
"       !_:*<[}      ",
"        }|12!       ",
"         3245       ",
"        67890a      ",
"       b~8cdef+  gg ",
"      hi)cgjk|lmgg  ",
"     no/}  gj8pq=g  ",
"    rst} ggggj2uvg  ",
"    wxcgggg   !tyzg ",
"    )Agg       BCg  ",
"                    ",
"                    ",
"                    "};
