/* XPM */
static char * icon_monitor_32x32_xpm[] = {
"32 32 230 2",
"  	c None",
". 	c #EFEFEF",
"+ 	c #EEEEEE",
"@ 	c #EDEDED",
"# 	c #ECECEC",
"$ 	c #EAEAEA",
"% 	c #E9E9E9",
"& 	c #E3E3E3",
"* 	c #C6C6C6",
"= 	c #C0C0C0",
"- 	c #B8B8B8",
"; 	c #B6B6B6",
"> 	c #B4B4B4",
", 	c #B3B3B3",
"' 	c #B1B1B1",
") 	c #B0B0B0",
"! 	c #AFAFAF",
"~ 	c #AEAEAE",
"{ 	c #B2B2B2",
"] 	c #A8A8A8",
"^ 	c #9D9D9D",
"/ 	c #E0E0E0",
"( 	c #C1C1C1",
"_ 	c #BABABA",
": 	c #ACACAC",
"< 	c #AAAAAA",
"[ 	c #A9A9A9",
"} 	c #A7A7A7",
"| 	c #A6A6A6",
"1 	c #A5A5A5",
"2 	c #A1A1A1",
"3 	c #999999",
"4 	c #E1E1E1",
"5 	c #B9B9B9",
"6 	c #646464",
"7 	c #636363",
"8 	c #626262",
"9 	c #5E5E5E",
"0 	c #585858",
"a 	c #555555",
"b 	c #5B5B5B",
"c 	c #565656",
"d 	c #5C5C5C",
"e 	c #5D5D5D",
"f 	c #5A5A5A",
"g 	c #616161",
"h 	c #666666",
"i 	c #676767",
"j 	c #7E7E7E",
"k 	c #A0A0A0",
"l 	c #9A9A9A",
"m 	c #909090",
"n 	c #3D3B3A",
"o 	c #3F3D3C",
"p 	c #3E3B3A",
"q 	c #3E3A3A",
"r 	c #3D3A3A",
"s 	c #3C3A3A",
"t 	c #373535",
"u 	c #363434",
"v 	c #363332",
"w 	c #373433",
"x 	c #373534",
"y 	c #343230",
"z 	c #333230",
"A 	c #33312F",
"B 	c #32302E",
"C 	c #312F2E",
"D 	c #33302F",
"E 	c #A4A4A4",
"F 	c #919191",
"G 	c #6C6C6C",
"H 	c #403E3D",
"I 	c #413E3D",
"J 	c #444241",
"K 	c #423F3E",
"L 	c #3E3C3B",
"M 	c #3C3B3A",
"N 	c #3B3A39",
"O 	c #3B3838",
"P 	c #383534",
"Q 	c #312F2F",
"R 	c #302E2E",
"S 	c #2F2D2C",
"T 	c #2F2E2D",
"U 	c #312E2D",
"V 	c #B7B7B7",
"W 	c #767676",
"X 	c #413F3E",
"Y 	c #474544",
"Z 	c #434241",
"` 	c #3B3938",
" .	c #3A3736",
"..	c #333130",
"+.	c #302E2D",
"@.	c #DFDFDF",
"#.	c #737373",
"$.	c #413F3D",
"%.	c #3F3E3C",
"&.	c #3F3C3B",
"*.	c #3F3C3A",
"=.	c #393736",
"-.	c #383635",
";.	c #322F2F",
">.	c #31302F",
",.	c #302F2E",
"'.	c #312F2D",
").	c #DDDDDD",
"!.	c #727272",
"~.	c #403F3D",
"{.	c #393735",
"].	c #363433",
"^.	c #353331",
"/.	c #353231",
"(.	c #343130",
"_.	c #302D2C",
":.	c #302E2C",
"<.	c #DBDBDB",
"[.	c #403E3C",
"}.	c #3D3A39",
"|.	c #32302F",
"1.	c #3E3C3A",
"2.	c #353332",
"3.	c #34312F",
"4.	c #2F2E2C",
"5.	c #2F2D2B",
"6.	c #BBBBBB",
"7.	c #787878",
"8.	c #353333",
"9.	c #343231",
"0.	c #353230",
"a.	c #2F2D2D",
"b.	c #2E2D2C",
"c.	c #2E2C2B",
"d.	c #747474",
"e.	c #363432",
"f.	c #302D2D",
"g.	c #2E2C2C",
"h.	c #2F2C2B",
"i.	c #BEBEBE",
"j.	c #717171",
"k.	c #3F3C3C",
"l.	c #3E3D3C",
"m.	c #3D3C3B",
"n.	c #2F2C2C",
"o.	c #2D2B2A",
"p.	c #2D2A29",
"q.	c #2E2B2A",
"r.	c #929292",
"s.	c #DCDCDC",
"t.	c #707070",
"u.	c #2C2A29",
"v.	c #2E2B29",
"w.	c #C2C2C2",
"x.	c #9C9C9C",
"y.	c #939393",
"z.	c #383636",
"A.	c #3B3937",
"B.	c #373434",
"C.	c #2E2D2B",
"D.	c #2D2C2A",
"E.	c #2C2B29",
"F.	c #2B2A28",
"G.	c #2C2A28",
"H.	c #C5C5C5",
"I.	c #ABABAB",
"J.	c #949494",
"K.	c #363333",
"L.	c #323130",
"M.	c #C8C8C8",
"N.	c #312D2C",
"O.	c #2E2C2A",
"P.	c #2F2C2A",
"Q.	c #979797",
"R.	c #D7D7D7",
"S.	c #7A7A7A",
"T.	c #312D2D",
"U.	c #302C2A",
"V.	c #ADADAD",
"W.	c #D9D9D9",
"X.	c #868686",
"Y.	c #C4C4C4",
"Z.	c #CACACA",
"`.	c #D2D2D2",
" +	c #D0D0D0",
".+	c #CDCDCD",
"++	c #C9C9C9",
"@+	c #C3C3C3",
"#+	c #D1D1D1",
"$+	c #9E9E9E",
"%+	c #959595",
"&+	c #D8D8D8",
"*+	c #989898",
"=+	c #A2A2A2",
"-+	c #9B9B9B",
";+	c #9F9F9F",
">+	c #8D8D8D",
",+	c #7F7F7F",
"'+	c #969696",
")+	c #8F8F8F",
"!+	c #7D7D7D",
"~+	c #6F6F6F",
"{+	c #6D6D6D",
"]+	c #6E6E6E",
"^+	c #6B6B6B",
"/+	c #6A6A6A",
"(+	c #424242",
"_+	c #434343",
":+	c #444343",
"<+	c #474646",
"[+	c #484747",
"}+	c #454545",
"|+	c #464545",
"1+	c #444444",
"2+	c #464646",
"3+	c #383838",
"4+	c #9F9E9E",
"5+	c #8B8B8B",
"6+	c #797878",
"7+	c #6D6C6C",
"8+	c #626161",
"9+	c #545454",
"0+	c #BDBDBD",
"a+	c #8E8E8E",
"b+	c #777777",
"c+	c #797979",
"d+	c #3A3A3A",
"e+	c #CCCCCC",
"f+	c #A3A3A3",
"g+	c #3B3B3B",
"                                                                ",
"                                                                ",
"  . + + + @ @ @ + @ + + @ + + @ @ + + @ @ @ # @ @ @ # $ %       ",
"& * = - ; > , ' ) ! ! ) ! ! ) ! ! ) ! ~ ~ ~ ~ ) ' { ) ] ^       ",
"/ ( _ { ! : : < [ [ [ [ [ [ [ [ ] } | | | | 1 ] < < [ 2 3       ",
"4 5 , 6 6 7 8 9 9 9 0 a b c 9 d d e f 9 9 g 8 h i j k l m       ",
"4 - { h n o o p q r s t u u u v w x y z A B C C D ) E 3 F       ",
"4 - ' G H I J K o o L L L n M N N O P Q R S T U C _ ] l m       ",
"4 V ' W X K Y Z o L L L n M N ` `  ...C +.T S U C _ ] 3 m       ",
"@.- ' #.$.I K %.&.o *.=.-.P x z A A ;.>.,.+.S U '._ ] 3 m       ",
").- ' !.~.I I o o *.{.].v ^./.(.(.A A >.,.+.+._.:._ [ 3 m       ",
"<.V ' !.~.I [.o }.].].].v /./.(.(.A A |.|.S S _.:._ ] 3 m       ",
"<.V { !.~.[.[.1.x ].2.v v /./.(.3.A |.|.|.S 4.:.5._ ] 3 m       ",
"<.6.{ 7.~.[.[.].8.9.0.0.0.A A |.|.|.|.R R a.b.S c._ [ l m       ",
"<.6.{ d.~.o o e.(...A D A D |.|.|.C Q R f.g.c.g.h.i.[ l m       ",
"<._ , j.k.l.m.9.A C C C C +.+.+.+.f.n.n.h.o.p.q.q.i.< l r.      ",
"s.6.{ t.k.L M ..|.+.+.+.+._._.b.S S h.h.h.o.u.v.q.w.: x.y.      ",
"s.6., d.z.A.B.C _.b.b.b.b.C.5.5.5.5.D.D.E.F.G.p.q.H.I.x.J.      ",
"<._ , !.K...L.U a.5.5.5.5.5.5.5.5.5.D.D.E.G.u.p.v.M.: x.J.      ",
"<._ ' W 8.|.C N.S 5.5.5.5.5.5.S S S O.O.O.o.u.q.P.H.~ ^ Q.      ",
"R.- ' S.].|.C T._.S S S S S _._._._.h.c.h.q.q.q.U.w.V.^ Q.      ",
"W.V ) X.Y.= Y.Y.H.Z.Z.Z.Z.`.`. +.+++.+.+M.M.@+Y.#+W.1 $+%+      ",
"&+> ! *+] E } ~ ~ ~ ~ ~ ~ ) ) ' ) ) ) ) ) : I.: < < =+$+J.      ",
"R.) < 2 ^ -+-+-+l -+l l l -+-+l l l l l 3 l 3 3 3 ;+;+*+>+,+,+  ",
"* } ;+3 '+'+%+%+%+%+%+%+%+%+%+%+%+%+J.y.y.y.y.r.r.%+%+)+X.,+,+  ",
"  !+d.!.#.!.!.!.!.!.t.t.t.t.~+{+]+G G ^+^+/+/+/+/+/+/+i 8 ,+,+,+",
"        < (+_+:+:+<+<+[+[+[+[+}+}+|+|+}+}+1+2+2+2+3+,+,+,+,+,+,+",
"          - @+| V.2 4+>+5+6+7+6 6 8+8+e e c 9+3+3+,+,+,+,+,+,+  ",
"              M.M.0+! -+-+F a+b+c+d.d.G 6 d+d+,+,+,+,+,+,+,+,+  ",
"                      e+e+1 f+#.8 g+g+,+,+,+,+,+,+,+,+          ",
"                                                                ",
"                                                                "};
