/* XPM */
static char * icon_force_feedback_32x32_xpm[] = {
"32 32 183 2",
"  	c None",
". 	c #000000",
"+ 	c #242424",
"@ 	c #333333",
"# 	c #E2E2E2",
"$ 	c #454545",
"% 	c #131313",
"& 	c #FFFFFF",
"* 	c #161616",
"= 	c #141414",
"- 	c #E0E0E0",
"; 	c #3A3A3A",
"> 	c #1F1F1F",
", 	c #0E0E0E",
"' 	c #272727",
") 	c #EDEDED",
"! 	c #181818",
"~ 	c #1C1C1C",
"{ 	c #3B3B3B",
"] 	c #2D2D2D",
"^ 	c #BCBCBC",
"/ 	c #282828",
"( 	c #E3E3E3",
"_ 	c #F2F2F2",
": 	c #313131",
"< 	c #0D0D0D",
"[ 	c #6F6F6F",
"} 	c #555555",
"| 	c #2A2A2A",
"1 	c #1B1B1B",
"2 	c #2F2F2F",
"3 	c #939393",
"4 	c #797070",
"5 	c #726500",
"6 	c #C3C300",
"7 	c #6A6000",
"8 	c #191111",
"9 	c #252525",
"0 	c #070707",
"a 	c #2E2E2E",
"b 	c #DFDFDF",
"c 	c #BFBFBF",
"d 	c #A8A8A8",
"e 	c #2A110A",
"f 	c #7C7900",
"g 	c #FFFF00",
"h 	c #F9EE00",
"i 	c #301818",
"j 	c #111111",
"k 	c #3F3F3F",
"l 	c #B4B4B4",
"m 	c #5E5E5E",
"n 	c #D0D0D0",
"o 	c #393030",
"p 	c #613220",
"q 	c #959500",
"r 	c #FBF700",
"s 	c #474747",
"t 	c #4E4E4E",
"u 	c #414141",
"v 	c #C3C3C3",
"w 	c #5C4747",
"x 	c #472121",
"y 	c #BFB600",
"z 	c #605600",
"A 	c #424242",
"B 	c #F9F9F9",
"C 	c #040404",
"D 	c #090909",
"E 	c #2F2626",
"F 	c #928D00",
"G 	c #C1BC00",
"H 	c #67675E",
"I 	c #CDCDCD",
"J 	c #FCFCFC",
"K 	c #868686",
"L 	c #0B0000",
"M 	c #410000",
"N 	c #0E0808",
"O 	c #451B1B",
"P 	c #FDF500",
"Q 	c #FDF403",
"R 	c #514703",
"S 	c #C1C1C1",
"T 	c #D5D5D5",
"U 	c #5A5A5A",
"V 	c #352A2A",
"W 	c #610000",
"X 	c #FBF400",
"Y 	c #FEFA00",
"Z 	c #BCBC00",
"` 	c #343300",
" .	c #0A0000",
"..	c #3E3E00",
"+.	c #AE9C0A",
"@.	c #B4AF29",
"#.	c #747445",
"$.	c #626262",
"%.	c #B4A200",
"&.	c #2B2B0C",
"*.	c #D6D6D6",
"=.	c #A0A0A0",
"-.	c #403232",
";.	c #685F00",
">.	c #FDFB00",
",.	c #938700",
"'.	c #322E00",
").	c #DAD800",
"!.	c #FEFC00",
"~.	c #514141",
"{.	c #514E4E",
"].	c #818181",
"^.	c #8B8B8B",
"/.	c #B5B5B5",
"(.	c #CCCCCC",
"_.	c #4E2809",
":.	c #B8A800",
"<.	c #928F00",
"[.	c #582E03",
"}.	c #404040",
"|.	c #796767",
"1.	c #C0BE00",
"2.	c #717100",
"3.	c #543404",
"4.	c #756F6F",
"5.	c #9D9D9D",
"6.	c #0C0C0C",
"7.	c #C2C2C2",
"8.	c #8B8827",
"9.	c #C1BF00",
"0.	c #675902",
"a.	c #25200B",
"b.	c #9A9A9A",
"c.	c #BBBBBB",
"d.	c #D1D1D1",
"e.	c #353535",
"f.	c #060606",
"g.	c #494949",
"h.	c #CFCFCF",
"i.	c #352711",
"j.	c #6F6E00",
"k.	c #2A210A",
"l.	c #686868",
"m.	c #5C5C5C",
"n.	c #080808",
"o.	c #565656",
"p.	c #201515",
"q.	c #FDF800",
"r.	c #8F8600",
"s.	c #311A1A",
"t.	c #505050",
"u.	c #727272",
"v.	c #D4D4D4",
"w.	c #B2B2B2",
"x.	c #6F6801",
"y.	c #716F00",
"z.	c #2E1212",
"A.	c #1D1D1D",
"B.	c #969696",
"C.	c #D2D2D2",
"D.	c #E4E4E4",
"E.	c #E7E7E7",
"F.	c #DBDBDB",
"G.	c #515151",
"H.	c #383838",
"I.	c #898989",
"J.	c #323232",
"K.	c #303030",
"L.	c #EFEFEF",
"M.	c #222222",
"N.	c #F7F7F7",
"O.	c #595959",
"P.	c #292929",
"Q.	c #343434",
"R.	c #101010",
"S.	c #616161",
"T.	c #3E3E3E",
"U.	c #F5F5F5",
"V.	c #9F9F9F",
"W.	c #2B2B2B",
"X.	c #191919",
"Y.	c #E8E8E8",
"Z.	c #212121",
"                                                                ",
"                                                                ",
"                                          .                     ",
"                    . +                 @ .                     ",
"                    . # $             % & *                     ",
"                      = - ;         > & & ,                     ",
"                      ' & ) .     ! & & & ~                     ",
"          { ] .       . & & ^ . . & & & & /                     ",
"          @ ( _ . .     : & & . < & [ } - |                     ",
"            1 & & & : 2 : & & 3 4 5 6 7 8 9     0 / a           ",
"            . b & & & c & & d e f 6 g h i j . k l & m           ",
"              { & & & n o p q g g g g r s ) & & & t             ",
"                u v w x y g g g g g g z A B & & & !             ",
"        . C D E F g g g g g g g g g G H I J & & K . . L M       ",
"    . 0 N O P g g g g g g g Q g g g R S T & & U V W X Y Z `     ",
" ...g g g g g g g g +.@.#.$.%.g g &.*.=.-.;.q g g g g g >.,..   ",
"  '.).!.!.!.~.{.].^./.(._.:.g g . <.q 6 g g g g g g [.. .       ",
"    . . . }.- & & & & |.1.g g g g g g g g g g g 2.3.4.5.6.      ",
"            { 7.& & 8.9.g g g g g g g g g 0.a.; b.c.d.=.e.f.    ",
"            g.h.& & i.g g g g g g g g j.k.l.].v v m.0 n.        ",
"            o.& & & p.q.g g g r.s.t.u.h.h.v.*.w..               ",
"          ! & & & & 5.s x.y.z.A.B.h.C.D.E.F.F.h.G.              ",
"          H.& & b | & & & & & & & & & I.a & & & & J.            ",
"        > & h.K.. j & & & & & L.& & & .   M.k b N.& /           ",
"        . O..     P.& & & & & Q.- & & R.      . . .             ",
"                  | & & & & < ' S.& & 1                         ",
"                  ~ & & & T.    A & & =                         ",
"                  ~ & & 2         A.U./                         ",
"                  , & & >         O.V.W.                        ",
"                  X.Y.]             A.Z.                        ",
"                  . A.                +                         ",
"                                                                "};
