/* XPM */
static char * icon_clipboard_32x32_xpm[] = {
"32 32 312 2",
"  	c None",
". 	c #82817F",
"+ 	c #CECCCB",
"@ 	c #B8B6B5",
"# 	c #989795",
"$ 	c #807F7D",
"% 	c #817F7E",
"& 	c #E3E1E0",
"* 	c #DFDEDC",
"= 	c #6C6B6B",
"- 	c #E4E3E2",
"; 	c #95938F",
"> 	c #62615F",
", 	c #E4E3E0",
"' 	c #E1DEDA",
") 	c #DEDBD7",
"! 	c #DDDBD9",
"~ 	c #D9D7D4",
"{ 	c #B2AFAB",
"] 	c #928F8C",
"^ 	c #585655",
"/ 	c #584832",
"( 	c #5B4C32",
"_ 	c #64563F",
": 	c #685B49",
"< 	c #685E50",
"[ 	c #6F6658",
"} 	c #93918B",
"| 	c #C2BEBA",
"1 	c #C2BFBB",
"2 	c #C3C0BC",
"3 	c #B3B0AC",
"4 	c #AFACA8",
"5 	c #A6A39F",
"6 	c #9B9894",
"7 	c #989591",
"8 	c #5F5E5B",
"9 	c #5D5B58",
"0 	c #5A4B36",
"a 	c #54462F",
"b 	c #CABAA3",
"c 	c #C1B19A",
"d 	c #B0A089",
"e 	c #AEA08B",
"f 	c #ADADAA",
"g 	c #7B7874",
"h 	c #75726E",
"i 	c #74716D",
"j 	c #716E6A",
"k 	c #73706C",
"l 	c #76736F",
"m 	c #625D55",
"n 	c #AA987E",
"o 	c #AE9E83",
"p 	c #A89981",
"q 	c #4C3E2A",
"r 	c #B2A28A",
"s 	c #84735A",
"t 	c #80735B",
"u 	c #9D968D",
"v 	c #6A6763",
"w 	c #6C6965",
"x 	c #6B6864",
"y 	c #686561",
"z 	c #66635F",
"A 	c #696662",
"B 	c #5E5851",
"C 	c #7B6B52",
"D 	c #827158",
"E 	c #7C6C55",
"F 	c #60513A",
"G 	c #554832",
"H 	c #928168",
"I 	c #7F6E55",
"J 	c #4D4A46",
"K 	c #4B4844",
"L 	c #4A4743",
"M 	c #494642",
"N 	c #4A4741",
"O 	c #4A4742",
"P 	c #4C4743",
"Q 	c #4A473F",
"R 	c #5B5243",
"S 	c #716149",
"T 	c #817057",
"U 	c #5A4A35",
"V 	c #5A4B35",
"W 	c #85745B",
"X 	c #CAC9C8",
"Y 	c #84817E",
"Z 	c #6F6D6A",
"` 	c #6E6B67",
" .	c #6C6864",
"..	c #74706C",
"+.	c #706D69",
"@.	c #807D78",
"#.	c #8A8682",
"$.	c #A09C98",
"%.	c #ADA9A4",
"&.	c #B1AEAA",
"*.	c #CCC9C5",
"=.	c #B1AB9D",
"-.	c #83745C",
";.	c #806F56",
">.	c #554732",
",.	c #86755C",
"'.	c #87765D",
").	c #C5C5C3",
"!.	c #CDCCCB",
"~.	c #C4C3C2",
"{.	c #C0BEBC",
"].	c #C5C3C3",
"^.	c #D0CFCD",
"/.	c #E2E1E0",
"(.	c #E5E5E4",
"_.	c #E8E7E5",
":.	c #EEEEEC",
"<.	c #EEEDEB",
"[.	c #EDECEB",
"}.	c #ECEBE9",
"|.	c #D5D2CC",
"1.	c #86765D",
"2.	c #5A4A34",
"3.	c #534530",
"4.	c #C4C3C3",
"5.	c #F4F4F4",
"6.	c #F7F7F7",
"7.	c #F5F5F5",
"8.	c #F3F3F3",
"9.	c #F1F1F1",
"0.	c #DBD7D2",
"a.	c #594A33",
"b.	c #544631",
"c.	c #BBB9B8",
"d.	c #F3F2F1",
"e.	c #F5F4F4",
"f.	c #F6F6F5",
"g.	c #F6F6F6",
"h.	c #DCD9D5",
"i.	c #5E4E37",
"j.	c #594A34",
"k.	c #B5B3B2",
"l.	c #F4F3F3",
"m.	c #F8F8F8",
"n.	c #FAFAFA",
"o.	c #F9F8F8",
"p.	c #605038",
"q.	c #88775E",
"r.	c #AFAEAC",
"s.	c #F3F2F2",
"t.	c #F2F2F2",
"u.	c #E7E5E2",
"v.	c #87775F",
"w.	c #594935",
"x.	c #AEADAB",
"y.	c #F2F1F0",
"z.	c #F1F1F0",
"A.	c #F0F0EF",
"B.	c #EFEEED",
"C.	c #E9E7E5",
"D.	c #8A7A63",
"E.	c #605139",
"F.	c #564631",
"G.	c #AEACAB",
"H.	c #F1F0F0",
"I.	c #F2F2F1",
"J.	c #F0EFEF",
"K.	c #E9E8E5",
"L.	c #8E7D68",
"M.	c #7E6D54",
"N.	c #4B3C25",
"O.	c #837259",
"P.	c #F1F0EF",
"Q.	c #F0F0F0",
"R.	c #EDEDEC",
"S.	c #93846F",
"T.	c #685840",
"U.	c #4A3C25",
"V.	c #AEADAC",
"W.	c #F2F1F1",
"X.	c #EFEFEF",
"Y.	c #EEEEEE",
"Z.	c #EEEEED",
"`.	c #EEEDED",
" +	c #ABA191",
".+	c #493B25",
"++	c #AEACAA",
"@+	c #ECECEC",
"#+	c #BEB7AF",
"$+	c #83745D",
"%+	c #695941",
"&+	c #483A24",
"*+	c #A39D96",
"=+	c #DEDEDC",
"-+	c #EDEDED",
";+	c #D6D4CF",
">+	c #84745C",
",+	c #78684F",
"'+	c #473822",
")+	c #75644C",
"!+	c #8E8270",
"~+	c #C5C4C4",
"{+	c #EFEFEE",
"]+	c #DDDBD8",
"^+	c #867760",
"/+	c #51422C",
"(+	c #6B5B43",
"_+	c #8A7D69",
":+	c #C4C4C3",
"<+	c #E5E3E2",
"[+	c #7D6C53",
"}+	c #63533B",
"|+	c #887B66",
"1+	c #C3C2C1",
"2+	c #E8E8E6",
"3+	c #867861",
"4+	c #857762",
"5+	c #C1C0BF",
"6+	c #EBEAE9",
"7+	c #867762",
"8+	c #50422B",
"9+	c #B3B1AF",
"0+	c #EAE9E8",
"a+	c #867761",
"b+	c #605039",
"c+	c #83735C",
"d+	c #AEADAA",
"e+	c #EBEBEB",
"f+	c #8D7F6A",
"g+	c #7F7059",
"h+	c #7F7F7F",
"i+	c #83725C",
"j+	c #ADAAA7",
"k+	c #DCD9D4",
"l+	c #CDCBC7",
"m+	c #C1BDB8",
"n+	c #B5B2A8",
"o+	c #8B7B66",
"p+	c #82725C",
"q+	c #ABA8A4",
"r+	c #CECECC",
"s+	c #C6C4C1",
"t+	c #BBB8B4",
"u+	c #B4B0A9",
"v+	c #A6A097",
"w+	c #948B7F",
"x+	c #898072",
"y+	c #827767",
"z+	c #7D7363",
"A+	c #776A56",
"B+	c #746752",
"C+	c #6A5C47",
"D+	c #83745E",
"E+	c #807059",
"F+	c #5F4E37",
"G+	c #7B6A51",
"H+	c #938C82",
"I+	c #857D70",
"J+	c #7C7364",
"K+	c #75695A",
"L+	c #736757",
"M+	c #70634F",
"N+	c #6E604E",
"O+	c #685B47",
"P+	c #665843",
"Q+	c #655741",
"R+	c #685941",
"S+	c #6B5D47",
"T+	c #6D5D47",
"U+	c #706049",
"V+	c #74654C",
"W+	c #786850",
"X+	c #74674F",
"Y+	c #796B54",
"Z+	c #4F422B",
"`+	c #7C6B52",
" @	c #6D5D44",
".@	c #695B42",
"+@	c #6E5F48",
"@@	c #706149",
"#@	c #786852",
"$@	c #564633",
"%@	c #5B4A37",
"&@	c #7F6F56",
"*@	c #7E6E55",
"=@	c #7A6950",
"-@	c #6D5E46",
";@	c #64543E",
">@	c #60513B",
",@	c #5F5139",
"'@	c #53442D",
")@	c #50442E",
"!@	c #544830",
"~@	c #53422D",
"{@	c #5F4D37",
"]@	c #706148",
"^@	c #6E5F46",
"/@	c #6E5E47",
"(@	c #6B5A43",
"_@	c #64553D",
":@	c #63543D",
"<@	c #5A4C37",
"[@	c #544531",
"}@	c #544530",
"|@	c #52432E",
"1@	c #4B3D28",
"2@	c #4B402A",
"3@	c #544431",
"4@	c #56462F",
"5@	c #564632",
"6@	c #55462E",
"7@	c #52462D",
"                          . + @ # $                             ",
"                        % & * = - ; >                           ",
"                        , ' ) ! ~ { ] ^                         ",
"          / ( _ : < [ } | 1 2 3 4 5 6 7 8 9 0 0 0 0             ",
"        a b c d e f g g g g g g g h i j k l m n o p 0           ",
"        q r s t u j v w w w w x y z z z A w B C D E F           ",
"        G H s I J K K L M L L L M N N O P Q R S T T U           ",
"        V W W X Y Z ` x v v  ...+.@.#.$.%.&.*.=.-.;.U           ",
"        >.,.'.).!.~.{.].^./.(._.:.<.<.[.}.}.<.|.1.T 2.          ",
"        3.W '.4.5.6.7.7.7.7.8.8.7.5.8.9.9.5.7.0.'.T a.          ",
"        b.'.'.c.d.e.5.7.7.5.5.8.7.7.f.g.g.g.g.h.'.;.i.          ",
"        j.'.'.k.e.l.5.5.7.5.5.7.m.n.n.n.o.6.7.h.'.I p.          ",
"        0 '.q.r.5.s.t.5.7.5.5.5.5.5.5.7.5.s.t.u.v.I F           ",
"        w.,.,.x.y.z.A.5.5.5.8.B.A.t.t.t.t.t.t.C.D.I E.          ",
"        F.,.,.G.H.I.A.7.5.5.8.J.9.t.t.9.9.9.8.K.L.M.E.          ",
"        N.O.O.G.P.8.s.7.7.5.8.z.z.Q.Q.Q.Q.9.8.R.S.I T.          ",
"        U.O.O.V.W.5.8.t.8.t.Q.X.X.Y.Z.X.X.X.Y.`. +;.T.          ",
"        .+D O.++Z.t.9.H.Q.Q.9.Q.@+@+Z.Q.Q.X.Y.`.#+$+%+.+        ",
"        &+D D *+=+Q.Q.X.X.Q.t.Q.Y.Y.R.R.Y.-+-+X.;+>+,+.+        ",
"        '+)+D !+~+Q.X.X.Y.Q.X.-+Q.Q.{+Z.X.Y.Y.Y.]+^+,+/+        ",
"          (+D _+:+X.Q.Q.Q.t.-+-+Y.X.Y.Y.X.X.X.X.<+^+[+/+        ",
"          }+D |+1+`.X.t.8.9.9.9.9.9.9.t.t.t.9.t.2+3+[+/+        ",
"          F D 4+5+Z.Q.t.8.t.9.t.t.8.8.8.8.t.9.t.6+7+M.8+        ",
"          F ;.-.9+X.Q.8.8.8.t.t.t.z.z.I.t.9.Q.Q.0+a+M./+        ",
"          b+;.c+d+{+9.9.t.Q.z.H.9.9.A.Z.Z.A.9.9.e+f+g+/+h+h+    ",
"          E.I i+j+Z.9.t.8.t.t.t.t.t.9.{+_.k+l+m+n+o+p+/+h+h+h+  ",
"          b+M.O.q+J.t.8.8.r+s+t+u+v+w+x+y+z+A+B+C+D+E+/+h+h+h+  ",
"          F+G+O.H+I+J+K+L+M+N+O+P+Q+R+S+T+U+V+W+X+Y+[+Z+h+h+    ",
"          i.`+D I  @.@+@@@#@#@;.I M.M.M.M.M.M.M.`+`+M.$@h+      ",
"          %@&@;.;.;.D T T I ;.&@*@M.M.=@-@;@>@,@'@)@!@h+        ",
"          ~@{@]@^@/@(@%+_@:@F <@0 [@}@|@1@                      ",
"            2@3@4@5@6@7@                                        "};
