/* XPM */
static char * icon_socket_32x32_xpm[] = {
"32 32 285 2",
"  	c None",
". 	c #626262",
"+ 	c #616161",
"@ 	c #5F5F5F",
"# 	c #686868",
"$ 	c #717171",
"% 	c #585858",
"& 	c #E6E6E6",
"* 	c #EAEAEA",
"= 	c #E9E9E9",
"- 	c #E2E2E2",
"; 	c #E1E1E1",
"> 	c #DBDBDB",
", 	c #D7D7D7",
"' 	c #DEDEDE",
") 	c #ADADAD",
"! 	c #A7A7A7",
"~ 	c #929292",
"{ 	c #777777",
"] 	c #808080",
"^ 	c #848484",
"/ 	c #484848",
"( 	c #ECECEC",
"_ 	c #EFEFEE",
": 	c #E8E6E5",
"< 	c #E6E4E2",
"[ 	c #E9E8E6",
"} 	c #EEEEED",
"| 	c #EFEFEF",
"1 	c #E2E2E1",
"2 	c #2C2C2C",
"3 	c #ECECEB",
"4 	c #E8E7E4",
"5 	c #DEDAD6",
"6 	c #E0DEDA",
"7 	c #E2DFDC",
"8 	c #E3E1DD",
"9 	c #EBEAE9",
"0 	c #E5E3E1",
"a 	c #E5E4E2",
"b 	c #E6E5E3",
"c 	c #E7E6E4",
"d 	c #E9E9E7",
"e 	c #E9E9E8",
"f 	c #EAE9E8",
"g 	c #C5C4C1",
"h 	c #3B3A3A",
"i 	c #E7E6E5",
"j 	c #E4E2DF",
"k 	c #DAD6D0",
"l 	c #D8D4CE",
"m 	c #DBD7D2",
"n 	c #E0DDDA",
"o 	c #E3E0DC",
"p 	c #ECEBEB",
"q 	c #AFADAB",
"r 	c #CFCCC9",
"s 	c #E1DEDA",
"t 	c #E0DDD9",
"u 	c #E0DDD8",
"v 	c #BDBBB6",
"w 	c #434140",
"x 	c #E6E5E4",
"y 	c #DDD8D5",
"z 	c #D9D5D0",
"A 	c #DBD7D1",
"B 	c #DEDBD6",
"C 	c #9E9C9A",
"D 	c #737170",
"E 	c #B2AFAB",
"F 	c #DDD9D5",
"G 	c #DFDCD8",
"H 	c #DEDBD7",
"I 	c #DCD8D3",
"J 	c #B7B4B0",
"K 	c #3E3D3D",
"L 	c #E5E3E0",
"M 	c #DFDCD9",
"N 	c #E1DFDB",
"O 	c #BBB8B5",
"P 	c #979490",
"Q 	c #BFBDB8",
"R 	c #DAD4CF",
"S 	c #DAD5D0",
"T 	c #DDD9D4",
"U 	c #DCD9D4",
"V 	c #DDDAD5",
"W 	c #B7B4AF",
"X 	c #DDDBD8",
"Y 	c #DCD9D5",
"Z 	c #CBC8C3",
"` 	c #B5B5B3",
" .	c #B2B0AD",
"..	c #BDBBB9",
"+.	c #C5C3C0",
"@.	c #C6C3C2",
"#.	c #C6C3C1",
"$.	c #C9C7C4",
"%.	c #D0CECB",
"&.	c #E8E7E5",
"*.	c #DCDAD7",
"=.	c #1A1918",
"-.	c #E3E1DE",
";.	c #CCCAC5",
">.	c #B0AFAF",
",.	c #A2A2A1",
"'.	c #A1A09E",
").	c #A3A2A0",
"!.	c #A8A7A6",
"~.	c #AAA9A7",
"{.	c #AAAAA8",
"].	c #B3B2B0",
"^.	c #BFBEBC",
"/.	c #B8B6B3",
"(.	c #B6B3AF",
"_.	c #0D0C0C",
":.	c #E1DEDB",
"<.	c #B1B0AE",
"[.	c #A1A09F",
"}.	c #8E8C8A",
"|.	c #878684",
"1.	c #A6A5A3",
"2.	c #A7A5A5",
"3.	c #8F8D8C",
"4.	c #8A8A88",
"5.	c #979695",
"6.	c #A09F9E",
"7.	c #94928F",
"8.	c #DAD6D2",
"9.	c #B5B4B2",
"0.	c #A9A8A7",
"a.	c #8D8D8C",
"b.	c #5D5D5D",
"c.	c #4D4D4D",
"d.	c #A9A9A9",
"e.	c #626161",
"f.	c #4C4B4B",
"g.	c #737372",
"h.	c #878582",
"i.	c #D2CECA",
"j.	c #B4B3B2",
"k.	c #A6A6A4",
"l.	c #878786",
"m.	c #545454",
"n.	c #ACACAC",
"o.	c #AAAAAA",
"p.	c #595959",
"q.	c #393939",
"r.	c #A6A5A4",
"s.	c #8D8C88",
"t.	c #D2CECB",
"u.	c #B7B6B4",
"v.	c #A0A0A0",
"w.	c #868686",
"x.	c #787878",
"y.	c #747474",
"z.	c #8C8C8C",
"A.	c #A5A4A3",
"B.	c #8B8986",
"C.	c #D7D4D0",
"D.	c #BBBAB8",
"E.	c #A8A8A7",
"F.	c #A5A5A5",
"G.	c #9D9D9D",
"H.	c #9C9C9C",
"I.	c #A6A6A6",
"J.	c #A09F9F",
"K.	c #92918F",
"L.	c #858482",
"M.	c #DAD9D6",
"N.	c #ABABAA",
"O.	c #9E9E9D",
"P.	c #5E5E5E",
"Q.	c #4E4E4E",
"R.	c #A2A2A2",
"S.	c #ABABAB",
"T.	c #9F9E9D",
"U.	c #898785",
"V.	c #A2A09D",
"W.	c #B6B3AE",
"X.	c #B4B4B4",
"Y.	c #A6A6A5",
"Z.	c #A4A4A3",
"`.	c #9F9F9F",
" +	c #3F3F3F",
".+	c #9E9D9C",
"++	c #7A7876",
"@+	c #B6B3B1",
"#+	c #DFDCD7",
"$+	c #B2AFAA",
"%+	c #CAC8C6",
"&+	c #9A9997",
"*+	c #9D9C9B",
"=+	c #A0A09F",
"-+	c #8B8A8A",
";+	c #5D5D5C",
">+	c #A3A2A2",
",+	c #858483",
"'+	c #83817F",
")+	c #D6D2CF",
"!+	c #D7D4CE",
"~+	c #B2AFAC",
"{+	c #848381",
"]+	c #999898",
"^+	c #9E9E9E",
"/+	c #9B9B9B",
"(+	c #9A9999",
"_+	c #8B8B89",
":+	c #8D8B89",
"<+	c #D7D4D1",
"[+	c #D9D5CF",
"}+	c #9D9B98",
"|+	c #7C7C79",
"1+	c #80807D",
"2+	c #6E6E6E",
"3+	c #868685",
"4+	c #878685",
"5+	c #B0AEAC",
"6+	c #DAD7D2",
"7+	c #C4C1BB",
"8+	c #B8B6B1",
"9+	c #BBBAB5",
"0+	c #C0BDB9",
"a+	c #D2D0CA",
"b+	c #D7D5D2",
"c+	c #E2DEDA",
"d+	c #DFDDD8",
"e+	c #E2DFDB",
"f+	c #3C3B3B",
"g+	c #7F7F7F",
"h+	c #E6E6E5",
"i+	c #DCD8D4",
"j+	c #E3E1DC",
"k+	c #DCDBDB",
"l+	c #999897",
"m+	c #CECAC7",
"n+	c #E0DCD9",
"o+	c #E3E0DD",
"p+	c #B2AEAA",
"q+	c #40403F",
"r+	c #696969",
"s+	c #E8E8E8",
"t+	c #DFDBD8",
"u+	c #DEDAD7",
"v+	c #9E9D9B",
"w+	c #757474",
"x+	c #B8B6B2",
"y+	c #464544",
"z+	c #C5C3C1",
"A+	c #C8C5C3",
"B+	c #C8C6C4",
"C+	c #CDCCC7",
"D+	c #D1CECA",
"E+	c #D6D3CF",
"F+	c #A8A6A3",
"G+	c #C7C4C1",
"H+	c #ADA9A3",
"I+	c #454443",
"J+	c #515151",
"K+	c #6B6B69",
"L+	c #B6B3B2",
"M+	c #C1BFBC",
"N+	c #BEBBB8",
"O+	c #C0BDBA",
"P+	c #C4C2BE",
"Q+	c #C6C4C0",
"R+	c #CBC7C4",
"S+	c #CECAC6",
"T+	c #D3D0CD",
"U+	c #D3CECA",
"V+	c #D8D4CF",
"W+	c #ACA9A3",
"X+	c #414140",
"Y+	c #000000",
"Z+	c #636363",
"`+	c #929291",
" @	c #ADABAA",
".@	c #B1AFAD",
"+@	c #C5C1BF",
"@@	c #C2C0BB",
"#@	c #BCB8B3",
"$@	c #AAA6A1",
"%@	c #060605",
"&@	c #343434",
"*@	c #676766",
"                                                                ",
"                                                                ",
"              . . + @ . . . # $                                 ",
"            % & * = - ; > , ' ) ! ! ~ { { ] ^ /                 ",
"            + ( _ : < [ } | | | | | | | | | | 1 2               ",
"            + 3 4 5 5 6 7 8 9 0 a b c d e f 9 g h               ",
"            + i j k l m n o p q r s s s t 5 u v w               ",
"            + x j y z A B s C D E A F G H I F J K               ",
"            + x L s t s M N O P Q R S T 5 U V W K               ",
"            + x L H m B V X H Y Y Y Y s n s s J K               ",
"            + x L F Z `  ...+.@.#.$.%.&.*.G G W =.              ",
"            + x -.;.>.,.'.).!.~.~.{.].^./.5 5 (._.              ",
"            + x :.<.[.'.}.|.1.2.3.4.5.6.7.8.8.(._.              ",
"            + x t 9.0.a.b.c.d.d.e.f.g.'.h.i.i.(._.              ",
"            + x G j.k.l.m./ n.o.p.q.# r.s.t.t.(._.              ",
"            + x G u.r.v.w.x.d.d.^ y.z.A.B.C.C.(._.              ",
"            + x G D.E.n.d.F.G.H.I.F.J.K.L.Y Y (.=.              ",
"            + x G M.n.N.n.O.P.Q.R.S.T.U.V.H H W.K               ",
"            + x G 7 X.Y.Z.`.+  +F.E..+++@+#+#+$+h               ",
"            + x G V %+&+*+=+-+;+>+,.,+'+)+G G $+h               ",
"            + x G F !+~+{+]+^+/+(+_+:+<+t t t $+h               ",
"            + x G I B [+}+|+1+2+3+4+5+7 n s s $+h               ",
"            + x G I H 6+k 7+8+9+0+a+b+7 n s s $+h               ",
"            + x t I A Y Y m c+Y F d+:.7 e+H s $+f+g+g+g+g+g+g+  ",
"            + h+-.I [+i+I j+k+l+m+n+N o+j t s p+q+g+g+g+g+g+    ",
"            r+s+c t m H t+u+v+w+x+7 7 7 N 5 t+p+y+g+g+g+g+      ",
"            % z+A+B+C+D+E+Y r F+G+s s s s i+I H+I+g+g+g+        ",
"              J+K+4+~.L+M+N+O+P+Q+R+S+T+E+U+V+W+X+g+g+          ",
"                        Y+Y+2 h Z+`+ @.@+@@@#@$@J+              ",
"                                      Y+Y+%@&@*@                ",
"                                                                ",
"                                                                "};
