/* XPM */
static char * icon_info_32x32_xpm[] = {
"32 32 309 2",
"  	c None",
". 	c #393B47",
"+ 	c #484956",
"@ 	c #1A1D3D",
"# 	c #151954",
"$ 	c #15163D",
"% 	c #1C1F53",
"& 	c #343642",
"* 	c #4B4C5B",
"= 	c #3A3D65",
"- 	c #1B2381",
"; 	c #455FF6",
"> 	c #4761F6",
", 	c #4660F5",
"' 	c #4761F5",
") 	c #445EF5",
"! 	c #425CF4",
"~ 	c #415BF3",
"{ 	c #111978",
"] 	c #32355D",
"^ 	c #262624",
"/ 	c #3D3E46",
"( 	c #45476E",
"_ 	c #3F54EC",
": 	c #455FF5",
"< 	c #4862F6",
"[ 	c #4963F7",
"} 	c #4963F6",
"| 	c #4A64F6",
"1 	c #435DF4",
"2 	c #415BF4",
"3 	c #3D57F2",
"4 	c #384FED",
"5 	c #373960",
"6 	c #2C2D38",
"7 	c #1B1E43",
"8 	c #445DF5",
"9 	c #465FF6",
"0 	c #4660F6",
"a 	c #4862F7",
"b 	c #4A64F7",
"c 	c #4B65F8",
"d 	c #4C66F8",
"e 	c #A3ADF9",
"f 	c #BDC1F9",
"g 	c #B9BFF9",
"h 	c #ACB1F9",
"i 	c #405AF3",
"j 	c #3B55F0",
"k 	c #3650ED",
"l 	c #1F2FAA",
"m 	c #0F1139",
"n 	c #242A62",
"o 	c #3649E3",
"p 	c #4E68F8",
"q 	c #4D67F8",
"r 	c #CFD2F9",
"s 	c #F7F7F9",
"t 	c #F9F9F9",
"u 	c #F8F8F7",
"v 	c #F7F8FA",
"w 	c #A8AEF9",
"x 	c #3F59F2",
"y 	c #3650EC",
"z 	c #1E30CD",
"A 	c #262648",
"B 	c #1E2459",
"C 	c #3646E2",
"D 	c #4B65F7",
"E 	c #4F69F9",
"F 	c #506AF9",
"G 	c #516BF9",
"H 	c #526CF9",
"I 	c #546EF9",
"J 	c #F6F6F9",
"K 	c #F9F9F8",
"L 	c #F3F4FA",
"M 	c #3852ED",
"N 	c #334DE9",
"O 	c #1D2FCC",
"P 	c #262947",
"Q 	c #3A3A4B",
"R 	c #3A4FE7",
"S 	c #4F69F8",
"T 	c #5771F9",
"U 	c #F9F9FA",
"V 	c #F8F8FA",
"W 	c #F7F7FA",
"X 	c #3852EE",
"Y 	c #304AE6",
"Z 	c #283AC7",
"` 	c #38383C",
" .	c #39407D",
"..	c #4D67F7",
"+.	c #536DF9",
"@.	c #5872FA",
"#.	c #5A74FA",
"$.	c #5C76FA",
"%.	c #5D77FB",
"&.	c #B4BEFA",
"*.	c #FAFAFA",
"=.	c #FAFAF9",
"-.	c #F5F5F9",
";.	c #A7AEFA",
">.	c #4E68F9",
",.	c #3E58F1",
"'.	c #344EEA",
").	c #314BE7",
"!.	c #2F49E5",
"~.	c #252546",
"{.	c #252531",
"].	c #2E40D2",
"^.	c #5670F9",
"/.	c #5B75FA",
"(.	c #617BFB",
"_.	c #637DFB",
":.	c #5F79FB",
"<.	c #B3BFFB",
"[.	c #D4D7FB",
"}.	c #D0D4FB",
"|.	c #B4B9FB",
"1.	c #435DF5",
"2.	c #3953EF",
"3.	c #263CD6",
"4.	c #24273A",
"5.	c #1E223F",
"6.	c #607AFB",
"7.	c #627CFB",
"8.	c #647EFB",
"9.	c #6680FB",
"0.	c #556FFA",
"a.	c #536DFA",
"b.	c #4A64F8",
"c.	c #354FEB",
"d.	c #2D47E3",
"e.	c #00033B",
"f.	c #151B5E",
"g.	c #5C76FB",
"h.	c #506AF8",
"i.	c #3C56F1",
"j.	c #050B61",
"k.	c #313343",
"l.	c #404EC0",
"m.	c #DCE1FB",
"n.	c #FAFBFB",
"o.	c #FBFBFB",
"p.	c #FAFAFB",
"q.	c #E7EAF9",
"r.	c #4C66F7",
"s.	c #4761F7",
"t.	c #3C56F0",
"u.	c #3751ED",
"v.	c #2E48E4",
"w.	c #2B3AA8",
"x.	c #171937",
"y.	c #16193B",
"z.	c #546EF8",
"A.	c #F6F6FB",
"B.	c #BAC0F7",
"C.	c #4660F7",
"D.	c #3D57F1",
"E.	c #3A54EF",
"F.	c #2C46E2",
"G.	c #00012B",
"H.	c #0E124C",
"I.	c #405AF2",
"J.	c #4F69F7",
"K.	c #536DF8",
"L.	c #5771FA",
"M.	c #D1D6FB",
"N.	c #F4F5FB",
"O.	c #405AF4",
"P.	c #324CE8",
"Q.	c #00033C",
"R.	c #0D1250",
"S.	c #3E58F2",
"T.	c #435DF3",
"U.	c #5872F9",
"V.	c #5973FA",
"W.	c #BEC4FB",
"X.	c #F3F4FB",
"Y.	c #3E58F3",
"Z.	c #3A54F0",
"`.	c #000440",
" +	c #0D124E",
".+	c #415BF2",
"++	c #B7BEFA",
"@+	c #F8F8F9",
"#+	c #F1F2F9",
"$+	c #425CF5",
"%+	c #0C104A",
"&+	c #425CF3",
"*+	c #B4B7F9",
"=+	c #F8F8F8",
"-+	c #EDEEF8",
";+	c #00043F",
">+	c #121435",
",+	c #3F59F3",
"'+	c #ABB2F8",
")+	c #F7F7F8",
"!+	c #F6F6F8",
"~+	c #F5F5F7",
"{+	c #EBEDF8",
"]+	c #3F59F4",
"^+	c #00022F",
"/+	c #2D2F3C",
"(+	c #3B46A3",
"_+	c #3B55EF",
":+	c #445EF4",
"<+	c #A9B0F7",
"[+	c #F4F4F7",
"}+	c #F6F6F7",
"|+	c #F4F4F6",
"1+	c #E7EAF7",
"2+	c #2F3A9A",
"3+	c #1B1D42",
"4+	c #0E1359",
"5+	c #A5ACF6",
"6+	c #F3F3F6",
"7+	c #F5F5F6",
"8+	c #E4E7F5",
"9+	c #050A50",
"0+	c #0F112A",
"a+	c #3751EC",
"b+	c #A3AAF6",
"c+	c #F3F3F3",
"d+	c #E2E5F5",
"e+	c #3953EE",
"f+	c #000233",
"g+	c #101017",
"h+	c #0B18AF",
"i+	c #A0A7F5",
"j+	c #F1F1F5",
"k+	c #F0F0F1",
"l+	c #EFEFEF",
"m+	c #E0E3F4",
"n+	c #020EAA",
"o+	c #1B1D23",
"p+	c #181C4C",
"q+	c #3A54EE",
"r+	c #9EA5F3",
"s+	c #F0F0F3",
"t+	c #F2F2F2",
"u+	c #F1F1F1",
"v+	c #DDE0F2",
"w+	c #000657",
"x+	c #191B2B",
"y+	c #2132BE",
"z+	c #B8BBF2",
"A+	c #EDEDF0",
"B+	c #EFEFF1",
"C+	c #EEEEF0",
"D+	c #E7E7F1",
"E+	c #767DEF",
"F+	c #1F2FBE",
"G+	c #1D1D22",
"H+	c #0D1144",
"I+	c #ACB0F1",
"J+	c #DDDFEF",
"K+	c #EAEAEA",
"L+	c #EBEDEF",
"M+	c #EDEDEE",
"N+	c #EAEBED",
"O+	c #C7CBED",
"P+	c #23232F",
"Q+	c #757575",
"R+	c #131747",
"S+	c #A0A5ED",
"T+	c #DCDCE9",
"U+	c #E4E4E7",
"V+	c #E7E7EB",
"W+	c #E7E7E9",
"X+	c #E6E6E8",
"Y+	c #E2E4E6",
"Z+	c #E4E6E8",
"`+	c #D9D9E5",
" @	c #050A2F",
".@	c #7F7F7F",
"+@	c #252850",
"@@	c #1E30BB",
"#@	c #4A5DE0",
"$@	c #5A6ADF",
"%@	c #5B6BDF",
"&@	c #5C6CE0",
"*@	c #5A6ADE",
"=@	c #5869DC",
"-@	c #5969DC",
";@	c #5768DC",
">@	c #2A3FDB",
",@	c #1D1F27",
"'@	c #1D1D1B",
")@	c #181A4D",
"!@	c #1828BA",
"~@	c #0F1DB0",
"{@	c #00054C",
"]@	c #19191B",
"^@	c #2B2F47",
"/@	c #010640",
"(@	c #0D1551",
"_@	c #2E3AA3",
":@	c #2C3EC0",
"<@	c #050838",
"[@	c #00032A",
"}@	c #17191F",
"|@	c #767676",
"1@	c #191B34",
"2@	c #000128",
"3@	c #00022B",
"4@	c #1B1B33",
"                                                                ",
"                      . + @ # # $ % &                           ",
"                * = - ; > , ' ) ) ! ~ { ] ^                     ",
"            / ( _ : < [ } } [ | | , 1 2 3 4 5 6                 ",
"          7 8 9 0 a b c d e f g h [ 0 1 i j k l m               ",
"        n o 0 0 d p q q r s t u v w b ; ~ x j y z A             ",
"      B C ; D E F G H I J K t t t L d > : i j M N O P           ",
"    Q R : D S I T T T T t t U V t W q b 0 ! j X N Y Z `         ",
"     .! | ..+.@.#.$.%.$.&.U *.=.-.;.>.b 0 ! ,.X '.).!.~.        ",
"  {.].) | +.^./.(.(._.(.:.<.[.}.|.G >.b < 1.3 2.'.).!.3.4.      ",
"  5.i , D +.@.6.7.7.8.9.(.:.$.0.a.G p b.0 ! 3 X c.).!.d.e.      ",
"  f.i < p I $.6.8.9.9.9._.(.g.@.I h...a , ~ i.X '.).!.d.j.      ",
"k.l.~ ' ..I #.6._.8.m.n.o.o.o.p.t q.r.s.1 x t.u.'.).v.d.w.x.    ",
"y.3 i ' D z.T $.7.8.8.8.A.o.o.*.W B.D C.1 D.E.y N Y v.d.F.G.    ",
"H.i.I.: D J.K.L.$.%.6.:.M.*.p.*.N.r.[ ) O.D.X c.P.Y v.d.F.Q.    ",
"R.j S.T.> r.p K.^.U.#.V.W.U t t X.} ) 1.Y.Z.X '.).!.d.d.F.`.    ",
" +t.S..+1 , [ p p h.G +.++V @+@+#+> $+i D.X y '.).!.d.F.F.`.    ",
"%+E.D.x T.&+$+0 [ c D D *+@+=+=+-+2 ! D.j u.y N Y !.d.F.F.;+    ",
">+X t.i.3 ,+~ T.1 1.; a '+)+!+~+{+]+i.Z.X y c.N Y v.d.F.F.^+    ",
"/+(+X _+i.x i i 2 T.:+1 <+[+}+|+1+j E.E.X y '.).Y v.F.F.2+3+    ",
"  4+M X t.3 x x i ~ i &+5+6+|+7+8+Z.2.u.y c.P.Y v.v.F.F.9+      ",
"  0+y a+X E.i.D.D.S.x I.b+6+c+c+d+e+M c.'.N ).!.v.F.F.F.f+      ",
"  g+h+y y M X E.E.j t.j i+j+k+l+m+a+c.N P.).!.d.d.F.F.n+o+      ",
"    p+N '.c.y u.u.M q+e+r+s+t+u+v+'.P.P.).v.v.d.F.F.F.w+        ",
"    x+y+P.N c.c.c.y y y z+A+B+C+D+E+).!.!.d.d.F.F.F.F+G+        ",
"      H+!.).P.P.P.N N I+J+K+L+M+N+O+!.d.d.d.F.F.F.F.P+Q+        ",
"        R+!.!.!.Y ).S+T+U+V+W+X+Y+Z+`+d.F.F.F.F.F. @Q+.@.@.@.@  ",
"          +@@@d.!.!.#@$@%@&@*@*@=@-@;@F.F.F.F.>@,@Q+.@.@.@.@.@.@",
"            '@)@!@d.d.d.F.F.F.F.F.F.F.F.F.~@{@]@Q+.@.@.@.@.@.@  ",
"                ^@/@(@_@F.F.F.F.F.F.:@<@[@}@Q+|@.@.@.@.@        ",
"                      1@e.2@;+;+3@e.4@Q+Q+                      ",
"                                                                "};
