/* XPM */
static char * icon_wand_48x48_xpm[] = {
"48 48 444 2",
"  	c None",
". 	c #28383B",
"+ 	c #233135",
"@ 	c #242D2F",
"# 	c #729399",
"$ 	c #324448",
"% 	c #253338",
"& 	c #496266",
"* 	c #3B4F53",
"= 	c #253438",
"- 	c #83A6AB",
"; 	c #A0CDD3",
"> 	c #34464B",
", 	c #51696E",
"' 	c #AEE0E7",
") 	c #84ACB2",
"! 	c #496165",
"~ 	c #3D5256",
"{ 	c #212F32",
"] 	c #82A5AB",
"^ 	c #A9D8DE",
"/ 	c #A8D6DD",
"( 	c #324447",
"_ 	c #86ADB3",
": 	c #AADBE2",
"< 	c #A4D2D9",
"[ 	c #7B9EA5",
"} 	c #3E5358",
"| 	c #4C6469",
"1 	c #799CA1",
"2 	c #AEDEE6",
"3 	c #A8D7DE",
"4 	c #AAD7DF",
"5 	c #40555B",
"6 	c #50696D",
"7 	c #A7D4DB",
"8 	c #AFDEE6",
"9 	c #B1E3EA",
"0 	c #B2E1E8",
"a 	c #8BB3B8",
"b 	c #4F696E",
"c 	c #42585C",
"d 	c #34464A",
"e 	c #8CB4BB",
"f 	c #AEE1E8",
"g 	c #A9D7E0",
"h 	c #A7D5DD",
"i 	c #445A5F",
"j 	c #384B50",
"k 	c #7DA2A7",
"l 	c #B2E2EA",
"m 	c #B5E4ED",
"n 	c #B4E4EC",
"o 	c #B2E3EA",
"p 	c #AFE1E8",
"q 	c #ACDDE3",
"r 	c #B3E5EC",
"s 	c #B1E2E9",
"t 	c #AEDFE6",
"u 	c #B0E2EA",
"v 	c #ADDDE5",
"w 	c #AAD9E0",
"x 	c #709197",
"y 	c #B5E6ED",
"z 	c #BBECF5",
"A 	c #BCEEF6",
"B 	c #BBEEF5",
"C 	c #B1E4ED",
"D 	c #B3E6ED",
"E 	c #B0E3EC",
"F 	c #B4E7EF",
"G 	c #B5E8F0",
"H 	c #B4E7EE",
"I 	c #ABDBE2",
"J 	c #A3D2D9",
"K 	c #3C5055",
"L 	c #455B5F",
"M 	c #90B9BF",
"N 	c #B7E8F0",
"O 	c #BBEDF5",
"P 	c #BAEDF4",
"Q 	c #B9ECF4",
"R 	c #BAEDF5",
"S 	c #B8EAF3",
"T 	c #B3E5EE",
"U 	c #A7D6E0",
"V 	c #A7D6DE",
"W 	c #5F7D81",
"X 	c #AEE0E8",
"Y 	c #B4E5EF",
"Z 	c #BBEEF6",
"` 	c #B8EBF3",
" .	c #B5E6EF",
"..	c #AFDEE8",
"+.	c #ACDBE4",
"@.	c #4C6569",
"#.	c #A4D4DE",
"$.	c #B2E4EC",
"%.	c #B6E7F1",
"&.	c #B0E1E9",
"*.	c #A9D8E0",
"=.	c #7DA0A8",
"-.	c #52676C",
";.	c #4E676C",
">.	c #A7D7E1",
",.	c #B3E4EE",
"'.	c #B7EAF2",
").	c #B2E2EC",
"!.	c #AEDDE7",
"~.	c #A3D1D8",
"{.	c #81A3A9",
"].	c #5E757A",
"^.	c #435256",
"/.	c #465D61",
"(.	c #9AC6CE",
"_.	c #AADCE4",
":.	c #B3E6EE",
"<.	c #B6E9F0",
"[.	c #B9ECF3",
"}.	c #BCEFF7",
"|.	c #BCEEF7",
"1.	c #BAEBF4",
"2.	c #B7E7F0",
"3.	c #ADDAE1",
"4.	c #A6D2D9",
"5.	c #96BCC3",
"6.	c #657E85",
"7.	c #4B5E65",
"8.	c #394D51",
"9.	c #93BEC5",
"0.	c #9ECBD4",
"a.	c #AFE1EA",
"b.	c #B2E5ED",
"c.	c #B2E5EC",
"d.	c #BBEEF7",
"e.	c #BAEAF4",
"f.	c #B7E6F0",
"g.	c #B3E3EB",
"h.	c #B1E1E8",
"i.	c #A1CDD4",
"j.	c #90B8BF",
"k.	c #728F97",
"l.	c #4C5E66",
"m.	c #394E51",
"n.	c #9CC6CF",
"o.	c #A0CED6",
"p.	c #ADDDE6",
"q.	c #B1E3EC",
"r.	c #B0E2EB",
"s.	c #ADE0E8",
"t.	c #B1E3EB",
"u.	c #B2E4ED",
"v.	c #B4E6EF",
"w.	c #B9EAF3",
"x.	c #B5E7EF",
"y.	c #B6E7EF",
"z.	c #B2E1EA",
"A.	c #B1E1EA",
"B.	c #B1E0E9",
"C.	c #B0DFE8",
"D.	c #B0E0E8",
"E.	c #ADDEE6",
"F.	c #A1CFD6",
"G.	c #394C51",
"H.	c #3E5356",
"I.	c #94C0C7",
"J.	c #A1CED6",
"K.	c #A5D2DA",
"L.	c #A6D2DB",
"M.	c #A3D1D9",
"N.	c #A3D2DA",
"O.	c #A2D1D9",
"P.	c #A6D5DE",
"Q.	c #A9DAE2",
"R.	c #AEDFE8",
"S.	c #B4E5EE",
"T.	c #B5E5EE",
"U.	c #B4E5ED",
"V.	c #ABDAE2",
"W.	c #A9D7DE",
"X.	c #AAD8DF",
"Y.	c #A9D7DF",
"Z.	c #ABD9E0",
"`.	c #AEDEE5",
" +	c #A2CFD6",
".+	c #567075",
"++	c #304245",
"@+	c #739399",
"#+	c #7EA3AA",
"$+	c #9DC9D0",
"%+	c #A1CDD3",
"&+	c #A0CCD3",
"*+	c #A4D2D8",
"=+	c #A3CFD8",
"-+	c #A9D6E0",
";+	c #AEDDE8",
">+	c #B1E1EB",
",+	c #AEDEE7",
"'+	c #729098",
")+	c #637A82",
"!+	c #586C74",
"~+	c #55686E",
"{+	c #56696E",
"]+	c #5A6B70",
"^+	c #516065",
"/+	c #344046",
"(+	c #2A3339",
"_+	c #283136",
":+	c #3E4A4D",
"<+	c #29393D",
"[+	c #374B4F",
"}+	c #3C5054",
"|+	c #465D62",
"1+	c #7C9DA6",
"2+	c #A6D5DD",
"3+	c #A9D9E3",
"4+	c #AADAE7",
"5+	c #AADBE4",
"6+	c #A4D0D8",
"7+	c #3B454B",
"8+	c #384246",
"9+	c #384144",
"0+	c #3C4444",
"a+	c #4F5454",
"b+	c #4B5F63",
"c+	c #84A8AF",
"d+	c #AEDDE5",
"e+	c #A6D3DA",
"f+	c #4D5D64",
"g+	c #32383B",
"h+	c #3B4040",
"i+	c #424644",
"j+	c #50524E",
"k+	c #72726C",
"l+	c #76756E",
"m+	c #556A6E",
"n+	c #AFDEE5",
"o+	c #ADDCE5",
"p+	c #B3E4EC",
"q+	c #A6D3DB",
"r+	c #4B5B62",
"s+	c #2E3336",
"t+	c #3C3F3D",
"u+	c #454744",
"v+	c #565650",
"w+	c #827C6D",
"x+	c #6E685B",
"y+	c #463E33",
"z+	c #3B4649",
"A+	c #A0CBD2",
"B+	c #ADDCE3",
"C+	c #B3E3EC",
"D+	c #A7D5DC",
"E+	c #46545B",
"F+	c #2D3234",
"G+	c #3B3E3C",
"H+	c #464642",
"I+	c #57564E",
"J+	c #857D6C",
"K+	c #817662",
"L+	c #716755",
"M+	c #40382C",
"N+	c #677F84",
"O+	c #AAD8DE",
"P+	c #AEDFE7",
"Q+	c #47565D",
"R+	c #343B3C",
"S+	c #3C3D3C",
"T+	c #3C3D3B",
"U+	c #48453F",
"V+	c #655B4D",
"W+	c #7B6F5C",
"X+	c #827762",
"Y+	c #6C604D",
"Z+	c #5A503E",
"`+	c #414D50",
" @	c #99C2C7",
".@	c #A9DAE1",
"+@	c #A5D2D9",
"@@	c #3C4950",
"#@	c #2F2D2A",
"$@	c #383632",
"%@	c #3F3B36",
"&@	c #554D41",
"*@	c #625848",
"=@	c #766B58",
"-@	c #887D68",
";@	c #7C705C",
">@	c #534838",
",@	c #7D9CA3",
"'@	c #A4D1D8",
")@	c #374249",
"!@	c #302C28",
"~@	c #3C3832",
"{@	c #4A4339",
"]@	c #574E40",
"^@	c #6A604F",
"/@	c #8B806B",
"(@	c #9C907A",
"_@	c #7F7462",
":@	c #564C3B",
"<@	c #425054",
"[@	c #9FC9D1",
"}@	c #9DCBD2",
"|@	c #333F45",
"1@	c #38332C",
"2@	c #433D33",
"3@	c #494237",
"4@	c #615749",
"5@	c #726757",
"6@	c #847967",
"7@	c #B8AC93",
"8@	c #8A7F69",
"9@	c #665C49",
"0@	c #3D5155",
"a@	c #536D72",
"b@	c #262D33",
"c@	c #312D26",
"d@	c #403B33",
"e@	c #4B463E",
"f@	c #585249",
"g@	c #665F54",
"h@	c #938770",
"i@	c #A2967E",
"j@	c #95876F",
"k@	c #635842",
"l@	c #332F28",
"m@	c #3E3A34",
"n@	c #45413B",
"o@	c #524D45",
"p@	c #796F5D",
"q@	c #968974",
"r@	c #A99C84",
"s@	c #867A63",
"t@	c #615642",
"u@	c #2D2A26",
"v@	c #37332E",
"w@	c #393531",
"x@	c #5B544A",
"y@	c #746B5C",
"z@	c #8C806D",
"A@	c #AA9D85",
"B@	c #8C806A",
"C@	c #635743",
"D@	c #2C2924",
"E@	c #37322D",
"F@	c #433F39",
"G@	c #5A5349",
"H@	c #6F6658",
"I@	c #867B68",
"J@	c #968B75",
"K@	c #8F836A",
"L@	c #5F523F",
"M@	c #7F7F7F",
"N@	c #7E7E7E",
"O@	c #302B26",
"P@	c #3B3731",
"Q@	c #433E38",
"R@	c #574F46",
"S@	c #6A6154",
"T@	c #7C7261",
"U@	c #90846F",
"V@	c #857660",
"W@	c #5F533F",
"X@	c #302C27",
"Y@	c #3C3631",
"Z@	c #3D3834",
"`@	c #4D463F",
" #	c #5B5247",
".#	c #6C6151",
"+#	c #95856D",
"@#	c #7F7259",
"##	c #61533F",
"$#	c #282520",
"%#	c #2E2B27",
"&#	c #35322D",
"*#	c #403B34",
"=#	c #514A40",
"-#	c #716555",
";#	c #827662",
">#	c #736752",
",#	c #554B3A",
"'#	c #282521",
")#	c #312D28",
"!#	c #3F3932",
"~#	c #474139",
"{#	c #62584A",
"]#	c #776C5A",
"^#	c #837864",
"/#	c #706450",
"(#	c #262320",
"_#	c #3F3A33",
":#	c #564D42",
"<#	c #605648",
"[#	c #726755",
"}#	c #847863",
"|#	c #6E6350",
"1#	c #504637",
"2#	c #25221F",
"3#	c #3D3730",
"4#	c #403A34",
"5#	c #433D36",
"6#	c #4D473E",
"7#	c #736654",
"8#	c #817561",
"9#	c #726752",
"0#	c #594F3D",
"a#	c #282621",
"b#	c #352F29",
"c#	c #423C37",
"d#	c #574E42",
"e#	c #615849",
"f#	c #7A6F5D",
"g#	c #5F5544",
"h#	c #443C2F",
"i#	c #7C7C7C",
"j#	c #2F2B26",
"k#	c #352F2A",
"l#	c #3D3932",
"m#	c #4E463C",
"n#	c #514A3D",
"o#	c #584F42",
"p#	c #564E41",
"q#	c #433C30",
"r#	c #7B7B7B",
"s#	c #7D7D7D",
"t#	c #7D7C7C",
"u#	c #777572",
"v#	c #32322E",
"w#	c #39362F",
"x#	c #3F3A32",
"y#	c #484137",
"z#	c #3F392E",
"A#	c #72706D",
"B#	c #2F2E2D",
"C#	c #33302A",
"D#	c #37332C",
"E#	c #38332B",
"F#	c #2D2922",
"G#	c #504D4A",
"H#	c #242321",
"I#	c #2D2923",
"J#	c #2C2722",
"K#	c #2A2620",
"                                                                                                ",
"                                                                                                ",
"                                                                                                ",
"                                        . +                                                     ",
"                                      @ # $                                                     ",
"            % & *                   = - ; >                                                     ",
"            , ' ) ! ~             { ] ^ / >                                                     ",
"            ( _ : < [ } |       = 1 2 3 4 5                                                     ",
"              6 7 8 9 0 a b c d e < f g h i                                                     ",
"              j k l m n o p q r s t u v w i                                                     ",
"                x y z A B C D E F G H I J K                                                     ",
"                L M N O B P Q Q R S T U V K                                                     ",
"                  W X Y A A Z B R `  ...+.K                                                     ",
"                  @.#.$.B A Z B R ` %.&.*.=.-.                                                  ",
"                  ;.>.,.B B B B R Q '.).!.~.{.].^.                                              ",
"                /.(._.:.<.[.P B }.|.|.1.2.8 3.4.5.6.7.                                          ",
"              8.9.0.a.b.c.<.'.[.d.Z O z e.f.n g.h.i.j.k.l.                                      ",
"            m.n.o.p.q.r.s.t.u.v.S w.2.x.y.z.A.B.C.t D.E.F.G.                                    ",
"          H.I.J.K.L.M.N.O.P.Q.R.S.T.U.s V.W.X.Y.X.Z.w `. +.+                                    ",
"        ++@+#+$+%+&+~.*+~.7 =+-+;+>+,+J '+)+!+~+{+]+^+/+(+_+                                    ",
"        :+<+d d d d [+}+}+|+1+2+3+4+5+6+l.7+8+9+0+a+                                            ",
"                            b+c+d+,+&.e+f+g+h+i+j+k+l+                                          ",
"                              m+n+o+p+q+r+s+t+u+v+w+x+y+                                        ",
"                              z+A+B+C+D+E+F+G+H+I+J+K+L+M+                                      ",
"                                N+O+P+D+Q+R+S+T+U+V+W+X+Y+Z+                                    ",
"                                `+ @.@+@@@  #@$@%@&@*@=@-@;@>@                                  ",
"                                  ,@n+'@)@    !@~@{@]@^@/@(@_@:@                                ",
"                                  <@[@}@|@      1@2@3@4@5@6@7@8@9@                              ",
"                                    0@a@b@        c@d@e@f@g@h@i@j@k@                            ",
"                                                    l@m@n@o@p@q@r@s@t@                          ",
"                                                      u@v@w@x@y@z@A@B@C@                        ",
"                                                        D@E@F@G@H@I@J@K@L@                      ",
"                      M@M@M@N@N@M@                        O@P@Q@R@S@T@U@V@W@                    ",
"                      N@N@M@N@N@N@M@M@M@                    X@Y@Z@`@ #.#+#@###                  ",
"                  M@M@M@M@M@M@N@N@M@M@M@M@M@                  $#%#&#*#=#-#;#>#,#                ",
"                M@M@M@M@M@M@M@M@N@M@M@M@M@M@M@                  '#)#!#~#{#]#^#/#:@              ",
"                            M@M@M@M@M@M@M@M@M@M@M@                (#)#_#:#<#[#}#|#1#            ",
"                                M@M@    M@M@M@M@M@M@N@N@            2#3#4#5#6#7#8#9#0#          ",
"                                                M@M@M@M@N@N@N@        a#b#c#*#d#e#f#g#h#        ",
"                                                      M@M@M@i#M@M@M@    j#k#l#m#n#o#p#q#        ",
"                                                            M@M@r#r#s#t#u#2#v#w#x#y#{@z#        ",
"                                                                  M@M@N@N@A#(#B#C#D#E#F#        ",
"                                                                          M@G#H#I#J#K#          ",
"                                                                                                ",
"                                                                                                ",
"                                                                                                ",
"                                                                                                ",
"                                                                                                "};
