/* XPM */
static char * icon_reload_20x20_xpm[] = {
"20 20 177 2",
"  	c None",
". 	c #48546C",
"+ 	c #35435E",
"@ 	c #334465",
"# 	c #334363",
"$ 	c #2E3E5E",
"% 	c #253452",
"& 	c #06113D",
"* 	c #495E87",
"= 	c #7090D0",
"- 	c #7F9CD8",
"; 	c #809DD9",
"> 	c #7997D6",
", 	c #7493D2",
"' 	c #364B7E",
") 	c #142351",
"! 	c #01050F",
"~ 	c #4A618A",
"{ 	c #779BDA",
"] 	c #81A3DA",
"^ 	c #7C98D1",
"/ 	c #6D8ECC",
"( 	c #5B7DBF",
"_ 	c #22356C",
": 	c #071343",
"< 	c #071342",
"[ 	c #050F35",
"} 	c #485674",
"| 	c #7A9DE0",
"1 	c #8BAFE9",
"2 	c #8DB1E9",
"3 	c #81A5E3",
"4 	c #6182C5",
"5 	c #071240",
"6 	c #07123F",
"7 	c #33466D",
"8 	c #97B6EA",
"9 	c #9BBCEC",
"0 	c #80A1E0",
"a 	c #5770A4",
"b 	c #060F34",
"c 	c #081547",
"d 	c #091548",
"e 	c #09174D",
"f 	c #050B23",
"g 	c #2C3C5A",
"h 	c #ADC4EF",
"i 	c #AAC2EE",
"j 	c #ACC4EF",
"k 	c #93AEE4",
"l 	c #334468",
"m 	c #09133A",
"n 	c #0B1A53",
"o 	c #0C1B54",
"p 	c #0C1C54",
"q 	c #070F2F",
"r 	c #3F3F3F",
"s 	c #585F6C",
"t 	c #585E6B",
"u 	c #435372",
"v 	c #C8D9F8",
"w 	c #C2D3F7",
"x 	c #C0D2F6",
"y 	c #ACC2EF",
"z 	c #2D3B58",
"A 	c #272B35",
"B 	c #2B324B",
"C 	c #0F215C",
"D 	c #0F205B",
"E 	c #111F4D",
"F 	c #A9C0EF",
"G 	c #A1B8E5",
"H 	c #AAC0EF",
"I 	c #ABC3F4",
"J 	c #AEC5F5",
"K 	c #ADC4F5",
"L 	c #A4BCED",
"M 	c #9BB1DF",
"N 	c #9CB2E1",
"O 	c #98AFDB",
"P 	c #393F46",
"Q 	c #203472",
"R 	c #2A3D7A",
"S 	c #16265B",
"T 	c #101B32",
"U 	c #91AADC",
"V 	c #94AADC",
"W 	c #91A8D9",
"X 	c #8BA4DC",
"Y 	c #8DA5DC",
"Z 	c #88A1D5",
"` 	c #869ED0",
" .	c #8CA2CF",
"..	c #111319",
"+.	c #3F5387",
"@.	c #3D5392",
"#.	c #2B3F7E",
"$.	c #1A2C65",
"%.	c #09142B",
"&.	c #8197C8",
"*.	c #7A92C8",
"=.	c #6D87C0",
"-.	c #6E88C0",
";.	c #6781BA",
">.	c #6D83B2",
",.	c #191E2C",
"'.	c #4C6398",
").	c #516BA7",
"!.	c #47609F",
"~.	c #3C5292",
"{.	c #13265D",
"].	c #323C54",
"^.	c #6379A8",
"/.	c #647CB1",
"(.	c #6C81AD",
"_.	c #21242A",
":.	c #4F638B",
"<.	c #6D86BD",
"[.	c #647DB6",
"}.	c #5A73B2",
"|.	c #4C65A5",
"1.	c #15295E",
"2.	c #0F1524",
"3.	c #58698F",
"4.	c #56678E",
"5.	c #040404",
"6.	c #7892CC",
"7.	c #748DC7",
"8.	c #6681BA",
"9.	c #647EB8",
"0.	c #5F79B7",
"a.	c #5872AF",
"b.	c #142858",
"c.	c #5A72A6",
"d.	c #405992",
"e.	c #5C78B6",
"f.	c #5C77B6",
"g.	c #5470B1",
"h.	c #546FB3",
"i.	c #263962",
"j.	c #050918",
"k.	c #030815",
"l.	c #040917",
"m.	c #030713",
"n.	c #2F487D",
"o.	c #5B79BE",
"p.	c #5E7BC0",
"q.	c #6784C9",
"r.	c #161F36",
"s.	c #0E1E52",
"t.	c #10225F",
"u.	c #10235F",
"v.	c #10235D",
"w.	c #0F1944",
"x.	c #212F6D",
"y.	c #283A7C",
"z.	c #3B5397",
"A.	c #5474B8",
"B.	c #424448",
"C.	c #7F7F7F",
"D.	c #070E2A",
"E.	c #0C1B52",
"F.	c #0D1E58",
"G.	c #12235F",
"H.	c #2C4588",
"I.	c #6281C6",
"J.	c #4F71B5",
"K.	c #161E30",
"L.	c #7E7E7E",
"M.	c #050C28",
"N.	c #07113B",
"O.	c #07113D",
"P.	c #0B1B4C",
"Q.	c #12285C",
"R.	c #0D172E",
"S.	c #747475",
"T.	c #858585",
"                                        ",
"              . + @ # $ % &             ",
"            * = - ; > , ' ) !           ",
"          ~ { ] ^ / ( _ : < [           ",
"        } | 1 2 3 4 & 5 5 6 <           ",
"        7 8 9 9 0 a b c c d e f         ",
"        g h i j k l m n n o p q         ",
"  r s t u v w x y z A B B C D E         ",
"  r F G H I J K L M N O P Q R S         ",
"    T U V W X Y Z `  ...+.@.#.$.        ",
"      %.&.*.=.-.;.>.,.'.).!.~.{.        ",
"        ].^././.(._.:.<.[.}.|.1.        ",
"          2.3.4.5.6.7.8.9.0.a.b.        ",
"            5.5.  c.d.e.f.g.h.i.        ",
"        j.k.l.l.j.m.n.o.o.p.q.r.        ",
"        j.s.t.t.u.v.w.x.y.z.A.B.C.C.C.  ",
"          D.E.E.F.p G.H.I.J.K.L.C.C.C.C.",
"          C.M.M.N.O.6 P.Q.R.S.T.        ",
"                                        ",
"                                        "};
