/* XPM */
static char * icon_chmod_20x20_xpm[] = {
"20 20 3 1",
" 	c None",
".	c #000000",
"+	c #7F7F7F",
"                    ",
"                    ",
"                    ",
"                    ",
"                    ",
"                    ",
"                    ",
"                    ",
"                    ",
"....  .  .  . ..  ..",
" .  . .  .  .  .  . ",
" .    . ... .+  .. +",
" . +++.+.+. .   ..+ ",
" .+    .. ..+  .++.+",
"...    .   .  ..  ..",
"                    ",
"                    ",
"                    ",
"                    ",
"                    "};
