/* XPM */
static char * js_con0_xpm[] = {
"16 16 4 1",
" 	c None",
".	c #000000",
"+	c #FFFFFF",
"@	c #565656",
"             .  ",
"             .  ",
"          ....  ",
"   ...    .++.  ",
"  .++.    .  ...",
" .+  ...  .  .  ",
".+ . ...  .  ...",
"+  . .    .  .  ",
"@  . .    .  .  ",
".@ . ...  .  ...",
" .@  ...  .  .  ",
"  .@@.    .  ...",
"   ...    .@@.  ",
"          ....  ",
"             .  ",
"             .  "};
