/* XPM */
static char * jscalibrator_xpm[] = {
"48 48 379 2",
"  	c None",
". 	c #F6F6F6",
"+ 	c #F4F4F4",
"@ 	c #E0E0E0",
"# 	c #D9D9D9",
"$ 	c #C7C7C7",
"% 	c #9E9E9E",
"& 	c #F5F5F5",
"* 	c #EEEEEE",
"= 	c #E2E2E2",
"- 	c #DEDEDE",
"; 	c #C6C6C6",
"> 	c #C1C0C0",
", 	c #BBA0A0",
"' 	c #B6B8B8",
") 	c #CCCCCC",
"! 	c #CECECE",
"~ 	c #B3B3B3",
"{ 	c #F3F3F3",
"] 	c #EFEFEF",
"^ 	c #EBEBEB",
"/ 	c #C7CBCB",
"( 	c #B5BABA",
"_ 	c #B1B7B7",
": 	c #FBC3C3",
"< 	c #E23535",
"[ 	c #969393",
"} 	c #B6B6B6",
"| 	c #B6B9B9",
"1 	c #C4C4C4",
"2 	c #DDDDDD",
"3 	c #DBDBDB",
"4 	c #F1F1F1",
"5 	c #DCDCDC",
"6 	c #E6E6E6",
"7 	c #D8D8D8",
"8 	c #B9BABA",
"9 	c #F9C2C2",
"0 	c #DE4747",
"a 	c #999C9C",
"b 	c #B64141",
"c 	c #922B2B",
"d 	c #878C8C",
"e 	c #B8ADAD",
"f 	c #B6A0A0",
"g 	c #B3B4B4",
"h 	c #B9B9B9",
"i 	c #C1C1C1",
"j 	c #D1D1D1",
"k 	c #CBCBCB",
"l 	c #B2B2B2",
"m 	c #EDEDED",
"n 	c #CFCFCF",
"o 	c #AAAAAA",
"p 	c #953434",
"q 	c #8B2828",
"r 	c #726E6E",
"s 	c #BCA2A2",
"t 	c #898282",
"u 	c #A5A5A5",
"v 	c #F8A2A2",
"w 	c #D53636",
"x 	c #878686",
"y 	c #A7A7A7",
"z 	c #B0B0B0",
"A 	c #CACACA",
"B 	c #F0F0F0",
"C 	c #DADADA",
"D 	c #D5D5D5",
"E 	c #C3C3C3",
"F 	c #B7B7B7",
"G 	c #838383",
"H 	c #7D7D7D",
"I 	c #F9A2A2",
"J 	c #E33D3D",
"K 	c #AE8B8B",
"L 	c #A43D3D",
"M 	c #8B2B2B",
"N 	c #5E5E5E",
"O 	c #A8A8A8",
"P 	c #BCBCBC",
"Q 	c #E1E1E1",
"R 	c #C5C5C5",
"S 	c #C0C0C0",
"T 	c #9E3838",
"U 	c #833737",
"V 	c #5B5757",
"W 	c #969696",
"X 	c #646464",
"Y 	c #555555",
"Z 	c #8F8F8F",
"` 	c #9B9B9B",
" .	c #8A8A8A",
"..	c #E5E5E5",
"+.	c #D7D7D7",
"@.	c #B5B5B5",
"#.	c #B1B1B1",
"$.	c #5F5F5F",
"%.	c #474747",
"&.	c #808080",
"*.	c #6A6A6A",
"=.	c #5A5A5A",
"-.	c #494949",
";.	c #343434",
">.	c #3F3F3F",
",.	c #575757",
"'.	c #757575",
").	c #909090",
"!.	c #4D4D4D",
"~.	c #1B1B1B",
"{.	c #AEAEAE",
"].	c #A0A0A0",
"^.	c #848484",
"/.	c #6C6C6C",
"(.	c #545454",
"_.	c #3A3A3A",
":.	c #2D2D2D",
"<.	c #222222",
"[.	c #191919",
"}.	c #232323",
"|.	c #2F2F2F",
"1.	c #686868",
"2.	c #454545",
"3.	c #272727",
"4.	c #A4A4A4",
"5.	c #737373",
"6.	c #7E7E7E",
"7.	c #636363",
"8.	c #8B8B8B",
"9.	c #858585",
"0.	c #5B5B5B",
"a.	c #3D3D3D",
"b.	c #262626",
"c.	c #1D1D1D",
"d.	c #918E8E",
"e.	c #A6A5A5",
"f.	c #818080",
"g.	c #DFDFDF",
"h.	c #434343",
"i.	c #4E4E4E",
"j.	c #373737",
"k.	c #9A9A9A",
"l.	c #797979",
"m.	c #4F4F4F",
"n.	c #242424",
"o.	c #9C9999",
"p.	c #CDCCCC",
"q.	c #F2F2F2",
"r.	c #CED6D6",
"s.	c #9BA0A0",
"t.	c #D6D6D6",
"u.	c #505050",
"v.	c #353535",
"w.	c #959595",
"x.	c #787878",
"y.	c #252525",
"z.	c #ABA8A8",
"A.	c #D3D3D3",
"B.	c #ECECEC",
"C.	c #E9ECEC",
"D.	c #E28787",
"E.	c #BA5C5C",
"F.	c #8B8F8F",
"G.	c #C2C2C2",
"H.	c #B8B8B8",
"I.	c #292929",
"J.	c #535353",
"K.	c #878787",
"L.	c #585858",
"M.	c #333333",
"N.	c #A19F9F",
"O.	c #C9C8C8",
"P.	c #F2F8F8",
"Q.	c #CC9191",
"R.	c #C83030",
"S.	c #C73232",
"T.	c #9A2C2C",
"U.	c #8A8C8C",
"V.	c #606060",
"W.	c #3B3B3B",
"X.	c #4A4A4A",
"Y.	c #383838",
"Z.	c #BFBEBE",
"`.	c #D6D5D5",
" +	c #B9B8B8",
".+	c #B08A8A",
"++	c #900B0B",
"@+	c #BF2929",
"#+	c #6E3737",
"$+	c #9C8989",
"%+	c #6B6B6B",
"&+	c #121212",
"*+	c #A1A1A1",
"=+	c #676767",
"-+	c #868686",
";+	c #8D8D8D",
">+	c #6D6D6D",
",+	c #747474",
"'+	c #C0BEBE",
")+	c #CBCACA",
"!+	c #AEADAD",
"~+	c #888888",
"{+	c #818282",
"]+	c #7A7B7B",
"^+	c #574343",
"/+	c #5E4A4A",
"(+	c #878E8E",
"_+	c #626262",
":+	c #090909",
"<+	c #595959",
"[+	c #A6A6A6",
"}+	c #979797",
"|+	c #515151",
"1+	c #AFADAD",
"2+	c #ABABAB",
"3+	c #6C6B6B",
"4+	c #838282",
"5+	c #7F7F7F",
"6+	c #5C5C5C",
"7+	c #202020",
"8+	c #717171",
"9+	c #343838",
"0+	c #383737",
"a+	c #5E6161",
"b+	c #605F5F",
"c+	c #565656",
"d+	c #303030",
"e+	c #111111",
"f+	c #919191",
"g+	c #710D0D",
"h+	c #2D1C1C",
"i+	c #424141",
"j+	c #3E3E3E",
"k+	c #464646",
"l+	c #2A2A2A",
"m+	c #828282",
"n+	c #731111",
"o+	c #921717",
"p+	c #AB6262",
"q+	c #5B5A5A",
"r+	c #3F3E3E",
"s+	c #2B2B2B",
"t+	c #1A1919",
"u+	c #6F6F6F",
"v+	c #181818",
"w+	c #9F9F9F",
"x+	c #961414",
"y+	c #843838",
"z+	c #AAA2A2",
"A+	c #929191",
"B+	c #212121",
"C+	c #282828",
"D+	c #989898",
"E+	c #9D2B2B",
"F+	c #A65252",
"G+	c #A7A8A8",
"H+	c #9C9C9C",
"I+	c #8A8989",
"J+	c #484747",
"K+	c #A79B9B",
"L+	c #AA9999",
"M+	c #919090",
"N+	c #727272",
"O+	c #373636",
"P+	c #282727",
"Q+	c #4C4B4B",
"R+	c #949494",
"S+	c #4C4C4C",
"T+	c #E7E7E7",
"U+	c #E9E9E9",
"V+	c #A9A8A8",
"W+	c #B4B4B4",
"X+	c #5D5C5C",
"Y+	c #525252",
"Z+	c #525151",
"`+	c #444343",
" @	c #1C1C1C",
".@	c #3C3C3C",
"+@	c #2C2C2C",
"@@	c #C9C9C9",
"#@	c #E8E8E8",
"$@	c #D4D4D4",
"%@	c #BDBDBD",
"&@	c #515050",
"*@	c #504F4F",
"=@	c #464545",
"-@	c #292828",
";@	c #1F1F1F",
">@	c #1A1A1A",
",@	c #EAEAEA",
"'@	c #ACACAC",
")@	c #565555",
"!@	c #434242",
"~@	c #E4E4E4",
"{@	c #ADADAD",
"]@	c #A3A3A3",
"^@	c #797878",
"/@	c #595858",
"(@	c #575656",
"_@	c #3A3939",
":@	c #A9A9A9",
"<@	c #BABABA",
"[@	c #8E8D8D",
"}@	c #696868",
"|@	c #5D5D5D",
"1@	c #AAA9A9",
"2@	c #C2C1C1",
"3@	c #626161",
"4@	c #585757",
"5@	c #8F8D8D",
"6@	c #6C6A6A",
"7@	c #605E5E",
"8@	c #535252",
"9@	c #444444",
"0@	c #BEBEBE",
"a@	c #D1CECE",
"b@	c #C2A7A7",
"c@	c #B79E9E",
"d@	c #AEAAAA",
"e@	c #7A7979",
"f@	c #636161",
"g@	c #545353",
"h@	c #525050",
"i@	c #414040",
"j@	c #D4D0D0",
"k@	c #D68B8B",
"l@	c #EC8080",
"m@	c #E89D9D",
"n@	c #B07474",
"o@	c #A09F9F",
"p@	c #676666",
"q@	c #5A5858",
"r@	c #4B4A4A",
"s@	c #9D9D9D",
"t@	c #CDCDCD",
"u@	c #D1D0D0",
"v@	c #CFA1A1",
"w@	c #D44040",
"x@	c #CF3232",
"y@	c #D82A2A",
"z@	c #922727",
"A@	c #7E7D7D",
"B@	c #565454",
"C@	c #424242",
"D@	c #898989",
"E@	c #A2A2A2",
"F@	c #D0D0D0",
"G@	c #B08484",
"H@	c #B05050",
"I@	c #CE4D4D",
"J@	c #D54242",
"K@	c #812F2F",
"L@	c #404040",
"M@	c #313131",
"N@	c #2E2E2E",
"O@	c #4B4B4B",
"P@	c #999999",
"Q@	c #6E3E3E",
"R@	c #803A3A",
"S@	c #703333",
"T@	c #5D2F2F",
"U@	c #1E1E1E",
"V@	c #666666",
"W@	c #7A7A7A",
"X@	c #8C8C8C",
"Y@	c #484848",
"Z@	c #7B7A7A",
"`@	c #323232",
" #	c #8E8E8E",
".#	c #767676",
"+#	c #292928",
"@#	c #939393",
"##	c #929292",
"$#	c #7B7B7B",
"%#	c #5C5C5B",
"&#	c #6E6E6E",
"*#	c #818181",
"=#	c #696969",
"-#	c #363636",
"                                                                                                ",
"                                                                                                ",
"                              . + + @ # $ %                                                     ",
"                          & * = - ; > , ' ) ! ~                                                 ",
"                      { ] ^ @ / ( _ : < [ } | 1 2 3                                             ",
"                    4 5 6 7 8 9 0 a b c d e f g h i j k l                                       ",
"                  4 m = n } o p q r s t u v w x y y y z A j                                     ",
"                B C D E } F o G H I J K u L M N y y y O o P 1 G                                 ",
"              B Q R S } F F } ~ o T U V W X Y X Z ` u O O O  .X                                 ",
"              ..+.i @.F F F #.O y $.%.&.*.=.-.;.>.,.'.).` G !.~.                                ",
"            5 3 ; h F F } {.O y ].^./.(._.:.<.[.~.}.|.!.1.2.3.                                  ",
"          4.n 5.6.} 7.8.{.O y ].9.0.a.b.            [.c.<.d.e.f.^.                              ",
"          g.A 7.h.i.%.j.O y k.l.m.n.                    o.p.q.r.s.'.                            ",
"          t.i {.u.|.v.w.O ].x.!.y.                    z.A.B.C.D.E.F.                            ",
"          G.H.l.m.:.I.J.4.K.L.M.                    N.O.@ P.Q.R.S.T.U.                          ",
"        v.F ].I.2.V.W.X. .N Y.                      Z.`.k  +.+++@+#+$+%+                        ",
"        &+` *+=+-+u ;+>+,+J.                        '+)+!+~+{+]+^+/+(+_+                        ",
"        :+<+[+y y y O }+*.|+                        1+2+3+4+'.5+H >+/.<+6+                      ",
"          7+5+y y y O }+8+=.                        9+0+a+X b+|+c+_+$.2.d+                      ",
"          e+c+].y y O ].f+ .                          g+h+i+Y (.X.j+k+l+7+1.                    ",
"            l+m+y y O y [+[+|+                      n+o+p+q+r+M.s+j.<.t+:.u+                    ",
"            v+v.w+y O O O u u.                      x+y+z+A+k.N ;.<.B+C+d+                      ",
"              <.6.y O O O D+|+                      E+F+G+-+H+G I+N J+:.(.                      ",
"              B+|+}+y O w+c+i.            ; j 7 z   K+L+M+7.,+H N+=.O+P+Q+                      ",
"                Y.1.f+R+S+Y.|.          ; T+* U++.) V+W+Z X+Y+m.Z+`+s+ @                        ",
"                }..@j+;.+@C+          @@#@* C $@! ) j %@R+q+&@*@=@;.-@                          ",
"                  [.;@}.>@          - U+,@@ ) l '@o t.@.6.X+)@Y+!@|.3.                          ",
"                                  7 U+~@- @@#.'@y {@; ]@^@b+/@(@_@l+%+o                         ",
"                                7 ~@^ 7 H.#.{@:@O H.<@[@}@|@Z+m.l+V.E F                         ",
"                              +.T+Q n <@l {.o 1@2+2@V+^@3@4@*@`+d+ .E 1 @@'@                    ",
"                            A k #@A.%@} {@:@:@o {@E 5@6@7@&@8@;.9@[+:@O 2+$ 0@                  ",
"                          $ ..#@a@b@c@d@O O 2+k.H '@e@f@g@h@i@s+/.` y O [+H.! E ]@              ",
"                        A ) Q j@k@l@m@n@[+O 2+*.N o@p@q@8@r@s+<.,.x.s@u 4.]@w+S t@              ",
"                        $ C u@v@w@x@y@z@A@[+O ,.+@Y B@&@r@>.+@~.C@=+D@E@*+4.*+s@F@l             ",
"                      2+R E > G@H@I@J@K@u+[+u H C+;.I.Y.L@M@7+N@O@u+G w+].].4.]@W+W+            ",
"                      % #.{@P@3@Q@R@S@T@-+u 4.s@:.U@y. @c.}.d+9@$.u+,+H+w+% E@4.*+D@V@          ",
"                      W@X@8.).}+>+Y Y@Z@E@E@]@].].J.`@C+:.M.>.,./.>+>+5+s@D+4.4.*+_+Y.          ",
"                      l+S+|@1./.5.D@D+w+]@E@*+% D+E@ #m+N+5..#>+/.>+,+K.}+H+E@E@` _+_.          ",
"                        +#b.M@u.L.V.>+&.@#% E@E@s@s@*+% D+D@G H W@'.9.P@% w+% W G S+            ",
"                          s+C++@+@!.Y N 8+5+;+` *+w+% w+s@D+}+##k.*+]@].w+].P@ .>.I.            ",
"                              b.<.<.M@O@(.N =+,+m+).k.H+% *+4.4.u 4.*+w+].s@-+c+I.              ",
"                                    <.b.+@u.Y+6+7.u+$#-+).}+].]@E@].w+w+}+l.!.3.I.              ",
"                                        <.~.M@|.(.%#N X &#*#8.w.P@P@).=#%.C@I.Y.                ",
"                                            ~.~.<.N@;._.c+|@=.N $.Y+2.C@I.B+                    ",
"                                                  <.U@U@-#j.-#v.-#7+7+<.:+                      ",
"                                                        l+C+I.B+[.:+                            ",
"                                                                                                ",
"                                                                                                "};
