/* XPM */
static char * icon_xpm[] = {
"32 32 179 2",
"  	c None",
". 	c #01021C",
"+ 	c #08051C",
"@ 	c #02031C",
"# 	c #010325",
"$ 	c #020433",
"% 	c #13091D",
"& 	c #07041C",
"* 	c #020538",
"= 	c #060C79",
"- 	c #060C75",
"; 	c #03052B",
"> 	c #05041C",
", 	c #01031F",
"' 	c #080E6E",
") 	c #05031C",
"! 	c #0D071D",
"~ 	c #04074F",
"{ 	c #070D7A",
"] 	c #0C127E",
"^ 	c #0A0E54",
"/ 	c #B74627",
"( 	c #0A0D49",
"_ 	c #111882",
": 	c #080C67",
"< 	c #0D147F",
"[ 	c #141A84",
"} 	c #1A2189",
"| 	c #0B0D3E",
"1 	c #07092F",
"2 	c #20278C",
"3 	c #0C137A",
"4 	c #02042B",
"5 	c #040738",
"6 	c #151B85",
"7 	c #1D248B",
"8 	c #252C92",
"9 	c #232A7F",
"0 	c #20256B",
"a 	c #2C3498",
"b 	c #080B41",
"c 	c #0C061D",
"d 	c #0F1352",
"e 	c #262E93",
"f 	c #2F389A",
"g 	c #3841A1",
"h 	c #1C2057",
"i 	c #161A48",
"j 	c #414AA8",
"k 	c #1A206C",
"l 	c #262D80",
"m 	c #3A43A3",
"n 	c #454EAB",
"o 	c #4D57B1",
"p 	c #0F1135",
"q 	c #454E99",
"r 	c #4E58B3",
"s 	c #37409D",
"t 	c #080B30",
"u 	c #111442",
"v 	c #505AB5",
"w 	c #5B66BD",
"x 	c #3E4583",
"y 	c #272C5B",
"z 	c #646FC5",
"A 	c #191D4E",
"B 	c #262C65",
"C 	c #6772C7",
"D 	c #717DCF",
"E 	c #2B305D",
"F 	c #15183B",
"G 	c #7380CD",
"H 	c #3E4589",
"I 	c #5059A3",
"J 	c #7D89D8",
"K 	c #8693E0",
"L 	c #8390D8",
"M 	c #6A75B3",
"N 	c #8A98E2",
"O 	c #6C77C7",
"P 	c #111437",
"Q 	c #1F234E",
"R 	c #7986D6",
"S 	c #919EE8",
"T 	c #98A6EE",
"U 	c #9BA9F0",
"V 	c #02021C",
"W 	c #97371C",
"X 	c #94361C",
"Y 	c #94361B",
"Z 	c #8F341B",
"` 	c #3E4578",
" .	c #8C9AE5",
"..	c #A1B0F6",
"+.	c #A5B4F9",
"@.	c #5F69A4",
"#.	c #04031C",
"$.	c #97381F",
"%.	c #AB4529",
"&.	c #B54B2F",
"*.	c #B04628",
"=.	c #A13C20",
"-.	c #8C331A",
";.	c #6873B0",
">.	c #ADBCFF",
",.	c #99A6ED",
"'.	c #181B3C",
").	c #250F1E",
"!.	c #B55338",
"~.	c #DB8E79",
"{.	c #DB866F",
"].	c #C65C40",
"^.	c #B74728",
"/.	c #802E16",
"(.	c #22264B",
"_.	c #4A5282",
":.	c #03031C",
"<.	c #A04027",
"[.	c #D2745A",
"}.	c #F6D6CE",
"|.	c #EDB7A8",
"1.	c #D26D53",
"2.	c #BC4C2D",
"3.	c #AD4123",
"4.	c #883118",
"5.	c #25294E",
"6.	c #A7452A",
"7.	c #D27256",
"8.	c #E2917C",
"9.	c #DF8A72",
"0.	c #CE684E",
"a.	c #BA4B2C",
"b.	c #AF4124",
"c.	c #8A3219",
"d.	c #722813",
"e.	c #8E9CE6",
"f.	c #22264C",
"g.	c #A33E23",
"h.	c #C05538",
"i.	c #C85F42",
"j.	c #BE5335",
"k.	c #B84728",
"l.	c #AA4023",
"m.	c #863018",
"n.	c #712813",
"o.	c #7F8BDA",
"p.	c #808DDB",
"q.	c #1F234A",
"r.	c #99391E",
"s.	c #AE4324",
"t.	c #B64627",
"u.	c #B34426",
"v.	c #9C3A1F",
"w.	c #7B2B15",
"x.	c #6B77CA",
"y.	c #707CCE",
"z.	c #95361D",
"A.	c #94371C",
"B.	c #A43D22",
"C.	c #A94023",
"D.	c #A73E23",
"E.	c #9B391E",
"F.	c #842F18",
"G.	c #722512",
"H.	c #873118",
"I.	c #832E17",
"J.	c #863118",
"K.	c #832E18",
"L.	c #7C2B15",
"M.	c #712613",
"N.	c #742813",
"O.	c #B64628",
"P.	c #0E071D",
"Q.	c #23298E",
"R.	c #242C91",
"S.	c #090C38",
"T.	c #0B0F50",
"U.	c #0C1051",
"V.	c #060936",
"                                                                ",
"                                                                ",
"                                                                ",
"    . . . . . . . . .                     + + @ . . . . . .     ",
"      . # $ $ $ $ $ . .                 % & $ $ $ $ $ # .       ",
"      . . * = = = - ; >                 . , ' = = = * ) !       ",
"        . . ~ = { ] ^ . .     /       & . ( _ ] { ~ . .         ",
"          . . : < [ } | . .           . 1 2 } [ 3 4 .           ",
"          @ + 5 6 7 8 9 . .         . . 0 a 8 7 b . &           ",
"            c . d e f g h . .     . . i j g f k . .             ",
"              . . l m n o p .     . . q r n s t .               ",
"          /   . . u n v w x . . . . y z w v A . .               ",
"        / /     . . B w C D E . . F G D C H . .                 ",
"      / /         . . I D J K L M N K J O P .                   ",
"    / / /         . . Q R K S T U T S K E V &   W X Y Z         ",
"    / /             . . `  .T ..+...T @.. #.  $.%.&.*.=.-.      ",
"  / / /               . . ;.U +.>.+.,.'.. ).$.!.~.{.].^.=./.    ",
"  / /                 . . (.T ..+..._.. :.  <.[.}.|.1.2.3.4.    ",
"  / / /                 . . S T U T 5.V     6.7.8.9.0.a.b.c.d.  ",
"  / / /                 . . K  .e. .f.V     g.h.i.i.j.k.l.m.n.  ",
"  / / / /               . . R o.p.o.q.      r.s.^.^.t.u.v.w.    ",
"    / / / /             . . x.y.        /   z.A.B.C.D.E.F.G.    ",
"      / / / / /                 / / / / / /   H.I.J.K.L.M.      ",
"        / / / / / / / / / / / / / / / / / /         N.          ",
"            / / / / / / / / / / / / /                           ",
"                  / / / / / O.        .                         ",
"                        P.+ Q.R.8 R.S..                         ",
"                        . . T.U.U.U.V..                         ",
"                        . . . . . . . .                         ",
"                        . . . . . . . .                         ",
"                                                                ",
"                                                                "};
